<?xml version="1.0" encoding="UTF-8"?>
<svg width="24px" height="24px" viewBox="0 0 24 24" version="1.1" xmlns="http://www.w3.org/2000/svg" xmlns:xlink="http://www.w3.org/1999/xlink">
    <!-- Generator: Sketch 47.1 (45422) - http://www.bohemiancoding.com/sketch -->
    <title>folders / ei-folder-business open</title>
    <desc>Created with Sketch.</desc>
    <defs>
        <path d="M9.81021636,13.9258442 L9.50545348,13.9258442 C9.460886,13.9258442 9.42483878,13.9402631 9.396001,13.9691009 C9.36716322,13.9979387 9.35274434,14.0339859 9.35274434,14.0785534 L9.35274434,14.3833162 C9.35274434,14.4278837 9.36781863,14.4639309 9.396001,14.4927687 C9.42418338,14.5216065 9.460886,14.5360254 9.50545348,14.5360254 L9.81021636,14.5360254 C9.85478383,14.5360254 9.89083106,14.5216065 9.92032424,14.4927687 C9.94981742,14.4639309 9.9629255,14.4278837 9.9629255,14.3833162 L9.9629255,14.0785534 C9.9629255,14.0339859 9.94850661,13.9979387 9.92032424,13.9691009 C9.89214186,13.9402631 9.85478383,13.9258442 9.81021636,13.9258442 Z M9.81021636,16.3632919 L9.50545348,16.3632919 C9.460886,16.3632919 9.42483878,16.3777108 9.396001,16.4058931 C9.36716322,16.4340755 9.35274434,16.4707781 9.35274434,16.5153456 L9.35274434,16.8201085 C9.35274434,16.864676 9.36781863,16.9007232 9.396001,16.9302164 C9.42418338,16.9597096 9.460886,16.9728176 9.50545348,16.9728176 L9.81021636,16.9728176 C9.85478383,16.9728176 9.89083106,16.9583987 9.92032424,16.9302164 C9.94981742,16.902034 9.9629255,16.864676 9.9629255,16.8201085 L9.9629255,16.5153456 C9.9629255,16.4707781 9.94850661,16.4347309 9.92032424,16.4058931 C9.89214186,16.3770554 9.85478383,16.3632919 9.81021636,16.3632919 Z M9.81021636,15.1442403 L9.50545348,15.1442403 C9.460886,15.1442403 9.42483878,15.1586592 9.396001,15.187497 C9.36716322,15.2163348 9.35274434,15.252382 9.35274434,15.2969495 L9.35274434,15.6017124 C9.35274434,15.6462798 9.36781863,15.6823271 9.396001,15.7111648 C9.42418338,15.7400026 9.460886,15.7544215 9.50545348,15.7544215 L9.81021636,15.7544215 C9.85478383,15.7544215 9.89083106,15.7400026 9.92032424,15.7111648 C9.94981742,15.6823271 9.9629255,15.6462798 9.9629255,15.6017124 L9.9629255,15.2969495 C9.9629255,15.252382 9.94850661,15.2163348 9.92032424,15.187497 C9.89214186,15.1586592 9.85478383,15.1442403 9.81021636,15.1442403 Z M9.81021636,11.4897074 L9.50545348,11.4897074 C9.460886,11.4897074 9.42483878,11.5041263 9.396001,11.5323086 C9.36716322,11.560491 9.35274434,11.5971937 9.35274434,11.6417611 L9.35274434,11.946524 C9.35274434,11.9910915 9.36781863,12.0271387 9.396001,12.0566319 C9.42418338,12.0861251 9.460886,12.0992331 9.50545348,12.0992331 L9.81021636,12.0992331 C9.85478383,12.0992331 9.89083106,12.0848143 9.92032424,12.0566319 C9.94981742,12.0284495 9.9629255,11.9910915 9.9629255,11.946524 L9.9629255,11.6417611 C9.9629255,11.5971937 9.94850661,11.5611464 9.92032424,11.5323086 C9.89214186,11.5034709 9.85478383,11.4897074 9.81021636,11.4897074 L9.81021636,11.4897074 Z M9.81021636,12.7074481 L9.50545348,12.7074481 C9.460886,12.7074481 9.42483878,12.721867 9.396001,12.7500494 C9.36716322,12.7782317 9.35274434,12.8155898 9.35274434,12.8601572 L9.35274434,13.1642647 C9.35274434,13.2094876 9.36781863,13.2455348 9.396001,13.2743726 C9.42418338,13.3032104 9.460886,13.3169739 9.50545348,13.3169739 L9.81021636,13.3169739 C9.85478383,13.3169739 9.89083106,13.302555 9.92032424,13.2743726 C9.94981742,13.2461902 9.9629255,13.2094876 9.9629255,13.1642647 L9.9629255,12.8601572 C9.9629255,12.8155898 9.94850661,12.7795425 9.92032424,12.7500494 C9.89214186,12.7205562 9.85478383,12.7074481 9.81021636,12.7074481 Z M14.8358546,18.4946658 C14.8358546,18.5772467 14.805706,18.6486858 14.7454088,18.7089829 C14.6851117,18.7692801 14.614328,18.7994287 14.5310917,18.7994287 L8.4391111,18.7994287 C8.35653019,18.7994287 8.28509114,18.7692801 8.22479397,18.7089829 C8.1644968,18.6486858 8.13434821,18.5779021 8.13434821,18.4946658 L8.13434821,10.5747633 C8.13434821,10.4921824 8.1644968,10.4213988 8.22479397,10.3604462 C8.28509114,10.2994936 8.35587478,10.2700005 8.4391111,10.2700005 L14.5310917,10.2700005 C14.6136726,10.2700005 14.6851117,10.300149 14.7454088,10.3604462 C14.805706,10.4207434 14.8358546,10.491527 14.8358546,10.5747633 L14.8358546,18.4946658 Z M12.2463532,16.9721622 L10.7238496,16.9721622 C10.6786267,16.9721622 10.6425795,16.9865811 10.6137417,17.0147635 C10.5849039,17.0429459 10.5711405,17.0803039 10.5711405,17.1248714 L10.5711405,18.0385046 C10.5711405,18.0830721 10.5855593,18.1197747 10.6137417,18.1486125 C10.6419241,18.1774503 10.6786267,18.1912138 10.7238496,18.1912138 L12.2463532,18.1912138 C12.2915761,18.1912138 12.3276233,18.1767949 12.3564611,18.1486125 C12.3852989,18.1204301 12.3990623,18.0830721 12.3990623,18.0385046 L12.3990623,17.1248714 C12.3990623,17.0803039 12.3846435,17.0442567 12.3564611,17.0147635 C12.3282787,16.9852703 12.2915761,16.9721622 12.2463532,16.9721622 Z M10.724505,12.0979223 L11.0286125,12.0979223 C11.07318,12.0979223 11.1092272,12.0835035 11.1387204,12.0553211 C11.1682135,12.0271387 11.1813216,11.9897807 11.1813216,11.9452132 L11.1813216,11.6404503 C11.1813216,11.5958828 11.1669027,11.5598356 11.1387204,11.5309978 C11.110538,11.5021601 11.07318,11.4883966 11.0286125,11.4883966 L10.724505,11.4883966 C10.6792821,11.4883966 10.6432349,11.5028155 10.6143971,11.5309978 C10.5855593,11.5591802 10.5717959,11.5958828 10.5717959,11.6404503 L10.5717959,11.9452132 C10.5717959,11.9897807 10.5862147,12.0258279 10.6143971,12.0553211 C10.6425795,12.0848143 10.6792821,12.0979223 10.724505,12.0979223 Z M10.724505,15.7537661 L11.0286125,15.7537661 C11.07318,15.7537661 11.1092272,15.7393472 11.1387204,15.7105094 C11.1682135,15.6816717 11.1813216,15.6456244 11.1813216,15.601057 L11.1813216,15.2962941 C11.1813216,15.2517266 11.1669027,15.2156794 11.1387204,15.1868416 C11.110538,15.1580038 11.07318,15.1435849 11.0286125,15.1435849 L10.724505,15.1435849 C10.6792821,15.1435849 10.6432349,15.1580038 10.6143971,15.1868416 C10.5855593,15.2156794 10.5717959,15.2517266 10.5717959,15.2962941 L10.5717959,15.601057 C10.5717959,15.6456244 10.5862147,15.6816717 10.6143971,15.7105094 C10.6425795,15.7393472 10.6792821,15.7537661 10.724505,15.7537661 Z M10.724505,14.53537 L11.0286125,14.53537 C11.07318,14.53537 11.1092272,14.5209511 11.1387204,14.4921133 C11.1682135,14.4632755 11.1813216,14.4272283 11.1813216,14.3826608 L11.1813216,14.077898 C11.1813216,14.0333305 11.1669027,13.9972833 11.1387204,13.9684455 C11.110538,13.9396077 11.07318,13.9251888 11.0286125,13.9251888 L10.724505,13.9251888 C10.6792821,13.9251888 10.6432349,13.9396077 10.6143971,13.9684455 C10.5855593,13.9972833 10.5717959,14.0333305 10.5717959,14.077898 L10.5717959,14.3826608 C10.5717959,14.4272283 10.5862147,14.4632755 10.6143971,14.4921133 C10.6425795,14.5209511 10.6792821,14.53537 10.724505,14.53537 Z M10.724505,13.3163185 L11.0286125,13.3163185 C11.07318,13.3163185 11.1092272,13.3018996 11.1387204,13.2737172 C11.1682135,13.2455348 11.1813216,13.2088322 11.1813216,13.1636093 L11.1813216,12.8595018 C11.1813216,12.8149344 11.1669027,12.7788871 11.1387204,12.749394 C11.110538,12.7199008 11.07318,12.7067927 11.0286125,12.7067927 L10.724505,12.7067927 C10.6792821,12.7067927 10.6432349,12.7212116 10.6143971,12.749394 C10.5855593,12.7775763 10.5717959,12.8149344 10.5717959,12.8595018 L10.5717959,13.1636093 C10.5717959,13.2088322 10.5862147,13.2448794 10.6143971,13.2737172 C10.6425795,13.302555 10.6792821,13.3163185 10.724505,13.3163185 Z M12.2463532,15.1442403 L11.9422457,15.1442403 C11.8976782,15.1442403 11.861631,15.1586592 11.8321378,15.187497 C11.8026447,15.2163348 11.7895366,15.252382 11.7895366,15.2969495 L11.7895366,15.6017124 C11.7895366,15.6462798 11.8039555,15.6823271 11.8321378,15.7111648 C11.8603202,15.7400026 11.8976782,15.7544215 11.9422457,15.7544215 L12.2463532,15.7544215 C12.2915761,15.7544215 12.3276233,15.7400026 12.3564611,15.7111648 C12.3852989,15.6823271 12.3990623,15.6462798 12.3990623,15.6017124 L12.3990623,15.2969495 C12.3990623,15.252382 12.3846435,15.2163348 12.3564611,15.187497 C12.3282787,15.1586592 12.2915761,15.1442403 12.2463532,15.1442403 Z M13.4654047,13.9258442 L13.1606418,13.9258442 C13.1160744,13.9258442 13.0800271,13.9402631 13.0511894,13.9691009 C13.0223516,13.9979387 13.0079327,14.0339859 13.0079327,14.0785534 L13.0079327,14.3833162 C13.0079327,14.4278837 13.0223516,14.4639309 13.0511894,14.4927687 C13.0800271,14.5216065 13.1160744,14.5360254 13.1606418,14.5360254 L13.4654047,14.5360254 C13.5099722,14.5360254 13.5460194,14.5216065 13.5748572,14.4927687 C13.603695,14.4639309 13.6181139,14.4278837 13.6181139,14.3833162 L13.6181139,14.0785534 C13.6181139,14.0339859 13.603695,13.9979387 13.5748572,13.9691009 C13.5460194,13.9402631 13.5099722,13.9258442 13.4654047,13.9258442 Z M13.4654047,15.1442403 L13.1606418,15.1442403 C13.1160744,15.1442403 13.0800271,15.1586592 13.0511894,15.187497 C13.0223516,15.2163348 13.0079327,15.252382 13.0079327,15.2969495 L13.0079327,15.6017124 C13.0079327,15.6462798 13.0223516,15.6823271 13.0511894,15.7111648 C13.0800271,15.7400026 13.1160744,15.7544215 13.1606418,15.7544215 L13.4654047,15.7544215 C13.5099722,15.7544215 13.5460194,15.7400026 13.5748572,15.7111648 C13.603695,15.6823271 13.6181139,15.6462798 13.6181139,15.6017124 L13.6181139,15.2969495 C13.6181139,15.252382 13.603695,15.2163348 13.5748572,15.187497 C13.5460194,15.1586592 13.5099722,15.1442403 13.4654047,15.1442403 Z M13.4654047,11.4897074 L13.1606418,11.4897074 C13.1160744,11.4897074 13.0800271,11.5041263 13.0511894,11.5323086 C13.0223516,11.560491 13.0079327,11.5971937 13.0079327,11.6417611 L13.0079327,11.946524 C13.0079327,11.9910915 13.0223516,12.0271387 13.0511894,12.0566319 C13.0800271,12.0861251 13.1160744,12.0992331 13.1606418,12.0992331 L13.4654047,12.0992331 C13.5099722,12.0992331 13.5460194,12.0848143 13.5748572,12.0566319 C13.603695,12.0284495 13.6181139,11.9910915 13.6181139,11.946524 L13.6181139,11.6417611 C13.6181139,11.5971937 13.603695,11.5611464 13.5748572,11.5323086 C13.5460194,11.5034709 13.5099722,11.4897074 13.4654047,11.4897074 L13.4654047,11.4897074 Z M13.4654047,12.7074481 L13.1606418,12.7074481 C13.1160744,12.7074481 13.0800271,12.721867 13.0511894,12.7500494 C13.0223516,12.7782317 13.0079327,12.8155898 13.0079327,12.8601572 L13.0079327,13.1642647 C13.0079327,13.2094876 13.0223516,13.2455348 13.0511894,13.2743726 C13.0800271,13.3032104 13.1160744,13.3169739 13.1606418,13.3169739 L13.4654047,13.3169739 C13.5099722,13.3169739 13.5460194,13.302555 13.5748572,13.2743726 C13.603695,13.2461902 13.6181139,13.2094876 13.6181139,13.1642647 L13.6181139,12.8601572 C13.6181139,12.8155898 13.603695,12.7795425 13.5748572,12.7500494 C13.5460194,12.7205562 13.5099722,12.7074481 13.4654047,12.7074481 Z M13.4654047,16.3632919 L13.1606418,16.3632919 C13.1160744,16.3632919 13.0800271,16.3777108 13.0511894,16.4058931 C13.0223516,16.4340755 13.0079327,16.4707781 13.0079327,16.5153456 L13.0079327,16.8201085 C13.0079327,16.864676 13.0223516,16.9007232 13.0511894,16.9302164 C13.0800271,16.9597096 13.1160744,16.9728176 13.1606418,16.9728176 L13.4654047,16.9728176 C13.5099722,16.9728176 13.5460194,16.9583987 13.5748572,16.9302164 C13.603695,16.902034 13.6181139,16.864676 13.6181139,16.8201085 L13.6181139,16.5153456 C13.6181139,16.4707781 13.603695,16.4347309 13.5748572,16.4058931 C13.5460194,16.3770554 13.5099722,16.3632919 13.4654047,16.3632919 Z M12.2463532,13.9258442 L11.9422457,13.9258442 C11.8976782,13.9258442 11.861631,13.9402631 11.8321378,13.9691009 C11.8026447,13.9979387 11.7895366,14.0339859 11.7895366,14.0785534 L11.7895366,14.3833162 C11.7895366,14.4278837 11.8039555,14.4639309 11.8321378,14.4927687 C11.8603202,14.5216065 11.8976782,14.5360254 11.9422457,14.5360254 L12.2463532,14.5360254 C12.2915761,14.5360254 12.3276233,14.5216065 12.3564611,14.4927687 C12.3852989,14.4639309 12.3990623,14.4278837 12.3990623,14.3833162 L12.3990623,14.0785534 C12.3990623,14.0339859 12.3846435,13.9979387 12.3564611,13.9691009 C12.3282787,13.9402631 12.2915761,13.9258442 12.2463532,13.9258442 Z M12.2463532,12.7074481 L11.9422457,12.7074481 C11.8976782,12.7074481 11.861631,12.721867 11.8321378,12.7500494 C11.8026447,12.7782317 11.7895366,12.8155898 11.7895366,12.8601572 L11.7895366,13.1642647 C11.7895366,13.2094876 11.8039555,13.2455348 11.8321378,13.2743726 C11.8603202,13.3032104 11.8976782,13.3169739 11.9422457,13.3169739 L12.2463532,13.3169739 C12.2915761,13.3169739 12.3276233,13.302555 12.3564611,13.2743726 C12.3852989,13.2461902 12.3990623,13.2094876 12.3990623,13.1642647 L12.3990623,12.8601572 C12.3990623,12.8155898 12.3846435,12.7795425 12.3564611,12.7500494 C12.3282787,12.7205562 12.2915761,12.7074481 12.2463532,12.7074481 Z M12.2463532,11.4897074 L11.9422457,11.4897074 C11.8976782,11.4897074 11.861631,11.5041263 11.8321378,11.5323086 C11.8026447,11.560491 11.7895366,11.5971937 11.7895366,11.6417611 L11.7895366,11.946524 C11.7895366,11.9910915 11.8039555,12.0271387 11.8321378,12.0566319 C11.8603202,12.0861251 11.8976782,12.0992331 11.9422457,12.0992331 L12.2463532,12.0992331 C12.2915761,12.0992331 12.3276233,12.0848143 12.3564611,12.0566319 C12.3852989,12.0284495 12.3990623,11.9910915 12.3990623,11.946524 L12.3990623,11.6417611 C12.3990623,11.5971937 12.3846435,11.5611464 12.3564611,11.5323086 C12.3282787,11.5034709 12.2915761,11.4897074 12.2463532,11.4897074 L12.2463532,11.4897074 Z" id="path-1"></path>
    </defs>
    <g id="Page-1" stroke="none" stroke-width="1" fill="none" fill-rule="evenodd">
        <g id="folders-/-ei-folder-business-open">
            <g id="Group-4" transform="translate(0.000000, 3.000000)">
                <path d="M20.9491259,4.72144553 L21.486083,4.72144553 C21.9007896,4.72144553 22.213508,5.07833537 22.1817634,5.49200315 L21.3557274,16.1669299 C21.3239827,16.5792458 20.9585817,16.8550243 20.5438752,16.8550243 L2.20965838,16.8550243 C1.79495184,16.8550243 1.4295508,16.5549124 1.39780616,16.1412446 L0.57244558,5.52377175 C0.540025525,5.11010398 0.852743977,4.72144553 1.26745052,4.72144553 L1.16681326,4.72144553 L1.16681326,1.15863044 C1.16681326,0.630054949 1.68553415,0.250859489 2.20965838,0.250859489 L8.25802498,0.250859489 C8.65787233,0.250859489 9.12998939,0.554351042 9.31032594,0.911240886 L9.57171264,1.44116823 C9.76623297,1.82644704 10.2761734,2.16711462 10.70709,2.16711462 L19.9528846,2.16711462 C20.5654885,2.16711462 20.9491259,2.59294909 20.9491259,3.0586633 L20.9491259,4.72144553 Z M19.6725862,4.65412543 L19.6725862,4.18976308 C19.6725862,3.77474345 19.2511254,3.37662201 18.8364189,3.37662201 L3.27681854,3.37662201 C2.862112,3.37662201 2.44267753,3.77474345 2.44267753,4.18976308 L2.44267753,4.65412543 L19.6725862,4.65412543 Z" id="Combined-Shape" fill="#3895DF" fill-rule="nonzero"></path>
                <path d="M1.01682082,4.70539617 L21.5077977,4.70539617 L21.5077977,4.70539617 C22.0600825,4.70539617 22.5077977,5.15311142 22.5077977,5.70539617 C22.5077977,5.72786332 22.5070406,5.75032409 22.5055275,5.77274023 L21.7424266,17.0783923 C21.7135574,17.5061007 21.6611912,17.6586396 21.5704719,17.811592 C21.4797526,17.9645445 21.3530369,18.0829955 21.1943223,18.1632084 C21.0356077,18.2434213 20.8798886,18.2853961 20.451207,18.2853961 L2.10320845,18.2853961 C1.67517702,18.2853961 1.51968663,18.2435864 1.3611403,18.1636348 C1.20259398,18.0836832 1.07593305,17.9655896 0.985091268,17.8130217 C0.894249485,17.6604538 0.841670005,17.5082673 0.811741281,17.0812835 L0.0192683478,5.77531796 L0.0192683478,5.77531796 C-0.0193483899,5.22438494 0.395966016,4.74646043 0.946899035,4.70784369 C0.970170615,4.70621251 0.993492148,4.70539617 1.01682082,4.70539617 Z" id="Rectangle-3-Copy" fill="#66AFE9"></path>
            </g>
            <mask id="mask-2" fill="white">
                <use xlink:href="#path-1"></use>
            </mask>
            <use id="Shape" fill="#FFFFFF" fill-rule="nonzero" xlink:href="#path-1"></use>
        </g>
    </g>
</svg>