<?xml version="1.0" encoding="UTF-8"?>
<svg width="24px" height="24px" viewBox="0 0 24 24" version="1.1" xmlns="http://www.w3.org/2000/svg" xmlns:xlink="http://www.w3.org/1999/xlink">
    <!-- Generator: Sketch 47.1 (45422) - http://www.bohemiancoding.com/sketch -->
    <title>folders / ei-folder-medical open</title>
    <desc>Created with Sketch.</desc>
    <defs></defs>
    <g id="Page-1" stroke="none" stroke-width="1" fill="none" fill-rule="evenodd">
        <g id="folders-/-ei-folder-medical-open">
            <g id="Group-4" transform="translate(0.000000, 3.000000)">
                <path d="M20.9491259,4.72144553 L21.486083,4.72144553 C21.9007896,4.72144553 22.213508,5.07833537 22.1817634,5.49200315 L21.3557274,16.1669299 C21.3239827,16.5792458 20.9585817,16.8550243 20.5438752,16.8550243 L2.20965838,16.8550243 C1.79495184,16.8550243 1.4295508,16.5549124 1.39780616,16.1412446 L0.57244558,5.52377175 C0.540025525,5.11010398 0.852743977,4.72144553 1.26745052,4.72144553 L1.16681326,4.72144553 L1.16681326,1.15863044 C1.16681326,0.630054949 1.68553415,0.250859489 2.20965838,0.250859489 L8.25802498,0.250859489 C8.65787233,0.250859489 9.12998939,0.554351042 9.31032594,0.911240886 L9.57171264,1.44116823 C9.76623297,1.82644704 10.2761734,2.16711462 10.70709,2.16711462 L19.9528846,2.16711462 C20.5654885,2.16711462 20.9491259,2.59294909 20.9491259,3.0586633 L20.9491259,4.72144553 Z M19.6725862,4.65412543 L19.6725862,4.18976308 C19.6725862,3.77474345 19.2511254,3.37662201 18.8364189,3.37662201 L3.27681854,3.37662201 C2.862112,3.37662201 2.44267753,3.77474345 2.44267753,4.18976308 L2.44267753,4.65412543 L19.6725862,4.65412543 Z" id="Combined-Shape" fill="#3895DF" fill-rule="nonzero"></path>
                <path d="M1.01682082,4.70539617 L21.5077977,4.70539617 L21.5077977,4.70539617 C22.0600825,4.70539617 22.5077977,5.15311142 22.5077977,5.70539617 C22.5077977,5.72786332 22.5070406,5.75032409 22.5055275,5.77274023 L21.7424266,17.0783923 C21.7135574,17.5061007 21.6611912,17.6586396 21.5704719,17.811592 C21.4797526,17.9645445 21.3530369,18.0829955 21.1943223,18.1632084 C21.0356077,18.2434213 20.8798886,18.2853961 20.451207,18.2853961 L2.10320845,18.2853961 C1.67517702,18.2853961 1.51968663,18.2435864 1.3611403,18.1636348 C1.20259398,18.0836832 1.07593305,17.9655896 0.985091268,17.8130217 C0.894249485,17.6604538 0.841670005,17.5082673 0.811741281,17.0812835 L0.0192683478,5.77531796 L0.0192683478,5.77531796 C-0.0193483899,5.22438494 0.395966016,4.74646043 0.946899035,4.70784369 C0.970170615,4.70621251 0.993492148,4.70539617 1.01682082,4.70539617 Z" id="Rectangle-3-Copy" fill="#66AFE9"></path>
            </g>
            <g id="Group" transform="translate(6.200000, 9.700000)">
                <path d="M1.97435469,8.74807865 L1.80495199,8.74807865 C1.47989885,8.74807865 1.20047816,8.63180964 0.967940142,8.39864651 C0.735402123,8.16548339 0.618508011,7.88606271 0.618508011,7.56163467 L0.618508011,3.15403904 C0.618508011,2.8289859 0.734777021,2.54956521 0.967940142,2.3170272 C1.20110326,2.08448918 1.47989885,1.96759506 1.80495199,1.96759506 L1.97435469,1.96759506 L1.97435469,8.74870375 L1.97435469,8.74807865 Z" id="Path" fill="#FFFFFF"></path>
                <path d="M8.24725528,8.74807865 L2.48256278,8.74807865 L2.48256278,1.96696996 L3.33020136,1.96696996 L3.33020136,1.11933138 C3.33020136,0.97805828 3.37958444,0.858038657 3.47835058,0.759272509 C3.57711673,0.660506361 3.69713635,0.610498185 3.83903455,0.610498185 L6.8901584,0.610498185 C7.0314315,0.610498185 7.15207622,0.660506361 7.25084237,0.759272509 C7.34960852,0.858038657 7.39899159,0.97805828 7.39899159,1.11933138 L7.39899159,1.96696996 L8.24663018,1.96696996 L8.24663018,8.74807865 L8.24725528,8.74807865 Z" id="Path" fill="#FFFFFF"></path>
                <polygon id="Path" fill="#66AFE9" points="4.00906235 1.28873407 6.72200591 1.28873407 6.72200591 1.96696996 4.00906235 1.96696996"></polygon>
                <path d="M7.230214,4.67928842 L6.04377002,4.67928842 L6.04377002,3.49284444 C6.04377002,3.44346136 6.02814246,3.40282972 5.99626225,3.37094951 C5.96438204,3.33906929 5.92312529,3.32344174 5.87436732,3.32344174 L4.85670094,3.32344174 C4.80731786,3.32344174 4.76668622,3.33906929 4.73480601,3.37094951 C4.7029258,3.40282972 4.68729824,3.44346136 4.68729824,3.49284444 L4.68729824,4.67928842 L3.50085426,4.67928842 C3.45147119,4.67928842 3.41083955,4.69491597 3.37895933,4.72679618 C3.34707912,4.75867639 3.33145157,4.79993314 3.33145157,4.84931621 L3.33145157,5.86573239 C3.33145157,5.91574057 3.34707912,5.95574711 3.37895933,5.98825243 C3.41083955,6.02075774 3.45147119,6.03576019 3.50085426,6.03576019 L4.68729824,6.03576019 L4.68729824,7.22220417 C4.68729824,7.27158724 4.7029258,7.31221889 4.73480601,7.3440991 C4.76668622,7.37597931 4.80731786,7.39160687 4.85670094,7.39160687 L5.87436732,7.39160687 C5.92312529,7.39160687 5.96438204,7.37597931 5.99626225,7.3440991 C6.02814246,7.31221889 6.04377002,7.27158724 6.04377002,7.22220417 L6.04377002,6.03576019 L7.230214,6.03576019 C7.27959707,6.03576019 7.32022871,6.02013264 7.35210893,5.98825243 C7.38398914,5.95637221 7.39961669,5.91574057 7.39961669,5.86573239 L7.39961669,4.84931621 C7.39961669,4.79993314 7.38398914,4.75867639 7.35210893,4.72679618 C7.32022871,4.69491597 7.27959707,4.67928842 7.230214,4.67928842 Z" id="Path" fill="#66AFE9"></path>
                <path d="M10.11131,7.56163467 C10.11131,7.88668781 9.99504103,8.1661085 9.76187791,8.39864651 C9.52871479,8.63118453 9.24991921,8.74807865 8.92486607,8.74807865 L8.75546337,8.74807865 L8.75546337,1.96696996 L8.92486607,1.96696996 C9.24991921,1.96696996 9.52933989,2.08323897 9.76187791,2.31640209 C9.99441593,2.54956521 10.11131,2.8289859 10.11131,3.15341394 L10.11131,7.56100956 L10.11131,7.56163467 Z" id="Path" fill="#FFFFFF"></path>
            </g>
        </g>
    </g>
</svg>