<?xml version="1.0" encoding="UTF-8"?>
<svg width="24px" height="24px" viewBox="0 0 24 24" version="1.1" xmlns="http://www.w3.org/2000/svg" xmlns:xlink="http://www.w3.org/1999/xlink">
    <!-- Generator: Sketch 47.1 (45422) - http://www.bohemiancoding.com/sketch -->
    <title>folders / ei-folder-dropbox</title>
    <desc>Created with Sketch.</desc>
    <defs>
        <path d="M14.5299775,12.4444597 L16.4109264,13.9517247 L13.6957109,15.7225495 L11.7940281,14.139288 L9.89455659,15.7225495 L7.16901988,13.9318195 L9.05485242,12.4448281 L11.7940276,14.1387528 L14.5289217,12.4444598 L11.7936593,10.7528868 L13.6957109,9.16931828 L16.4109264,10.9394058 L14.5299775,12.4444597 Z M9.89381936,9.16931828 L11.7936593,10.7528868 L9.05411519,12.4448281 L7.16828265,10.9231868 L9.89381936,9.16931828 Z M9.89381936,16.4907424 L11.7988199,14.9071739 L13.7052948,16.4907424 L14.5199332,15.9592001 L14.5199332,16.5563558 L11.7988199,18.1893187 L9.07402039,16.5563558 L9.07402039,15.9592001 L9.89381936,16.4907424 Z" id="path-1"></path>
    </defs>
    <g id="Page-1" stroke="none" stroke-width="1" fill="none" fill-rule="evenodd">
        <g id="folders-/-ei-folder-dropbox">
            <path d="M1.00902936,5.625567 L1.00902936,3.98344973 C1.00902936,3.41080811 1.55737615,3 2.11143487,3 L8.50524405,3 C8.92792803,3 9.42700928,3.32879295 9.61764547,3.71543588 L9.89396084,4.28954205 C10.0995909,4.70694067 10.6386558,5.07600892 11.0941834,5.07600892 L20.8680364,5.07600892 C21.5156283,5.07600892 21.9211764,5.53734423 21.9211764,6.04188397 L21.9211764,7.84328853 L21.9249932,7.84328853 L21.9249932,19.5191923 L21.9390222,19.5191923 L21.8532213,20.2429566 C21.8196636,20.6896464 21.4333933,20.9884159 20.9950015,20.9884159 L1.89810102,20.9884159 C1.45970919,20.9884159 1.07343886,20.6632844 1.03988118,20.21513 L1,19.5191923 L1.01827516,19.5191923 L1.01827516,7.85028997 C1.04996965,7.8456785 1.08238602,7.84328853 1.11541435,7.84328853 L1.01827516,7.84328853 L1.01827516,5.625567 L1.00902936,5.625567 Z" id="Combined-Shape-Copy" fill="#3895DF" fill-rule="nonzero"></path>
            <rect id="Rectangle-3-Copy-2" fill="#66AFE9" x="1" y="6" width="20.9400005" height="14.9495225" rx="1"></rect>
            <mask id="mask-2" fill="white">
                <use xlink:href="#path-1"></use>
            </mask>
            <use id="Shape" fill="#FFFFFF" fill-rule="nonzero" xlink:href="#path-1"></use>
        </g>
    </g>
</svg>