<?xml version="1.0" encoding="UTF-8"?>
<svg width="24px" height="24px" viewBox="0 0 24 24" version="1.1" xmlns="http://www.w3.org/2000/svg" xmlns:xlink="http://www.w3.org/1999/xlink">
    <!-- Generator: Sketch 47.1 (45422) - http://www.bohemiancoding.com/sketch -->
    <title>folders / ei-folder-docupace</title>
    <desc>Created with Sketch.</desc>
    <defs></defs>
    <g id="Page-1" stroke="none" stroke-width="1" fill="none" fill-rule="evenodd">
        <g id="folders-/-ei-folder-docupace">
            <path d="M1.00902936,5.625567 L1.00902936,3.98344973 C1.00902936,3.41080811 1.55737615,3 2.11143487,3 L8.50524405,3 C8.92792803,3 9.42700928,3.32879295 9.61764547,3.71543588 L9.89396084,4.28954205 C10.0995909,4.70694067 10.6386558,5.07600892 11.0941834,5.07600892 L20.8680364,5.07600892 C21.5156283,5.07600892 21.9211764,5.53734423 21.9211764,6.04188397 L21.9211764,7.84328853 L21.9249932,7.84328853 L21.9249932,19.5191923 L21.9390222,19.5191923 L21.8532213,20.2429566 C21.8196636,20.6896464 21.4333933,20.9884159 20.9950015,20.9884159 L1.89810102,20.9884159 C1.45970919,20.9884159 1.07343886,20.6632844 1.03988118,20.21513 L1,19.5191923 L1.01827516,19.5191923 L1.01827516,7.85028997 C1.04996965,7.8456785 1.08238602,7.84328853 1.11541435,7.84328853 L1.01827516,7.84328853 L1.01827516,5.625567 L1.00902936,5.625567 Z" id="Combined-Shape-Copy" fill="#3895DF" fill-rule="nonzero"></path>
            <rect id="Rectangle-3-Copy-2" fill="#66AFE9" x="1" y="6" width="20.9400005" height="14.9495225" rx="1"></rect>
            <path d="M5.31815968,17.7903784 C5.31815968,17.7903784 13.0434178,17.7903784 15.2324993,13.6661076 C15.2324993,13.6661076 12.8640696,17.1748376 6.24368502,16.3917575 C6.24368502,16.3917575 12.3400481,16.0972722 13.9047321,13.1841554 C15.2959723,10.5286209 10.8270282,9.13000011 10.8270282,9.13000011 C10.8270282,9.13000011 17.2112341,9.69461485 17.2112341,13.3125775 C17.2112341,16.9305402 8.43940901,18.7395216 5.31742163,17.7896403 L5.31815968,17.7903784 Z M8.68296831,15.8655218 L10.8277663,9.67542533 L11.6898186,9.99648077 L8.68296831,15.8655218 Z" id="Combined-Shape" fill="#FFFFFF"></path>
        </g>
    </g>
</svg>