<?xml version="1.0" encoding="UTF-8"?>
<svg width="38px" height="38px" viewBox="0 0 38 38" version="1.1" xmlns="http://www.w3.org/2000/svg" xmlns:xlink="http://www.w3.org/1999/xlink">
    <!-- Generator: Sketch 47.1 (45422) - http://www.bohemiancoding.com/sketch -->
    <title>folders / ei-folder-document-v3-open</title>
    <desc>Created with Sketch.</desc>
    <defs>
        <path d="M24.7749718,28.0973455 C24.7749718,28.283767 24.7086673,28.4432823 24.578941,28.5739696 C24.4492146,28.7046568 24.2887384,28.7700005 24.1013559,28.7700005 L14.6736159,28.7700005 C14.4862335,28.7700005 14.3276791,28.7046568 14.1960309,28.5739696 C14.0643827,28.4432823 14,28.283767 14,28.0973455 L14,16.8736167 C14,16.6862342 14.0653436,16.5276798 14.1960309,16.3960316 C14.3267181,16.2643835 14.4862335,16.2000008 14.6736159,16.2000008 L20.2854803,16.2000008 L20.2854803,20.0158764 C20.2854803,20.2032588 20.3508239,20.3618132 20.4815112,20.4934614 C20.6121984,20.6251096 20.7717138,20.6894923 20.9581353,20.6894923 L24.7749718,20.6894923 L24.7749718,28.0973455 Z M21.1829942,19.7919784 L21.1829942,16.480594 C21.2848534,16.5468985 21.3694158,16.6112812 21.4357203,16.6766249 L24.2973868,19.5392523 C24.3636914,19.6045959 24.4280741,19.6881973 24.4934177,19.7919784 L21.1829942,19.7919784 L21.1829942,19.7919784 Z M21.8556492,23.382995 L16.9174007,23.382995 C16.8510962,23.382995 16.7982447,23.4050965 16.7559635,23.4464168 C16.7136824,23.487737 16.6935027,23.5425103 16.6935027,23.607854 L16.6935027,24.0566109 C16.6935027,24.1229155 16.7146433,24.1757669 16.7559635,24.2180481 C16.7972838,24.2603293 16.8520571,24.2814699 16.9174007,24.2814699 L21.8556492,24.2814699 C21.9219538,24.2814699 21.9748052,24.2603293 22.0170864,24.2180481 C22.0593676,24.1757669 22.0795472,24.1229155 22.0795472,24.0566109 L22.0795472,23.607854 C22.0795472,23.5415494 22.0584067,23.4886979 22.0170864,23.4464168 C21.9757662,23.4041356 21.9209929,23.382995 21.8556492,23.382995 Z M16.7559635,21.6513889 C16.7146433,21.6927091 16.6935027,21.7474825 16.6935027,21.8128261 L16.6935027,22.2615831 C16.6935027,22.3278876 16.7146433,22.3807391 16.7559635,22.4230203 C16.7972838,22.4653014 16.8520571,22.486442 16.9174007,22.486442 L21.8556492,22.486442 C21.9219538,22.486442 21.9748052,22.4643405 22.0170864,22.4230203 C22.0593676,22.3817 22.0795472,22.3269267 22.0795472,22.2615831 L22.0795472,21.8128261 C22.0795472,21.7474825 22.0584067,21.6936701 22.0170864,21.6513889 C21.9757662,21.6091077 21.9209929,21.5879671 21.8556492,21.5879671 L16.9174007,21.5879671 C16.8510962,21.5879671 16.7982447,21.6091077 16.7559635,21.6513889 Z M21.8556492,25.1789838 L16.9174007,25.1789838 C16.8510962,25.1789838 16.7982447,25.2001244 16.7559635,25.2424056 C16.7136824,25.2846867 16.6935027,25.3384991 16.6935027,25.4038428 L16.6935027,25.8535607 C16.6935027,25.9189043 16.7146433,25.9717557 16.7559635,26.0149978 C16.7972838,26.05824 16.8520571,26.0784196 16.9174007,26.0784196 L21.8556492,26.0784196 C21.9219538,26.0784196 21.9748052,26.057279 22.0170864,26.0149978 C22.0593676,25.9727167 22.0795472,25.9189043 22.0795472,25.8535607 L22.0795472,25.4038428 C22.0795472,25.3384991 22.0584067,25.2846867 22.0170864,25.2424056 C21.9757662,25.2001244 21.9209929,25.1789838 21.8556492,25.1789838 Z" id="path-1"></path>
    </defs>
    <g id="drag-to-move-1A-hover" stroke="none" stroke-width="1" fill="none" fill-rule="evenodd">
        <g id="folders-/-ei-folder-document-v3-open">
            <path d="M35.1420108,12.3476925 L34.2911844,12.3476925 L34.2911844,9.61480414 C34.2911844,8.84937322 33.6832984,8.14948718 32.7126071,8.14948718 L18.0623396,8.14948718 C17.379538,8.14948718 16.5715205,7.58957835 16.2632966,6.95634812 L15.8491207,6.08537883 C15.5633715,5.49880767 14.8152863,5 14.181715,5 L4.59787789,5 C3.7673857,5 2.94545528,5.62323185 2.94545528,6.49197929 L2.94545528,12.3476925 L3.10491834,12.3476925 C2.4478021,12.3476925 1.95228936,12.9864774 2.00366001,13.6663667 L3.31147117,31.1168586 C3.3617716,31.7967479 3.94076164,32.2900009 4.59787789,32.2900009 L33.6490513,32.2900009 C34.3061675,32.2900009 34.8851576,31.8367414 34.935458,31.1590739 L36.2443394,13.6141529 C36.2946398,12.9342636 35.7991271,12.3476925 35.1420108,12.3476925 L35.1420108,12.3476925 L35.1420108,12.3476925 Z M32.2684651,12.3476925 L4.96710444,12.3476925 L4.96710444,11.5844834 C4.96710444,10.9023723 5.63171224,10.2480344 6.28882849,10.2480344 L30.9435303,10.2480344 C31.6006466,10.2480344 32.2684651,10.9023723 32.2684651,11.5844834 L32.2684651,12.3476925 Z" id="Combined-Shape" fill="#367FC6" fill-rule="nonzero"></path>
            <mask id="mask-2" fill="white">
                <use xlink:href="#path-1"></use>
            </mask>
            <use id="Shape" fill="#FFFFFF" fill-rule="nonzero" xlink:href="#path-1"></use>
        </g>
    </g>
</svg>