<?xml version="1.0" encoding="UTF-8"?>
<svg width="38px" height="38px" viewBox="0 0 38 38" version="1.1" xmlns="http://www.w3.org/2000/svg" xmlns:xlink="http://www.w3.org/1999/xlink">
    <!-- Generator: Sketch 47.1 (45422) - http://www.bohemiancoding.com/sketch -->
    <title>folders / ei-folder-business-v3</title>
    <desc>Created with Sketch.</desc>
    <defs>
        <path d="M16.4619033,20.3705501 L16.014197,20.3705501 C15.9487259,20.3705501 15.8957714,20.3917319 15.8534078,20.4340955 C15.8110442,20.4764591 15.7898624,20.5294136 15.7898624,20.5948846 L15.7898624,21.0425909 C15.7898624,21.108062 15.812007,21.1610165 15.8534078,21.2033801 C15.8948086,21.2457437 15.9487259,21.2669255 16.014197,21.2669255 L16.4619033,21.2669255 C16.5273743,21.2669255 16.5803288,21.2457437 16.6236552,21.2033801 C16.6669817,21.1610165 16.6862378,21.108062 16.6862378,21.0425909 L16.6862378,20.5948846 C16.6862378,20.5294136 16.665056,20.4764591 16.6236552,20.4340955 C16.5822544,20.3917319 16.5273743,20.3705501 16.4619033,20.3705501 Z M16.4619033,23.9512377 L16.014197,23.9512377 C15.9487259,23.9512377 15.8957714,23.9724195 15.8534078,24.0138203 C15.8110442,24.0552211 15.7898624,24.1091384 15.7898624,24.1746095 L15.7898624,24.6223158 C15.7898624,24.6877868 15.812007,24.7407413 15.8534078,24.7840677 C15.8948086,24.8273941 15.9487259,24.8466503 16.014197,24.8466503 L16.4619033,24.8466503 C16.5273743,24.8466503 16.5803288,24.8254685 16.6236552,24.7840677 C16.6669817,24.7426669 16.6862378,24.6877868 16.6862378,24.6223158 L16.6862378,24.1746095 C16.6862378,24.1091384 16.665056,24.0561839 16.6236552,24.0138203 C16.5822544,23.9714567 16.5273743,23.9512377 16.4619033,23.9512377 Z M16.4619033,22.1604125 L16.014197,22.1604125 C15.9487259,22.1604125 15.8957714,22.1815943 15.8534078,22.2239579 C15.8110442,22.2663215 15.7898624,22.319276 15.7898624,22.384747 L15.7898624,22.8324533 C15.7898624,22.8979244 15.812007,22.9508789 15.8534078,22.9932425 C15.8948086,23.0356061 15.9487259,23.0567879 16.014197,23.0567879 L16.4619033,23.0567879 C16.5273743,23.0567879 16.5803288,23.0356061 16.6236552,22.9932425 C16.6669817,22.9508789 16.6862378,22.8979244 16.6862378,22.8324533 L16.6862378,22.384747 C16.6862378,22.319276 16.665056,22.2663215 16.6236552,22.2239579 C16.5822544,22.1815943 16.5273743,22.1604125 16.4619033,22.1604125 Z M16.4619033,16.791788 L16.014197,16.791788 C15.9487259,16.791788 15.8957714,16.8129698 15.8534078,16.8543706 C15.8110442,16.8957714 15.7898624,16.9496888 15.7898624,17.0151598 L15.7898624,17.4628661 C15.7898624,17.5283371 15.812007,17.5812916 15.8534078,17.624618 C15.8948086,17.6679445 15.9487259,17.6872006 16.014197,17.6872006 L16.4619033,17.6872006 C16.5273743,17.6872006 16.5803288,17.6660188 16.6236552,17.624618 C16.6669817,17.5832172 16.6862378,17.5283371 16.6862378,17.4628661 L16.6862378,17.0151598 C16.6862378,16.9496888 16.665056,16.8967342 16.6236552,16.8543706 C16.5822544,16.812007 16.5273743,16.791788 16.4619033,16.791788 L16.4619033,16.791788 Z M16.4619033,18.5806876 L16.014197,18.5806876 C15.9487259,18.5806876 15.8957714,18.6018694 15.8534078,18.6432702 C15.8110442,18.684671 15.7898624,18.7395512 15.7898624,18.8050222 L15.7898624,19.2517657 C15.7898624,19.3181995 15.812007,19.371154 15.8534078,19.4135177 C15.8948086,19.4558813 15.9487259,19.4761003 16.014197,19.4761003 L16.4619033,19.4761003 C16.5273743,19.4761003 16.5803288,19.4549185 16.6236552,19.4135177 C16.6669817,19.3721169 16.6862378,19.3181995 16.6862378,19.2517657 L16.6862378,18.8050222 C16.6862378,18.7395512 16.665056,18.6865967 16.6236552,18.6432702 C16.5822544,18.5999438 16.5273743,18.5806876 16.4619033,18.5806876 Z M23.8447247,27.0822934 C23.8447247,27.2036074 23.8004355,27.3085536 23.711857,27.3971321 C23.6232786,27.4857105 23.5192952,27.5299997 23.3970184,27.5299997 L14.4477063,27.5299997 C14.3263923,27.5299997 14.2214461,27.4857105 14.1328677,27.3971321 C14.0442892,27.3085536 14,27.2045702 14,27.0822934 L14,15.4477063 C14,15.3263923 14.0442892,15.2224089 14.1328677,15.1328677 C14.2214461,15.0433264 14.3254295,15 14.4477063,15 L23.3970184,15 C23.5183324,15 23.6232786,15.0442892 23.711857,15.1328677 C23.8004355,15.2214461 23.8447247,15.3254295 23.8447247,15.4477063 L23.8447247,27.0822934 Z M20.0406653,24.8456875 L17.8040594,24.8456875 C17.7376256,24.8456875 17.684671,24.8668693 17.6423074,24.9082701 C17.5999438,24.9496709 17.5797248,25.004551 17.5797248,25.0700221 L17.5797248,26.4121782 C17.5797248,26.4776492 17.6009066,26.5315665 17.6423074,26.5739301 C17.6837082,26.6162937 17.7376256,26.6365127 17.8040594,26.6365127 L20.0406653,26.6365127 C20.1070991,26.6365127 20.1600537,26.6153309 20.2024173,26.5739301 C20.2447809,26.5325293 20.2649999,26.4776492 20.2649999,26.4121782 L20.2649999,25.0700221 C20.2649999,25.004551 20.2438181,24.9515965 20.2024173,24.9082701 C20.1610165,24.8649437 20.1070991,24.8456875 20.0406653,24.8456875 Z M17.8050222,17.685275 L18.2517657,17.685275 C18.3172367,17.685275 18.3701912,17.6640932 18.4135177,17.6226924 C18.4568441,17.5812916 18.4761003,17.5264115 18.4761003,17.4609405 L18.4761003,17.0132342 C18.4761003,16.9477631 18.4549185,16.8948086 18.4135177,16.852445 C18.3721169,16.8100814 18.3172367,16.7898624 18.2517657,16.7898624 L17.8050222,16.7898624 C17.7385884,16.7898624 17.6856339,16.8110442 17.6432702,16.852445 C17.6009066,16.8938458 17.5806876,16.9477631 17.5806876,17.0132342 L17.5806876,17.4609405 C17.5806876,17.5264115 17.6018694,17.579366 17.6432702,17.6226924 C17.684671,17.6660188 17.7385884,17.685275 17.8050222,17.685275 Z M17.8050222,23.0558251 L18.2517657,23.0558251 C18.3172367,23.0558251 18.3701912,23.0346433 18.4135177,22.9922797 C18.4568441,22.9499161 18.4761003,22.8969616 18.4761003,22.8314905 L18.4761003,22.3837842 C18.4761003,22.3183132 18.4549185,22.2653587 18.4135177,22.2229951 C18.3721169,22.1806315 18.3172367,22.1594497 18.2517657,22.1594497 L17.8050222,22.1594497 C17.7385884,22.1594497 17.6856339,22.1806315 17.6432702,22.2229951 C17.6009066,22.2653587 17.5806876,22.3183132 17.5806876,22.3837842 L17.5806876,22.8314905 C17.5806876,22.8969616 17.6018694,22.9499161 17.6432702,22.9922797 C17.684671,23.0346433 17.7385884,23.0558251 17.8050222,23.0558251 Z M17.8050222,21.2659627 L18.2517657,21.2659627 C18.3172367,21.2659627 18.3701912,21.2447809 18.4135177,21.2024173 C18.4568441,21.1600537 18.4761003,21.1070991 18.4761003,21.0416281 L18.4761003,20.5939218 C18.4761003,20.5284508 18.4549185,20.4754963 18.4135177,20.4331327 C18.3721169,20.3907691 18.3172367,20.3695873 18.2517657,20.3695873 L17.8050222,20.3695873 C17.7385884,20.3695873 17.6856339,20.3907691 17.6432702,20.4331327 C17.6009066,20.4754963 17.5806876,20.5284508 17.5806876,20.5939218 L17.5806876,21.0416281 C17.5806876,21.1070991 17.6018694,21.1600537 17.6432702,21.2024173 C17.684671,21.2447809 17.7385884,21.2659627 17.8050222,21.2659627 Z M17.8050222,19.4751374 L18.2517657,19.4751374 C18.3172367,19.4751374 18.3701912,19.4539556 18.4135177,19.4125548 C18.4568441,19.371154 18.4761003,19.3172367 18.4761003,19.2508029 L18.4761003,18.8040594 C18.4761003,18.7385884 18.4549185,18.6856339 18.4135177,18.6423074 C18.3721169,18.598981 18.3172367,18.5797248 18.2517657,18.5797248 L17.8050222,18.5797248 C17.7385884,18.5797248 17.6856339,18.6009066 17.6432702,18.6423074 C17.6009066,18.6837082 17.5806876,18.7385884 17.5806876,18.8040594 L17.5806876,19.2508029 C17.5806876,19.3172367 17.6018694,19.3701912 17.6432702,19.4125548 C17.684671,19.4549185 17.7385884,19.4751374 17.8050222,19.4751374 Z M20.0406653,22.1604125 L19.5939218,22.1604125 C19.5284508,22.1604125 19.4754963,22.1815943 19.4321699,22.2239579 C19.3888434,22.2663215 19.3695873,22.319276 19.3695873,22.384747 L19.3695873,22.8324533 C19.3695873,22.8979244 19.3907691,22.9508789 19.4321699,22.9932425 C19.4735707,23.0356061 19.5284508,23.0567879 19.5939218,23.0567879 L20.0406653,23.0567879 C20.1070991,23.0567879 20.1600537,23.0356061 20.2024173,22.9932425 C20.2447809,22.9508789 20.2649999,22.8979244 20.2649999,22.8324533 L20.2649999,22.384747 C20.2649999,22.319276 20.2438181,22.2663215 20.2024173,22.2239579 C20.1610165,22.1815943 20.1070991,22.1604125 20.0406653,22.1604125 Z M21.8314905,20.3705501 L21.3837842,20.3705501 C21.3183132,20.3705501 21.2653587,20.3917319 21.2229951,20.4340955 C21.1806315,20.4764591 21.1594497,20.5294136 21.1594497,20.5948846 L21.1594497,21.0425909 C21.1594497,21.108062 21.1806315,21.1610165 21.2229951,21.2033801 C21.2653587,21.2457437 21.3183132,21.2669255 21.3837842,21.2669255 L21.8314905,21.2669255 C21.8969616,21.2669255 21.9499161,21.2457437 21.9922797,21.2033801 C22.0346433,21.1610165 22.0558251,21.108062 22.0558251,21.0425909 L22.0558251,20.5948846 C22.0558251,20.5294136 22.0346433,20.4764591 21.9922797,20.4340955 C21.9499161,20.3917319 21.8969616,20.3705501 21.8314905,20.3705501 Z M21.8314905,22.1604125 L21.3837842,22.1604125 C21.3183132,22.1604125 21.2653587,22.1815943 21.2229951,22.2239579 C21.1806315,22.2663215 21.1594497,22.319276 21.1594497,22.384747 L21.1594497,22.8324533 C21.1594497,22.8979244 21.1806315,22.9508789 21.2229951,22.9932425 C21.2653587,23.0356061 21.3183132,23.0567879 21.3837842,23.0567879 L21.8314905,23.0567879 C21.8969616,23.0567879 21.9499161,23.0356061 21.9922797,22.9932425 C22.0346433,22.9508789 22.0558251,22.8979244 22.0558251,22.8324533 L22.0558251,22.384747 C22.0558251,22.319276 22.0346433,22.2663215 21.9922797,22.2239579 C21.9499161,22.1815943 21.8969616,22.1604125 21.8314905,22.1604125 Z M21.8314905,16.791788 L21.3837842,16.791788 C21.3183132,16.791788 21.2653587,16.8129698 21.2229951,16.8543706 C21.1806315,16.8957714 21.1594497,16.9496888 21.1594497,17.0151598 L21.1594497,17.4628661 C21.1594497,17.5283371 21.1806315,17.5812916 21.2229951,17.624618 C21.2653587,17.6679445 21.3183132,17.6872006 21.3837842,17.6872006 L21.8314905,17.6872006 C21.8969616,17.6872006 21.9499161,17.6660188 21.9922797,17.624618 C22.0346433,17.5832172 22.0558251,17.5283371 22.0558251,17.4628661 L22.0558251,17.0151598 C22.0558251,16.9496888 22.0346433,16.8967342 21.9922797,16.8543706 C21.9499161,16.812007 21.8969616,16.791788 21.8314905,16.791788 L21.8314905,16.791788 Z M21.8314905,18.5806876 L21.3837842,18.5806876 C21.3183132,18.5806876 21.2653587,18.6018694 21.2229951,18.6432702 C21.1806315,18.684671 21.1594497,18.7395512 21.1594497,18.8050222 L21.1594497,19.2517657 C21.1594497,19.3181995 21.1806315,19.371154 21.2229951,19.4135177 C21.2653587,19.4558813 21.3183132,19.4761003 21.3837842,19.4761003 L21.8314905,19.4761003 C21.8969616,19.4761003 21.9499161,19.4549185 21.9922797,19.4135177 C22.0346433,19.3721169 22.0558251,19.3181995 22.0558251,19.2517657 L22.0558251,18.8050222 C22.0558251,18.7395512 22.0346433,18.6865967 21.9922797,18.6432702 C21.9499161,18.5999438 21.8969616,18.5806876 21.8314905,18.5806876 Z M21.8314905,23.9512377 L21.3837842,23.9512377 C21.3183132,23.9512377 21.2653587,23.9724195 21.2229951,24.0138203 C21.1806315,24.0552211 21.1594497,24.1091384 21.1594497,24.1746095 L21.1594497,24.6223158 C21.1594497,24.6877868 21.1806315,24.7407413 21.2229951,24.7840677 C21.2653587,24.8273941 21.3183132,24.8466503 21.3837842,24.8466503 L21.8314905,24.8466503 C21.8969616,24.8466503 21.9499161,24.8254685 21.9922797,24.7840677 C22.0346433,24.7426669 22.0558251,24.6877868 22.0558251,24.6223158 L22.0558251,24.1746095 C22.0558251,24.1091384 22.0346433,24.0561839 21.9922797,24.0138203 C21.9499161,23.9714567 21.8969616,23.9512377 21.8314905,23.9512377 Z M20.0406653,20.3705501 L19.5939218,20.3705501 C19.5284508,20.3705501 19.4754963,20.3917319 19.4321699,20.4340955 C19.3888434,20.4764591 19.3695873,20.5294136 19.3695873,20.5948846 L19.3695873,21.0425909 C19.3695873,21.108062 19.3907691,21.1610165 19.4321699,21.2033801 C19.4735707,21.2457437 19.5284508,21.2669255 19.5939218,21.2669255 L20.0406653,21.2669255 C20.1070991,21.2669255 20.1600537,21.2457437 20.2024173,21.2033801 C20.2447809,21.1610165 20.2649999,21.108062 20.2649999,21.0425909 L20.2649999,20.5948846 C20.2649999,20.5294136 20.2438181,20.4764591 20.2024173,20.4340955 C20.1610165,20.3917319 20.1070991,20.3705501 20.0406653,20.3705501 Z M20.0406653,18.5806876 L19.5939218,18.5806876 C19.5284508,18.5806876 19.4754963,18.6018694 19.4321699,18.6432702 C19.3888434,18.684671 19.3695873,18.7395512 19.3695873,18.8050222 L19.3695873,19.2517657 C19.3695873,19.3181995 19.3907691,19.371154 19.4321699,19.4135177 C19.4735707,19.4558813 19.5284508,19.4761003 19.5939218,19.4761003 L20.0406653,19.4761003 C20.1070991,19.4761003 20.1600537,19.4549185 20.2024173,19.4135177 C20.2447809,19.3721169 20.2649999,19.3181995 20.2649999,19.2517657 L20.2649999,18.8050222 C20.2649999,18.7395512 20.2438181,18.6865967 20.2024173,18.6432702 C20.1610165,18.5999438 20.1070991,18.5806876 20.0406653,18.5806876 Z M20.0406653,16.791788 L19.5939218,16.791788 C19.5284508,16.791788 19.4754963,16.8129698 19.4321699,16.8543706 C19.3888434,16.8957714 19.3695873,16.9496888 19.3695873,17.0151598 L19.3695873,17.4628661 C19.3695873,17.5283371 19.3907691,17.5812916 19.4321699,17.624618 C19.4735707,17.6679445 19.5284508,17.6872006 19.5939218,17.6872006 L20.0406653,17.6872006 C20.1070991,17.6872006 20.1600537,17.6660188 20.2024173,17.624618 C20.2447809,17.5832172 20.2649999,17.5283371 20.2649999,17.4628661 L20.2649999,17.0151598 C20.2649999,16.9496888 20.2438181,16.8967342 20.2024173,16.8543706 C20.1610165,16.812007 20.1070991,16.791788 20.0406653,16.791788 L20.0406653,16.791788 Z" id="path-1"></path>
    </defs>
    <g id="drag-to-move-1A-hover" stroke="none" stroke-width="1" fill="none" fill-rule="evenodd">
        <g id="folders-/-ei-folder-business-v3">
            <g id="folders-/-ei-folder-legal" transform="translate(3.000000, 5.000000)" fill-rule="nonzero" fill="#367FC6">
                <path d="M31.9735952,15.6051615 C31.9910991,15.8522105 32,16.1016363 32,16.3531409 C32,16.6046456 31.9910991,16.8540713 31.9735952,17.1011203 L31.9735952,24.6112054 L31.9950316,24.6112054 L31.8639271,25.6895094 C31.8126506,26.3550125 31.2224258,26.8001359 30.5525588,26.8001359 L1.37230718,26.8001359 C0.702440156,26.8001359 0.112215303,26.3157369 0.060938837,25.6480519 L6.07153217e-16,24.6112054 L0.0279246186,24.6112054 L0.0279246186,17.1222691 C0.00941622561,16.8683084 3.16795747e-17,16.6118243 0,16.3531409 C-3.16795747e-17,16.0944576 0.00941622561,15.8379735 0.0279246186,15.5840127 L0.0279246186,7.22622997 C0.0763541228,7.21935955 0.125886656,7.21579885 0.176354261,7.21579885 L0.0279246186,7.21579885 L0.0279246186,3.91171477 L0.013796954,3.91171477 L0.013796954,1.46519774 C0.013796954,0.612044625 0.851676227,0 1.69828341,0 L11.4680867,0 C12.1139519,0 12.876553,0.489853898 13.167847,1.0658959 L13.5900596,1.92123099 C13.9042643,2.54309451 14.7279607,3.09295279 15.4240115,3.09295279 L30.3585549,3.09295279 C31.3480816,3.09295279 31.9677631,3.78027563 31.9677631,4.5319668 L31.9677631,7.21579885 L31.9735952,7.21579885 L31.9735952,15.6051615 Z M21.9951109,5.93045593 L30.004295,5.93045593 C30.004295,5.26058891 29.3235181,5.16129032 28.6536511,5.16129032 L3.52054584,5.16129032 C2.85067882,5.16129032 2.17317487,5.26058891 2.17317487,5.93045593 L10.0048891,5.93045593 C10.1462993,5.92477117 10.2884342,5.92190153 10.4312394,5.92190153 L10.4312394,5.92190153 L21.5687606,5.92190153 L21.5687606,5.92190153 C21.7115658,5.92190153 21.8537007,5.92477117 21.9951109,5.93045593 Z" id="Combined-Shape"></path>
            </g>
            <mask id="mask-2" fill="white">
                <use xlink:href="#path-1"></use>
            </mask>
            <use id="Shape" fill="#FFFFFF" fill-rule="nonzero" xlink:href="#path-1"></use>
        </g>
    </g>
</svg>