<?xml version="1.0" encoding="UTF-8"?>
<svg width="38px" height="38px" viewBox="0 0 38 38" version="1.1" xmlns="http://www.w3.org/2000/svg" xmlns:xlink="http://www.w3.org/1999/xlink">
    <!-- Generator: Sketch 47.1 (45422) - http://www.bohemiancoding.com/sketch -->
    <title>folders / ei-folder-medical-v3-open</title>
    <desc>Created with Sketch.</desc>
    <defs></defs>
    <g id="drag-to-move-1A-hover" stroke="none" stroke-width="1" fill="none" fill-rule="evenodd">
        <g id="folders-/-ei-folder-medical-v3-open">
            <path d="M35.1420108,12.3476925 L34.2911844,12.3476925 L34.2911844,9.61480414 C34.2911844,8.84937322 33.6832984,8.14948718 32.7126071,8.14948718 L18.0623396,8.14948718 C17.379538,8.14948718 16.5715205,7.58957835 16.2632966,6.95634812 L15.8491207,6.08537883 C15.5633715,5.49880767 14.8152863,5 14.181715,5 L4.59787789,5 C3.7673857,5 2.94545528,5.62323185 2.94545528,6.49197929 L2.94545528,12.3476925 L3.10491834,12.3476925 C2.4478021,12.3476925 1.95228936,12.9864774 2.00366001,13.6663667 L3.31147117,31.1168586 C3.3617716,31.7967479 3.94076164,32.2900009 4.59787789,32.2900009 L33.6490513,32.2900009 C34.3061675,32.2900009 34.8851576,31.8367414 34.935458,31.1590739 L36.2443394,13.6141529 C36.2946398,12.9342636 35.7991271,12.3476925 35.1420108,12.3476925 L35.1420108,12.3476925 L35.1420108,12.3476925 Z M32.2684651,12.3476925 L4.96710444,12.3476925 L4.96710444,11.5844834 C4.96710444,10.9023723 5.63171224,10.2480344 6.28882849,10.2480344 L30.9435303,10.2480344 C31.6006466,10.2480344 32.2684651,10.9023723 32.2684651,11.5844834 L32.2684651,12.3476925 Z" id="Combined-Shape" fill="#367FC6" fill-rule="nonzero"></path>
            <g id="Group" transform="translate(11.000000, 15.700000)">
                <path d="M2.25129777,13.4060279 L1.97233138,13.4060279 C1.43704531,13.4060279 0.976905162,13.2145601 0.593969741,12.8305953 C0.21103432,12.4466305 0.0185372132,11.9864904 0.0185372132,11.4522337 L0.0185372132,4.19396043 C0.0185372132,3.65867436 0.210004924,3.19853421 0.593969741,2.81559879 C0.977934558,2.43266337 1.43704531,2.24016627 1.97233138,2.24016627 L2.25129777,2.24016627 L2.25129777,13.4070573 L2.25129777,13.4060279 Z" id="Path" fill="#FFFFFF"></path>
                <path d="M12.5812896,13.4060279 L3.08819696,13.4060279 L3.08819696,2.23913687 L4.48405833,2.23913687 L4.48405833,0.843275496 C4.48405833,0.610631934 4.56538064,0.412987845 4.72802525,0.250343231 C4.89066987,0.0876986168 5.08831396,0.00534691332 5.32198692,0.00534691332 L10.3464702,0.00534691332 C10.5791138,0.00534691332 10.7777873,0.0876986168 10.9404319,0.250343231 C11.1030765,0.412987845 11.1843988,0.610631934 11.1843988,0.843275496 L11.1843988,2.23913687 L12.5802602,2.23913687 L12.5802602,13.4060279 L12.5812896,13.4060279 Z" id="Path" fill="#FFFFFF"></path>
                <polygon id="Path" fill="#428BCA" points="5.60198271 1.12224189 10.0695626 1.12224189 10.0695626 2.23913687 5.60198271 2.23913687"></polygon>
                <path d="M10.9064618,6.70568739 L8.95266764,6.70568739 L8.95266764,4.75189322 C8.95266764,4.67057091 8.92693273,4.60366016 8.87443352,4.55116094 C8.82193431,4.49866173 8.75399416,4.47292683 8.67370125,4.47292683 L6.99784408,4.47292683 C6.91652177,4.47292683 6.84961101,4.49866173 6.7971118,4.55116094 C6.74461259,4.60366016 6.71887769,4.67057091 6.71887769,4.75189322 L6.71887769,6.70568739 L4.76508352,6.70568739 C4.68376121,6.70568739 4.61685045,6.73142229 4.56435124,6.7839215 C4.51185203,6.83642072 4.48611713,6.90436087 4.48611713,6.98568318 L4.48611713,8.65948155 C4.48611713,8.74183325 4.51185203,8.80771462 4.56435124,8.86124322 C4.61685045,8.91477183 4.68376121,8.93947734 4.76508352,8.93947734 L6.71887769,8.93947734 L6.71887769,10.8932715 C6.71887769,10.9745938 6.74461259,11.0415046 6.7971118,11.0940038 C6.84961101,11.146503 6.91652177,11.1722379 6.99784408,11.1722379 L8.67370125,11.1722379 C8.75399416,11.1722379 8.82193431,11.146503 8.87443352,11.0940038 C8.92693273,11.0415046 8.95266764,10.9745938 8.95266764,10.8932715 L8.95266764,8.93947734 L10.9064618,8.93947734 C10.9877841,8.93947734 11.0546949,8.91374243 11.1071941,8.86124322 C11.1596933,8.80874401 11.1854282,8.74183325 11.1854282,8.65948155 L11.1854282,6.98568318 C11.1854282,6.90436087 11.1596933,6.83642072 11.1071941,6.7839215 C11.0546949,6.73142229 10.9877841,6.70568739 10.9064618,6.70568739 Z" id="Path" fill="#428BCA"></path>
                <path d="M15.6509493,11.4522337 C15.6509493,11.9875198 15.4594816,12.4476599 15.0755168,12.8305953 C14.691552,13.2135308 14.2324412,13.4060279 13.6971552,13.4060279 L13.4181888,13.4060279 L13.4181888,2.23913687 L13.6971552,2.23913687 C14.2324412,2.23913687 14.6925814,2.43060458 15.0755168,2.8145694 C15.4584522,3.19853421 15.6509493,3.65867436 15.6509493,4.19293103 L15.6509493,11.4512043 L15.6509493,11.4522337 Z" id="Path" fill="#FFFFFF"></path>
            </g>
        </g>
    </g>
</svg>