<?xml version="1.0" encoding="UTF-8"?>
<svg width="38px" height="38px" viewBox="0 0 38 38" version="1.1" xmlns="http://www.w3.org/2000/svg" xmlns:xlink="http://www.w3.org/1999/xlink">
    <!-- Generator: Sketch 47.1 (45422) - http://www.bohemiancoding.com/sketch -->
    <title>folders / ei-folder-fidelity-V3-open</title>
    <desc>Created with Sketch.</desc>
    <defs>
        <path d="M22.8042877,27.3677124 L21.2320924,24.7482867 L23.7050948,26.1268253 C23.7185901,26.1268253 23.7260124,26.1119805 23.7185901,26.0971358 L20.4797329,23.3002477 L24.6679801,23.9405967 C24.6828248,23.9405967 24.6888977,23.9338491 24.6888977,23.9264267 L24.6619072,23.9055091 L20.711851,22.5202229 L24.764471,21.5411434 C24.8177772,21.8818981 24.8528648,22.2287258 24.8528648,22.585 C24.8528648,24.4864791 24.0573205,26.192952 22.8042877,27.3677124 Z M12.6747619,22.585 C12.6747619,19.0505972 15.4061981,16.1747619 18.7638134,16.1747619 C21.7732515,16.1747619 24.2732444,18.4878457 24.7604224,21.5128034 L20.6133358,21.7833829 L23.9095477,19.2867638 C23.9162953,19.2732686 23.8879553,19.266521 23.8805329,19.280691 L20.1774396,21.1585534 L22.2219682,17.551951 C22.2219682,17.5458781 22.2219682,17.5303586 22.2091477,17.5384557 L19.5377653,20.6727248 L20.0505843,16.5539781 C20.0505843,16.5465557 20.0364143,16.5398081 20.0222443,16.5465557 L18.7935029,20.5458696 L17.7179324,16.4271229 C17.71051,16.4203752 17.6956653,16.4129529 17.6895924,16.4271229 L17.9858129,20.6997153 L15.4487081,17.3974305 C15.4399362,17.3900081 15.4338634,17.3974305 15.426441,17.4041781 L17.3454638,21.0580138 L13.7179438,19.0762381 C13.711871,19.0762381 13.697701,19.0836605 13.697701,19.0897334 L16.9230629,21.7395234 L12.8056657,21.3049767 C12.790821,21.3123991 12.790821,21.3245448 12.8056657,21.3319672 L16.7975572,22.4993053 L12.8265833,23.6659686 C12.819161,23.6720415 12.819161,23.6868862 12.8265833,23.6936339 L16.9230629,23.2165772 L13.7044486,25.9500377 C13.697701,25.9500377 13.6902786,25.9642077 13.7044486,25.9716301 L13.7476333,25.9574601 L16.3252238,24.6079362 L16.93116,23.645051 L17.6187424,23.645051 L17.1416857,23.30767 L18.7361481,20.7489729 L17.79553,23.7719062 L17.7975543,23.7732558 L20.2037553,23.7732558 L20.9068572,24.22872 L17.6909419,24.22872 L16.3238743,28.4540791 C14.1788062,27.4621791 12.6747619,25.2064501 12.6747619,22.585 Z M18.7638134,15.5 C15.0344043,15.5 12,18.6781286 12,22.585 C12,26.4911967 15.0344043,29.6700001 18.7638134,29.6700001 C22.4938972,29.6700001 25.5276267,26.4911967 25.5276267,22.585 C25.5276267,18.6781286 22.4938972,15.5 18.7638134,15.5 L18.7638134,15.5 Z" id="path-1"></path>
    </defs>
    <g id="drag-to-move-1A-hover" stroke="none" stroke-width="1" fill="none" fill-rule="evenodd">
        <g id="folders-/-ei-folder-fidelity-V3-open">
            <path d="M35.1420108,12.3476925 L34.2911844,12.3476925 L34.2911844,9.61480414 C34.2911844,8.84937322 33.6832984,8.14948718 32.7126071,8.14948718 L18.0623396,8.14948718 C17.379538,8.14948718 16.5715205,7.58957835 16.2632966,6.95634812 L15.8491207,6.08537883 C15.5633715,5.49880767 14.8152863,5 14.181715,5 L4.59787789,5 C3.7673857,5 2.94545528,5.62323185 2.94545528,6.49197929 L2.94545528,12.3476925 L3.10491834,12.3476925 C2.4478021,12.3476925 1.95228936,12.9864774 2.00366001,13.6663667 L3.31147117,31.1168586 C3.3617716,31.7967479 3.94076164,32.2900009 4.59787789,32.2900009 L33.6490513,32.2900009 C34.3061675,32.2900009 34.8851576,31.8367414 34.935458,31.1590739 L36.2443394,13.6141529 C36.2946398,12.9342636 35.7991271,12.3476925 35.1420108,12.3476925 L35.1420108,12.3476925 L35.1420108,12.3476925 Z M32.2684651,12.3476925 L4.96710444,12.3476925 L4.96710444,11.5844834 C4.96710444,10.9023723 5.63171224,10.2480344 6.28882849,10.2480344 L30.9435303,10.2480344 C31.6006466,10.2480344 32.2684651,10.9023723 32.2684651,11.5844834 L32.2684651,12.3476925 Z" id="Combined-Shape" fill="#367FC6" fill-rule="nonzero"></path>
            <mask id="mask-2" fill="white">
                <use xlink:href="#path-1"></use>
            </mask>
            <use id="Imported-Layers" fill="#FFFFFF" xlink:href="#path-1"></use>
        </g>
    </g>
</svg>