<?xml version="1.0" encoding="UTF-8"?>
<svg width="24px" height="24px" viewBox="0 0 24 24" version="1.1" xmlns="http://www.w3.org/2000/svg" xmlns:xlink="http://www.w3.org/1999/xlink">
    <!-- Generator: Sketch 47.1 (45422) - http://www.bohemiancoding.com/sketch -->
    <title>folders / ei-folder-finance</title>
    <desc>Created with Sketch.</desc>
    <defs>
        <path d="M13.2879008,16.4316162 C12.9469451,16.8044547 12.5034364,17.0344482 11.9580406,17.122252 L11.9580406,18.0081528 C11.9580406,18.055331 11.9427242,18.0939908 11.9120915,18.1247877 C11.8807928,18.1549293 11.841503,18.1700001 11.7935561,18.1700001 L11.0989922,18.1700001 C11.0543749,18.1700001 11.015751,18.154274 10.9831205,18.1221667 C10.95049,18.0900593 10.9345077,18.0520547 10.9345077,18.0081528 L10.9345077,17.122252 C10.7080918,17.0921104 10.4896671,17.0396902 10.2785676,16.9656467 C10.0674681,16.890948 9.89366067,16.8162492 9.7564793,16.74024 C9.61929792,16.6642307 9.49210549,16.5836347 9.37556791,16.4971414 C9.25903033,16.4113034 9.17978478,16.347744 9.1364994,16.3077736 C9.09387994,16.267148 9.06391314,16.2370064 9.04659898,16.2166935 C8.98799723,16.1452711 8.98466759,16.0764696 9.03661005,16.0089786 L9.5660236,15.3255507 C9.58999705,15.2921328 9.62995279,15.27182 9.68455897,15.2646122 C9.7358355,15.2580597 9.7771231,15.2731305 9.80775583,15.3104799 L9.8184107,15.3203087 C10.2059814,15.6544872 10.622187,15.8654784 11.0683594,15.9532822 C11.1948859,15.9801475 11.3220784,15.9939078 11.4486049,15.9939078 C11.7269632,15.9939078 11.9713592,15.9211748 12.1817927,15.7763641 C12.3928922,15.6308982 12.498109,15.425149 12.498109,15.1584614 C12.498109,15.0641051 12.4728037,14.9749908 12.4208612,14.8904633 C12.3695847,14.8059357 12.3123148,14.7351685 12.2490515,14.6775063 C12.1851224,14.6204994 12.085233,14.5569399 11.9480516,14.4881385 C11.8108703,14.4186818 11.6976623,14.3649511 11.6084278,14.3262912 C11.5191934,14.2869761 11.382012,14.2325902 11.1968837,14.1611677 C11.063032,14.107437 10.9578152,14.0655009 10.8805675,14.034704 C10.8033197,14.0045624 10.6981029,13.9600053 10.5642512,13.9010326 C10.4303994,13.8420599 10.3231849,13.7896397 10.2426075,13.7437721 C10.1620301,13.6985597 10.0654704,13.6382765 9.95226242,13.564233 C9.83905449,13.4901895 9.74715629,13.4181118 9.67656782,13.3493103 C9.60664527,13.2798536 9.53206123,13.1972918 9.45281567,13.1009698 C9.37423605,13.0046477 9.31297058,12.9070151 9.27035113,12.8074168 C9.22773167,12.7078185 9.19177151,12.5957704 9.16247063,12.4706172 C9.13316975,12.3461193 9.11851932,12.2144137 9.11851932,12.0761555 C9.11851932,11.6102712 9.28633342,11.2020491 9.62262757,10.850834 C9.95892171,10.5002741 10.3964371,10.2742122 10.9345077,10.1726481 L10.9345077,9.26184765 C10.9345077,9.21794576 10.95049,9.17994114 10.9831205,9.14783379 C11.015751,9.11572643 11.0543749,9.10000038 11.0989922,9.10000038 L11.7935561,9.10000038 C11.841503,9.10000038 11.8807928,9.11507118 11.9120915,9.14521278 C11.9427242,9.17600963 11.9580406,9.2146695 11.9580406,9.26184765 L11.9580406,10.1529905 C12.1538237,10.1726481 12.3429475,10.2119632 12.5267439,10.2689701 C12.7098744,10.3266323 12.8590425,10.382984 12.9742482,10.4386804 C13.088788,10.4943769 13.1980004,10.5572811 13.3005534,10.6287036 C13.4037724,10.6994708 13.4703653,10.7486147 13.501664,10.77548 C13.5322967,10.8023454 13.558268,10.8259344 13.5782458,10.8462473 C13.6368476,10.9071857 13.6455047,10.9714004 13.6042171,11.0382361 L13.1873455,11.7773605 C13.1600424,11.8278149 13.1207526,11.8553355 13.0694761,11.8586118 C13.0215292,11.8684405 12.9749142,11.856646 12.9302969,11.8232281 C12.920308,11.8127441 12.8950027,11.7924313 12.8557129,11.7622897 C12.8164231,11.7321481 12.7498302,11.687591 12.6552682,11.627963 C12.5607063,11.5689903 12.460817,11.5152597 12.3542683,11.4661157 C12.2477197,11.4169718 12.1205273,11.3737252 11.9713592,11.3344101 C11.8215251,11.2957502 11.6750207,11.2760926 11.5311801,11.2760926 C11.2055408,11.2760926 10.9398351,11.3488256 10.7340631,11.4936363 C10.528291,11.6391023 10.425072,11.8265044 10.425072,12.0558426 C10.425072,12.1436464 10.4397225,12.2248977 10.4690233,12.2989412 C10.4983242,12.3729847 10.5489348,12.4430966 10.6208551,12.5086219 C10.6927755,12.5748023 10.7607002,12.6304987 10.8239635,12.6757111 C10.8872267,12.7215788 10.9831205,12.773999 11.1123107,12.8329716 C11.240835,12.8919443 11.344054,12.937812 11.4232996,12.9692641 C11.5018792,13.0013714 11.6217464,13.0478943 11.7835672,13.1088328 C11.9646999,13.1763238 12.103879,13.2293992 12.1997728,13.268059 C12.2956666,13.3067189 12.4261887,13.3656916 12.5906731,13.4449771 C12.7558235,13.5249179 12.8850137,13.5963404 12.9795757,13.6605551 C13.0734717,13.7247698 13.1800203,13.808642 13.2978897,13.9134824 C13.4164251,14.0183227 13.5076574,14.1251288 13.5709206,14.2352112 C13.6341839,14.3446383 13.6881241,14.4737229 13.7327414,14.6218099 C13.7773586,14.7705521 13.8000002,14.9291231 13.8000002,15.0981782 C13.8000002,15.6138616 13.6288564,16.0587778 13.2879008,16.4316162 L13.2879008,16.4316162 Z" id="path-1"></path>
    </defs>
    <g id="Page-1" stroke="none" stroke-width="1" fill="none" fill-rule="evenodd">
        <g id="folders-/-ei-folder-finance">
            <path d="M1.00902936,5.625567 L1.00902936,3.98344973 C1.00902936,3.41080811 1.55737615,3 2.11143487,3 L8.50524405,3 C8.92792803,3 9.42700928,3.32879295 9.61764547,3.71543588 L9.89396084,4.28954205 C10.0995909,4.70694067 10.6386558,5.07600892 11.0941834,5.07600892 L20.8680364,5.07600892 C21.5156283,5.07600892 21.9211764,5.53734423 21.9211764,6.04188397 L21.9211764,7.84328853 L21.9249932,7.84328853 L21.9249932,19.5191923 L21.9390222,19.5191923 L21.8532213,20.2429566 C21.8196636,20.6896464 21.4333933,20.9884159 20.9950015,20.9884159 L1.89810102,20.9884159 C1.45970919,20.9884159 1.07343886,20.6632844 1.03988118,20.21513 L1,19.5191923 L1.01827516,19.5191923 L1.01827516,7.85028997 C1.04996965,7.8456785 1.08238602,7.84328853 1.11541435,7.84328853 L1.01827516,7.84328853 L1.01827516,5.625567 L1.00902936,5.625567 Z" id="Combined-Shape-Copy" fill="#3895DF" fill-rule="nonzero"></path>
            <rect id="Rectangle-3-Copy-2" fill="#66AFE9" x="1" y="6" width="20.9400005" height="14.9495225" rx="1"></rect>
            <mask id="mask-2" fill="white">
                <use xlink:href="#path-1"></use>
            </mask>
            <use id="Mask" fill="#FFFFFF" xlink:href="#path-1"></use>
        </g>
    </g>
</svg>