<?xml version="1.0" encoding="UTF-8"?>
<svg width="24px" height="24px" viewBox="0 0 24 24" version="1.1" xmlns="http://www.w3.org/2000/svg" xmlns:xlink="http://www.w3.org/1999/xlink">
    <!-- Generator: Sketch 47.1 (45422) - http://www.bohemiancoding.com/sketch -->
    <title>folders / ei-folder-family open</title>
    <desc>Created with Sketch.</desc>
    <defs>
        <path d="M7.53664917,14.8637606 C7.36818601,14.7419308 7.28482881,14.564141 7.28482881,14.330391 C7.28482881,13.2718128 7.47019657,12.7431067 7.84209795,12.7431067 C7.86016839,12.7431067 7.92545515,12.7745842 8.03795823,12.8369564 C8.15046131,12.8999115 8.2967736,12.9640324 8.4763122,13.0287362 C8.65643371,13.0928572 8.83480647,13.1249176 9.01143047,13.1249176 C9.21253701,13.1249176 9.4118948,13.0905255 9.61008676,13.0217412 C9.5949309,13.1324956 9.58735297,13.2315915 9.58735297,13.3184462 C9.58735297,13.7352323 9.70859982,14.1193749 9.95167642,14.4702912 C9.46610613,14.4848642 9.06855639,14.677227 8.75961011,15.0456308 L8.1568734,15.0456308 C7.91146513,15.0456308 7.70452941,14.9850074 7.53664917,14.8637606 L7.53664917,14.8637606 Z M13.3296834,13.3184462 C13.3296834,13.7952728 13.1612202,14.2021492 12.823711,14.5396584 C12.4862018,14.8771677 12.0793253,15.0456308 11.6024988,15.0456308 C11.1256723,15.0456308 10.7187959,14.8771677 10.3812866,14.5396584 C10.0437774,14.2021492 9.87531422,13.7952728 9.87531422,13.3184462 C9.87531422,12.8416197 10.0437774,12.4347433 10.3812866,12.0972341 C10.7187959,11.7603077 11.1256723,11.5912617 11.6024988,11.5912617 C12.0793253,11.5912617 12.4862018,11.7603077 12.823711,12.0972341 C13.1612202,12.4347433 13.3296834,12.8416197 13.3296834,13.3184462 L13.3296834,13.3184462 Z M13.0417221,11.5912617 C13.0417221,11.2735716 13.1542252,11.0019321 13.3792314,10.7775088 C13.6042375,10.5525027 13.8752942,10.4399996 14.1929842,10.4399996 C14.5112572,10.4399996 14.7823138,10.5525027 15.00732,10.7775088 C15.2323261,11.0019321 15.3448292,11.2735716 15.3448292,11.5912617 C15.3448292,11.9095346 15.2323261,12.1805913 15.00732,12.4055974 C14.7823138,12.6306036 14.5112572,12.7431067 14.1929842,12.7431067 C13.8752942,12.7431067 13.6042375,12.6306036 13.3792314,12.4055974 C13.1542252,12.1805913 13.0417221,11.9095346 13.0417221,11.5912617 L13.0417221,11.5912617 Z M9.82576624,12.4055974 C9.60076008,12.6306036 9.32970343,12.7431067 9.01143047,12.7431067 C8.69374043,12.7431067 8.42268379,12.6306036 8.19767763,12.4055974 C7.97267147,12.1805913 7.86016839,11.9095346 7.86016839,11.5912617 C7.86016839,11.2735716 7.97267147,11.0019321 8.19767763,10.7775088 C8.42268379,10.5525027 8.69374043,10.4399996 9.01143047,10.4399996 C9.32970343,10.4399996 9.60076008,10.5525027 9.82576624,10.7775088 C10.0507724,11.0019321 10.1632755,11.2735716 10.1632755,11.5912617 C10.1632755,11.9095346 10.0507724,12.1805913 9.82576624,12.4055974 L9.82576624,12.4055974 Z M14.4407242,18.1875562 C14.2215472,18.3956578 13.9306713,18.5 13.5680967,18.5 L9.63690096,18.5 C9.27432627,18.5 8.98345043,18.3956578 8.76427345,18.1875562 C8.54567938,17.9788717 8.43609089,17.6949909 8.43609089,17.3353308 C8.43609089,17.1761943 8.44133715,17.0211383 8.45182966,16.8695797 C8.46232218,16.7180212 8.48330721,16.5548043 8.51478475,16.3793461 C8.5462623,16.2038879 8.58590069,16.0412539 8.63369993,15.8914441 C8.68208208,15.7416343 8.74620301,15.595322 8.82722854,15.4525073 C8.90825407,15.3102754 9.00093796,15.1890285 9.10586311,15.0881838 C9.21137118,14.987922 9.33903011,14.9080623 9.49058867,14.8480218 C9.64214722,14.7879813 9.80944454,14.7576696 9.99248064,14.7576696 C10.0222094,14.7576696 10.0869133,14.790313 10.1854263,14.8544339 C10.2845223,14.9191377 10.3941108,14.9908366 10.5141918,15.0706963 C10.6336899,15.1499731 10.7945751,15.2216719 10.9950988,15.2863758 C11.1962053,15.3510796 11.3984777,15.3831401 11.6024988,15.3831401 C11.8065199,15.3831401 12.0087923,15.3510796 12.2098989,15.2863758 C12.4104225,15.2216719 12.5707248,15.1499731 12.6908058,15.0706963 C12.8108868,14.9908366 12.9204753,14.9191377 13.0189884,14.8544339 C13.1180843,14.790313 13.1827882,14.7576696 13.212517,14.7576696 C13.3955531,14.7576696 13.5628504,14.7879813 13.7144089,14.8480218 C13.8653846,14.9080623 13.9936264,14.987922 14.0985516,15.0881838 C14.2034767,15.1890285 14.2967435,15.3102754 14.3777691,15.4525073 C14.4587946,15.595322 14.5229155,15.7416343 14.5712977,15.8914441 C14.6190969,16.0412539 14.6587353,16.2038879 14.6902129,16.3793461 C14.7216904,16.5548043 14.7426754,16.7180212 14.753168,16.8695797 C14.7636605,17.0211383 14.7689067,17.1761943 14.7689067,17.3353308 C14.7689067,17.6949909 14.6593182,17.9788717 14.4407242,18.1875562 L14.4407242,18.1875562 Z M15.6683484,14.8637606 C15.5004682,14.9850074 15.2935325,15.0456308 15.0481242,15.0456308 L14.4453875,15.0456308 C14.1364412,14.677227 13.7388915,14.4848642 13.2533212,14.4702912 C13.4963978,14.1193749 13.6176446,13.7352323 13.6176446,13.3184462 C13.6176446,13.2315915 13.6100667,13.1324956 13.5949109,13.0217412 C13.7931028,13.0905255 13.9924606,13.1249176 14.1929842,13.1249176 C14.3701911,13.1249176 14.5485639,13.0928572 14.7286854,13.0287362 C14.908224,12.9640324 15.0545363,12.8999115 15.1670394,12.8369564 C15.2795425,12.7745842 15.3448292,12.7431067 15.3628997,12.7431067 C15.7342181,12.7431067 15.9201688,13.2718128 15.9201688,14.330391 C15.9201688,14.564141 15.8362287,14.7419308 15.6683484,14.8637606 L15.6683484,14.8637606 Z" id="path-1"></path>
    </defs>
    <g id="Page-1" stroke="none" stroke-width="1" fill="none" fill-rule="evenodd">
        <g id="folders-/-ei-folder-family-open">
            <g id="Group-4" transform="translate(0.000000, 3.000000)">
                <path d="M20.9491259,4.72144553 L21.486083,4.72144553 C21.9007896,4.72144553 22.213508,5.07833537 22.1817634,5.49200315 L21.3557274,16.1669299 C21.3239827,16.5792458 20.9585817,16.8550243 20.5438752,16.8550243 L2.20965838,16.8550243 C1.79495184,16.8550243 1.4295508,16.5549124 1.39780616,16.1412446 L0.57244558,5.52377175 C0.540025525,5.11010398 0.852743977,4.72144553 1.26745052,4.72144553 L1.16681326,4.72144553 L1.16681326,1.15863044 C1.16681326,0.630054949 1.68553415,0.250859489 2.20965838,0.250859489 L8.25802498,0.250859489 C8.65787233,0.250859489 9.12998939,0.554351042 9.31032594,0.911240886 L9.57171264,1.44116823 C9.76623297,1.82644704 10.2761734,2.16711462 10.70709,2.16711462 L19.9528846,2.16711462 C20.5654885,2.16711462 20.9491259,2.59294909 20.9491259,3.0586633 L20.9491259,4.72144553 Z M19.6725862,4.65412543 L19.6725862,4.18976308 C19.6725862,3.77474345 19.2511254,3.37662201 18.8364189,3.37662201 L3.27681854,3.37662201 C2.862112,3.37662201 2.44267753,3.77474345 2.44267753,4.18976308 L2.44267753,4.65412543 L19.6725862,4.65412543 Z" id="Combined-Shape" fill="#3895DF" fill-rule="nonzero"></path>
                <path d="M1.01682082,4.70539617 L21.5077977,4.70539617 L21.5077977,4.70539617 C22.0600825,4.70539617 22.5077977,5.15311142 22.5077977,5.70539617 C22.5077977,5.72786332 22.5070406,5.75032409 22.5055275,5.77274023 L21.7424266,17.0783923 C21.7135574,17.5061007 21.6611912,17.6586396 21.5704719,17.811592 C21.4797526,17.9645445 21.3530369,18.0829955 21.1943223,18.1632084 C21.0356077,18.2434213 20.8798886,18.2853961 20.451207,18.2853961 L2.10320845,18.2853961 C1.67517702,18.2853961 1.51968663,18.2435864 1.3611403,18.1636348 C1.20259398,18.0836832 1.07593305,17.9655896 0.985091268,17.8130217 C0.894249485,17.6604538 0.841670005,17.5082673 0.811741281,17.0812835 L0.0192683478,5.77531796 L0.0192683478,5.77531796 C-0.0193483899,5.22438494 0.395966016,4.74646043 0.946899035,4.70784369 C0.970170615,4.70621251 0.993492148,4.70539617 1.01682082,4.70539617 Z" id="Rectangle-3-Copy" fill="#66AFE9"></path>
            </g>
            <mask id="mask-2" fill="white">
                <use xlink:href="#path-1"></use>
            </mask>
            <use id="Imported-Layers" fill="#FFFFFF" xlink:href="#path-1"></use>
        </g>
    </g>
</svg>