<?xml version="1.0" encoding="UTF-8"?>
<svg width="24px" height="24px" viewBox="0 0 24 24" version="1.1" xmlns="http://www.w3.org/2000/svg" xmlns:xlink="http://www.w3.org/1999/xlink">
    <!-- Generator: Sketch 47.1 (45422) - http://www.bohemiancoding.com/sketch -->
    <title>folders / ei-folder-document open</title>
    <desc>Created with Sketch.</desc>
    <defs>
        <path d="M15.7033794,18.8578831 C15.7033794,18.9998126 15.6528994,19.1212574 15.554134,19.2207544 C15.4553686,19.3202514 15.3331922,19.3699999 15.1905311,19.3699999 L8.01284839,19.3699999 C7.87018728,19.3699999 7.74947404,19.3202514 7.64924547,19.2207544 C7.54901689,19.1212574 7.5,18.9998126 7.5,18.8578831 L7.5,10.3128486 C7.5,10.1701875 7.54974849,10.0494742 7.64924547,9.94924566 C7.74874244,9.84901708 7.87018728,9.80000019 8.01284839,9.80000019 L12.2853656,9.80000019 L12.2853656,12.7051656 C12.2853656,12.8478267 12.3351141,12.96854 12.4346111,13.0687685 C12.5341081,13.1689971 12.6555529,13.218014 12.7974824,13.218014 L15.7033794,13.218014 L15.7033794,18.8578831 Z M12.9686758,12.5347039 L12.9686758,10.0136261 C13.0462249,10.0641061 13.1106053,10.113123 13.1610854,10.1628715 L15.3397765,12.3422943 C15.3902566,12.3920428 15.4392735,12.4556916 15.489022,12.5347039 L12.9686758,12.5347039 L12.9686758,12.5347039 Z M13.4807926,15.268676 L9.7211237,15.268676 C9.67064361,15.268676 9.63040586,15.2855027 9.59821567,15.3169613 C9.56602547,15.3484199 9.55066196,15.3901208 9.55066196,15.4398693 L9.55066196,15.7815243 C9.55066196,15.8320044 9.56675706,15.8722422 9.59821567,15.9044324 C9.62967427,15.9366226 9.67137521,15.9527177 9.7211237,15.9527177 L13.4807926,15.9527177 C13.5312726,15.9527177 13.5715104,15.9366226 13.6037006,15.9044324 C13.6358908,15.8722422 13.6512543,15.8320044 13.6512543,15.7815243 L13.6512543,15.4398693 C13.6512543,15.3893892 13.6351592,15.3491515 13.6037006,15.3169613 C13.572242,15.2847711 13.5305411,15.268676 13.4807926,15.268676 Z M9.59821567,13.950341 C9.56675706,13.9817996 9.55066196,14.0235006 9.55066196,14.073249 L9.55066196,14.4149041 C9.55066196,14.4653842 9.56675706,14.5056219 9.59821567,14.5378121 C9.62967427,14.5700023 9.67137521,14.5860974 9.7211237,14.5860974 L13.4807926,14.5860974 C13.5312726,14.5860974 13.5715104,14.5692707 13.6037006,14.5378121 C13.6358908,14.5063535 13.6512543,14.4646526 13.6512543,14.4149041 L13.6512543,14.073249 C13.6512543,14.0235006 13.6351592,13.9825312 13.6037006,13.950341 C13.572242,13.9181508 13.5305411,13.9020557 13.4807926,13.9020557 L9.7211237,13.9020557 C9.67064361,13.9020557 9.63040586,13.9181508 9.59821567,13.950341 Z M13.4807926,16.6360278 L9.7211237,16.6360278 C9.67064361,16.6360278 9.63040586,16.6521229 9.59821567,16.6843131 C9.56602547,16.7165033 9.55066196,16.7574726 9.55066196,16.8072211 L9.55066196,17.1496078 C9.55066196,17.1993563 9.56675706,17.239594 9.59821567,17.2725158 C9.62967427,17.3054376 9.67137521,17.3208011 9.7211237,17.3208011 L13.4807926,17.3208011 C13.5312726,17.3208011 13.5715104,17.304706 13.6037006,17.2725158 C13.6358908,17.2403256 13.6512543,17.1993563 13.6512543,17.1496078 L13.6512543,16.8072211 C13.6512543,16.7574726 13.6351592,16.7165033 13.6037006,16.6843131 C13.572242,16.6521229 13.5305411,16.6360278 13.4807926,16.6360278 Z" id="path-1"></path>
    </defs>
    <g id="Page-1" stroke="none" stroke-width="1" fill="none" fill-rule="evenodd">
        <g id="folders-/-ei-folder-document-open">
            <g id="Group-4" transform="translate(0.000000, 3.000000)">
                <path d="M20.9491259,4.72144553 L21.486083,4.72144553 C21.9007896,4.72144553 22.213508,5.07833537 22.1817634,5.49200315 L21.3557274,16.1669299 C21.3239827,16.5792458 20.9585817,16.8550243 20.5438752,16.8550243 L2.20965838,16.8550243 C1.79495184,16.8550243 1.4295508,16.5549124 1.39780616,16.1412446 L0.57244558,5.52377175 C0.540025525,5.11010398 0.852743977,4.72144553 1.26745052,4.72144553 L1.16681326,4.72144553 L1.16681326,1.15863044 C1.16681326,0.630054949 1.68553415,0.250859489 2.20965838,0.250859489 L8.25802498,0.250859489 C8.65787233,0.250859489 9.12998939,0.554351042 9.31032594,0.911240886 L9.57171264,1.44116823 C9.76623297,1.82644704 10.2761734,2.16711462 10.70709,2.16711462 L19.9528846,2.16711462 C20.5654885,2.16711462 20.9491259,2.59294909 20.9491259,3.0586633 L20.9491259,4.72144553 Z M19.6725862,4.65412543 L19.6725862,4.18976308 C19.6725862,3.77474345 19.2511254,3.37662201 18.8364189,3.37662201 L3.27681854,3.37662201 C2.862112,3.37662201 2.44267753,3.77474345 2.44267753,4.18976308 L2.44267753,4.65412543 L19.6725862,4.65412543 Z" id="Combined-Shape" fill="#3895DF" fill-rule="nonzero"></path>
                <path d="M1.01682082,4.70539617 L21.5077977,4.70539617 L21.5077977,4.70539617 C22.0600825,4.70539617 22.5077977,5.15311142 22.5077977,5.70539617 C22.5077977,5.72786332 22.5070406,5.75032409 22.5055275,5.77274023 L21.7424266,17.0783923 C21.7135574,17.5061007 21.6611912,17.6586396 21.5704719,17.811592 C21.4797526,17.9645445 21.3530369,18.0829955 21.1943223,18.1632084 C21.0356077,18.2434213 20.8798886,18.2853961 20.451207,18.2853961 L2.10320845,18.2853961 C1.67517702,18.2853961 1.51968663,18.2435864 1.3611403,18.1636348 C1.20259398,18.0836832 1.07593305,17.9655896 0.985091268,17.8130217 C0.894249485,17.6604538 0.841670005,17.5082673 0.811741281,17.0812835 L0.0192683478,5.77531796 L0.0192683478,5.77531796 C-0.0193483899,5.22438494 0.395966016,4.74646043 0.946899035,4.70784369 C0.970170615,4.70621251 0.993492148,4.70539617 1.01682082,4.70539617 Z" id="Rectangle-3-Copy" fill="#66AFE9"></path>
            </g>
            <mask id="mask-2" fill="white">
                <use xlink:href="#path-1"></use>
            </mask>
            <use id="Shape" fill="#FFFFFF" fill-rule="nonzero" xlink:href="#path-1"></use>
        </g>
    </g>
</svg>