<?xml version="1.0" encoding="UTF-8"?>
<svg width="38px" height="38px" viewBox="0 0 38 38" version="1.1" xmlns="http://www.w3.org/2000/svg" xmlns:xlink="http://www.w3.org/1999/xlink">
    <!-- Generator: Sketch 47.1 (45422) - http://www.bohemiancoding.com/sketch -->
    <title>folders / ei-folder-e-v3-open</title>
    <desc>Created with Sketch.</desc>
    <defs>
        <path d="M20.8939602,17.7291917 C20.8939602,17.2129819 20.6560989,16.7372592 20.0609394,16.7372592 C17.5224022,16.7372592 15.657974,21.1796995 15.0223276,23.0846146 C17.561877,22.3710306 20.8939602,20.8234136 20.8939602,17.7302039 L20.8939602,17.7302039 L20.8939602,17.7291917 Z M24.6633035,22.8862282 C22.9183122,25.7425887 20.2603381,28.5199995 16.6893813,28.5199995 C14.5081422,28.5199995 13,27.1312941 13,24.9095679 C13,21.2991363 16.45152,16.2999992 20.3392878,16.2999992 C21.41017,16.2999992 22.0448043,16.816209 22.0448043,17.9275782 C22.0448043,21.2596614 17.5628892,22.925703 14.903903,23.5208625 C14.7055165,24.1949717 14.5466049,24.9480306 14.5466049,25.6626268 C14.5466049,27.0513322 15.1812392,28.1222144 16.6893813,28.1222144 C20.1014265,28.1222144 22.6004889,25.3053287 24.3060054,22.6473546 L24.6633035,22.885216 L24.6633035,22.8862282 Z" id="path-1"></path>
    </defs>
    <g id="drag-to-move-1A-hover" stroke="none" stroke-width="1" fill="none" fill-rule="evenodd">
        <g id="folders-/-ei-folder-e-v3-open">
            <path d="M35.1420108,12.3476925 L34.2911844,12.3476925 L34.2911844,9.61480414 C34.2911844,8.84937322 33.6832984,8.14948718 32.7126071,8.14948718 L18.0623396,8.14948718 C17.379538,8.14948718 16.5715205,7.58957835 16.2632966,6.95634812 L15.8491207,6.08537883 C15.5633715,5.49880767 14.8152863,5 14.181715,5 L4.59787789,5 C3.7673857,5 2.94545528,5.62323185 2.94545528,6.49197929 L2.94545528,12.3476925 L3.10491834,12.3476925 C2.4478021,12.3476925 1.95228936,12.9864774 2.00366001,13.6663667 L3.31147117,31.1168586 C3.3617716,31.7967479 3.94076164,32.2900009 4.59787789,32.2900009 L33.6490513,32.2900009 C34.3061675,32.2900009 34.8851576,31.8367414 34.935458,31.1590739 L36.2443394,13.6141529 C36.2946398,12.9342636 35.7991271,12.3476925 35.1420108,12.3476925 L35.1420108,12.3476925 L35.1420108,12.3476925 Z M32.2684651,12.3476925 L4.96710444,12.3476925 L4.96710444,11.5844834 C4.96710444,10.9023723 5.63171224,10.2480344 6.28882849,10.2480344 L30.9435303,10.2480344 C31.6006466,10.2480344 32.2684651,10.9023723 32.2684651,11.5844834 L32.2684651,12.3476925 Z" id="Combined-Shape" fill="#367FC6" fill-rule="nonzero"></path>
            <mask id="mask-2" fill="white">
                <use xlink:href="#path-1"></use>
            </mask>
            <use id="Shape" fill="#FFFFFF" fill-rule="nonzero" xlink:href="#path-1"></use>
        </g>
    </g>
</svg>