<?xml version="1.0" encoding="UTF-8"?>
<svg width="24px" height="24px" viewBox="0 0 24 24" version="1.1" xmlns="http://www.w3.org/2000/svg" xmlns:xlink="http://www.w3.org/1999/xlink">
    <!-- Generator: Sketch 47.1 (45422) - http://www.bohemiancoding.com/sketch -->
    <title>folders / ei-folder-box open</title>
    <desc>Created with Sketch.</desc>
    <defs>
        <path d="M11.6528006,12.3022704 C13.0076731,12.302483 14.162999,13.2777496 14.3821841,14.6062751 C14.6013692,15.9348006 13.8199002,17.2255568 12.5360135,17.655604 C11.2521269,18.0856511 9.84371227,17.5284123 9.20872424,16.339163 C8.6171897,17.4466257 7.34634159,18.0159187 6.1194539,17.7230421 C4.89256622,17.4301654 4.02067619,16.3493683 4,15.0957616 L4,10.5360899 C4.00724491,10.2379451 4.25256431,10 4.55270405,10 C4.8528438,10 5.09816319,10.2379451 5.10540811,10.5360899 L5.10540811,12.8516207 C5.75242653,12.3696795 6.57922541,12.1930602 7.36841064,12.3682022 C8.15759587,12.5433441 8.83019874,13.0527219 9.20936861,13.7624026 C9.68896031,12.8637157 10.629075,12.3019273 11.6528006,12.3022704 Z M18.7108523,16.8801898 L18.7102079,16.8801898 C18.90094,17.1231717 18.8461689,17.460273 18.583268,17.6408287 C18.3187054,17.8204244 17.9611408,17.7772799 17.7475267,17.5399864 L16.4542862,15.964926 L15.1604013,17.5399864 C14.9590372,17.7752851 14.5875608,17.8213844 14.3253043,17.6408287 C14.0630478,17.460273 14.0082767,17.1231717 14.1996531,16.8801898 L15.7029566,15.0458207 L14.2002975,13.2098509 C14.0089211,12.9678294 14.0636921,12.6310482 14.3259487,12.4498523 C14.5882052,12.2686563 14.9596816,12.3150757 15.1610457,12.5500543 L16.4549305,14.1270355 L17.7497819,12.5519751 C17.9634302,12.3146215 18.3211881,12.2717278 18.5855233,12.4517731 C18.848102,12.6313684 18.9028731,12.9694301 18.7124632,13.2117717 L17.2072266,15.0477415 L18.7108523,16.8801898 Z M6.76561446,16.6983536 C7.68166196,16.6978235 8.42403221,15.9598862 8.42420989,15.0496623 C8.42385405,14.1395523 7.68111809,13.4020159 6.76518505,13.4022516 C5.84925201,13.4024873 5.10690059,14.1404058 5.10701916,15.0505159 C5.10713773,15.960626 5.84968139,16.6983535 6.76561446,16.6983536 Z M11.6528006,16.6983536 L11.6521562,16.6986737 C12.5684032,16.6984969 13.3110739,15.9604045 13.3110738,15.0499824 C13.3108959,14.139789 12.5681732,13.4020748 11.6521562,13.4022516 C10.7361393,13.4024284 9.99370509,14.1404293 9.99388302,15.0506227 C9.99406096,15.9608161 10.7367836,16.6985303 11.6528006,16.6983536 Z" id="path-1"></path>
    </defs>
    <g id="Page-1" stroke="none" stroke-width="1" fill="none" fill-rule="evenodd">
        <g id="folders-/-ei-folder-box-open">
            <g id="Group-4" transform="translate(0.000000, 3.000000)">
                <path d="M20.9491259,4.72144553 L21.486083,4.72144553 C21.9007896,4.72144553 22.213508,5.07833537 22.1817634,5.49200315 L21.3557274,16.1669299 C21.3239827,16.5792458 20.9585817,16.8550243 20.5438752,16.8550243 L2.20965838,16.8550243 C1.79495184,16.8550243 1.4295508,16.5549124 1.39780616,16.1412446 L0.57244558,5.52377175 C0.540025525,5.11010398 0.852743977,4.72144553 1.26745052,4.72144553 L1.16681326,4.72144553 L1.16681326,1.15863044 C1.16681326,0.630054949 1.68553415,0.250859489 2.20965838,0.250859489 L8.25802498,0.250859489 C8.65787233,0.250859489 9.12998939,0.554351042 9.31032594,0.911240886 L9.57171264,1.44116823 C9.76623297,1.82644704 10.2761734,2.16711462 10.70709,2.16711462 L19.9528846,2.16711462 C20.5654885,2.16711462 20.9491259,2.59294909 20.9491259,3.0586633 L20.9491259,4.72144553 Z M19.6725862,4.65412543 L19.6725862,4.18976308 C19.6725862,3.77474345 19.2511254,3.37662201 18.8364189,3.37662201 L3.27681854,3.37662201 C2.862112,3.37662201 2.44267753,3.77474345 2.44267753,4.18976308 L2.44267753,4.65412543 L19.6725862,4.65412543 Z" id="Combined-Shape" fill="#3895DF" fill-rule="nonzero"></path>
                <path d="M1.01682082,4.70539617 L21.5077977,4.70539617 L21.5077977,4.70539617 C22.0600825,4.70539617 22.5077977,5.15311142 22.5077977,5.70539617 C22.5077977,5.72786332 22.5070406,5.75032409 22.5055275,5.77274023 L21.7424266,17.0783923 C21.7135574,17.5061007 21.6611912,17.6586396 21.5704719,17.811592 C21.4797526,17.9645445 21.3530369,18.0829955 21.1943223,18.1632084 C21.0356077,18.2434213 20.8798886,18.2853961 20.451207,18.2853961 L2.10320845,18.2853961 C1.67517702,18.2853961 1.51968663,18.2435864 1.3611403,18.1636348 C1.20259398,18.0836832 1.07593305,17.9655896 0.985091268,17.8130217 C0.894249485,17.6604538 0.841670005,17.5082673 0.811741281,17.0812835 L0.0192683478,5.77531796 L0.0192683478,5.77531796 C-0.0193483899,5.22438494 0.395966016,4.74646043 0.946899035,4.70784369 C0.970170615,4.70621251 0.993492148,4.70539617 1.01682082,4.70539617 Z" id="Rectangle-3-Copy" fill="#66AFE9"></path>
            </g>
            <mask id="mask-2" fill="white">
                <use xlink:href="#path-1"></use>
            </mask>
            <use id="Shape" fill="#FFFFFF" fill-rule="nonzero" xlink:href="#path-1"></use>
        </g>
    </g>
</svg>