<?xml version="1.0" encoding="UTF-8"?>
<svg width="38px" height="38px" viewBox="0 0 38 38" version="1.1" xmlns="http://www.w3.org/2000/svg" xmlns:xlink="http://www.w3.org/1999/xlink">
    <!-- Generator: Sketch 47.1 (45422) - http://www.bohemiancoding.com/sketch -->
    <title>folders / ei-folder-generic-integration-v3</title>
    <desc>Created with Sketch.</desc>
    <defs></defs>
    <g id="drag-to-move-1A-hover" stroke="none" stroke-width="1" fill="none" fill-rule="evenodd">
        <g id="folders-/-ei-folder-generic-integration-v3">
            <g id="folders-/-ei-folder-legal" transform="translate(3.000000, 5.000000)" fill-rule="nonzero" fill="#367FC6">
                <path d="M31.9735952,15.6051615 C31.9910991,15.8522105 32,16.1016363 32,16.3531409 C32,16.6046456 31.9910991,16.8540713 31.9735952,17.1011203 L31.9735952,24.6112054 L31.9950316,24.6112054 L31.8639271,25.6895094 C31.8126506,26.3550125 31.2224258,26.8001359 30.5525588,26.8001359 L1.37230718,26.8001359 C0.702440156,26.8001359 0.112215303,26.3157369 0.060938837,25.6480519 L6.07153217e-16,24.6112054 L0.0279246186,24.6112054 L0.0279246186,17.1222691 C0.00941622561,16.8683084 3.16795747e-17,16.6118243 0,16.3531409 C-3.16795747e-17,16.0944576 0.00941622561,15.8379735 0.0279246186,15.5840127 L0.0279246186,7.22622997 C0.0763541228,7.21935955 0.125886656,7.21579885 0.176354261,7.21579885 L0.0279246186,7.21579885 L0.0279246186,3.91171477 L0.013796954,3.91171477 L0.013796954,1.46519774 C0.013796954,0.612044625 0.851676227,0 1.69828341,0 L11.4680867,0 C12.1139519,0 12.876553,0.489853898 13.167847,1.0658959 L13.5900596,1.92123099 C13.9042643,2.54309451 14.7279607,3.09295279 15.4240115,3.09295279 L30.3585549,3.09295279 C31.3480816,3.09295279 31.9677631,3.78027563 31.9677631,4.5319668 L31.9677631,7.21579885 L31.9735952,7.21579885 L31.9735952,15.6051615 Z M21.9951109,5.93045593 L30.004295,5.93045593 C30.004295,5.26058891 29.3235181,5.16129032 28.6536511,5.16129032 L3.52054584,5.16129032 C2.85067882,5.16129032 2.17317487,5.26058891 2.17317487,5.93045593 L10.0048891,5.93045593 C10.1462993,5.92477117 10.2884342,5.92190153 10.4312394,5.92190153 L10.4312394,5.92190153 L21.5687606,5.92190153 L21.5687606,5.92190153 C21.7115658,5.92190153 21.8537007,5.92477117 21.9951109,5.93045593 Z" id="Combined-Shape"></path>
            </g>
            <path d="M14.8823037,27.2588586 C14.8510869,27.2596182 14.8197766,27.2600002 14.788377,27.2600002 C12.6961141,27.2600002 11,25.5638861 11,23.4716233 C11,21.9190764 11.9339251,20.5846594 13.2706252,19.9995224 C13.259778,19.874669 13.2542408,19.7482954 13.2542408,19.6206285 C13.2542408,17.2344114 15.188652,15.3000002 17.5748691,15.3000002 C19.3313132,15.3000002 20.8429633,16.3480876 21.5185321,17.8529751 C21.8888767,17.5861741 22.3434662,17.4290054 22.8347644,17.4290054 C24.0797473,17.4290054 25.0890053,18.4382634 25.0890053,19.6832463 C25.0890053,20.0853516 24.9837231,20.4628669 24.7992206,20.7897302 C26.3482758,21.0404535 27.5310995,22.3840324 27.5310995,24.0038746 C27.5310995,25.7179066 26.2067199,27.1226131 24.5254451,27.2600002 L14.8823037,27.2588586 Z M17.5122513,21.7496337 L15.3281448,21.7496337 C15.2279244,21.8726053 15.2351135,22.0539396 15.3497121,22.1685382 L18.3605802,25.1794063 C18.4828491,25.3016752 18.6810861,25.3016752 18.8033549,25.1794063 L21.814223,22.1685382 C21.9288216,22.0539396 21.9360107,21.8726053 21.8357903,21.7496337 L19.7038744,21.7496337 L19.7038744,18.8065971 C19.7038744,18.7028485 19.6197695,18.6187437 19.516021,18.6187437 L17.7001047,18.6187437 C17.5963562,18.6187437 17.5122513,18.7028485 17.5122513,18.8065971 L17.5122513,21.7496337 Z" id="Combined-Shape" fill="#FFFFFF"></path>
        </g>
    </g>
</svg>