<?xml version="1.0" encoding="UTF-8"?>
<svg width="38px" height="38px" viewBox="0 0 38 38" version="1.1" xmlns="http://www.w3.org/2000/svg" xmlns:xlink="http://www.w3.org/1999/xlink">
    <!-- Generator: Sketch 47.1 (45422) - http://www.bohemiancoding.com/sketch -->
    <title>folders / ei-folder-orion-v3</title>
    <desc>Created with Sketch.</desc>
    <defs></defs>
    <g id="drag-to-move-1A-hover" stroke="none" stroke-width="1" fill="none" fill-rule="evenodd">
        <g id="folders-/-ei-folder-orion-v3">
            <g id="folders-/-ei-folder-legal" transform="translate(3.000000, 5.000000)" fill-rule="nonzero" fill="#367FC6">
                <path d="M31.9735952,15.6051615 C31.9910991,15.8522105 32,16.1016363 32,16.3531409 C32,16.6046456 31.9910991,16.8540713 31.9735952,17.1011203 L31.9735952,24.6112054 L31.9950316,24.6112054 L31.8639271,25.6895094 C31.8126506,26.3550125 31.2224258,26.8001359 30.5525588,26.8001359 L1.37230718,26.8001359 C0.702440156,26.8001359 0.112215303,26.3157369 0.060938837,25.6480519 L6.07153217e-16,24.6112054 L0.0279246186,24.6112054 L0.0279246186,17.1222691 C0.00941622561,16.8683084 3.16795747e-17,16.6118243 0,16.3531409 C-3.16795747e-17,16.0944576 0.00941622561,15.8379735 0.0279246186,15.5840127 L0.0279246186,7.22622997 C0.0763541228,7.21935955 0.125886656,7.21579885 0.176354261,7.21579885 L0.0279246186,7.21579885 L0.0279246186,3.91171477 L0.013796954,3.91171477 L0.013796954,1.46519774 C0.013796954,0.612044625 0.851676227,0 1.69828341,0 L11.4680867,0 C12.1139519,0 12.876553,0.489853898 13.167847,1.0658959 L13.5900596,1.92123099 C13.9042643,2.54309451 14.7279607,3.09295279 15.4240115,3.09295279 L30.3585549,3.09295279 C31.3480816,3.09295279 31.9677631,3.78027563 31.9677631,4.5319668 L31.9677631,7.21579885 L31.9735952,7.21579885 L31.9735952,15.6051615 Z M21.9951109,5.93045593 L30.004295,5.93045593 C30.004295,5.26058891 29.3235181,5.16129032 28.6536511,5.16129032 L3.52054584,5.16129032 C2.85067882,5.16129032 2.17317487,5.26058891 2.17317487,5.93045593 L10.0048891,5.93045593 C10.1462993,5.92477117 10.2884342,5.92190153 10.4312394,5.92190153 L10.4312394,5.92190153 L21.5687606,5.92190153 L21.5687606,5.92190153 C21.7115658,5.92190153 21.8537007,5.92477117 21.9951109,5.93045593 Z" id="Combined-Shape"></path>
            </g>
            <g id="Group-14" transform="translate(12.000000, 14.600000)" fill="#FFFFFF">
                <path d="M7.3574805,0.00496677724 L5.98581354,0.00496677724 C5.58906004,0.00496677724 5.35732791,-0.0747740438 5.4298905,0.404763223 L5.55863057,1.8291746 C5.81611072,4.90520408 5.7903627,5.01116107 6.0724205,5.01116107 L6.10167961,5.01116107 C6.24095296,4.96855981 6.43055198,4.94452832 6.66462484,4.94452832 C6.8986977,4.94452832 7.08946708,4.96746747 7.22757006,5.01116107 L7.27321427,5.01116107 C7.55644243,5.01116107 7.53069442,4.90520408 7.7870042,1.8291746 L7.91574427,0.404763223 C7.9871365,-0.0747740438 7.75657473,0.00496677724 7.35982123,0.00496677724 L7.3574805,0.00496677724 Z" id="Shape"></path>
                <path d="M13.8469913,5.55232556 L13.81071,5.4496456 L13.4478971,4.44032343 L13.4116158,4.33764346 C13.2852165,3.98700232 13.293409,3.75651858 12.8287744,3.9728019 L11.4219965,4.53863403 C8.37904932,5.7445774 8.26201289,5.75440846 8.35213094,6.00455433 L8.36149386,6.03077049 C8.44927118,6.14000449 8.53353741,6.30057847 8.60844073,6.50812307 C8.68217368,6.71566768 8.71845497,6.89044208 8.71962533,7.02698458 L8.73366971,7.06630882 C8.82378776,7.31645469 8.92443909,7.259653 12.1300669,6.50921541 L13.6187703,6.16949767 C14.1290491,6.07992579 13.9733907,5.90078203 13.8469913,5.55014088 L13.8469913,5.55232556 Z" id="Shape"></path>
                <path d="M10.5363544,13.4167558 L11.6716077,12.6979961 C11.9993097,12.4904515 12.2392344,12.4358345 11.8916362,12.0753623 L10.9284264,10.9633602 C8.86624451,8.55256576 8.82177066,8.45097814 8.58886817,8.59953638 L8.56546088,8.61482914 C8.47651319,8.7229708 8.33372875,8.84203587 8.13944827,8.96437795 C7.9451678,9.08672003 7.77546498,9.16755319 7.63268053,9.20469275 L7.59639924,9.22763189 C7.36232638,9.37509779 7.44776297,9.45046925 9.08510263,12.1299793 L9.83530615,13.3752469 C10.0646976,13.8099983 10.2086524,13.6221158 10.5363544,13.4145712 L10.5363544,13.4167558 Z" id="Shape"></path>
                <path d="M0.128675574,5.54362144 L0.167297596,5.44203382 L0.57926583,4.33440104 C0.709176268,3.98485224 0.70449481,3.75546084 1.16678871,3.97502118 L2.56654441,4.55614607 C5.59544723,5.79267496 5.71131329,5.8046907 5.61885451,6.05374423 L5.60832123,6.07886805 C5.51937355,6.18810205 5.43393695,6.34758369 5.35669291,6.55294361 C5.27944887,6.75830354 5.24082684,6.93417028 5.23965648,7.07180512 L5.22444174,7.11112936 C5.1308126,7.36018289 5.032502,7.30228886 1.83506673,6.51908107 L0.351044791,6.16407057 C-0.156893316,6.07012933 -0.00123486367,5.89207791 0.128675574,5.5425291 L0.128675574,5.54362144 Z" id="Shape"></path>
                <path d="M3.19244946,13.4167558 L2.05719608,12.6979961 C1.72949408,12.4904515 1.4895694,12.4358345 1.8371676,12.0753623 L2.80037742,10.9633602 C4.86255932,8.55256576 4.90586279,8.45097814 5.13993565,8.59953638 L5.16334294,8.61482914 C5.25229063,8.7229708 5.39507507,8.84203587 5.58935555,8.96437795 C5.78363602,9.08672003 5.95333884,9.16755319 6.09612329,9.20469275 L6.13240458,9.22763189 C6.36647744,9.37509779 6.28104085,9.45046925 4.64370119,12.1299793 L3.89349767,13.3752469 C3.66410627,13.8099983 3.52015146,13.6221158 3.19244946,13.4145712 L3.19244946,13.4167558 Z" id="Shape"></path>
            </g>
        </g>
    </g>
</svg>