<?xml version="1.0" encoding="UTF-8"?>
<svg width="24px" height="24px" viewBox="0 0 24 24" version="1.1" xmlns="http://www.w3.org/2000/svg" xmlns:xlink="http://www.w3.org/1999/xlink">
    <!-- Generator: Sketch 47.1 (45422) - http://www.bohemiancoding.com/sketch -->
    <title>folders / ei-folder-generic-integration</title>
    <desc>Created with Sketch.</desc>
    <defs></defs>
    <g id="Page-1" stroke="none" stroke-width="1" fill="none" fill-rule="evenodd">
        <g id="folders-/-ei-folder-generic-integration">
            <path d="M1.00902936,5.625567 L1.00902936,3.98344973 C1.00902936,3.41080811 1.55737615,3 2.11143487,3 L8.50524405,3 C8.92792803,3 9.42700928,3.32879295 9.61764547,3.71543588 L9.89396084,4.28954205 C10.0995909,4.70694067 10.6386558,5.07600892 11.0941834,5.07600892 L20.8680364,5.07600892 C21.5156283,5.07600892 21.9211764,5.53734423 21.9211764,6.04188397 L21.9211764,7.84328853 L21.9249932,7.84328853 L21.9249932,19.5191923 L21.9390222,19.5191923 L21.8532213,20.2429566 C21.8196636,20.6896464 21.4333933,20.9884159 20.9950015,20.9884159 L1.89810102,20.9884159 C1.45970919,20.9884159 1.07343886,20.6632844 1.03988118,20.21513 L1,19.5191923 L1.01827516,19.5191923 L1.01827516,7.85028997 C1.04996965,7.8456785 1.08238602,7.84328853 1.11541435,7.84328853 L1.01827516,7.84328853 L1.01827516,5.625567 L1.00902936,5.625567 Z" id="Combined-Shape-Copy" fill="#3895DF" fill-rule="nonzero"></path>
            <rect id="Rectangle-3-Copy-2" fill="#66AFE9" x="1" y="6" width="20.9400005" height="14.9495225" rx="1"></rect>
            <path d="M8.80840961,17.4297886 C8.78763759,17.4302941 8.76680328,17.4305483 8.74590961,17.4305483 C7.3536918,17.4305483 6.22507627,16.3019327 6.22507627,14.9097149 C6.22507627,13.8766308 6.8465217,12.9886931 7.73597864,12.5993356 C7.72876076,12.5162567 7.72507627,12.4321661 7.72507627,12.3472149 C7.72507627,10.7593963 9.01225762,9.47221492 10.6000763,9.47221492 C11.7688361,9.47221492 12.7747069,10.1696254 13.2242388,11.1709963 C13.4706708,10.9934636 13.7731603,10.8888816 14.1000763,10.8888816 C14.9285034,10.8888816 15.6000763,11.5604545 15.6000763,12.3888816 C15.6000763,12.6564475 15.5300202,12.9076509 15.40725,13.1251498 C16.4380106,13.2919842 17.2250763,14.1860184 17.2250763,15.2638816 C17.2250763,16.4044199 16.3438176,17.3391292 15.2250763,17.4305483 L8.80840961,17.4297886 Z M10.5584096,13.7638816 L9.10507788,13.7638816 C9.03838998,13.8457084 9.0431737,13.9663705 9.11942903,14.0426259 L11.1228982,16.0460951 C11.2042575,16.1274543 11.3361668,16.1274543 11.4175261,16.0460951 L13.4209953,14.0426259 C13.4972506,13.9663705 13.5020343,13.8457084 13.4353464,13.7638816 L12.0167429,13.7638816 L12.0167429,11.8055483 C12.0167429,11.7365127 11.9607785,11.6805483 11.8917429,11.6805483 L10.6834096,11.6805483 C10.614374,11.6805483 10.5584096,11.7365127 10.5584096,11.8055483 L10.5584096,13.7638816 Z" id="Combined-Shape" fill="#FFFFFF"></path>
        </g>
    </g>
</svg>