<?xml version="1.0" encoding="UTF-8"?>
<svg width="38px" height="38px" viewBox="0 0 38 38" version="1.1" xmlns="http://www.w3.org/2000/svg" xmlns:xlink="http://www.w3.org/1999/xlink">
    <!-- Generator: Sketch 47.1 (45422) - http://www.bohemiancoding.com/sketch -->
    <title>folders / ei-folder-home-v3-open</title>
    <desc>Created with Sketch.</desc>
    <defs>
        <path d="M24.7633496,27.9587775 C24.7633496,28.2822772 24.4947676,28.5500011 24.172126,28.5500011 L20.6256424,28.5500011 L20.6256424,25.0043757 L18.2624642,25.0043757 L18.2624642,28.5500011 L14.7159806,28.5500011 C14.393339,28.5500011 14.124757,28.2822772 14.124757,27.9587775 L14.124757,23.5267457 C14.124757,23.5087258 14.134196,23.4898478 14.134196,23.471828 L19.4440533,19.0938557 L24.7539106,23.471828 C24.7633496,23.4898478 24.7633496,23.5087258 24.7633496,23.5267457 L24.7633496,27.9587775 L24.7633496,27.9587775 Z M26.8219062,22.8891852 L26.2495605,23.5730825 C26.2032237,23.6280002 26.129428,23.6657562 26.0556323,23.6743371 L26.0281734,23.6743371 C25.9543777,23.6743371 25.890021,23.6563172 25.8342452,23.6091223 L19.4440533,18.2821031 L13.0538614,23.6091223 C12.9895047,23.6563172 12.915709,23.683776 12.8324743,23.6743371 C12.7586786,23.6657562 12.6848829,23.6280002 12.6385461,23.5730825 L12.0662005,22.8891852 C11.9640878,22.7690527 11.9829658,22.5751245 12.1030983,22.47387 L18.7421362,16.9426255 C19.1299926,16.6191258 19.758114,16.6191258 20.1459705,16.9426255 L22.3993133,18.8261318 L22.3993133,17.0258602 C22.3993133,16.8593909 22.5280267,16.7306775 22.694496,16.7306775 L24.4673088,16.7306775 C24.6337781,16.7306775 24.7633496,16.8593909 24.7633496,17.0258602 L24.7633496,20.7928728 L26.7850083,22.47387 C26.9051408,22.5751245 26.9240188,22.7690527 26.8219062,22.8891852 L26.8219062,22.8891852 Z" id="path-1"></path>
    </defs>
    <g id="drag-to-move-1A-hover" stroke="none" stroke-width="1" fill="none" fill-rule="evenodd">
        <g id="folders-/-ei-folder-home-v3-open">
            <path d="M35.1420108,12.3476925 L34.2911844,12.3476925 L34.2911844,9.61480414 C34.2911844,8.84937322 33.6832984,8.14948718 32.7126071,8.14948718 L18.0623396,8.14948718 C17.379538,8.14948718 16.5715205,7.58957835 16.2632966,6.95634812 L15.8491207,6.08537883 C15.5633715,5.49880767 14.8152863,5 14.181715,5 L4.59787789,5 C3.7673857,5 2.94545528,5.62323185 2.94545528,6.49197929 L2.94545528,12.3476925 L3.10491834,12.3476925 C2.4478021,12.3476925 1.95228936,12.9864774 2.00366001,13.6663667 L3.31147117,31.1168586 C3.3617716,31.7967479 3.94076164,32.2900009 4.59787789,32.2900009 L33.6490513,32.2900009 C34.3061675,32.2900009 34.8851576,31.8367414 34.935458,31.1590739 L36.2443394,13.6141529 C36.2946398,12.9342636 35.7991271,12.3476925 35.1420108,12.3476925 L35.1420108,12.3476925 L35.1420108,12.3476925 Z M32.2684651,12.3476925 L4.96710444,12.3476925 L4.96710444,11.5844834 C4.96710444,10.9023723 5.63171224,10.2480344 6.28882849,10.2480344 L30.9435303,10.2480344 C31.6006466,10.2480344 32.2684651,10.9023723 32.2684651,11.5844834 L32.2684651,12.3476925 Z" id="Combined-Shape" fill="#367FC6" fill-rule="nonzero"></path>
            <mask id="mask-2" fill="white">
                <use xlink:href="#path-1"></use>
            </mask>
            <use id="Imported-Layers" fill="#FFFFFF" xlink:href="#path-1"></use>
        </g>
    </g>
</svg>