<?xml version="1.0" encoding="UTF-8"?>
<svg width="38px" height="38px" viewBox="0 0 38 38" version="1.1" xmlns="http://www.w3.org/2000/svg" xmlns:xlink="http://www.w3.org/1999/xlink">
    <!-- Generator: Sketch 47.1 (45422) - http://www.bohemiancoding.com/sketch -->
    <title>folders / ei-folder-generic-integration-v3-open</title>
    <desc>Created with Sketch.</desc>
    <defs></defs>
    <g id="drag-to-move-1A-hover" stroke="none" stroke-width="1" fill="none" fill-rule="evenodd">
        <g id="folders-/-ei-folder-generic-integration-v3-open">
            <path d="M35.1420108,12.3476925 L34.2911844,12.3476925 L34.2911844,9.61480414 C34.2911844,8.84937322 33.6832984,8.14948718 32.7126071,8.14948718 L18.0623396,8.14948718 C17.379538,8.14948718 16.5715205,7.58957835 16.2632966,6.95634812 L15.8491207,6.08537883 C15.5633715,5.49880767 14.8152863,5 14.181715,5 L4.59787789,5 C3.7673857,5 2.94545528,5.62323185 2.94545528,6.49197929 L2.94545528,12.3476925 L3.10491834,12.3476925 C2.4478021,12.3476925 1.95228936,12.9864774 2.00366001,13.6663667 L3.31147117,31.1168586 C3.3617716,31.7967479 3.94076164,32.2900009 4.59787789,32.2900009 L33.6490513,32.2900009 C34.3061675,32.2900009 34.8851576,31.8367414 34.935458,31.1590739 L36.2443394,13.6141529 C36.2946398,12.9342636 35.7991271,12.3476925 35.1420108,12.3476925 L35.1420108,12.3476925 L35.1420108,12.3476925 Z M32.2684651,12.3476925 L4.96710444,12.3476925 L4.96710444,11.5844834 C4.96710444,10.9023723 5.63171224,10.2480344 6.28882849,10.2480344 L30.9435303,10.2480344 C31.6006466,10.2480344 32.2684651,10.9023723 32.2684651,11.5844834 L32.2684651,12.3476925 Z" id="Combined-Shape" fill="#367FC6" fill-rule="nonzero"></path>
            <path d="M14.8823037,28.358858 C14.8510869,28.3596177 14.8197766,28.3599997 14.788377,28.3599997 C12.6961141,28.3599997 11,26.6638855 11,24.5716227 C11,23.0190758 11.9339251,21.6846588 13.2706252,21.0995218 C13.259778,20.9746685 13.2542408,20.8482948 13.2542408,20.7206279 C13.2542408,18.3344108 15.188652,16.3999996 17.5748691,16.3999996 C19.3313132,16.3999996 20.8429633,17.4480871 21.5185321,18.9529746 C21.8888767,18.6861735 22.3434662,18.5290049 22.8347644,18.5290049 C24.0797473,18.5290049 25.0890053,19.5382629 25.0890053,20.7832457 C25.0890053,21.185351 24.9837231,21.5628663 24.7992206,21.8897296 C26.3482758,22.140453 27.5310995,23.4840318 27.5310995,25.103874 C27.5310995,26.817906 26.2067199,28.2226126 24.5254451,28.3599997 L14.8823037,28.358858 Z M17.5122513,22.8496331 L15.3281448,22.8496331 C15.2279244,22.9726048 15.2351135,23.1539391 15.3497121,23.2685376 L18.3605802,26.2794057 C18.4828491,26.4016746 18.6810861,26.4016746 18.8033549,26.2794057 L21.814223,23.2685376 C21.9288216,23.1539391 21.9360107,22.9726048 21.8357903,22.8496331 L19.7038744,22.8496331 L19.7038744,19.9065965 C19.7038744,19.8028479 19.6197695,19.7187431 19.516021,19.7187431 L17.7001047,19.7187431 C17.5963562,19.7187431 17.5122513,19.8028479 17.5122513,19.9065965 L17.5122513,22.8496331 Z" id="Combined-Shape" fill="#FFFFFF"></path>
        </g>
    </g>
</svg>