<?xml version="1.0" encoding="UTF-8"?>
<svg width="38px" height="38px" viewBox="0 0 38 38" version="1.1" xmlns="http://www.w3.org/2000/svg" xmlns:xlink="http://www.w3.org/1999/xlink">
    <!-- Generator: Sketch 47.1 (45422) - http://www.bohemiancoding.com/sketch -->
    <title>folders / ei-folder-home-v3</title>
    <desc>Created with Sketch.</desc>
    <defs>
        <path d="M24.7633496,26.558777 C24.7633496,26.8822767 24.4947676,27.1500006 24.172126,27.1500006 L20.6256424,27.1500006 L20.6256424,23.6043751 L18.2624642,23.6043751 L18.2624642,27.1500006 L14.7159806,27.1500006 C14.393339,27.1500006 14.124757,26.8822767 14.124757,26.558777 L14.124757,22.1267451 C14.124757,22.1087252 14.134196,22.0898473 14.134196,22.0718274 L19.4440533,17.6938552 L24.7539106,22.0718274 C24.7633496,22.0898473 24.7633496,22.1087252 24.7633496,22.1267451 L24.7633496,26.558777 L24.7633496,26.558777 Z M26.8219062,21.4891847 L26.2495605,22.1730819 C26.2032237,22.2279997 26.129428,22.2657556 26.0556323,22.2743365 L26.0281734,22.2743365 C25.9543777,22.2743365 25.890021,22.2563166 25.8342452,22.2091217 L19.4440533,16.8821026 L13.0538614,22.2091217 C12.9895047,22.2563166 12.915709,22.2837755 12.8324743,22.2743365 C12.7586786,22.2657556 12.6848829,22.2279997 12.6385461,22.1730819 L12.0662005,21.4891847 C11.9640878,21.3690521 11.9829658,21.1751239 12.1030983,21.0738694 L18.7421362,15.542625 C19.1299926,15.2191253 19.758114,15.2191253 20.1459705,15.542625 L22.3993133,17.4261313 L22.3993133,15.6258596 C22.3993133,15.4593903 22.5280267,15.3306769 22.694496,15.3306769 L24.4673088,15.3306769 C24.6337781,15.3306769 24.7633496,15.4593903 24.7633496,15.6258596 L24.7633496,19.3928722 L26.7850083,21.0738694 C26.9051408,21.1751239 26.9240188,21.3690521 26.8219062,21.4891847 L26.8219062,21.4891847 Z" id="path-1"></path>
    </defs>
    <g id="drag-to-move-1A-hover" stroke="none" stroke-width="1" fill="none" fill-rule="evenodd">
        <g id="folders-/-ei-folder-home-v3">
            <g id="folders-/-ei-folder-legal" transform="translate(3.000000, 5.000000)" fill-rule="nonzero" fill="#367FC6">
                <path d="M31.9735952,15.6051615 C31.9910991,15.8522105 32,16.1016363 32,16.3531409 C32,16.6046456 31.9910991,16.8540713 31.9735952,17.1011203 L31.9735952,24.6112054 L31.9950316,24.6112054 L31.8639271,25.6895094 C31.8126506,26.3550125 31.2224258,26.8001359 30.5525588,26.8001359 L1.37230718,26.8001359 C0.702440156,26.8001359 0.112215303,26.3157369 0.060938837,25.6480519 L6.07153217e-16,24.6112054 L0.0279246186,24.6112054 L0.0279246186,17.1222691 C0.00941622561,16.8683084 3.16795747e-17,16.6118243 0,16.3531409 C-3.16795747e-17,16.0944576 0.00941622561,15.8379735 0.0279246186,15.5840127 L0.0279246186,7.22622997 C0.0763541228,7.21935955 0.125886656,7.21579885 0.176354261,7.21579885 L0.0279246186,7.21579885 L0.0279246186,3.91171477 L0.013796954,3.91171477 L0.013796954,1.46519774 C0.013796954,0.612044625 0.851676227,0 1.69828341,0 L11.4680867,0 C12.1139519,0 12.876553,0.489853898 13.167847,1.0658959 L13.5900596,1.92123099 C13.9042643,2.54309451 14.7279607,3.09295279 15.4240115,3.09295279 L30.3585549,3.09295279 C31.3480816,3.09295279 31.9677631,3.78027563 31.9677631,4.5319668 L31.9677631,7.21579885 L31.9735952,7.21579885 L31.9735952,15.6051615 Z M21.9951109,5.93045593 L30.004295,5.93045593 C30.004295,5.26058891 29.3235181,5.16129032 28.6536511,5.16129032 L3.52054584,5.16129032 C2.85067882,5.16129032 2.17317487,5.26058891 2.17317487,5.93045593 L10.0048891,5.93045593 C10.1462993,5.92477117 10.2884342,5.92190153 10.4312394,5.92190153 L10.4312394,5.92190153 L21.5687606,5.92190153 L21.5687606,5.92190153 C21.7115658,5.92190153 21.8537007,5.92477117 21.9951109,5.93045593 Z" id="Combined-Shape"></path>
            </g>
            <mask id="mask-2" fill="white">
                <use xlink:href="#path-1"></use>
            </mask>
            <use id="Imported-Layers" fill="#FFFFFF" xlink:href="#path-1"></use>
        </g>
    </g>
</svg>