<?xml version="1.0" encoding="UTF-8"?>
<svg width="24px" height="24px" viewBox="0 0 24 24" version="1.1" xmlns="http://www.w3.org/2000/svg" xmlns:xlink="http://www.w3.org/1999/xlink">
    <!-- Generator: Sketch 47.1 (45422) - http://www.bohemiancoding.com/sketch -->
    <title>folders / ei-folder-family</title>
    <desc>Created with Sketch.</desc>
    <defs>
        <path d="M7.53664917,13.8637606 C7.36818601,13.7419308 7.28482881,13.564141 7.28482881,13.330391 C7.28482881,12.2718128 7.47019657,11.7431067 7.84209795,11.7431067 C7.86016839,11.7431067 7.92545515,11.7745842 8.03795823,11.8369564 C8.15046131,11.8999115 8.2967736,11.9640324 8.4763122,12.0287362 C8.65643371,12.0928572 8.83480647,12.1249176 9.01143047,12.1249176 C9.21253701,12.1249176 9.4118948,12.0905255 9.61008676,12.0217412 C9.5949309,12.1324956 9.58735297,12.2315915 9.58735297,12.3184462 C9.58735297,12.7352323 9.70859982,13.1193749 9.95167642,13.4702912 C9.46610613,13.4848642 9.06855639,13.677227 8.75961011,14.0456308 L8.1568734,14.0456308 C7.91146513,14.0456308 7.70452941,13.9850074 7.53664917,13.8637606 L7.53664917,13.8637606 Z M13.3296834,12.3184462 C13.3296834,12.7952728 13.1612202,13.2021492 12.823711,13.5396584 C12.4862018,13.8771677 12.0793253,14.0456308 11.6024988,14.0456308 C11.1256723,14.0456308 10.7187959,13.8771677 10.3812866,13.5396584 C10.0437774,13.2021492 9.87531422,12.7952728 9.87531422,12.3184462 C9.87531422,11.8416197 10.0437774,11.4347433 10.3812866,11.0972341 C10.7187959,10.7603077 11.1256723,10.5912617 11.6024988,10.5912617 C12.0793253,10.5912617 12.4862018,10.7603077 12.823711,11.0972341 C13.1612202,11.4347433 13.3296834,11.8416197 13.3296834,12.3184462 L13.3296834,12.3184462 Z M13.0417221,10.5912617 C13.0417221,10.2735716 13.1542252,10.0019321 13.3792314,9.77750882 C13.6042375,9.55250266 13.8752942,9.43999958 14.1929842,9.43999958 C14.5112572,9.43999958 14.7823138,9.55250266 15.00732,9.77750882 C15.2323261,10.0019321 15.3448292,10.2735716 15.3448292,10.5912617 C15.3448292,10.9095346 15.2323261,11.1805913 15.00732,11.4055974 C14.7823138,11.6306036 14.5112572,11.7431067 14.1929842,11.7431067 C13.8752942,11.7431067 13.6042375,11.6306036 13.3792314,11.4055974 C13.1542252,11.1805913 13.0417221,10.9095346 13.0417221,10.5912617 L13.0417221,10.5912617 Z M9.82576624,11.4055974 C9.60076008,11.6306036 9.32970343,11.7431067 9.01143047,11.7431067 C8.69374043,11.7431067 8.42268379,11.6306036 8.19767763,11.4055974 C7.97267147,11.1805913 7.86016839,10.9095346 7.86016839,10.5912617 C7.86016839,10.2735716 7.97267147,10.0019321 8.19767763,9.77750882 C8.42268379,9.55250266 8.69374043,9.43999958 9.01143047,9.43999958 C9.32970343,9.43999958 9.60076008,9.55250266 9.82576624,9.77750882 C10.0507724,10.0019321 10.1632755,10.2735716 10.1632755,10.5912617 C10.1632755,10.9095346 10.0507724,11.1805913 9.82576624,11.4055974 L9.82576624,11.4055974 Z M14.4407242,17.1875562 C14.2215472,17.3956578 13.9306713,17.5 13.5680967,17.5 L9.63690096,17.5 C9.27432627,17.5 8.98345043,17.3956578 8.76427345,17.1875562 C8.54567938,16.9788717 8.43609089,16.6949909 8.43609089,16.3353308 C8.43609089,16.1761943 8.44133715,16.0211383 8.45182966,15.8695797 C8.46232218,15.7180212 8.48330721,15.5548043 8.51478475,15.3793461 C8.5462623,15.2038879 8.58590069,15.0412539 8.63369993,14.8914441 C8.68208208,14.7416343 8.74620301,14.595322 8.82722854,14.4525073 C8.90825407,14.3102754 9.00093796,14.1890285 9.10586311,14.0881838 C9.21137118,13.987922 9.33903011,13.9080623 9.49058867,13.8480218 C9.64214722,13.7879813 9.80944454,13.7576696 9.99248064,13.7576696 C10.0222094,13.7576696 10.0869133,13.790313 10.1854263,13.8544339 C10.2845223,13.9191377 10.3941108,13.9908366 10.5141918,14.0706963 C10.6336899,14.1499731 10.7945751,14.2216719 10.9950988,14.2863758 C11.1962053,14.3510796 11.3984777,14.3831401 11.6024988,14.3831401 C11.8065199,14.3831401 12.0087923,14.3510796 12.2098989,14.2863758 C12.4104225,14.2216719 12.5707248,14.1499731 12.6908058,14.0706963 C12.8108868,13.9908366 12.9204753,13.9191377 13.0189884,13.8544339 C13.1180843,13.790313 13.1827882,13.7576696 13.212517,13.7576696 C13.3955531,13.7576696 13.5628504,13.7879813 13.7144089,13.8480218 C13.8653846,13.9080623 13.9936264,13.987922 14.0985516,14.0881838 C14.2034767,14.1890285 14.2967435,14.3102754 14.3777691,14.4525073 C14.4587946,14.595322 14.5229155,14.7416343 14.5712977,14.8914441 C14.6190969,15.0412539 14.6587353,15.2038879 14.6902129,15.3793461 C14.7216904,15.5548043 14.7426754,15.7180212 14.753168,15.8695797 C14.7636605,16.0211383 14.7689067,16.1761943 14.7689067,16.3353308 C14.7689067,16.6949909 14.6593182,16.9788717 14.4407242,17.1875562 L14.4407242,17.1875562 Z M15.6683484,13.8637606 C15.5004682,13.9850074 15.2935325,14.0456308 15.0481242,14.0456308 L14.4453875,14.0456308 C14.1364412,13.677227 13.7388915,13.4848642 13.2533212,13.4702912 C13.4963978,13.1193749 13.6176446,12.7352323 13.6176446,12.3184462 C13.6176446,12.2315915 13.6100667,12.1324956 13.5949109,12.0217412 C13.7931028,12.0905255 13.9924606,12.1249176 14.1929842,12.1249176 C14.3701911,12.1249176 14.5485639,12.0928572 14.7286854,12.0287362 C14.908224,11.9640324 15.0545363,11.8999115 15.1670394,11.8369564 C15.2795425,11.7745842 15.3448292,11.7431067 15.3628997,11.7431067 C15.7342181,11.7431067 15.9201688,12.2718128 15.9201688,13.330391 C15.9201688,13.564141 15.8362287,13.7419308 15.6683484,13.8637606 L15.6683484,13.8637606 Z" id="path-1"></path>
    </defs>
    <g id="Page-1" stroke="none" stroke-width="1" fill="none" fill-rule="evenodd">
        <g id="folders-/-ei-folder-family">
            <path d="M1.00902936,5.625567 L1.00902936,3.98344973 C1.00902936,3.41080811 1.55737615,3 2.11143487,3 L8.50524405,3 C8.92792803,3 9.42700928,3.32879295 9.61764547,3.71543588 L9.89396084,4.28954205 C10.0995909,4.70694067 10.6386558,5.07600892 11.0941834,5.07600892 L20.8680364,5.07600892 C21.5156283,5.07600892 21.9211764,5.53734423 21.9211764,6.04188397 L21.9211764,7.84328853 L21.9249932,7.84328853 L21.9249932,19.5191923 L21.9390222,19.5191923 L21.8532213,20.2429566 C21.8196636,20.6896464 21.4333933,20.9884159 20.9950015,20.9884159 L1.89810102,20.9884159 C1.45970919,20.9884159 1.07343886,20.6632844 1.03988118,20.21513 L1,19.5191923 L1.01827516,19.5191923 L1.01827516,7.85028997 C1.04996965,7.8456785 1.08238602,7.84328853 1.11541435,7.84328853 L1.01827516,7.84328853 L1.01827516,5.625567 L1.00902936,5.625567 Z" id="Combined-Shape-Copy" fill="#3895DF" fill-rule="nonzero"></path>
            <rect id="Rectangle-3-Copy-2" fill="#66AFE9" x="1" y="6" width="20.9400005" height="14.9495225" rx="1"></rect>
            <mask id="mask-2" fill="white">
                <use xlink:href="#path-1"></use>
            </mask>
            <use id="Imported-Layers" fill="#FFFFFF" xlink:href="#path-1"></use>
        </g>
    </g>
</svg>