<?xml version="1.0" encoding="UTF-8"?>
<svg width="38px" height="38px" viewBox="0 0 38 38" version="1.1" xmlns="http://www.w3.org/2000/svg" xmlns:xlink="http://www.w3.org/1999/xlink">
    <!-- Generator: Sketch 47.1 (45422) - http://www.bohemiancoding.com/sketch -->
    <title>folders / ei-folder-legal-v3-open</title>
    <desc>Created with Sketch.</desc>
    <defs></defs>
    <g id="drag-to-move-1A-hover" stroke="none" stroke-width="1" fill="none" fill-rule="evenodd">
        <g id="folders-/-ei-folder-legal-v3-open" fill-rule="nonzero" fill="#367FC6">
            <path d="M35.1420108,12.3476925 L34.2911844,12.3476925 L34.2911844,9.61480414 C34.2911844,8.84937322 33.6832984,8.14948718 32.7126071,8.14948718 L18.0623396,8.14948718 C17.379538,8.14948718 16.5715205,7.58957835 16.2632966,6.95634812 L15.8491207,6.08537883 C15.5633715,5.49880767 14.8152863,5 14.181715,5 L4.59787789,5 C3.7673857,5 2.94545528,5.62323185 2.94545528,6.49197929 L2.94545528,12.3476925 L3.10491834,12.3476925 C2.4478021,12.3476925 1.95228936,12.9864774 2.00366001,13.6663667 L3.31147117,31.1168586 C3.3617716,31.7967479 3.94076164,32.2900009 4.59787789,32.2900009 L33.6490513,32.2900009 C34.3061675,32.2900009 34.8851576,31.8367414 34.935458,31.1590739 L36.2443394,13.6141529 C36.2946398,12.9342636 35.7991271,12.3476925 35.1420108,12.3476925 L35.1420108,12.3476925 L35.1420108,12.3476925 Z M32.2684651,12.3476925 L4.96710444,12.3476925 L4.96710444,11.5844834 C4.96710444,10.9023723 5.63171224,10.2480344 6.28882849,10.2480344 L30.9435303,10.2480344 C31.6006466,10.2480344 32.2684651,10.9023723 32.2684651,11.5844834 L32.2684651,12.3476925 Z M24.8128211,27.9164429 L24.013462,28.7539442 C23.8187464,28.9454283 23.5923544,29.0411703 23.3333546,29.0411703 C23.0687649,29.0411703 22.845168,28.9454283 22.6607005,28.7539442 L19.9477241,25.9300368 C19.7576667,25.7433882 19.6635697,25.5112862 19.6635697,25.2317967 C19.6635697,24.9571427 19.7707099,24.7095673 19.9849903,24.4871363 L18.071373,22.5007302 L17.1294709,23.4784598 C17.0595968,23.5509916 16.9748163,23.586774 16.8751293,23.586774 C16.7754424,23.586774 16.6915935,23.5509916 16.6217195,23.4784598 C16.631036,23.4890978 16.6627122,23.5200447 16.7148849,23.5713006 C16.7670575,23.6235235 16.7987337,23.6564046 16.8080503,23.6718781 C16.8182984,23.6873515 16.8434531,23.7173314 16.8835142,23.7608505 C16.9226437,23.8053367 16.9477983,23.840152 16.9580465,23.8662635 C16.9673631,23.8923749 16.9832012,23.9271902 17.0027659,23.9707094 C17.0223307,24.0151956 17.0363055,24.0577476 17.0437587,24.0983654 C17.0512119,24.1399504 17.0549386,24.1863708 17.0549386,24.2385937 C17.0549386,24.4349133 16.9850645,24.610924 16.8453164,24.7656586 C16.8304099,24.7820992 16.7894172,24.8285196 16.7223381,24.9058869 C16.655259,24.9832542 16.6077446,25.0364442 16.5807267,25.0644899 C16.5527771,25.0935027 16.507126,25.1360547 16.4419102,25.1931131 C16.3776261,25.2501715 16.3226585,25.2898222 16.2779391,25.3130324 C16.2332198,25.3362426 16.1782522,25.3594528 16.1130364,25.382663 C16.0487523,25.4058732 15.9835365,25.4174783 15.9192524,25.4174783 C15.7198784,25.4174783 15.5503174,25.3459135 15.4105693,25.2008498 L12.3612659,22.0355592 C12.2215178,21.8904954 12.1516437,21.7144848 12.1516437,21.5075272 C12.1516437,21.4398308 12.1628236,21.3731015 12.1851833,21.3054051 C12.207543,21.2386757 12.2308343,21.1816173 12.253194,21.135197 C12.2755537,21.0887766 12.3137515,21.0317182 12.3687191,20.9640217 C12.4236867,20.8972924 12.4646795,20.8489379 12.4916974,20.8208922 C12.519647,20.7928465 12.570888,20.7435249 12.6454203,20.6738943 C12.7199526,20.6032966 12.764672,20.5607446 12.7795785,20.5452711 C12.9295748,20.4011745 13.0982041,20.3276755 13.2882616,20.3276755 C13.3376392,20.3276755 13.3823586,20.332511 13.4224197,20.3402477 C13.4624809,20.3479844 13.5034736,20.3615237 13.5453981,20.3827997 C13.5882541,20.4031086 13.6217937,20.4185821 13.6469483,20.4292201 C13.6711713,20.4398581 13.7056425,20.4650025 13.747567,20.5065874 C13.790423,20.5481724 13.8183727,20.5742839 13.8332791,20.5839548 C13.8481856,20.5945928 13.8807935,20.6265068 13.9311028,20.681631 C13.9804805,20.7357881 14.0102934,20.7677022 14.0205416,20.7783402 C13.9506675,20.7058083 13.9161963,20.617803 13.9161963,20.5143242 C13.9161963,20.4108454 13.9506675,20.3228401 14.0205416,20.2503082 L16.6217195,17.5501886 C16.6915935,17.4786238 16.7754424,17.4418743 16.8751293,17.4418743 C16.9748163,17.4418743 17.0595968,17.4786238 17.1294709,17.5501886 C17.1201543,17.5405177 17.0884781,17.5095707 17.0363055,17.4573478 C16.9841329,17.4060919 16.9524566,17.3722437 16.9431401,17.3567703 C16.9328919,17.3412968 16.9077372,17.311317 16.8686078,17.2677979 C16.8285466,17.2233116 16.803392,17.1884963 16.7931438,17.1623849 C16.7828956,17.1372405 16.7679891,17.1024252 16.7484244,17.057939 C16.7288597,17.0144199 16.7148849,16.9718678 16.7074316,16.9302829 C16.6999784,16.888698 16.6962518,16.8422776 16.6962518,16.7900546 C16.6962518,16.593735 16.7661258,16.4177244 16.9058739,16.2629897 C16.9207804,16.2475163 16.9617732,16.2001288 17.0288522,16.1227615 C17.0959313,16.0453941 17.1434457,15.9922041 17.1704636,15.9641585 C17.1984133,15.9351457 17.2440643,15.8925937 17.3092801,15.8355353 C17.3735642,15.779444 17.4285318,15.7388261 17.4732512,15.7156159 C17.5179706,15.6924057 17.5729382,15.6691955 17.6381539,15.6459853 C17.7024381,15.6227751 17.7676538,15.61117 17.831938,15.61117 C18.0313119,15.61117 18.2008729,15.6837019 18.340621,15.8277985 L21.3899245,18.9940563 C21.5296726,19.1381529 21.5995466,19.3141636 21.5995466,19.5211212 C21.5995466,19.5888176 21.5883668,19.6555469 21.5660071,19.7232433 C21.5436474,19.7899726 21.520356,19.847031 21.4979963,19.8934514 C21.4756366,19.9398718 21.4374388,19.9969302 21.3824712,20.0646266 C21.3275036,20.1313559 21.2865109,20.1797105 21.2594929,20.2077562 C21.2315433,20.2367689 21.181234,20.2851235 21.10577,20.3557212 C21.0312377,20.4253518 20.9865183,20.4679038 20.9716118,20.4833772 C20.8216155,20.628441 20.6520545,20.7009728 20.4629288,20.7009728 C20.4135511,20.7009728 20.3688317,20.6971045 20.3287706,20.6893677 C20.2887095,20.681631 20.2477167,20.6671246 20.2057923,20.6458486 C20.1629362,20.6255397 20.1293966,20.6100662 20.104242,20.5994282 C20.0790873,20.5897573 20.0455478,20.5636458 20.0036234,20.5220609 C19.9607673,20.480476 19.9328177,20.4553316 19.9179112,20.4446936 C19.9030047,20.4340556 19.8703968,20.4021416 19.8200875,20.3479844 C19.7707099,20.2938273 19.7408969,20.2609462 19.7306487,20.2503082 C19.8005228,20.3228401 19.834994,20.4108454 19.834994,20.5143242 C19.834994,20.617803 19.8005228,20.7058083 19.7306487,20.7783402 L18.7887466,21.7560697 L20.7023638,23.7415087 C20.9166442,23.5200447 21.1560793,23.4088292 21.4197374,23.4088292 C21.6787372,23.4088292 21.9060608,23.5036041 22.0998448,23.6950883 L24.8128211,26.5122259 C24.9972886,26.713381 25.0895224,26.9493513 25.0895224,27.2172357 C25.0895224,27.4918897 24.9972886,27.7249587 24.8128211,27.9164429 Z" id="Combined-Shape"></path>
        </g>
    </g>
</svg>