<?xml version="1.0" encoding="UTF-8"?>
<svg width="38px" height="38px" viewBox="0 0 38 38" version="1.1" xmlns="http://www.w3.org/2000/svg" xmlns:xlink="http://www.w3.org/1999/xlink">
    <!-- Generator: Sketch 47.1 (45422) - http://www.bohemiancoding.com/sketch -->
    <title>folders / ei-folder-emergency-v3</title>
    <desc>Created with Sketch.</desc>
    <defs>
        <path d="M14.2319092,19.5524616 L12.6390397,21.1453312 C12.6005645,21.2107388 12.5765176,21.2703753 12.5659369,21.3242404 L12.5659369,21.5695192 L15.7006965,21.5695192 L15.7006965,19.4793589 L14.4108184,19.4793589 C14.3348301,19.4899396 14.2751937,19.5149484 14.2319092,19.5524616 L14.2319092,19.5524616 Z M14.6570591,24.7052406 C14.3684958,24.7052406 14.1222551,24.8071997 13.918337,25.0111177 C13.714419,25.2150358 13.6124599,25.4622384 13.6124599,25.7498398 C13.6124599,26.0384032 13.7134571,26.2846439 13.918337,26.4885619 C14.123217,26.69248 14.3684958,26.7954009 14.6570591,26.7954009 C14.9456224,26.7954009 15.1918631,26.6934419 15.3957812,26.4885619 C15.6006612,26.2846439 15.7016583,26.0384032 15.7016583,25.7498398 C15.7016583,25.4612765 15.6006612,25.2150358 15.3957812,25.0111177 C15.1918631,24.8071997 14.9456224,24.7052406 14.6570591,24.7052406 Z M21.9721393,24.7052406 C21.6835759,24.7052406 21.4373352,24.8071997 21.2334172,25.0111177 C21.0294991,25.2150358 20.92754,25.4622384 20.92754,25.7498398 C20.92754,26.0384032 21.0285372,26.2846439 21.2334172,26.4885619 C21.4382971,26.69248 21.6835759,26.7954009 21.9721393,26.7954009 C22.2607026,26.7954009 22.5069433,26.6934419 22.7108614,26.4885619 C22.9157413,26.2846439 23.0167385,26.0384032 23.0167385,25.7498398 C23.0167385,25.4612765 22.9157413,25.2150358 22.7108614,25.0111177 C22.5069433,24.8071997 22.2607026,24.7052406 21.9721393,24.7052406 Z M26.1534218,25.2275402 C26.1534218,25.3698981 26.1005185,25.4920566 25.9975976,25.5949775 C25.8946766,25.6978984 25.7725182,25.7498398 25.6301603,25.7498398 L24.0632614,25.7498398 C24.0632614,26.3269665 23.8583815,26.8194479 23.4505453,27.2282459 C23.0427092,27.637044 22.5502278,27.8400002 21.9731011,27.8400002 C21.3959745,27.8400002 20.9034931,27.6360821 20.4946951,27.2282459 C20.085897,26.8204098 19.8829408,26.3279284 19.8829408,25.7498398 L16.7481813,25.7498398 C16.7481813,26.3269665 16.5433014,26.8194479 16.1354652,27.2282459 C15.727629,27.637044 15.2351476,27.8400002 14.658021,27.8400002 C14.0808944,27.8400002 13.588413,27.6360821 13.1805768,27.2282459 C12.7727407,26.8204098 12.5678607,26.3279284 12.5678607,25.7498398 L11.5232615,25.7498398 C11.3809036,25.7498398 11.2587451,25.6978984 11.1558242,25.5949775 C11.0529033,25.4920566 11,25.3698981 11,25.2275402 C11,25.0861442 11.0529033,24.9639857 11.1558242,24.8601029 C11.2587451,24.7562202 11.3809036,24.7052406 11.5232615,24.7052406 L11.5232615,21.3088504 C11.5232615,21.1674543 11.558851,21.0087445 11.629068,20.8356065 C11.6992851,20.6624685 11.786816,20.5220344 11.8906988,20.4191135 L13.5066534,18.802197 C13.6095743,18.6992761 13.7490466,18.6117452 13.9231464,18.5415281 C14.0972463,18.4713111 14.2549942,18.4347597 14.3963903,18.4347597 L15.7026202,18.4347597 L15.7026202,15.8222998 C15.7026202,15.6809038 15.7545616,15.5587453 15.8584444,15.4548625 C15.9623272,15.3509797 16.0835238,15.3000002 16.2249198,15.3000002 L25.6311221,15.3000002 C25.7734801,15.3000002 25.8956385,15.3519416 25.9985594,15.4548625 C26.1014804,15.5577834 26.1543836,15.6809038 26.1543836,15.8222998 L26.1543836,25.2285021 L26.1534218,25.2275402 Z M23.8006688,18.4337978 L21.9721393,18.4337978 L21.9721393,16.6052683 C21.9721393,16.5292799 21.9480923,16.4667579 21.8990366,16.4177021 C21.8499808,16.3686463 21.7864969,16.3445994 21.7105085,16.3445994 L20.1436097,16.3445994 C20.0666595,16.3445994 20.0041374,16.3686463 19.9550817,16.4177021 C19.9060259,16.4667579 19.881979,16.5292799 19.881979,16.6052683 L19.881979,18.4337978 L18.0534494,18.4337978 C17.9774611,18.4337978 17.914939,18.4578448 17.8649214,18.5078624 C17.8149037,18.5578801 17.7918186,18.6194402 17.7918186,18.6954286 L17.7918186,20.2632893 C17.7918186,20.3392776 17.8158656,20.4017997 17.8649214,20.4508554 C17.9139771,20.4999112 17.9774611,20.5239581 18.0534494,20.5239581 L19.881979,20.5239581 L19.881979,22.3524877 C19.881979,22.4294379 19.9060259,22.49196 19.9550817,22.5410157 C20.0041374,22.5900715 20.0666595,22.6141184 20.1436097,22.6141184 L21.7105085,22.6141184 C21.7864969,22.6141184 21.8499808,22.5900715 21.8990366,22.5410157 C21.9480923,22.49196 21.9721393,22.4294379 21.9721393,22.3524877 L21.9721393,20.5239581 L23.8006688,20.5239581 C23.8766572,20.5239581 23.9391792,20.4999112 23.9891969,20.4508554 C24.0392145,20.4017997 24.0622996,20.3392776 24.0622996,20.2632893 L24.0622996,18.6954286 C24.0622996,18.6194402 24.0382526,18.5569182 23.9891969,18.5078624 C23.9401411,18.4588067 23.8766572,18.4337978 23.8006688,18.4337978 Z" id="path-1"></path>
    </defs>
    <g id="drag-to-move-1A-hover" stroke="none" stroke-width="1" fill="none" fill-rule="evenodd">
        <g id="folders-/-ei-folder-emergency-v3">
            <g id="folders-/-ei-folder-legal" transform="translate(3.000000, 5.000000)" fill-rule="nonzero" fill="#367FC6">
                <path d="M31.9735952,15.6051615 C31.9910991,15.8522105 32,16.1016363 32,16.3531409 C32,16.6046456 31.9910991,16.8540713 31.9735952,17.1011203 L31.9735952,24.6112054 L31.9950316,24.6112054 L31.8639271,25.6895094 C31.8126506,26.3550125 31.2224258,26.8001359 30.5525588,26.8001359 L1.37230718,26.8001359 C0.702440156,26.8001359 0.112215303,26.3157369 0.060938837,25.6480519 L6.07153217e-16,24.6112054 L0.0279246186,24.6112054 L0.0279246186,17.1222691 C0.00941622561,16.8683084 3.16795747e-17,16.6118243 0,16.3531409 C-3.16795747e-17,16.0944576 0.00941622561,15.8379735 0.0279246186,15.5840127 L0.0279246186,7.22622997 C0.0763541228,7.21935955 0.125886656,7.21579885 0.176354261,7.21579885 L0.0279246186,7.21579885 L0.0279246186,3.91171477 L0.013796954,3.91171477 L0.013796954,1.46519774 C0.013796954,0.612044625 0.851676227,0 1.69828341,0 L11.4680867,0 C12.1139519,0 12.876553,0.489853898 13.167847,1.0658959 L13.5900596,1.92123099 C13.9042643,2.54309451 14.7279607,3.09295279 15.4240115,3.09295279 L30.3585549,3.09295279 C31.3480816,3.09295279 31.9677631,3.78027563 31.9677631,4.5319668 L31.9677631,7.21579885 L31.9735952,7.21579885 L31.9735952,15.6051615 Z M21.9951109,5.93045593 L30.004295,5.93045593 C30.004295,5.26058891 29.3235181,5.16129032 28.6536511,5.16129032 L3.52054584,5.16129032 C2.85067882,5.16129032 2.17317487,5.26058891 2.17317487,5.93045593 L10.0048891,5.93045593 C10.1462993,5.92477117 10.2884342,5.92190153 10.4312394,5.92190153 L10.4312394,5.92190153 L21.5687606,5.92190153 L21.5687606,5.92190153 C21.7115658,5.92190153 21.8537007,5.92477117 21.9951109,5.93045593 Z" id="Combined-Shape"></path>
            </g>
            <mask id="mask-2" fill="white">
                <use xlink:href="#path-1"></use>
            </mask>
            <use id="Shape" fill="#FFFFFF" fill-rule="nonzero" xlink:href="#path-1"></use>
        </g>
    </g>
</svg>