<?xml version="1.0" encoding="UTF-8"?>
<svg width="24px" height="24px" viewBox="0 0 24 24" version="1.1" xmlns="http://www.w3.org/2000/svg" xmlns:xlink="http://www.w3.org/1999/xlink">
    <!-- Generator: Sketch 47.1 (45422) - http://www.bohemiancoding.com/sketch -->
    <title>folders / ei-folder-box</title>
    <desc>Created with Sketch.</desc>
    <defs>
        <path d="M11.6528006,11.3022704 C13.0076731,11.302483 14.162999,12.2777496 14.3821841,13.6062751 C14.6013692,14.9348006 13.8199002,16.2255568 12.5360135,16.655604 C11.2521269,17.0856511 9.84371227,16.5284123 9.20872424,15.339163 C8.6171897,16.4466257 7.34634159,17.0159187 6.1194539,16.7230421 C4.89256622,16.4301654 4.02067619,15.3493683 4,14.0957616 L4,9.53608985 C4.00724491,9.23794513 4.25256431,9 4.55270405,9 C4.8528438,9 5.09816319,9.23794513 5.10540811,9.53608985 L5.10540811,11.8516207 C5.75242653,11.3696795 6.57922541,11.1930602 7.36841064,11.3682022 C8.15759587,11.5433441 8.83019874,12.0527219 9.20936861,12.7624026 C9.68896031,11.8637157 10.629075,11.3019273 11.6528006,11.3022704 Z M18.7108523,15.8801898 L18.7102079,15.8801898 C18.90094,16.1231717 18.8461689,16.460273 18.583268,16.6408287 C18.3187054,16.8204244 17.9611408,16.7772799 17.7475267,16.5399864 L16.4542862,14.964926 L15.1604013,16.5399864 C14.9590372,16.7752851 14.5875608,16.8213844 14.3253043,16.6408287 C14.0630478,16.460273 14.0082767,16.1231717 14.1996531,15.8801898 L15.7029566,14.0458207 L14.2002975,12.2098509 C14.0089211,11.9678294 14.0636921,11.6310482 14.3259487,11.4498523 C14.5882052,11.2686563 14.9596816,11.3150757 15.1610457,11.5500543 L16.4549305,13.1270355 L17.7497819,11.5519751 C17.9634302,11.3146215 18.3211881,11.2717278 18.5855233,11.4517731 C18.848102,11.6313684 18.9028731,11.9694301 18.7124632,12.2117717 L17.2072266,14.0477415 L18.7108523,15.8801898 Z M6.76561446,15.6983536 C7.68166196,15.6978235 8.42403221,14.9598862 8.42420989,14.0496623 C8.42385405,13.1395523 7.68111809,12.4020159 6.76518505,12.4022516 C5.84925201,12.4024873 5.10690059,13.1404058 5.10701916,14.0505159 C5.10713773,14.960626 5.84968139,15.6983535 6.76561446,15.6983536 Z M11.6528006,15.6983536 L11.6521562,15.6986737 C12.5684032,15.6984969 13.3110739,14.9604045 13.3110738,14.0499824 C13.3108959,13.139789 12.5681732,12.4020748 11.6521562,12.4022516 C10.7361393,12.4024284 9.99370509,13.1404293 9.99388302,14.0506227 C9.99406096,14.9608161 10.7367836,15.6985303 11.6528006,15.6983536 Z" id="path-1"></path>
    </defs>
    <g id="Page-1" stroke="none" stroke-width="1" fill="none" fill-rule="evenodd">
        <g id="folders-/-ei-folder-box">
            <path d="M1.00902936,5.625567 L1.00902936,3.98344973 C1.00902936,3.41080811 1.55737615,3 2.11143487,3 L8.50524405,3 C8.92792803,3 9.42700928,3.32879295 9.61764547,3.71543588 L9.89396084,4.28954205 C10.0995909,4.70694067 10.6386558,5.07600892 11.0941834,5.07600892 L20.8680364,5.07600892 C21.5156283,5.07600892 21.9211764,5.53734423 21.9211764,6.04188397 L21.9211764,7.84328853 L21.9249932,7.84328853 L21.9249932,19.5191923 L21.9390222,19.5191923 L21.8532213,20.2429566 C21.8196636,20.6896464 21.4333933,20.9884159 20.9950015,20.9884159 L1.89810102,20.9884159 C1.45970919,20.9884159 1.07343886,20.6632844 1.03988118,20.21513 L1,19.5191923 L1.01827516,19.5191923 L1.01827516,7.85028997 C1.04996965,7.8456785 1.08238602,7.84328853 1.11541435,7.84328853 L1.01827516,7.84328853 L1.01827516,5.625567 L1.00902936,5.625567 Z" id="Combined-Shape-Copy" fill="#3895DF" fill-rule="nonzero"></path>
            <rect id="Rectangle-3-Copy-2" fill="#66AFE9" x="1" y="6" width="20.9400005" height="14.9495225" rx="1"></rect>
            <mask id="mask-2" fill="white">
                <use xlink:href="#path-1"></use>
            </mask>
            <use id="Shape" fill="#FFFFFF" fill-rule="nonzero" xlink:href="#path-1"></use>
        </g>
    </g>
</svg>