<?xml version="1.0" encoding="UTF-8"?>
<svg width="24px" height="24px" viewBox="0 0 24 24" version="1.1" xmlns="http://www.w3.org/2000/svg" xmlns:xlink="http://www.w3.org/1999/xlink">
    <!-- Generator: Sketch 47.1 (45422) - http://www.bohemiancoding.com/sketch -->
    <title>folders / ei-folder-e</title>
    <desc>Created with Sketch.</desc>
    <defs>
        <path d="M13.0956859,10.1300346 C13.0956859,9.78279692 12.9356842,9.46279359 12.5353396,9.46279359 C10.8277474,9.46279359 9.57360673,12.4510799 9.14602782,13.732455 C10.8543009,13.25245 13.0956859,12.2114179 13.0956859,10.1307154 L13.0956859,10.1307154 L13.0956859,10.1300346 Z M15.6312016,13.5990068 C14.4574021,15.5203884 12.6694687,17.3886631 10.2674012,17.3886631 C8.80015188,17.3886631 7.78567326,16.4545258 7.78567326,14.9600422 C7.78567326,12.5314212 10.1073995,9.16866288 12.7225756,9.16866288 C13.4429235,9.16866288 13.8698216,9.51590053 13.8698216,10.2634828 C13.8698216,12.5048677 10.8549817,13.6255602 9.06636741,14.0259048 C8.93291922,14.4793563 8.82602449,14.9859148 8.82602449,15.4666006 C8.82602449,16.400738 9.25292254,17.1210859 10.2674012,17.1210859 C12.5625739,17.1210859 14.2436127,15.2262577 15.3908586,13.4383242 L15.6312016,13.5983259 L15.6312016,13.5990068 Z" id="path-1"></path>
    </defs>
    <g id="Page-1" stroke="none" stroke-width="1" fill="none" fill-rule="evenodd">
        <g id="folders-/-ei-folder-e">
            <path d="M1.00902936,5.625567 L1.00902936,3.98344973 C1.00902936,3.41080811 1.55737615,3 2.11143487,3 L8.50524405,3 C8.92792803,3 9.42700928,3.32879295 9.61764547,3.71543588 L9.89396084,4.28954205 C10.0995909,4.70694067 10.6386558,5.07600892 11.0941834,5.07600892 L20.8680364,5.07600892 C21.5156283,5.07600892 21.9211764,5.53734423 21.9211764,6.04188397 L21.9211764,7.84328853 L21.9249932,7.84328853 L21.9249932,19.5191923 L21.9390222,19.5191923 L21.8532213,20.2429566 C21.8196636,20.6896464 21.4333933,20.9884159 20.9950015,20.9884159 L1.89810102,20.9884159 C1.45970919,20.9884159 1.07343886,20.6632844 1.03988118,20.21513 L1,19.5191923 L1.01827516,19.5191923 L1.01827516,7.85028997 C1.04996965,7.8456785 1.08238602,7.84328853 1.11541435,7.84328853 L1.01827516,7.84328853 L1.01827516,5.625567 L1.00902936,5.625567 Z" id="Combined-Shape-Copy" fill="#3895DF" fill-rule="nonzero"></path>
            <rect id="Rectangle-3-Copy-2" fill="#66AFE9" x="1" y="6" width="20.9400005" height="14.9495225" rx="1"></rect>
            <mask id="mask-2" fill="white">
                <use xlink:href="#path-1"></use>
            </mask>
            <use id="Shape" fill="#FFFFFF" fill-rule="nonzero" xlink:href="#path-1"></use>
        </g>
    </g>
</svg>