<?xml version="1.0" encoding="UTF-8"?>
<svg width="24px" height="24px" viewBox="0 0 24 24" version="1.1" xmlns="http://www.w3.org/2000/svg" xmlns:xlink="http://www.w3.org/1999/xlink">
    <!-- Generator: Sketch 47.1 (45422) - http://www.bohemiancoding.com/sketch -->
    <title>folders / ei-folder-document</title>
    <desc>Created with Sketch.</desc>
    <defs>
        <path d="M15.7033794,17.8578831 C15.7033794,17.9998126 15.6528994,18.1212574 15.554134,18.2207544 C15.4553686,18.3202514 15.3331922,18.3699999 15.1905311,18.3699999 L8.01284839,18.3699999 C7.87018728,18.3699999 7.74947404,18.3202514 7.64924547,18.2207544 C7.54901689,18.1212574 7.5,17.9998126 7.5,17.8578831 L7.5,9.31284858 C7.5,9.17018747 7.54974849,9.04947423 7.64924547,8.94924566 C7.74874244,8.84901708 7.87018728,8.80000019 8.01284839,8.80000019 L12.2853656,8.80000019 L12.2853656,11.7051656 C12.2853656,11.8478267 12.3351141,11.96854 12.4346111,12.0687685 C12.5341081,12.1689971 12.6555529,12.218014 12.7974824,12.218014 L15.7033794,12.218014 L15.7033794,17.8578831 Z M12.9686758,11.5347039 L12.9686758,9.01362605 C13.0462249,9.06410614 13.1106053,9.11312303 13.1610854,9.16287152 L15.3397765,11.3422943 C15.3902566,11.3920428 15.4392735,11.4556916 15.489022,11.5347039 L12.9686758,11.5347039 L12.9686758,11.5347039 Z M13.4807926,14.268676 L9.7211237,14.268676 C9.67064361,14.268676 9.63040586,14.2855027 9.59821567,14.3169613 C9.56602547,14.3484199 9.55066196,14.3901208 9.55066196,14.4398693 L9.55066196,14.7815243 C9.55066196,14.8320044 9.56675706,14.8722422 9.59821567,14.9044324 C9.62967427,14.9366226 9.67137521,14.9527177 9.7211237,14.9527177 L13.4807926,14.9527177 C13.5312726,14.9527177 13.5715104,14.9366226 13.6037006,14.9044324 C13.6358908,14.8722422 13.6512543,14.8320044 13.6512543,14.7815243 L13.6512543,14.4398693 C13.6512543,14.3893892 13.6351592,14.3491515 13.6037006,14.3169613 C13.572242,14.2847711 13.5305411,14.268676 13.4807926,14.268676 Z M9.59821567,12.950341 C9.56675706,12.9817996 9.55066196,13.0235006 9.55066196,13.073249 L9.55066196,13.4149041 C9.55066196,13.4653842 9.56675706,13.5056219 9.59821567,13.5378121 C9.62967427,13.5700023 9.67137521,13.5860974 9.7211237,13.5860974 L13.4807926,13.5860974 C13.5312726,13.5860974 13.5715104,13.5692707 13.6037006,13.5378121 C13.6358908,13.5063535 13.6512543,13.4646526 13.6512543,13.4149041 L13.6512543,13.073249 C13.6512543,13.0235006 13.6351592,12.9825312 13.6037006,12.950341 C13.572242,12.9181508 13.5305411,12.9020557 13.4807926,12.9020557 L9.7211237,12.9020557 C9.67064361,12.9020557 9.63040586,12.9181508 9.59821567,12.950341 Z M13.4807926,15.6360278 L9.7211237,15.6360278 C9.67064361,15.6360278 9.63040586,15.6521229 9.59821567,15.6843131 C9.56602547,15.7165033 9.55066196,15.7574726 9.55066196,15.8072211 L9.55066196,16.1496078 C9.55066196,16.1993563 9.56675706,16.239594 9.59821567,16.2725158 C9.62967427,16.3054376 9.67137521,16.3208011 9.7211237,16.3208011 L13.4807926,16.3208011 C13.5312726,16.3208011 13.5715104,16.304706 13.6037006,16.2725158 C13.6358908,16.2403256 13.6512543,16.1993563 13.6512543,16.1496078 L13.6512543,15.8072211 C13.6512543,15.7574726 13.6351592,15.7165033 13.6037006,15.6843131 C13.572242,15.6521229 13.5305411,15.6360278 13.4807926,15.6360278 Z" id="path-1"></path>
    </defs>
    <g id="Page-1" stroke="none" stroke-width="1" fill="none" fill-rule="evenodd">
        <g id="folders-/-ei-folder-document">
            <path d="M1.00902936,5.625567 L1.00902936,3.98344973 C1.00902936,3.41080811 1.55737615,3 2.11143487,3 L8.50524405,3 C8.92792803,3 9.42700928,3.32879295 9.61764547,3.71543588 L9.89396084,4.28954205 C10.0995909,4.70694067 10.6386558,5.07600892 11.0941834,5.07600892 L20.8680364,5.07600892 C21.5156283,5.07600892 21.9211764,5.53734423 21.9211764,6.04188397 L21.9211764,7.84328853 L21.9249932,7.84328853 L21.9249932,19.5191923 L21.9390222,19.5191923 L21.8532213,20.2429566 C21.8196636,20.6896464 21.4333933,20.9884159 20.9950015,20.9884159 L1.89810102,20.9884159 C1.45970919,20.9884159 1.07343886,20.6632844 1.03988118,20.21513 L1,19.5191923 L1.01827516,19.5191923 L1.01827516,7.85028997 C1.04996965,7.8456785 1.08238602,7.84328853 1.11541435,7.84328853 L1.01827516,7.84328853 L1.01827516,5.625567 L1.00902936,5.625567 Z" id="Combined-Shape-Copy" fill="#3895DF" fill-rule="nonzero"></path>
            <rect id="Rectangle-3-Copy-2" fill="#66AFE9" x="1" y="6" width="20.9400005" height="14.9495225" rx="1"></rect>
            <mask id="mask-2" fill="white">
                <use xlink:href="#path-1"></use>
            </mask>
            <use id="Shape" fill="#FFFFFF" fill-rule="nonzero" xlink:href="#path-1"></use>
        </g>
    </g>
</svg>