<?xml version="1.0" encoding="UTF-8"?>
<svg width="24px" height="24px" viewBox="0 0 24 24" version="1.1" xmlns="http://www.w3.org/2000/svg" xmlns:xlink="http://www.w3.org/1999/xlink">
    <!-- Generator: Sketch 47.1 (45422) - http://www.bohemiancoding.com/sketch -->
    <title>folders / ei-folder-emergency open</title>
    <desc>Created with Sketch.</desc>
    <defs>
        <path d="M8.32215748,13.3637576 L7.23680838,14.4491067 C7.21059222,14.4936742 7.19420712,14.5343092 7.18699767,14.5710119 L7.18699767,14.7381399 L9.32295946,14.7381399 L9.32295946,13.3139469 L8.44406263,13.3139469 C8.39228571,13.3211563 8.35165066,13.3381968 8.32215748,13.3637576 L8.32215748,13.3637576 Z M8.61184607,16.8747571 C8.41522485,16.8747571 8.24744142,16.9442299 8.10849576,17.0831756 C7.9695501,17.2221212 7.90007727,17.3905601 7.90007727,17.5865259 C7.90007727,17.7831471 7.9688947,17.9509305 8.10849576,18.0898762 C8.24809682,18.2288218 8.41522485,18.2989501 8.61184607,18.2989501 C8.80846728,18.2989501 8.97625072,18.2294772 9.11519637,18.0898762 C9.25479744,17.9509305 9.32361486,17.7831471 9.32361486,17.5865259 C9.32361486,17.3899047 9.25479744,17.2221212 9.11519637,17.0831756 C8.97625072,16.9442299 8.80846728,16.8747571 8.61184607,16.8747571 Z M13.5961938,16.8747571 C13.3995726,16.8747571 13.2317892,16.9442299 13.0928435,17.0831756 C12.9538979,17.2221212 12.884425,17.3905601 12.884425,17.5865259 C12.884425,17.7831471 12.9532425,17.9509305 13.0928435,18.0898762 C13.2324446,18.2288218 13.3995726,18.2989501 13.5961938,18.2989501 C13.792815,18.2989501 13.9605985,18.2294772 14.0995441,18.0898762 C14.2391452,17.9509305 14.3079626,17.7831471 14.3079626,17.5865259 C14.3079626,17.3899047 14.2391452,17.2221212 14.0995441,17.0831756 C13.9605985,16.9442299 13.792815,16.8747571 13.5961938,16.8747571 Z M16.4452352,17.2306415 C16.4452352,17.3276413 16.409188,17.4108776 16.3390598,17.4810058 C16.2689315,17.551134 16.1856952,17.5865259 16.0886954,17.5865259 L15.0210422,17.5865259 C15.0210422,17.9797683 14.8814412,18.3153352 14.6035499,18.5938819 C14.3256585,18.8724286 13.9900917,19.0107189 13.5968492,19.0107189 C13.2036068,19.0107189 12.8680399,18.8717732 12.5894932,18.5938819 C12.3109465,18.3159906 12.1726562,17.9804237 12.1726562,17.5865259 L10.0366945,17.5865259 C10.0366945,17.9797683 9.8970934,18.3153352 9.61920209,18.5938819 C9.34131077,18.8724286 9.0057439,19.0107189 8.61250147,19.0107189 C8.21925904,19.0107189 7.88369217,18.8717732 7.60580086,18.5938819 C7.32790954,18.3159906 7.18830848,17.9804237 7.18830848,17.5865259 L6.47653969,17.5865259 C6.37953989,17.5865259 6.29630357,17.551134 6.22617534,17.4810058 C6.15604711,17.4108776 6.11999989,17.3276413 6.11999989,17.2306415 C6.11999989,17.1342971 6.15604711,17.0510608 6.22617534,16.9802771 C6.29630357,16.9094935 6.37953989,16.8747571 6.47653969,16.8747571 L6.47653969,14.5605254 C6.47653969,14.464181 6.50078964,14.3560393 6.54863413,14.2380666 C6.59647863,14.1200939 6.65612039,14.0244049 6.72690403,13.9542766 L7.82798283,12.8525424 C7.89811106,12.7824142 7.99314465,12.7227724 8.11177278,12.6749279 C8.23040091,12.6270835 8.33788718,12.6021781 8.43423157,12.6021781 L9.32427026,12.6021781 L9.32427026,10.8221007 C9.32427026,10.7257563 9.35966208,10.64252 9.43044572,10.5717364 C9.50122936,10.5009527 9.58381027,10.4662163 9.68015466,10.4662163 L16.0893508,10.4662163 C16.1863506,10.4662163 16.2695869,10.5016081 16.3397152,10.5717364 C16.4098434,10.6418646 16.4458906,10.7257563 16.4458906,10.8221007 L16.4458906,17.2312969 L16.4452352,17.2306415 Z M14.8421169,12.6015227 L13.5961938,12.6015227 L13.5961938,11.3555996 C13.5961938,11.3038227 13.5798087,11.2612214 13.5463831,11.2277958 C13.5129575,11.1943702 13.4697009,11.1779851 13.4179239,11.1779851 L12.3502707,11.1779851 C12.2978384,11.1779851 12.2552372,11.1943702 12.2218116,11.2277958 C12.1883859,11.2612214 12.1720008,11.3038227 12.1720008,11.3555996 L12.1720008,12.6015227 L10.9260778,12.6015227 C10.8743008,12.6015227 10.8316996,12.6179078 10.7976186,12.6519888 C10.7635375,12.6860698 10.7478079,12.7280157 10.7478079,12.7797926 L10.7478079,13.8481012 C10.7478079,13.8998781 10.764193,13.9424794 10.7976186,13.975905 C10.8310442,14.0093306 10.8743008,14.0257157 10.9260778,14.0257157 L12.1720008,14.0257157 L12.1720008,15.2716388 C12.1720008,15.3240711 12.1883859,15.3666724 12.2218116,15.400098 C12.2552372,15.4335236 12.2978384,15.4499087 12.3502707,15.4499087 L13.4179239,15.4499087 C13.4697009,15.4499087 13.5129575,15.4335236 13.5463831,15.400098 C13.5798087,15.3666724 13.5961938,15.3240711 13.5961938,15.2716388 L13.5961938,14.0257157 L14.8421169,14.0257157 C14.8938938,14.0257157 14.9364951,14.0093306 14.9705761,13.975905 C15.0046571,13.9424794 15.0203868,13.8998781 15.0203868,13.8481012 L15.0203868,12.7797926 C15.0203868,12.7280157 15.0040017,12.6854144 14.9705761,12.6519888 C14.9371505,12.6185632 14.8938938,12.6015227 14.8421169,12.6015227 Z" id="path-1"></path>
    </defs>
    <g id="Page-1" stroke="none" stroke-width="1" fill="none" fill-rule="evenodd">
        <g id="folders-/-ei-folder-emergency-open">
            <g id="Group-4" transform="translate(0.000000, 3.000000)">
                <path d="M20.9491259,4.72144553 L21.486083,4.72144553 C21.9007896,4.72144553 22.213508,5.07833537 22.1817634,5.49200315 L21.3557274,16.1669299 C21.3239827,16.5792458 20.9585817,16.8550243 20.5438752,16.8550243 L2.20965838,16.8550243 C1.79495184,16.8550243 1.4295508,16.5549124 1.39780616,16.1412446 L0.57244558,5.52377175 C0.540025525,5.11010398 0.852743977,4.72144553 1.26745052,4.72144553 L1.16681326,4.72144553 L1.16681326,1.15863044 C1.16681326,0.630054949 1.68553415,0.250859489 2.20965838,0.250859489 L8.25802498,0.250859489 C8.65787233,0.250859489 9.12998939,0.554351042 9.31032594,0.911240886 L9.57171264,1.44116823 C9.76623297,1.82644704 10.2761734,2.16711462 10.70709,2.16711462 L19.9528846,2.16711462 C20.5654885,2.16711462 20.9491259,2.59294909 20.9491259,3.0586633 L20.9491259,4.72144553 Z M19.6725862,4.65412543 L19.6725862,4.18976308 C19.6725862,3.77474345 19.2511254,3.37662201 18.8364189,3.37662201 L3.27681854,3.37662201 C2.862112,3.37662201 2.44267753,3.77474345 2.44267753,4.18976308 L2.44267753,4.65412543 L19.6725862,4.65412543 Z" id="Combined-Shape" fill="#3895DF" fill-rule="nonzero"></path>
                <path d="M1.01682082,4.70539617 L21.5077977,4.70539617 L21.5077977,4.70539617 C22.0600825,4.70539617 22.5077977,5.15311142 22.5077977,5.70539617 C22.5077977,5.72786332 22.5070406,5.75032409 22.5055275,5.77274023 L21.7424266,17.0783923 C21.7135574,17.5061007 21.6611912,17.6586396 21.5704719,17.811592 C21.4797526,17.9645445 21.3530369,18.0829955 21.1943223,18.1632084 C21.0356077,18.2434213 20.8798886,18.2853961 20.451207,18.2853961 L2.10320845,18.2853961 C1.67517702,18.2853961 1.51968663,18.2435864 1.3611403,18.1636348 C1.20259398,18.0836832 1.07593305,17.9655896 0.985091268,17.8130217 C0.894249485,17.6604538 0.841670005,17.5082673 0.811741281,17.0812835 L0.0192683478,5.77531796 L0.0192683478,5.77531796 C-0.0193483899,5.22438494 0.395966016,4.74646043 0.946899035,4.70784369 C0.970170615,4.70621251 0.993492148,4.70539617 1.01682082,4.70539617 Z" id="Rectangle-3-Copy" fill="#66AFE9"></path>
            </g>
            <mask id="mask-2" fill="white">
                <use xlink:href="#path-1"></use>
            </mask>
            <use id="Shape" fill="#FFFFFF" fill-rule="nonzero" xlink:href="#path-1"></use>
        </g>
    </g>
</svg>