<?xml version="1.0" encoding="UTF-8"?>
<svg width="24px" height="24px" viewBox="0 0 24 24" version="1.1" xmlns="http://www.w3.org/2000/svg" xmlns:xlink="http://www.w3.org/1999/xlink">
    <!-- Generator: Sketch 47.1 (45422) - http://www.bohemiancoding.com/sketch -->
    <title>folders / ei-folder-fidelity</title>
    <desc>Created with Sketch.</desc>
    <defs>
        <path d="M14.5943831,17.0476169 L13.4659973,15.1676198 L15.2409045,16.1570155 C15.2505902,16.1570155 15.2559174,16.1463612 15.2505902,16.1357069 L12.9260188,14.1283426 L15.9319802,14.5879298 C15.9426345,14.5879298 15.9469931,14.5830869 15.9469931,14.5777598 L15.9276216,14.5627469 L13.0926131,13.5685083 L16.0012331,12.8658098 C16.0394917,13.1103741 16.0646745,13.3592969 16.0646745,13.6149998 C16.0646745,14.9797169 15.4937016,16.2044755 14.5943831,17.0476169 Z M7.32428587,13.6149998 C7.32428587,11.0783112 9.28467446,9.01428545 11.6944802,9.01428545 C13.8543945,9.01428545 15.6486731,10.6744169 15.9983274,12.8454698 L13.0219073,13.0396683 L15.3876431,11.2478112 C15.3924859,11.2381255 15.3721459,11.2332826 15.3668188,11.2434526 L12.7090588,12.5912198 L14.1764445,10.0027126 C14.1764445,9.99835403 14.1764445,9.98721546 14.1672431,9.99302689 L12.2499559,12.242534 L12.6180131,9.28645402 C12.6180131,9.28112688 12.6078431,9.27628402 12.5976731,9.28112688 L11.7157888,12.1514883 L10.9438373,9.19540831 C10.9385102,9.19056545 10.9278559,9.18523831 10.9234973,9.19540831 L11.1360988,12.2619055 L9.31518446,9.89181117 C9.30888874,9.88648403 9.30453017,9.89181117 9.29920303,9.89665403 L10.6765116,12.5190612 L8.07299159,11.096714 C8.06863302,11.096714 8.05846302,11.1020412 8.05846302,11.1063998 L10.3733488,13.0081898 L7.4182373,12.6963098 C7.40758301,12.7016369 7.40758301,12.7103541 7.4182373,12.7156812 L10.2832716,13.5534955 L7.43325016,14.3908255 C7.42792301,14.3951841 7.42792301,14.4058383 7.43325016,14.4106812 L10.3733488,14.0682912 L8.06330588,16.0301326 C8.05846302,16.0301326 8.05313588,16.0403026 8.06330588,16.0456298 L8.09430016,16.0354598 L9.9442716,15.0668884 L10.3791602,14.3758126 L10.8726473,14.3758126 L10.5302573,14.1336698 L11.6746245,12.2972583 L10.9995302,14.4668583 L11.000983,14.4678269 L12.7279459,14.4678269 L13.2325716,14.7947198 L10.9244659,14.7947198 L9.94330303,17.8273169 C8.40375874,17.1154169 7.32428587,15.4964498 7.32428587,13.6149998 Z M11.6944802,8.52999973 C9.01783303,8.52999973 6.84000015,10.8109855 6.84000015,13.6149998 C6.84000015,16.4185298 9.01783303,18.6999998 11.6944802,18.6999998 C14.3716116,18.6999998 16.5489602,16.4185298 16.5489602,13.6149998 C16.5489602,10.8109855 14.3716116,8.52999973 11.6944802,8.52999973 L11.6944802,8.52999973 Z" id="path-1"></path>
    </defs>
    <g id="Page-1" stroke="none" stroke-width="1" fill="none" fill-rule="evenodd">
        <g id="folders-/-ei-folder-fidelity">
            <path d="M1.00902936,5.625567 L1.00902936,3.98344973 C1.00902936,3.41080811 1.55737615,3 2.11143487,3 L8.50524405,3 C8.92792803,3 9.42700928,3.32879295 9.61764547,3.71543588 L9.89396084,4.28954205 C10.0995909,4.70694067 10.6386558,5.07600892 11.0941834,5.07600892 L20.8680364,5.07600892 C21.5156283,5.07600892 21.9211764,5.53734423 21.9211764,6.04188397 L21.9211764,7.84328853 L21.9249932,7.84328853 L21.9249932,19.5191923 L21.9390222,19.5191923 L21.8532213,20.2429566 C21.8196636,20.6896464 21.4333933,20.9884159 20.9950015,20.9884159 L1.89810102,20.9884159 C1.45970919,20.9884159 1.07343886,20.6632844 1.03988118,20.21513 L1,19.5191923 L1.01827516,19.5191923 L1.01827516,7.85028997 C1.04996965,7.8456785 1.08238602,7.84328853 1.11541435,7.84328853 L1.01827516,7.84328853 L1.01827516,5.625567 L1.00902936,5.625567 Z" id="Combined-Shape-Copy" fill="#3895DF" fill-rule="nonzero"></path>
            <rect id="Rectangle-3-Copy-2" fill="#66AFE9" x="1" y="6" width="20.9400005" height="14.9495225" rx="1"></rect>
            <mask id="mask-2" fill="white">
                <use xlink:href="#path-1"></use>
            </mask>
            <use id="Imported-Layers" fill="#FFFFFF" xlink:href="#path-1"></use>
        </g>
    </g>
</svg>