<?xml version="1.0" encoding="UTF-8"?>
<svg width="38px" height="38px" viewBox="0 0 38 38" version="1.1" xmlns="http://www.w3.org/2000/svg" xmlns:xlink="http://www.w3.org/1999/xlink">
    <!-- Generator: Sketch 47.1 (45422) - http://www.bohemiancoding.com/sketch -->
    <title>folders / ei-folder-black-diamond-v3</title>
    <desc>Created with Sketch.</desc>
    <defs></defs>
    <g id="drag-to-move-1A-hover" stroke="none" stroke-width="1" fill="none" fill-rule="evenodd">
        <g id="folders-/-ei-folder-black-diamond-v3">
            <g id="folders-/-ei-folder-legal" transform="translate(3.000000, 5.000000)" fill-rule="nonzero" fill="#367FC6">
                <path d="M31.9735952,15.6051615 C31.9910991,15.8522105 32,16.1016363 32,16.3531409 C32,16.6046456 31.9910991,16.8540713 31.9735952,17.1011203 L31.9735952,24.6112054 L31.9950316,24.6112054 L31.8639271,25.6895094 C31.8126506,26.3550125 31.2224258,26.8001359 30.5525588,26.8001359 L1.37230718,26.8001359 C0.702440156,26.8001359 0.112215303,26.3157369 0.060938837,25.6480519 L6.07153217e-16,24.6112054 L0.0279246186,24.6112054 L0.0279246186,17.1222691 C0.00941622561,16.8683084 3.16795747e-17,16.6118243 0,16.3531409 C-3.16795747e-17,16.0944576 0.00941622561,15.8379735 0.0279246186,15.5840127 L0.0279246186,7.22622997 C0.0763541228,7.21935955 0.125886656,7.21579885 0.176354261,7.21579885 L0.0279246186,7.21579885 L0.0279246186,3.91171477 L0.013796954,3.91171477 L0.013796954,1.46519774 C0.013796954,0.612044625 0.851676227,0 1.69828341,0 L11.4680867,0 C12.1139519,0 12.876553,0.489853898 13.167847,1.0658959 L13.5900596,1.92123099 C13.9042643,2.54309451 14.7279607,3.09295279 15.4240115,3.09295279 L30.3585549,3.09295279 C31.3480816,3.09295279 31.9677631,3.78027563 31.9677631,4.5319668 L31.9677631,7.21579885 L31.9735952,7.21579885 L31.9735952,15.6051615 Z M21.9951109,5.93045593 L30.004295,5.93045593 C30.004295,5.26058891 29.3235181,5.16129032 28.6536511,5.16129032 L3.52054584,5.16129032 C2.85067882,5.16129032 2.17317487,5.26058891 2.17317487,5.93045593 L10.0048891,5.93045593 C10.1462993,5.92477117 10.2884342,5.92190153 10.4312394,5.92190153 L10.4312394,5.92190153 L21.5687606,5.92190153 L21.5687606,5.92190153 C21.7115658,5.92190153 21.8537007,5.92477117 21.9951109,5.93045593 Z" id="Combined-Shape"></path>
            </g>
            <g id="Group-10" transform="translate(12.000000, 14.500000)">
                <g id="Group-6">
                    <polygon id="Path" stroke="#FFFFFF" fill="#FFFFFF" points="6.96 0 0 6.96 6.96 13.92 13.92 6.96"></polygon>
                    <path d="M5.30129754,8.8 L4.48,8.8 L4.48,5.44 L5.30129754,5.44 C6.06791946,5.44 6.39597315,5.81998629 6.39597315,6.30705963 C6.39597315,6.63292666 6.23194631,6.90352296 5.90272931,7.01176148 C6.28662192,7.12 6.56,7.3905963 6.56,7.82470185 C6.56,8.5294037 6.06675615,8.8 5.30013423,8.8 L5.30129754,8.8 Z" id="Path" fill="#58A5E8"></path>
                    <path d="M5.30129754,7.22823852 L4.91856823,7.22823852 L4.91856823,8.42001371 L5.30129754,8.42001371 C5.79337808,8.42001371 6.06791946,8.20353667 6.06791946,7.82355038 C6.06791946,7.44356408 5.79337808,7.22708705 5.30129754,7.22708705 L5.30129754,7.22823852 Z" id="Path" fill="#FFFFFF"></path>
                    <path d="M5.30129754,5.81998629 L4.91856823,5.81998629 L4.91856823,6.8494037 L5.24662192,6.8494037 C5.68519016,6.8494037 5.95856823,6.63292666 5.95856823,6.3082111 C5.95856823,6.0376148 5.73986577,5.82113777 5.30129754,5.82113777 L5.30129754,5.81998629 Z" id="Path" fill="#FFFFFF"></path>
                    <path d="M8.15884856,8.8 L7.2,8.8 L7.2,5.44 L8.15884856,5.44 C9.33165505,5.44 9.91692625,6.14470185 9.91692625,7.12 C9.97013272,8.14941741 9.330523,8.79884853 8.15884856,8.79884853 L8.15884856,8.8 Z" id="Path" fill="#58A5E8"></path>
                    <path d="M8.21205503,5.87410555 L7.6799903,5.87410555 L7.6799903,8.42116518 L8.21205503,8.42116518 C9.01128417,8.42116518 9.49014242,7.9882111 9.49014242,7.17527073 C9.49014242,6.3082111 8.95807769,5.87525703 8.21205503,5.87525703 L8.21205503,5.87410555 Z" id="Path" fill="#FFFFFF"></path>
                </g>
            </g>
        </g>
    </g>
</svg>