<?xml version="1.0" encoding="UTF-8"?>
<svg width="38px" height="38px" viewBox="0 0 38 38" version="1.1" xmlns="http://www.w3.org/2000/svg" xmlns:xlink="http://www.w3.org/1999/xlink">
    <!-- Generator: Sketch 47.1 (45422) - http://www.bohemiancoding.com/sketch -->
    <title>folders / ei-folder-orion-v3-open</title>
    <desc>Created with Sketch.</desc>
    <defs></defs>
    <g id="drag-to-move-1A-hover" stroke="none" stroke-width="1" fill="none" fill-rule="evenodd">
        <g id="folders-/-ei-folder-orion-v3-open">
            <path d="M35.1420108,12.3476925 L34.2911844,12.3476925 L34.2911844,9.61480414 C34.2911844,8.84937322 33.6832984,8.14948718 32.7126071,8.14948718 L18.0623396,8.14948718 C17.379538,8.14948718 16.5715205,7.58957835 16.2632966,6.95634812 L15.8491207,6.08537883 C15.5633715,5.49880767 14.8152863,5 14.181715,5 L4.59787789,5 C3.7673857,5 2.94545528,5.62323185 2.94545528,6.49197929 L2.94545528,12.3476925 L3.10491834,12.3476925 C2.4478021,12.3476925 1.95228936,12.9864774 2.00366001,13.6663667 L3.31147117,31.1168586 C3.3617716,31.7967479 3.94076164,32.2900009 4.59787789,32.2900009 L33.6490513,32.2900009 C34.3061675,32.2900009 34.8851576,31.8367414 34.935458,31.1590739 L36.2443394,13.6141529 C36.2946398,12.9342636 35.7991271,12.3476925 35.1420108,12.3476925 L35.1420108,12.3476925 L35.1420108,12.3476925 Z M32.2684651,12.3476925 L4.96710444,12.3476925 L4.96710444,11.5844834 C4.96710444,10.9023723 5.63171224,10.2480344 6.28882849,10.2480344 L30.9435303,10.2480344 C31.6006466,10.2480344 32.2684651,10.9023723 32.2684651,11.5844834 L32.2684651,12.3476925 Z" id="Combined-Shape" fill="#367FC6" fill-rule="nonzero"></path>
            <g id="Group-14" transform="translate(12.000000, 15.700000)" fill="#FFFFFF">
                <path d="M7.3574805,0.00496677724 L5.98581354,0.00496677724 C5.58906004,0.00496677724 5.35732791,-0.0747740438 5.4298905,0.404763223 L5.55863057,1.8291746 C5.81611072,4.90520408 5.7903627,5.01116107 6.0724205,5.01116107 L6.10167961,5.01116107 C6.24095296,4.96855981 6.43055198,4.94452832 6.66462484,4.94452832 C6.8986977,4.94452832 7.08946708,4.96746747 7.22757006,5.01116107 L7.27321427,5.01116107 C7.55644243,5.01116107 7.53069442,4.90520408 7.7870042,1.8291746 L7.91574427,0.404763223 C7.9871365,-0.0747740438 7.75657473,0.00496677724 7.35982123,0.00496677724 L7.3574805,0.00496677724 Z" id="Shape"></path>
                <path d="M13.8469913,5.55232556 L13.81071,5.4496456 L13.4478971,4.44032343 L13.4116158,4.33764346 C13.2852165,3.98700232 13.293409,3.75651858 12.8287744,3.9728019 L11.4219965,4.53863403 C8.37904932,5.7445774 8.26201289,5.75440846 8.35213094,6.00455433 L8.36149386,6.03077049 C8.44927118,6.14000449 8.53353741,6.30057847 8.60844073,6.50812307 C8.68217368,6.71566768 8.71845497,6.89044208 8.71962533,7.02698458 L8.73366971,7.06630882 C8.82378776,7.31645469 8.92443909,7.259653 12.1300669,6.50921541 L13.6187703,6.16949767 C14.1290491,6.07992579 13.9733907,5.90078203 13.8469913,5.55014088 L13.8469913,5.55232556 Z" id="Shape"></path>
                <path d="M10.5363544,13.4167558 L11.6716077,12.6979961 C11.9993097,12.4904515 12.2392344,12.4358345 11.8916362,12.0753623 L10.9284264,10.9633602 C8.86624451,8.55256576 8.82177066,8.45097814 8.58886817,8.59953638 L8.56546088,8.61482914 C8.47651319,8.7229708 8.33372875,8.84203587 8.13944827,8.96437795 C7.9451678,9.08672003 7.77546498,9.16755319 7.63268053,9.20469275 L7.59639924,9.22763189 C7.36232638,9.37509779 7.44776297,9.45046925 9.08510263,12.1299793 L9.83530615,13.3752469 C10.0646976,13.8099983 10.2086524,13.6221158 10.5363544,13.4145712 L10.5363544,13.4167558 Z" id="Shape"></path>
                <path d="M0.128675574,5.54362144 L0.167297596,5.44203382 L0.57926583,4.33440104 C0.709176268,3.98485224 0.70449481,3.75546084 1.16678871,3.97502118 L2.56654441,4.55614607 C5.59544723,5.79267496 5.71131329,5.8046907 5.61885451,6.05374423 L5.60832123,6.07886805 C5.51937355,6.18810205 5.43393695,6.34758369 5.35669291,6.55294361 C5.27944887,6.75830354 5.24082684,6.93417028 5.23965648,7.07180512 L5.22444174,7.11112936 C5.1308126,7.36018289 5.032502,7.30228886 1.83506673,6.51908107 L0.351044791,6.16407057 C-0.156893316,6.07012933 -0.00123486367,5.89207791 0.128675574,5.5425291 L0.128675574,5.54362144 Z" id="Shape"></path>
                <path d="M3.19244946,13.4167558 L2.05719608,12.6979961 C1.72949408,12.4904515 1.4895694,12.4358345 1.8371676,12.0753623 L2.80037742,10.9633602 C4.86255932,8.55256576 4.90586279,8.45097814 5.13993565,8.59953638 L5.16334294,8.61482914 C5.25229063,8.7229708 5.39507507,8.84203587 5.58935555,8.96437795 C5.78363602,9.08672003 5.95333884,9.16755319 6.09612329,9.20469275 L6.13240458,9.22763189 C6.36647744,9.37509779 6.28104085,9.45046925 4.64370119,12.1299793 L3.89349767,13.3752469 C3.66410627,13.8099983 3.52015146,13.6221158 3.19244946,13.4145712 L3.19244946,13.4167558 Z" id="Shape"></path>
            </g>
        </g>
    </g>
</svg>