<?xml version="1.0" encoding="UTF-8"?>
<svg width="24px" height="24px" viewBox="0 0 24 24" version="1.1" xmlns="http://www.w3.org/2000/svg" xmlns:xlink="http://www.w3.org/1999/xlink">
    <!-- Generator: Sketch 47.1 (45422) - http://www.bohemiancoding.com/sketch -->
    <title>folders / ei-folder-orion open</title>
    <desc>Created with Sketch.</desc>
    <defs>
        <path d="M11.7569468,10.0034382 L11.7584591,10.0034382 C12.0147966,10.0034382 12.1637597,9.94823867 12.117634,10.2801919 L12.0344567,11.2662216 C11.8688581,13.3955619 11.8854936,13.4689092 11.7025034,13.4689092 L11.6730133,13.4689092 C11.5837867,13.4386629 11.4605329,13.4227836 11.3093014,13.4227836 C11.1580698,13.4227836 11.0355723,13.439419 10.9455895,13.4689092 L10.9266856,13.4689092 C10.7444515,13.4689092 10.761087,13.3955619 10.5947323,11.2662216 L10.511555,10.2801919 C10.4646732,9.94823867 10.6143924,10.0034382 10.8707299,10.0034382 L11.7569468,10.0034382 Z M16.0103342,13.8643797 L16.0103342,13.8628674 C16.0919992,14.105594 16.1925682,14.2296039 15.8628834,14.2916088 L14.9010508,14.5267739 C12.8299346,15.0462543 12.7649051,15.0855745 12.7066809,14.9124144 L12.697607,14.8851927 C12.6968509,14.790673 12.67341,14.6696877 12.6257721,14.5260177 C12.577378,14.3823478 12.5229346,14.2711926 12.4662228,14.1955768 L12.4601735,14.177429 C12.4019494,14.0042689 12.4775651,13.9974635 14.4435753,13.1626653 L15.3524769,12.7709756 C15.6526716,12.6212563 15.6473785,12.7808056 15.7290435,13.0235323 L15.7524844,13.0946111 L15.9868933,13.7933009 L16.0103342,13.8643797 Z M13.8802378,19.0962352 L13.8802378,19.0947229 C13.6685136,19.2383929 13.5755062,19.368452 13.4272993,19.0675012 L12.9426022,18.2054814 C11.8847375,16.3506264 11.8295379,16.2984515 11.9807695,16.1963702 L12.0042104,16.1804909 C12.0964616,16.1547816 12.2061045,16.0988259 12.3316267,16.0141362 C12.4571489,15.9294465 12.5494001,15.8470253 12.6068681,15.7721657 L12.6219913,15.7615795 C12.7724667,15.6587421 12.8012007,15.7290647 14.1335506,17.3979049 L14.7558685,18.1676735 C14.9804473,18.4172056 14.825435,18.4550135 14.6137108,18.5986834 L13.8802378,19.0962352 Z M7.08313568,13.8454758 L7.10808889,13.7751531 L7.37425642,13.0084091 C7.45818993,12.7664386 7.4551653,12.6076455 7.75384761,12.7596332 L8.65821229,13.1619091 C10.6151486,14.0178797 10.6900082,14.0261975 10.6302717,14.1986014 L10.6234663,14.2159931 C10.5659983,14.2916088 10.5107988,14.4020079 10.4608924,14.5441655 C10.410986,14.6863232 10.3860328,14.8080646 10.3852766,14.9033405 L10.3754466,14.9305621 C10.3149539,15.1029661 10.2514367,15.0628897 8.18561369,14.5207246 L7.22680566,14.2749734 C6.89863319,14.2099438 6.99920217,14.0866901 7.08313568,13.8447196 L7.08313568,13.8454758 Z M9.21398825,19.0962352 L8.48051522,18.5986834 C8.26879105,18.4550135 8.11377871,18.4172056 8.33835756,18.1676735 L8.9606754,17.3979049 C10.2930254,15.7290647 10.3210032,15.6587421 10.4722348,15.7615795 L10.4873579,15.7721657 C10.5448259,15.8470253 10.6370771,15.9294465 10.7625993,16.0141362 C10.8881215,16.0988259 10.9977644,16.1547816 11.0900156,16.1804909 L11.1134565,16.1963702 C11.2646881,16.2984515 11.2094886,16.3506264 10.1516239,18.2054814 L9.66692674,19.0675012 C9.51871982,19.368452 9.42571242,19.2383929 9.21398825,19.0947229 L9.21398825,19.0962352 Z" id="path-1"></path>
    </defs>
    <g id="Page-1" stroke="none" stroke-width="1" fill="none" fill-rule="evenodd">
        <g id="folders-/-ei-folder-orion-open">
            <g id="Group-4" transform="translate(0.000000, 3.000000)">
                <path d="M20.9491259,4.72144553 L21.486083,4.72144553 C21.9007896,4.72144553 22.213508,5.07833537 22.1817634,5.49200315 L21.3557274,16.1669299 C21.3239827,16.5792458 20.9585817,16.8550243 20.5438752,16.8550243 L2.20965838,16.8550243 C1.79495184,16.8550243 1.4295508,16.5549124 1.39780616,16.1412446 L0.57244558,5.52377175 C0.540025525,5.11010398 0.852743977,4.72144553 1.26745052,4.72144553 L1.16681326,4.72144553 L1.16681326,1.15863044 C1.16681326,0.630054949 1.68553415,0.250859489 2.20965838,0.250859489 L8.25802498,0.250859489 C8.65787233,0.250859489 9.12998939,0.554351042 9.31032594,0.911240886 L9.57171264,1.44116823 C9.76623297,1.82644704 10.2761734,2.16711462 10.70709,2.16711462 L19.9528846,2.16711462 C20.5654885,2.16711462 20.9491259,2.59294909 20.9491259,3.0586633 L20.9491259,4.72144553 Z M19.6725862,4.65412543 L19.6725862,4.18976308 C19.6725862,3.77474345 19.2511254,3.37662201 18.8364189,3.37662201 L3.27681854,3.37662201 C2.862112,3.37662201 2.44267753,3.77474345 2.44267753,4.18976308 L2.44267753,4.65412543 L19.6725862,4.65412543 Z" id="Combined-Shape" fill="#3895DF" fill-rule="nonzero"></path>
                <path d="M1.01682082,4.70539617 L21.5077977,4.70539617 L21.5077977,4.70539617 C22.0600825,4.70539617 22.5077977,5.15311142 22.5077977,5.70539617 C22.5077977,5.72786332 22.5070406,5.75032409 22.5055275,5.77274023 L21.7424266,17.0783923 C21.7135574,17.5061007 21.6611912,17.6586396 21.5704719,17.811592 C21.4797526,17.9645445 21.3530369,18.0829955 21.1943223,18.1632084 C21.0356077,18.2434213 20.8798886,18.2853961 20.451207,18.2853961 L2.10320845,18.2853961 C1.67517702,18.2853961 1.51968663,18.2435864 1.3611403,18.1636348 C1.20259398,18.0836832 1.07593305,17.9655896 0.985091268,17.8130217 C0.894249485,17.6604538 0.841670005,17.5082673 0.811741281,17.0812835 L0.0192683478,5.77531796 L0.0192683478,5.77531796 C-0.0193483899,5.22438494 0.395966016,4.74646043 0.946899035,4.70784369 C0.970170615,4.70621251 0.993492148,4.70539617 1.01682082,4.70539617 Z" id="Rectangle-3-Copy" fill="#66AFE9"></path>
            </g>
            <mask id="mask-2" fill="white">
                <use xlink:href="#path-1"></use>
            </mask>
            <use id="Shape" fill="#FFFFFF" fill-rule="nonzero" xlink:href="#path-1"></use>
        </g>
    </g>
</svg>