<?xml version="1.0" encoding="UTF-8"?>
<svg width="38px" height="38px" viewBox="0 0 38 38" version="1.1" xmlns="http://www.w3.org/2000/svg" xmlns:xlink="http://www.w3.org/1999/xlink">
    <!-- Generator: Sketch 47.1 (45422) - http://www.bohemiancoding.com/sketch -->
    <title>folders / ei-folder-legal</title>
    <desc>Created with Sketch.</desc>
    <defs></defs>
    <g id="drag-to-move-1A-hover" stroke="none" stroke-width="1" fill="none" fill-rule="evenodd">
        <g id="folders-/-ei-folder-legal" fill-rule="nonzero" fill="#367FC6">
            <g transform="translate(3.000000, 5.000000)" id="Combined-Shape">
                <path d="M31.9735952,15.6051615 C31.9910991,15.8522105 32,16.1016363 32,16.3531409 C32,16.6046456 31.9910991,16.8540713 31.9735952,17.1011203 L31.9735952,24.6112054 L31.9950316,24.6112054 L31.8639271,25.6895094 C31.8126506,26.3550125 31.2224258,26.8001359 30.5525588,26.8001359 L1.37230718,26.8001359 C0.702440156,26.8001359 0.112215303,26.3157369 0.060938837,25.6480519 L6.07153217e-16,24.6112054 L0.0279246186,24.6112054 L0.0279246186,17.1222691 C0.00941622561,16.8683084 3.16795747e-17,16.6118243 0,16.3531409 C-3.16795747e-17,16.0944576 0.00941622561,15.8379735 0.0279246186,15.5840127 L0.0279246186,7.22622997 C0.0763541228,7.21935955 0.125886656,7.21579885 0.176354261,7.21579885 L0.0279246186,7.21579885 L0.0279246186,3.91171477 L0.013796954,3.91171477 L0.013796954,1.46519774 C0.013796954,0.612044625 0.851676227,0 1.69828341,0 L11.4680867,0 C12.1139519,0 12.876553,0.489853898 13.167847,1.0658959 L13.5900596,1.92123099 C13.9042643,2.54309451 14.7279607,3.09295279 15.4240115,3.09295279 L30.3585549,3.09295279 C31.3480816,3.09295279 31.9677631,3.78027563 31.9677631,4.5319668 L31.9677631,7.21579885 L31.9735952,7.21579885 L31.9735952,15.6051615 Z M21.9951109,5.93045593 L30.004295,5.93045593 C30.004295,5.26058891 29.3235181,5.16129032 28.6536511,5.16129032 L3.52054584,5.16129032 C2.85067882,5.16129032 2.17317487,5.26058891 2.17317487,5.93045593 L10.0048891,5.93045593 C10.1462993,5.92477117 10.2884342,5.92190153 10.4312394,5.92190153 L10.4312394,5.92190153 L21.5687606,5.92190153 L21.5687606,5.92190153 C21.7115658,5.92190153 21.8537007,5.92477117 21.9951109,5.93045593 Z M21.6693229,21.8104965 C21.8531078,21.6267116 21.9450002,21.4030139 21.9450002,21.1394033 C21.9450002,20.8822902 21.8531078,20.6558079 21.6693229,20.462741 L18.9663863,17.7588761 C18.7733194,17.5750913 18.5468371,17.4841271 18.2887957,17.4841271 C18.0261133,17.4841271 17.7875643,17.5908708 17.5740769,17.80343 L15.6675412,15.8978226 L16.6059578,14.9594061 C16.6755732,14.8897906 16.7099169,14.8053238 16.7099169,14.7060057 C16.7099169,14.6066877 16.6755732,14.5222209 16.6059578,14.4526054 C16.616168,14.4628157 16.6458706,14.4943747 16.6950656,14.5463543 C16.7451887,14.5983338 16.7776759,14.6289646 16.7925272,14.6391749 C16.8073785,14.6493852 16.8352247,14.6735185 16.8779222,14.7134314 C16.9196915,14.7533443 16.9531069,14.7784058 16.9781685,14.7876879 C17.00323,14.7978982 17.0366455,14.8127495 17.079343,14.8322418 C17.1211122,14.8526623 17.1619533,14.8665854 17.2018662,14.8740111 C17.241779,14.8814367 17.2863329,14.8851496 17.3355279,14.8851496 C17.5239538,14.8851496 17.6928873,14.8155341 17.8423285,14.6763031 C17.8571798,14.6614518 17.9017337,14.6206108 17.9759902,14.5537799 C18.0511749,14.4860209 18.101298,14.4396105 18.1291442,14.4117644 C18.1560622,14.3848464 18.1969033,14.3384361 18.2516675,14.2743898 C18.3064316,14.2094154 18.3444881,14.1546512 18.366765,14.1100973 C18.389042,14.0655434 18.4122471,14.0107793 18.4345241,13.946733 C18.456801,13.8817586 18.4679395,13.8177124 18.4679395,13.7527379 C18.4679395,13.5541018 18.398324,13.3851682 18.2590931,13.2468655 L15.221074,10.2079182 C15.0818431,10.0696155 14.9129095,10 14.7142734,10 C14.6502272,10 14.5852527,10.0111385 14.5212065,10.0334154 C14.4562321,10.0556924 14.4014679,10.0779693 14.356914,10.1002463 C14.3123601,10.1225232 14.2575959,10.1615079 14.1935497,10.2153439 C14.1285752,10.270108 14.0830931,10.3109491 14.055247,10.3387953 C14.028329,10.3657133 13.9809905,10.4167646 13.9141596,10.4910211 C13.8473288,10.5652776 13.8064877,10.6107597 13.7916364,10.625611 C13.6524054,10.774124 13.58279,10.9430576 13.58279,11.1314834 C13.58279,11.1816066 13.5865028,11.2261605 13.5939284,11.2660733 C13.6013541,11.3059862 13.6152772,11.3468273 13.6347695,11.3885966 C13.6542619,11.4312941 13.6691132,11.4647095 13.6793234,11.4888428 C13.6895337,11.5139044 13.7145953,11.5473198 13.7545081,11.5900173 C13.7934928,11.6317866 13.8185544,11.660561 13.8287646,11.6754123 C13.8380467,11.6902636 13.8696057,11.7227508 13.9215853,11.7719458 C13.9735648,11.8220689 14.0051238,11.8517715 14.0144059,11.8610536 C13.9447904,11.7923663 13.8603236,11.7570945 13.7610056,11.7570945 C13.6616875,11.7570945 13.5781489,11.7923663 13.5085335,11.8610536 L10.9169816,14.4526054 C10.8473661,14.5222209 10.8130225,14.6066877 10.8130225,14.7060057 C10.8130225,14.8053238 10.8473661,14.8897906 10.9169816,14.9594061 C10.9067713,14.9491958 10.8770687,14.918565 10.8278738,14.8665854 C10.7777506,14.8136777 10.7452634,14.7830469 10.7304121,14.7728366 C10.7155608,14.7635545 10.6877146,14.738493 10.6450172,14.6985801 C10.6032479,14.6586672 10.5689042,14.6345339 10.5447709,14.6243236 C10.5197093,14.6141133 10.4862939,14.599262 10.4435964,14.5797697 C10.4018271,14.5593492 10.360986,14.5463543 10.3210732,14.5389286 C10.2811603,14.531503 10.2366064,14.5268619 10.1874115,14.5268619 C9.99805739,14.5268619 9.83005206,14.5974056 9.68061085,14.7357083 C9.66575955,14.7505596 9.62120565,14.7914007 9.54694915,14.8591598 C9.47269265,14.9259906 9.4216413,14.9733291 9.39379511,15.0002471 C9.36687713,15.0271651 9.32603606,15.0735754 9.27127189,15.1376217 C9.21650772,15.2025961 9.17845126,15.2573603 9.15617431,15.3019142 C9.13389736,15.3464681 9.1106922,15.4012322 9.08841525,15.4652785 C9.0661383,15.5302529 9.05499983,15.5942991 9.05499983,15.6592736 C9.05499983,15.8579097 9.1246153,16.0268433 9.26384624,16.1660742 L12.3018653,19.2040933 C12.4410963,19.3433242 12.6100298,19.4120115 12.8086659,19.4120115 C12.8727122,19.4120115 12.9376866,19.400873 13.0017328,19.3785961 C13.0667073,19.3563191 13.1214715,19.3340422 13.1660254,19.3117652 C13.2105793,19.2894883 13.2653434,19.2514318 13.3293897,19.1966676 C13.3943641,19.1419035 13.4398462,19.1010624 13.4676924,19.0732162 C13.4946104,19.0462982 13.5419489,18.9952469 13.6087797,18.9209904 C13.6756106,18.8467339 13.7164517,18.80218 13.731303,18.7864005 C13.8705339,18.6378875 13.9401494,18.4689539 13.9401494,18.2805281 C13.9401494,18.2304049 13.9364366,18.185851 13.9290109,18.1459381 C13.9215853,18.1069535 13.9076622,18.0661124 13.8881698,18.0234149 C13.8686775,17.9816456 13.852898,17.9482302 13.8436159,17.9231686 C13.8334057,17.8981071 13.8083441,17.8646916 13.7693594,17.8219942 C13.7294466,17.7802249 13.704385,17.7514505 13.6941747,17.7365992 C13.6848927,17.7217479 13.6533336,17.6901889 13.6013541,17.6400657 C13.5493745,17.5908708 13.5178155,17.5611682 13.5085335,17.5509579 C13.5781489,17.6205734 13.6616875,17.654917 13.7610056,17.654917 C13.8603236,17.654917 13.9447904,17.6205734 14.0144059,17.5509579 L14.9528224,16.6125414 L16.8593581,18.5190771 C16.6458706,18.7325645 16.5391269,18.9701853 16.5391269,19.2337959 C16.5391269,19.5020475 16.6328757,19.724817 16.8222298,19.9039608 L19.5251664,22.6143231 C19.7089513,22.7981079 19.9317208,22.8900003 20.1953314,22.8900003 C20.4533727,22.8900003 20.6789268,22.7981079 20.8729219,22.6143231 L21.6693229,21.8104965 Z"></path>
            </g>
        </g>
    </g>
</svg>