<?xml version="1.0" encoding="UTF-8"?>
<svg width="24px" height="24px" viewBox="0 0 24 24" version="1.1" xmlns="http://www.w3.org/2000/svg" xmlns:xlink="http://www.w3.org/1999/xlink">
    <!-- Generator: Sketch 47.1 (45422) - http://www.bohemiancoding.com/sketch -->
    <title>folders / ei-folder-medical</title>
    <desc>Created with Sketch.</desc>
    <defs></defs>
    <g id="Page-1" stroke="none" stroke-width="1" fill="none" fill-rule="evenodd">
        <g id="folders-/-ei-folder-medical">
            <path d="M1.00902936,5.625567 L1.00902936,3.98344973 C1.00902936,3.41080811 1.55737615,3 2.11143487,3 L8.50524405,3 C8.92792803,3 9.42700928,3.32879295 9.61764547,3.71543588 L9.89396084,4.28954205 C10.0995909,4.70694067 10.6386558,5.07600892 11.0941834,5.07600892 L20.8680364,5.07600892 C21.5156283,5.07600892 21.9211764,5.53734423 21.9211764,6.04188397 L21.9211764,7.84328853 L21.9249932,7.84328853 L21.9249932,19.5191923 L21.9390222,19.5191923 L21.8532213,20.2429566 C21.8196636,20.6896464 21.4333933,20.9884159 20.9950015,20.9884159 L1.89810102,20.9884159 C1.45970919,20.9884159 1.07343886,20.6632844 1.03988118,20.21513 L1,19.5191923 L1.01827516,19.5191923 L1.01827516,7.85028997 C1.04996965,7.8456785 1.08238602,7.84328853 1.11541435,7.84328853 L1.01827516,7.84328853 L1.01827516,5.625567 L1.00902936,5.625567 Z" id="Combined-Shape-Copy" fill="#3895DF" fill-rule="nonzero"></path>
            <rect id="Rectangle-3-Copy-2" fill="#66AFE9" x="1" y="6" width="20.9400005" height="14.9495225" rx="1"></rect>
            <g id="Group" transform="translate(6.200000, 8.700000)">
                <path d="M1.97435469,8.74807865 L1.80495199,8.74807865 C1.47989885,8.74807865 1.20047816,8.63180964 0.967940142,8.39864651 C0.735402123,8.16548339 0.618508011,7.88606271 0.618508011,7.56163467 L0.618508011,3.15403904 C0.618508011,2.8289859 0.734777021,2.54956521 0.967940142,2.3170272 C1.20110326,2.08448918 1.47989885,1.96759506 1.80495199,1.96759506 L1.97435469,1.96759506 L1.97435469,8.74870375 L1.97435469,8.74807865 Z" id="Path" fill="#FFFFFF"></path>
                <path d="M8.24725528,8.74807865 L2.48256278,8.74807865 L2.48256278,1.96696996 L3.33020136,1.96696996 L3.33020136,1.11933138 C3.33020136,0.97805828 3.37958444,0.858038657 3.47835058,0.759272509 C3.57711673,0.660506361 3.69713635,0.610498185 3.83903455,0.610498185 L6.8901584,0.610498185 C7.0314315,0.610498185 7.15207622,0.660506361 7.25084237,0.759272509 C7.34960852,0.858038657 7.39899159,0.97805828 7.39899159,1.11933138 L7.39899159,1.96696996 L8.24663018,1.96696996 L8.24663018,8.74807865 L8.24725528,8.74807865 Z" id="Path" fill="#FFFFFF"></path>
                <polygon id="Path" fill="#66AFE9" points="4.00906235 1.28873407 6.72200591 1.28873407 6.72200591 1.96696996 4.00906235 1.96696996"></polygon>
                <path d="M7.230214,4.67928842 L6.04377002,4.67928842 L6.04377002,3.49284444 C6.04377002,3.44346136 6.02814246,3.40282972 5.99626225,3.37094951 C5.96438204,3.33906929 5.92312529,3.32344174 5.87436732,3.32344174 L4.85670094,3.32344174 C4.80731786,3.32344174 4.76668622,3.33906929 4.73480601,3.37094951 C4.7029258,3.40282972 4.68729824,3.44346136 4.68729824,3.49284444 L4.68729824,4.67928842 L3.50085426,4.67928842 C3.45147119,4.67928842 3.41083955,4.69491597 3.37895933,4.72679618 C3.34707912,4.75867639 3.33145157,4.79993314 3.33145157,4.84931621 L3.33145157,5.86573239 C3.33145157,5.91574057 3.34707912,5.95574711 3.37895933,5.98825243 C3.41083955,6.02075774 3.45147119,6.03576019 3.50085426,6.03576019 L4.68729824,6.03576019 L4.68729824,7.22220417 C4.68729824,7.27158724 4.7029258,7.31221889 4.73480601,7.3440991 C4.76668622,7.37597931 4.80731786,7.39160687 4.85670094,7.39160687 L5.87436732,7.39160687 C5.92312529,7.39160687 5.96438204,7.37597931 5.99626225,7.3440991 C6.02814246,7.31221889 6.04377002,7.27158724 6.04377002,7.22220417 L6.04377002,6.03576019 L7.230214,6.03576019 C7.27959707,6.03576019 7.32022871,6.02013264 7.35210893,5.98825243 C7.38398914,5.95637221 7.39961669,5.91574057 7.39961669,5.86573239 L7.39961669,4.84931621 C7.39961669,4.79993314 7.38398914,4.75867639 7.35210893,4.72679618 C7.32022871,4.69491597 7.27959707,4.67928842 7.230214,4.67928842 Z" id="Path" fill="#66AFE9"></path>
                <path d="M10.11131,7.56163467 C10.11131,7.88668781 9.99504103,8.1661085 9.76187791,8.39864651 C9.52871479,8.63118453 9.24991921,8.74807865 8.92486607,8.74807865 L8.75546337,8.74807865 L8.75546337,1.96696996 L8.92486607,1.96696996 C9.24991921,1.96696996 9.52933989,2.08323897 9.76187791,2.31640209 C9.99441593,2.54956521 10.11131,2.8289859 10.11131,3.15341394 L10.11131,7.56100956 L10.11131,7.56163467 Z" id="Path" fill="#FFFFFF"></path>
            </g>
        </g>
    </g>
</svg>