<?xml version="1.0" encoding="UTF-8"?>
<svg width="38px" height="38px" viewBox="0 0 38 38" version="1.1" xmlns="http://www.w3.org/2000/svg" xmlns:xlink="http://www.w3.org/1999/xlink">
    <!-- Generator: Sketch 47.1 (45422) - http://www.bohemiancoding.com/sketch -->
    <title>folders / ei-folder-finance-v3-open</title>
    <desc>Created with Sketch.</desc>
    <defs>
        <path d="M22.1789266,26.5649636 C21.6876046,27.1022292 21.0485022,27.4336531 20.2625789,27.5601796 L20.2625789,28.8367755 C20.2625789,28.9047598 20.2405078,28.9604693 20.1963656,29.004848 C20.1512638,29.0482825 20.0946466,29.0699997 20.0255544,29.0699997 L19.0246778,29.0699997 C18.9603837,29.0699997 18.9047262,29.0473382 18.8577051,29.0010711 C18.8106841,28.9548039 18.7876534,28.9000387 18.7876534,28.8367755 L18.7876534,27.5601796 C18.4613848,27.5167451 18.1466317,27.4412069 17.8424343,27.3345092 C17.5382369,27.2268672 17.2877779,27.1192253 17.0900975,27.0096949 C16.8924172,26.9001645 16.7091311,26.7840245 16.5411987,26.6593864 C16.3732664,26.5356926 16.2590725,26.4441025 16.1966976,26.3865046 C16.1352823,26.3279625 16.0920997,26.284528 16.0671498,26.2552569 C15.9827038,26.1523361 15.9779058,26.0531922 16.0527556,25.9559368 L16.8156481,24.9711073 C16.8501942,24.9229517 16.907771,24.8936806 16.9864593,24.8832941 C17.0603495,24.8738518 17.1198455,24.8955691 17.1639877,24.9493901 L17.1793416,24.9635535 C17.7378365,25.4451096 18.3375947,25.7491509 18.9805356,25.8756774 C19.1628621,25.9143908 19.3461483,25.9342195 19.5284748,25.9342195 C19.9295931,25.9342195 20.2817712,25.8294103 20.585009,25.6207359 C20.8892064,25.4111174 21.0408253,25.1146299 21.0408253,24.7303292 C21.0408253,24.5943604 21.0043599,24.4659455 20.9295101,24.3441401 C20.8556199,24.2223347 20.7730932,24.1203581 20.6819299,24.0372661 C20.589807,23.9551183 20.445865,23.8635282 20.2481847,23.7643843 C20.0505044,23.6642962 19.8873701,23.5868695 19.758782,23.5311601 C19.6301938,23.4745064 19.4325135,23.3961355 19.165741,23.2932147 C18.9728587,23.215788 18.8212398,23.1553574 18.7099247,23.1109787 C18.5986095,23.0675443 18.4469907,23.0033368 18.2541084,22.9183563 C18.0612261,22.8333758 17.9067284,22.7578376 17.7906152,22.6917416 C17.674502,22.6265899 17.5353581,22.539721 17.3722238,22.4330233 C17.2090896,22.3263255 17.0766629,22.2224605 16.9749439,22.1233166 C16.8741845,22.0232284 16.7667079,21.9042558 16.6525139,21.7654543 C16.5392795,21.6266528 16.4509951,21.4859629 16.3895799,21.3424403 C16.3281646,21.1989177 16.2763455,21.0374547 16.2341225,20.8571072 C16.1918995,20.677704 16.170788,20.4879142 16.170788,20.2886822 C16.170788,19.6173363 16.4126106,19.0290824 16.8972153,18.5229764 C17.3818199,18.0178146 18.0122859,17.692056 18.7876534,17.5457007 L18.7876534,16.2332242 C18.7876534,16.169961 18.8106841,16.1151958 18.8577051,16.0689286 C18.9047262,16.0226615 18.9603837,16 19.0246778,16 L20.0255544,16 C20.0946466,16 20.1512638,16.0217172 20.1963656,16.0651517 C20.2405078,16.1095304 20.2625789,16.1652398 20.2625789,16.2332242 L20.2625789,17.5173739 C20.5447052,17.5457007 20.8172354,17.6023544 21.0820886,17.6845022 C21.3459823,17.7675942 21.5609356,17.8487978 21.7269487,17.9290572 C21.8920022,18.0093165 22.0493788,18.0999624 22.1971592,18.2028832 C22.3458993,18.3048598 22.4418606,18.3756769 22.4869624,18.4143902 C22.5311046,18.4531035 22.5685295,18.4870957 22.5973179,18.5163668 C22.6817639,18.60418 22.6942389,18.6967143 22.6347429,18.7930255 L22.034025,19.8581143 C21.9946808,19.9308199 21.9380636,19.9704774 21.8641734,19.9751986 C21.7950813,19.989362 21.7279083,19.9723659 21.6636142,19.9242103 C21.64922,19.9091026 21.6127547,19.8798316 21.5561376,19.8363971 C21.4995204,19.7929626 21.4035591,19.7287552 21.267294,19.6428304 C21.1310289,19.5578499 20.9870869,19.4804233 20.8335488,19.4096062 C20.6800107,19.3387891 20.4967245,19.2764701 20.2817712,19.2198164 C20.0658582,19.164107 19.8547433,19.1357802 19.6474668,19.1357802 C19.1782159,19.1357802 18.7953303,19.2405894 18.4988098,19.4492638 C18.2022893,19.6588823 18.0535492,19.9289314 18.0535492,20.2594111 C18.0535492,20.3859376 18.0746607,20.5030219 18.1168837,20.6097196 C18.1591067,20.7164173 18.2320373,20.8174497 18.3356755,20.9118724 C18.4393137,21.0072394 18.5371943,21.0874988 18.6283576,21.1526505 C18.7195208,21.2187464 18.8577051,21.2942847 19.0438701,21.3792652 C19.2290754,21.4642456 19.3778155,21.5303416 19.4920095,21.5756645 C19.6052438,21.6219317 19.7779742,21.6889718 20.0111602,21.776785 C20.272175,21.8740405 20.4727342,21.9505229 20.6109185,22.0062323 C20.7491028,22.0619418 20.937187,22.1469223 21.1742115,22.2611738 C21.4121956,22.3763696 21.5983605,22.4792904 21.7346256,22.5718247 C21.8699311,22.664359 22.0234692,22.7852202 22.1933208,22.9362966 C22.3641319,23.087373 22.4955989,23.2412822 22.5867622,23.3999124 C22.6779254,23.5575984 22.7556541,23.7436113 22.8199482,23.9570067 C22.8842423,24.1713464 22.9168691,24.3998495 22.9168691,24.6434603 C22.9168691,25.3865675 22.6702485,26.0276981 22.1789266,26.5649636 L22.1789266,26.5649636 Z" id="path-1"></path>
    </defs>
    <g id="drag-to-move-1A-hover" stroke="none" stroke-width="1" fill="none" fill-rule="evenodd">
        <g id="folders-/-ei-folder-v3-open-copy" fill-rule="nonzero" fill="#367FC6">
            <path d="M35.1420108,12.3476925 L34.2911844,12.3476925 L34.2911844,9.61480414 C34.2911844,8.84937322 33.6832984,8.14948718 32.7126071,8.14948718 L18.0623396,8.14948718 C17.379538,8.14948718 16.5715205,7.58957835 16.2632966,6.95634812 L15.8491207,6.08537883 C15.5633715,5.49880767 14.8152863,5 14.181715,5 L4.59787789,5 C3.7673857,5 2.94545528,5.62323185 2.94545528,6.49197929 L2.94545528,12.3476925 L3.10491834,12.3476925 C2.4478021,12.3476925 1.95228936,12.9864774 2.00366001,13.6663667 L3.31147117,31.1168586 C3.3617716,31.7967479 3.94076164,32.2900009 4.59787789,32.2900009 L33.6490513,32.2900009 C34.3061675,32.2900009 34.8851576,31.8367414 34.935458,31.1590739 L36.2443394,13.6141529 C36.2946398,12.9342636 35.7991271,12.3476925 35.1420108,12.3476925 L35.1420108,12.3476925 L35.1420108,12.3476925 Z M32.2684651,12.3476925 L4.96710444,12.3476925 L4.96710444,11.5844834 C4.96710444,10.9023723 5.63171224,10.2480344 6.28882849,10.2480344 L30.9435303,10.2480344 C31.6006466,10.2480344 32.2684651,10.9023723 32.2684651,11.5844834 L32.2684651,12.3476925 Z" id="Combined-Shape"></path>
        </g>
        <g id="folders-/-ei-folder-finance-v3-open">
            <path d="M35.1420108,12.3476925 L34.2911844,12.3476925 L34.2911844,9.61480414 C34.2911844,8.84937322 33.6832984,8.14948718 32.7126071,8.14948718 L18.0623396,8.14948718 C17.379538,8.14948718 16.5715205,7.58957835 16.2632966,6.95634812 L15.8491207,6.08537883 C15.5633715,5.49880767 14.8152863,5 14.181715,5 L4.59787789,5 C3.7673857,5 2.94545528,5.62323185 2.94545528,6.49197929 L2.94545528,12.3476925 L3.10491834,12.3476925 C2.4478021,12.3476925 1.95228936,12.9864774 2.00366001,13.6663667 L3.31147117,31.1168586 C3.3617716,31.7967479 3.94076164,32.2900009 4.59787789,32.2900009 L33.6490513,32.2900009 C34.3061675,32.2900009 34.8851576,31.8367414 34.935458,31.1590739 L36.2443394,13.6141529 C36.2946398,12.9342636 35.7991271,12.3476925 35.1420108,12.3476925 L35.1420108,12.3476925 L35.1420108,12.3476925 Z M32.2684651,12.3476925 L4.96710444,12.3476925 L4.96710444,11.5844834 C4.96710444,10.9023723 5.63171224,10.2480344 6.28882849,10.2480344 L30.9435303,10.2480344 C31.6006466,10.2480344 32.2684651,10.9023723 32.2684651,11.5844834 L32.2684651,12.3476925 Z" id="Combined-Shape" fill="#367FC6" fill-rule="nonzero"></path>
            <mask id="mask-2" fill="white">
                <use xlink:href="#path-1"></use>
            </mask>
            <use id="Mask" fill="#FFFFFF" xlink:href="#path-1"></use>
        </g>
    </g>
</svg>