<?xml version="1.0" encoding="UTF-8"?>
<svg width="24px" height="24px" viewBox="0 0 24 24" version="1.1" xmlns="http://www.w3.org/2000/svg" xmlns:xlink="http://www.w3.org/1999/xlink">
    <!-- Generator: Sketch 47.1 (45422) - http://www.bohemiancoding.com/sketch -->
    <title>folders / ei-folder-orion</title>
    <desc>Created with Sketch.</desc>
    <defs>
        <path d="M11.7569468,9.00343819 L11.7584591,9.00343819 C12.0147966,9.00343819 12.1637597,8.94823867 12.117634,9.28019192 L12.0344567,10.2662216 C11.8688581,12.3955619 11.8854936,12.4689092 11.7025034,12.4689092 L11.6730133,12.4689092 C11.5837867,12.4386629 11.4605329,12.4227836 11.3093014,12.4227836 C11.1580698,12.4227836 11.0355723,12.439419 10.9455895,12.4689092 L10.9266856,12.4689092 C10.7444515,12.4689092 10.761087,12.3955619 10.5947323,10.2662216 L10.511555,9.28019192 C10.4646732,8.94823867 10.6143924,9.00343819 10.8707299,9.00343819 L11.7569468,9.00343819 Z M16.0103342,12.8643797 L16.0103342,12.8628674 C16.0919992,13.105594 16.1925682,13.2296039 15.8628834,13.2916088 L14.9010508,13.5267739 C12.8299346,14.0462543 12.7649051,14.0855745 12.7066809,13.9124144 L12.697607,13.8851927 C12.6968509,13.790673 12.67341,13.6696877 12.6257721,13.5260177 C12.577378,13.3823478 12.5229346,13.2711926 12.4662228,13.1955768 L12.4601735,13.177429 C12.4019494,13.0042689 12.4775651,12.9974635 14.4435753,12.1626653 L15.3524769,11.7709756 C15.6526716,11.6212563 15.6473785,11.7808056 15.7290435,12.0235323 L15.7524844,12.0946111 L15.9868933,12.7933009 L16.0103342,12.8643797 Z M13.8802378,18.0962352 L13.8802378,18.0947229 C13.6685136,18.2383929 13.5755062,18.368452 13.4272993,18.0675012 L12.9426022,17.2054814 C11.8847375,15.3506264 11.8295379,15.2984515 11.9807695,15.1963702 L12.0042104,15.1804909 C12.0964616,15.1547816 12.2061045,15.0988259 12.3316267,15.0141362 C12.4571489,14.9294465 12.5494001,14.8470253 12.6068681,14.7721657 L12.6219913,14.7615795 C12.7724667,14.6587421 12.8012007,14.7290647 14.1335506,16.3979049 L14.7558685,17.1676735 C14.9804473,17.4172056 14.825435,17.4550135 14.6137108,17.5986834 L13.8802378,18.0962352 Z M7.08313568,12.8454758 L7.10808889,12.7751531 L7.37425642,12.0084091 C7.45818993,11.7664386 7.4551653,11.6076455 7.75384761,11.7596332 L8.65821229,12.1619091 C10.6151486,13.0178797 10.6900082,13.0261975 10.6302717,13.1986014 L10.6234663,13.2159931 C10.5659983,13.2916088 10.5107988,13.4020079 10.4608924,13.5441655 C10.410986,13.6863232 10.3860328,13.8080646 10.3852766,13.9033405 L10.3754466,13.9305621 C10.3149539,14.1029661 10.2514367,14.0628897 8.18561369,13.5207246 L7.22680566,13.2749734 C6.89863319,13.2099438 6.99920217,13.0866901 7.08313568,12.8447196 L7.08313568,12.8454758 Z M9.21398825,18.0962352 L8.48051522,17.5986834 C8.26879105,17.4550135 8.11377871,17.4172056 8.33835756,17.1676735 L8.9606754,16.3979049 C10.2930254,14.7290647 10.3210032,14.6587421 10.4722348,14.7615795 L10.4873579,14.7721657 C10.5448259,14.8470253 10.6370771,14.9294465 10.7625993,15.0141362 C10.8881215,15.0988259 10.9977644,15.1547816 11.0900156,15.1804909 L11.1134565,15.1963702 C11.2646881,15.2984515 11.2094886,15.3506264 10.1516239,17.2054814 L9.66692674,18.0675012 C9.51871982,18.368452 9.42571242,18.2383929 9.21398825,18.0947229 L9.21398825,18.0962352 Z" id="path-1"></path>
    </defs>
    <g id="Page-1" stroke="none" stroke-width="1" fill="none" fill-rule="evenodd">
        <g id="folders-/-ei-folder-orion">
            <path d="M1.00902936,5.625567 L1.00902936,3.98344973 C1.00902936,3.41080811 1.55737615,3 2.11143487,3 L8.50524405,3 C8.92792803,3 9.42700928,3.32879295 9.61764547,3.71543588 L9.89396084,4.28954205 C10.0995909,4.70694067 10.6386558,5.07600892 11.0941834,5.07600892 L20.8680364,5.07600892 C21.5156283,5.07600892 21.9211764,5.53734423 21.9211764,6.04188397 L21.9211764,7.84328853 L21.9249932,7.84328853 L21.9249932,19.5191923 L21.9390222,19.5191923 L21.8532213,20.2429566 C21.8196636,20.6896464 21.4333933,20.9884159 20.9950015,20.9884159 L1.89810102,20.9884159 C1.45970919,20.9884159 1.07343886,20.6632844 1.03988118,20.21513 L1,19.5191923 L1.01827516,19.5191923 L1.01827516,7.85028997 C1.04996965,7.8456785 1.08238602,7.84328853 1.11541435,7.84328853 L1.01827516,7.84328853 L1.01827516,5.625567 L1.00902936,5.625567 Z" id="Combined-Shape-Copy" fill="#3895DF" fill-rule="nonzero"></path>
            <rect id="Rectangle-3-Copy-2" fill="#66AFE9" x="1" y="6" width="20.9400005" height="14.9495225" rx="1"></rect>
            <mask id="mask-2" fill="white">
                <use xlink:href="#path-1"></use>
            </mask>
            <use id="Shape" fill="#FFFFFF" fill-rule="nonzero" xlink:href="#path-1"></use>
        </g>
    </g>
</svg>