<?xml version="1.0" encoding="UTF-8"?>
<svg width="38px" height="38px" viewBox="0 0 38 38" version="1.1" xmlns="http://www.w3.org/2000/svg" xmlns:xlink="http://www.w3.org/1999/xlink">
    <!-- Generator: Sketch 47.1 (45422) - http://www.bohemiancoding.com/sketch -->
    <title>folders / ei-folder-finance-v3</title>
    <desc>Created with Sketch.</desc>
    <defs>
        <path d="M21.6789266,25.5649636 C21.1876046,26.1022292 20.5485022,26.4336531 19.7625789,26.5601796 L19.7625789,27.8367755 C19.7625789,27.9047598 19.7405078,27.9604693 19.6963656,28.004848 C19.6512638,28.0482825 19.5946466,28.0699997 19.5255544,28.0699997 L18.5246778,28.0699997 C18.4603837,28.0699997 18.4047262,28.0473382 18.3577051,28.0010711 C18.3106841,27.9548039 18.2876534,27.9000387 18.2876534,27.8367755 L18.2876534,26.5601796 C17.9613848,26.5167451 17.6466317,26.4412069 17.3424343,26.3345092 C17.0382369,26.2268672 16.7877779,26.1192253 16.5900975,26.0096949 C16.3924172,25.9001645 16.2091311,25.7840245 16.0411987,25.6593864 C15.8732664,25.5356926 15.7590725,25.4441025 15.6966976,25.3865046 C15.6352823,25.3279625 15.5920997,25.284528 15.5671498,25.2552569 C15.4827038,25.1523361 15.4779058,25.0531922 15.5527556,24.9559368 L16.3156481,23.9711073 C16.3501942,23.9229517 16.407771,23.8936806 16.4864593,23.8832941 C16.5603495,23.8738518 16.6198455,23.8955691 16.6639877,23.9493901 L16.6793416,23.9635535 C17.2378365,24.4451096 17.8375947,24.7491509 18.4805356,24.8756774 C18.6628621,24.9143908 18.8461483,24.9342195 19.0284748,24.9342195 C19.4295931,24.9342195 19.7817712,24.8294103 20.085009,24.6207359 C20.3892064,24.4111174 20.5408253,24.1146299 20.5408253,23.7303292 C20.5408253,23.5943604 20.5043599,23.4659455 20.4295101,23.3441401 C20.3556199,23.2223347 20.2730932,23.1203581 20.1819299,23.0372661 C20.089807,22.9551183 19.945865,22.8635282 19.7481847,22.7643843 C19.5505044,22.6642962 19.3873701,22.5868695 19.258782,22.5311601 C19.1301938,22.4745064 18.9325135,22.3961355 18.665741,22.2932147 C18.4728587,22.215788 18.3212398,22.1553574 18.2099247,22.1109787 C18.0986095,22.0675443 17.9469907,22.0033368 17.7541084,21.9183563 C17.5612261,21.8333758 17.4067284,21.7578376 17.2906152,21.6917416 C17.174502,21.6265899 17.0353581,21.539721 16.8722238,21.4330233 C16.7090896,21.3263255 16.5766629,21.2224605 16.4749439,21.1233166 C16.3741845,21.0232284 16.2667079,20.9042558 16.1525139,20.7654543 C16.0392795,20.6266528 15.9509951,20.4859629 15.8895799,20.3424403 C15.8281646,20.1989177 15.7763455,20.0374547 15.7341225,19.8571072 C15.6918995,19.677704 15.670788,19.4879142 15.670788,19.2886822 C15.670788,18.6173363 15.9126106,18.0290824 16.3972153,17.5229764 C16.8818199,17.0178146 17.5122859,16.692056 18.2876534,16.5457007 L18.2876534,15.2332242 C18.2876534,15.169961 18.3106841,15.1151958 18.3577051,15.0689286 C18.4047262,15.0226615 18.4603837,15 18.5246778,15 L19.5255544,15 C19.5946466,15 19.6512638,15.0217172 19.6963656,15.0651517 C19.7405078,15.1095304 19.7625789,15.1652398 19.7625789,15.2332242 L19.7625789,16.5173739 C20.0447052,16.5457007 20.3172354,16.6023544 20.5820886,16.6845022 C20.8459823,16.7675942 21.0609356,16.8487978 21.2269487,16.9290572 C21.3920022,17.0093165 21.5493788,17.0999624 21.6971592,17.2028832 C21.8458993,17.3048598 21.9418606,17.3756769 21.9869624,17.4143902 C22.0311046,17.4531035 22.0685295,17.4870957 22.0973179,17.5163668 C22.1817639,17.60418 22.1942389,17.6967143 22.1347429,17.7930255 L21.534025,18.8581143 C21.4946808,18.9308199 21.4380636,18.9704774 21.3641734,18.9751986 C21.2950813,18.989362 21.2279083,18.9723659 21.1636142,18.9242103 C21.14922,18.9091026 21.1127547,18.8798316 21.0561376,18.8363971 C20.9995204,18.7929626 20.9035591,18.7287552 20.767294,18.6428304 C20.6310289,18.5578499 20.4870869,18.4804233 20.3335488,18.4096062 C20.1800107,18.3387891 19.9967245,18.2764701 19.7817712,18.2198164 C19.5658582,18.164107 19.3547433,18.1357802 19.1474668,18.1357802 C18.6782159,18.1357802 18.2953303,18.2405894 17.9988098,18.4492638 C17.7022893,18.6588823 17.5535492,18.9289314 17.5535492,19.2594111 C17.5535492,19.3859376 17.5746607,19.5030219 17.6168837,19.6097196 C17.6591067,19.7164173 17.7320373,19.8174497 17.8356755,19.9118724 C17.9393137,20.0072394 18.0371943,20.0874988 18.1283576,20.1526505 C18.2195208,20.2187464 18.3577051,20.2942847 18.5438701,20.3792652 C18.7290754,20.4642456 18.8778155,20.5303416 18.9920095,20.5756645 C19.1052438,20.6219317 19.2779742,20.6889718 19.5111602,20.776785 C19.772175,20.8740405 19.9727342,20.9505229 20.1109185,21.0062323 C20.2491028,21.0619418 20.437187,21.1469223 20.6742115,21.2611738 C20.9121956,21.3763696 21.0983605,21.4792904 21.2346256,21.5718247 C21.3699311,21.664359 21.5234692,21.7852202 21.6933208,21.9362966 C21.8641319,22.087373 21.9955989,22.2412822 22.0867622,22.3999124 C22.1779254,22.5575984 22.2556541,22.7436113 22.3199482,22.9570067 C22.3842423,23.1713464 22.4168691,23.3998495 22.4168691,23.6434603 C22.4168691,24.3865675 22.1702485,25.0276981 21.6789266,25.5649636 L21.6789266,25.5649636 Z" id="path-1"></path>
    </defs>
    <g id="drag-to-move-1A-hover" stroke="none" stroke-width="1" fill="none" fill-rule="evenodd">
        <g id="folders-/-ei-folder-v3-copy" fill-rule="nonzero" fill="#367FC6">
            <g id="folders-/-ei-folder-legal" transform="translate(3.000000, 5.000000)">
                <path d="M31.9735952,15.6051615 C31.9910991,15.8522105 32,16.1016363 32,16.3531409 C32,16.6046456 31.9910991,16.8540713 31.9735952,17.1011203 L31.9735952,24.6112054 L31.9950316,24.6112054 L31.8639271,25.6895094 C31.8126506,26.3550125 31.2224258,26.8001359 30.5525588,26.8001359 L1.37230718,26.8001359 C0.702440156,26.8001359 0.112215303,26.3157369 0.060938837,25.6480519 L6.07153217e-16,24.6112054 L0.0279246186,24.6112054 L0.0279246186,17.1222691 C0.00941622561,16.8683084 3.16795747e-17,16.6118243 0,16.3531409 C-3.16795747e-17,16.0944576 0.00941622561,15.8379735 0.0279246186,15.5840127 L0.0279246186,7.22622997 C0.0763541228,7.21935955 0.125886656,7.21579885 0.176354261,7.21579885 L0.0279246186,7.21579885 L0.0279246186,3.91171477 L0.013796954,3.91171477 L0.013796954,1.46519774 C0.013796954,0.612044625 0.851676227,0 1.69828341,0 L11.4680867,0 C12.1139519,0 12.876553,0.489853898 13.167847,1.0658959 L13.5900596,1.92123099 C13.9042643,2.54309451 14.7279607,3.09295279 15.4240115,3.09295279 L30.3585549,3.09295279 C31.3480816,3.09295279 31.9677631,3.78027563 31.9677631,4.5319668 L31.9677631,7.21579885 L31.9735952,7.21579885 L31.9735952,15.6051615 Z M21.9951109,5.93045593 L30.004295,5.93045593 C30.004295,5.26058891 29.3235181,5.16129032 28.6536511,5.16129032 L3.52054584,5.16129032 C2.85067882,5.16129032 2.17317487,5.26058891 2.17317487,5.93045593 L10.0048891,5.93045593 C10.1462993,5.92477117 10.2884342,5.92190153 10.4312394,5.92190153 L10.4312394,5.92190153 L21.5687606,5.92190153 L21.5687606,5.92190153 C21.7115658,5.92190153 21.8537007,5.92477117 21.9951109,5.93045593 Z" id="Combined-Shape"></path>
            </g>
        </g>
        <g id="folders-/-ei-folder-finance-v3">
            <g id="folders-/-ei-folder-legal" transform="translate(3.000000, 5.000000)" fill-rule="nonzero" fill="#367FC6">
                <path d="M31.9735952,15.6051615 C31.9910991,15.8522105 32,16.1016363 32,16.3531409 C32,16.6046456 31.9910991,16.8540713 31.9735952,17.1011203 L31.9735952,24.6112054 L31.9950316,24.6112054 L31.8639271,25.6895094 C31.8126506,26.3550125 31.2224258,26.8001359 30.5525588,26.8001359 L1.37230718,26.8001359 C0.702440156,26.8001359 0.112215303,26.3157369 0.060938837,25.6480519 L6.07153217e-16,24.6112054 L0.0279246186,24.6112054 L0.0279246186,17.1222691 C0.00941622561,16.8683084 3.16795747e-17,16.6118243 0,16.3531409 C-3.16795747e-17,16.0944576 0.00941622561,15.8379735 0.0279246186,15.5840127 L0.0279246186,7.22622997 C0.0763541228,7.21935955 0.125886656,7.21579885 0.176354261,7.21579885 L0.0279246186,7.21579885 L0.0279246186,3.91171477 L0.013796954,3.91171477 L0.013796954,1.46519774 C0.013796954,0.612044625 0.851676227,0 1.69828341,0 L11.4680867,0 C12.1139519,0 12.876553,0.489853898 13.167847,1.0658959 L13.5900596,1.92123099 C13.9042643,2.54309451 14.7279607,3.09295279 15.4240115,3.09295279 L30.3585549,3.09295279 C31.3480816,3.09295279 31.9677631,3.78027563 31.9677631,4.5319668 L31.9677631,7.21579885 L31.9735952,7.21579885 L31.9735952,15.6051615 Z M21.9951109,5.93045593 L30.004295,5.93045593 C30.004295,5.26058891 29.3235181,5.16129032 28.6536511,5.16129032 L3.52054584,5.16129032 C2.85067882,5.16129032 2.17317487,5.26058891 2.17317487,5.93045593 L10.0048891,5.93045593 C10.1462993,5.92477117 10.2884342,5.92190153 10.4312394,5.92190153 L10.4312394,5.92190153 L21.5687606,5.92190153 L21.5687606,5.92190153 C21.7115658,5.92190153 21.8537007,5.92477117 21.9951109,5.93045593 Z" id="Combined-Shape"></path>
            </g>
            <mask id="mask-2" fill="white">
                <use xlink:href="#path-1"></use>
            </mask>
            <use id="Mask" fill="#FFFFFF" xlink:href="#path-1"></use>
        </g>
    </g>
</svg>