<?xml version="1.0" encoding="UTF-8"?>
<svg width="38px" height="38px" viewBox="0 0 38 38" version="1.1" xmlns="http://www.w3.org/2000/svg" xmlns:xlink="http://www.w3.org/1999/xlink">
    <!-- Generator: Sketch 47.1 (45422) - http://www.bohemiancoding.com/sketch -->
    <title>folders / ei-folder-medical-v3</title>
    <desc>Created with Sketch.</desc>
    <defs></defs>
    <g id="drag-to-move-1A-hover" stroke="none" stroke-width="1" fill="none" fill-rule="evenodd">
        <g id="folders-/-ei-folder-medical-v3">
            <g id="folders-/-ei-folder-legal" transform="translate(3.000000, 5.000000)">
                <path d="M31.9735952,15.6051615 C31.9910991,15.8522105 32,16.1016363 32,16.3531409 C32,16.6046456 31.9910991,16.8540713 31.9735952,17.1011203 L31.9735952,24.6112054 L31.9950316,24.6112054 L31.8639271,25.6895094 C31.8126506,26.3550125 31.2224258,26.8001359 30.5525588,26.8001359 L1.37230718,26.8001359 C0.702440156,26.8001359 0.112215303,26.3157369 0.060938837,25.6480519 L6.07153217e-16,24.6112054 L0.0279246186,24.6112054 L0.0279246186,17.1222691 C0.00941622561,16.8683084 3.16795747e-17,16.6118243 0,16.3531409 C-3.16795747e-17,16.0944576 0.00941622561,15.8379735 0.0279246186,15.5840127 L0.0279246186,7.22622997 C0.0763541228,7.21935955 0.125886656,7.21579885 0.176354261,7.21579885 L0.0279246186,7.21579885 L0.0279246186,3.91171477 L0.013796954,3.91171477 L0.013796954,1.46519774 C0.013796954,0.612044625 0.851676227,0 1.69828341,0 L11.4680867,0 C12.1139519,0 12.876553,0.489853898 13.167847,1.0658959 L13.5900596,1.92123099 C13.9042643,2.54309451 14.7279607,3.09295279 15.4240115,3.09295279 L30.3585549,3.09295279 C31.3480816,3.09295279 31.9677631,3.78027563 31.9677631,4.5319668 L31.9677631,7.21579885 L31.9735952,7.21579885 L31.9735952,15.6051615 Z M21.9951109,5.93045593 L30.004295,5.93045593 C30.004295,5.26058891 29.3235181,5.16129032 28.6536511,5.16129032 L3.52054584,5.16129032 C2.85067882,5.16129032 2.17317487,5.26058891 2.17317487,5.93045593 L10.0048891,5.93045593 C10.1462993,5.92477117 10.2884342,5.92190153 10.4312394,5.92190153 L10.4312394,5.92190153 L21.5687606,5.92190153 L21.5687606,5.92190153 C21.7115658,5.92190153 21.8537007,5.92477117 21.9951109,5.93045593 Z" id="Combined-Shape" fill="#367FC6" fill-rule="nonzero"></path>
                <g id="Group" transform="translate(8.200000, 9.700000)">
                    <path d="M2.25129777,13.4060279 L1.97233138,13.4060279 C1.43704531,13.4060279 0.976905162,13.2145601 0.593969741,12.8305953 C0.21103432,12.4466305 0.0185372132,11.9864904 0.0185372132,11.4522337 L0.0185372132,4.19396043 C0.0185372132,3.65867436 0.210004924,3.19853421 0.593969741,2.81559879 C0.977934558,2.43266337 1.43704531,2.24016627 1.97233138,2.24016627 L2.25129777,2.24016627 L2.25129777,13.4070573 L2.25129777,13.4060279 Z" id="Path" fill="#FFFFFF"></path>
                    <path d="M12.5812896,13.4060279 L3.08819696,13.4060279 L3.08819696,2.23913687 L4.48405833,2.23913687 L4.48405833,0.843275496 C4.48405833,0.610631934 4.56538064,0.412987845 4.72802525,0.250343231 C4.89066987,0.0876986168 5.08831396,0.00534691332 5.32198692,0.00534691332 L10.3464702,0.00534691332 C10.5791138,0.00534691332 10.7777873,0.0876986168 10.9404319,0.250343231 C11.1030765,0.412987845 11.1843988,0.610631934 11.1843988,0.843275496 L11.1843988,2.23913687 L12.5802602,2.23913687 L12.5802602,13.4060279 L12.5812896,13.4060279 Z" id="Path" fill="#FFFFFF"></path>
                    <polygon id="Path" fill="#428BCA" points="5.60198271 1.12224189 10.0695626 1.12224189 10.0695626 2.23913687 5.60198271 2.23913687"></polygon>
                    <path d="M10.9064618,6.70568739 L8.95266764,6.70568739 L8.95266764,4.75189322 C8.95266764,4.67057091 8.92693273,4.60366016 8.87443352,4.55116094 C8.82193431,4.49866173 8.75399416,4.47292683 8.67370125,4.47292683 L6.99784408,4.47292683 C6.91652177,4.47292683 6.84961101,4.49866173 6.7971118,4.55116094 C6.74461259,4.60366016 6.71887769,4.67057091 6.71887769,4.75189322 L6.71887769,6.70568739 L4.76508352,6.70568739 C4.68376121,6.70568739 4.61685045,6.73142229 4.56435124,6.7839215 C4.51185203,6.83642072 4.48611713,6.90436087 4.48611713,6.98568318 L4.48611713,8.65948155 C4.48611713,8.74183325 4.51185203,8.80771462 4.56435124,8.86124322 C4.61685045,8.91477183 4.68376121,8.93947734 4.76508352,8.93947734 L6.71887769,8.93947734 L6.71887769,10.8932715 C6.71887769,10.9745938 6.74461259,11.0415046 6.7971118,11.0940038 C6.84961101,11.146503 6.91652177,11.1722379 6.99784408,11.1722379 L8.67370125,11.1722379 C8.75399416,11.1722379 8.82193431,11.146503 8.87443352,11.0940038 C8.92693273,11.0415046 8.95266764,10.9745938 8.95266764,10.8932715 L8.95266764,8.93947734 L10.9064618,8.93947734 C10.9877841,8.93947734 11.0546949,8.91374243 11.1071941,8.86124322 C11.1596933,8.80874401 11.1854282,8.74183325 11.1854282,8.65948155 L11.1854282,6.98568318 C11.1854282,6.90436087 11.1596933,6.83642072 11.1071941,6.7839215 C11.0546949,6.73142229 10.9877841,6.70568739 10.9064618,6.70568739 Z" id="Path" fill="#428BCA"></path>
                    <path d="M15.6509493,11.4522337 C15.6509493,11.9875198 15.4594816,12.4476599 15.0755168,12.8305953 C14.691552,13.2135308 14.2324412,13.4060279 13.6971552,13.4060279 L13.4181888,13.4060279 L13.4181888,2.23913687 L13.6971552,2.23913687 C14.2324412,2.23913687 14.6925814,2.43060458 15.0755168,2.8145694 C15.4584522,3.19853421 15.6509493,3.65867436 15.6509493,4.19293103 L15.6509493,11.4512043 L15.6509493,11.4522337 Z" id="Path" fill="#FFFFFF"></path>
                </g>
            </g>
        </g>
    </g>
</svg>