<?xml version="1.0" encoding="UTF-8"?>
<svg width="24px" height="24px" viewBox="0 0 24 24" version="1.1" xmlns="http://www.w3.org/2000/svg" xmlns:xlink="http://www.w3.org/1999/xlink">
    <!-- Generator: Sketch 47.1 (45422) - http://www.bohemiancoding.com/sketch -->
    <title>folders / ei-folder-black-diamond open</title>
    <desc>Created with Sketch.</desc>
    <defs>
        <path d="M11.2407142,10.1257143 L6.76571429,14.6007142 L11.2407142,19.0757141 L15.7157141,14.6007142 L11.2407142,10.1257143 Z M10.1742353,15.7837601 L9.64617399,15.7837601 L9.64617399,13.6234154 L10.1742353,13.6234154 C10.6671423,13.6234154 10.8780676,13.8677313 10.8780676,14.1808998 C10.8780676,14.3904192 10.772605,14.5644017 10.5609317,14.6339947 C10.8077592,14.7035878 10.9835303,14.8775703 10.9835303,15.1566827 C10.9835303,15.6097776 10.6663943,15.7837601 10.1734873,15.7837601 L10.1742353,15.7837601 Z M10.1742353,14.7731808 L9.92815572,14.7731808 L9.92815572,15.5394442 L10.1742353,15.5394442 C10.4906232,15.5394442 10.6671423,15.4002582 10.6671423,15.1559423 C10.6671423,14.9116264 10.4906232,14.7724404 10.1742353,14.7724404 L10.1742353,14.7731808 Z M10.1742353,13.8677313 L9.92815572,13.8677313 L9.92815572,14.5296052 L10.139081,14.5296052 C10.4210628,14.5296052 10.5968339,14.3904192 10.5968339,14.1816402 C10.5968339,14.0076576 10.456217,13.8684716 10.1742353,13.8684716 L10.1742353,13.8677313 Z M12.0115256,15.7837601 L11.3950245,15.7837601 L11.3950245,13.6234154 L12.0115256,13.6234154 C12.7655929,13.6234154 13.1418988,14.0765103 13.1418988,14.7035878 C13.1761084,15.3654617 12.7648651,15.7830198 12.0115256,15.7830198 L12.0115256,15.7837601 Z M12.0457352,13.9025278 L11.703639,13.9025278 L11.703639,15.5401846 L12.0457352,15.5401846 C12.5596074,15.5401846 12.8674939,15.2618126 12.8674939,14.7391246 C12.8674939,14.1816402 12.5253977,13.9032681 12.0457352,13.9032681 L12.0457352,13.9025278 Z" id="path-1"></path>
    </defs>
    <g id="Page-1" stroke="none" stroke-width="1" fill="none" fill-rule="evenodd">
        <g id="folders-/-ei-folder-black-diamond-open">
            <g id="Group-4" transform="translate(0.000000, 3.000000)">
                <path d="M20.9491259,4.72144553 L21.486083,4.72144553 C21.9007896,4.72144553 22.213508,5.07833537 22.1817634,5.49200315 L21.3557274,16.1669299 C21.3239827,16.5792458 20.9585817,16.8550243 20.5438752,16.8550243 L2.20965838,16.8550243 C1.79495184,16.8550243 1.4295508,16.5549124 1.39780616,16.1412446 L0.57244558,5.52377175 C0.540025525,5.11010398 0.852743977,4.72144553 1.26745052,4.72144553 L1.16681326,4.72144553 L1.16681326,1.15863044 C1.16681326,0.630054949 1.68553415,0.250859489 2.20965838,0.250859489 L8.25802498,0.250859489 C8.65787233,0.250859489 9.12998939,0.554351042 9.31032594,0.911240886 L9.57171264,1.44116823 C9.76623297,1.82644704 10.2761734,2.16711462 10.70709,2.16711462 L19.9528846,2.16711462 C20.5654885,2.16711462 20.9491259,2.59294909 20.9491259,3.0586633 L20.9491259,4.72144553 Z M19.6725862,4.65412543 L19.6725862,4.18976308 C19.6725862,3.77474345 19.2511254,3.37662201 18.8364189,3.37662201 L3.27681854,3.37662201 C2.862112,3.37662201 2.44267753,3.77474345 2.44267753,4.18976308 L2.44267753,4.65412543 L19.6725862,4.65412543 Z" id="Combined-Shape" fill="#3895DF" fill-rule="nonzero"></path>
                <path d="M1.01682082,4.70539617 L21.5077977,4.70539617 L21.5077977,4.70539617 C22.0600825,4.70539617 22.5077977,5.15311142 22.5077977,5.70539617 C22.5077977,5.72786332 22.5070406,5.75032409 22.5055275,5.77274023 L21.7424266,17.0783923 C21.7135574,17.5061007 21.6611912,17.6586396 21.5704719,17.811592 C21.4797526,17.9645445 21.3530369,18.0829955 21.1943223,18.1632084 C21.0356077,18.2434213 20.8798886,18.2853961 20.451207,18.2853961 L2.10320845,18.2853961 C1.67517702,18.2853961 1.51968663,18.2435864 1.3611403,18.1636348 C1.20259398,18.0836832 1.07593305,17.9655896 0.985091268,17.8130217 C0.894249485,17.6604538 0.841670005,17.5082673 0.811741281,17.0812835 L0.0192683478,5.77531796 L0.0192683478,5.77531796 C-0.0193483899,5.22438494 0.395966016,4.74646043 0.946899035,4.70784369 C0.970170615,4.70621251 0.993492148,4.70539617 1.01682082,4.70539617 Z" id="Rectangle-3-Copy" fill="#66AFE9"></path>
            </g>
            <mask id="mask-2" fill="white">
                <use xlink:href="#path-1"></use>
            </mask>
            <use id="Shape" fill="#FFFFFF" fill-rule="nonzero" xlink:href="#path-1"></use>
        </g>
    </g>
</svg>