<?xml version="1.0" encoding="UTF-8"?>
<svg width="38px" height="38px" viewBox="0 0 38 38" version="1.1" xmlns="http://www.w3.org/2000/svg" xmlns:xlink="http://www.w3.org/1999/xlink">
    <!-- Generator: Sketch 47.1 (45422) - http://www.bohemiancoding.com/sketch -->
    <title>folders / ei-folder-box-v3-open</title>
    <desc>Created with Sketch.</desc>
    <defs>
        <path d="M19.5773136,19.7829211 C21.6269925,19.7832428 23.3747933,21.258646 23.706381,23.2684667 C24.0379687,25.2782873 22.8557463,27.2309698 20.9134562,27.8815539 C18.9711662,28.532138 16.8404877,27.6891357 15.8798648,25.8900149 C14.9849792,27.5654072 13.0624142,28.4266454 11.2063533,27.9835756 C9.35029247,27.5405058 8.03127937,25.9054538 8,24.0089719 L8,17.111007 C8.01096025,16.6599675 8.38208446,16.2999992 8.83614202,16.2999992 C9.29019958,16.2999992 9.66132379,16.6599675 9.67228405,17.111007 L9.67228405,20.6139895 C10.6511068,19.884899 11.9019051,19.6177057 13.0958007,19.882664 C14.2896963,20.1476223 15.3072237,20.9182196 15.8808396,21.991839 C16.6063758,20.6322871 18.0286006,19.782402 19.5773136,19.7829211 Z M30.2548789,26.7084914 L30.2539041,26.7084914 C30.5424474,27.0760794 30.4595887,27.5860532 30.0618668,27.8592016 C29.6616311,28.1308976 29.1207,28.0656277 28.7975402,27.7066453 L26.8410994,25.3238616 L24.8836839,27.7066453 C24.5790562,28.0626099 24.0170791,28.1323499 23.620332,27.8592016 C23.2235849,27.5860532 23.1407262,27.0760794 23.4302443,26.7084914 L25.7044727,23.9334202 L23.4312192,21.1559275 C23.141701,20.7897924 23.2245597,20.2803029 23.6213068,20.0061859 C24.0180539,19.732069 24.580031,19.8022933 24.8846587,20.1577736 L26.8420742,22.5434631 L28.800952,20.1606794 C29.1241635,19.8016061 29.665387,19.7367156 30.0652787,20.0090918 C30.4625131,20.2807872 30.5453719,20.792214 30.2573159,21.1588333 L27.9801632,23.936326 L30.2548789,26.7084914 Z M12.1838782,26.4334058 C13.5696937,26.4326039 14.6927666,25.3162373 14.6930354,23.9392319 C14.6924971,22.5623988 13.5688709,21.4466387 12.1832286,21.4469952 C10.7975863,21.4473518 9.67454191,22.5636901 9.67472128,23.9405232 C9.67490065,25.3173564 10.7982359,26.4334057 12.1838782,26.4334058 Z M19.5773136,26.4334058 L19.5763388,26.4338901 C20.9624561,26.4336227 22.0859834,25.3170213 22.0859834,23.9397162 C22.0857142,22.5627569 20.962108,21.4467278 19.5763388,21.4469953 C18.1905696,21.4472627 17.0673999,22.5637256 17.0676691,23.9406848 C17.0679383,25.3176441 18.1915444,26.4336733 19.5773136,26.4334058 Z" id="path-1"></path>
    </defs>
    <g id="drag-to-move-1A-hover" stroke="none" stroke-width="1" fill="none" fill-rule="evenodd">
        <g id="folders-/-ei-folder-box-v3-open">
            <path d="M35.1420108,12.3476925 L34.2911844,12.3476925 L34.2911844,9.61480414 C34.2911844,8.84937322 33.6832984,8.14948718 32.7126071,8.14948718 L18.0623396,8.14948718 C17.379538,8.14948718 16.5715205,7.58957835 16.2632966,6.95634812 L15.8491207,6.08537883 C15.5633715,5.49880767 14.8152863,5 14.181715,5 L4.59787789,5 C3.7673857,5 2.94545528,5.62323185 2.94545528,6.49197929 L2.94545528,12.3476925 L3.10491834,12.3476925 C2.4478021,12.3476925 1.95228936,12.9864774 2.00366001,13.6663667 L3.31147117,31.1168586 C3.3617716,31.7967479 3.94076164,32.2900009 4.59787789,32.2900009 L33.6490513,32.2900009 C34.3061675,32.2900009 34.8851576,31.8367414 34.935458,31.1590739 L36.2443394,13.6141529 C36.2946398,12.9342636 35.7991271,12.3476925 35.1420108,12.3476925 L35.1420108,12.3476925 L35.1420108,12.3476925 Z M32.2684651,12.3476925 L4.96710444,12.3476925 L4.96710444,11.5844834 C4.96710444,10.9023723 5.63171224,10.2480344 6.28882849,10.2480344 L30.9435303,10.2480344 C31.6006466,10.2480344 32.2684651,10.9023723 32.2684651,11.5844834 L32.2684651,12.3476925 Z" id="Combined-Shape" fill="#367FC6" fill-rule="nonzero"></path>
            <mask id="mask-2" fill="white">
                <use xlink:href="#path-1"></use>
            </mask>
            <use id="Shape" fill="#FFFFFF" fill-rule="nonzero" xlink:href="#path-1"></use>
        </g>
    </g>
</svg>