<?xml version="1.0" encoding="UTF-8"?>
<svg width="38px" height="38px" viewBox="0 0 38 38" version="1.1" xmlns="http://www.w3.org/2000/svg" xmlns:xlink="http://www.w3.org/1999/xlink">
    <!-- Generator: Sketch 47.1 (45422) - http://www.bohemiancoding.com/sketch -->
    <title>folders / ei-folder-emergency-v3-open</title>
    <desc>Created with Sketch.</desc>
    <defs>
        <path d="M14.2319092,20.7524614 L12.6390397,22.345331 C12.6005645,22.4107386 12.5765176,22.4703751 12.5659369,22.5242402 L12.5659369,22.769519 L15.7006965,22.769519 L15.7006965,20.6793587 L14.4108184,20.6793587 C14.3348301,20.6899394 14.2751937,20.7149482 14.2319092,20.7524614 L14.2319092,20.7524614 Z M14.6570591,25.9052404 C14.3684958,25.9052404 14.1222551,26.0071995 13.918337,26.2111176 C13.714419,26.4150356 13.6124599,26.6622382 13.6124599,26.9498397 C13.6124599,27.238403 13.7134571,27.4846437 13.918337,27.6885618 C14.123217,27.8924798 14.3684958,27.9954007 14.6570591,27.9954007 C14.9456224,27.9954007 15.1918631,27.8934417 15.3957812,27.6885618 C15.6006612,27.4846437 15.7016583,27.238403 15.7016583,26.9498397 C15.7016583,26.6612763 15.6006612,26.4150356 15.3957812,26.2111176 C15.1918631,26.0071995 14.9456224,25.9052404 14.6570591,25.9052404 Z M21.9721393,25.9052404 C21.6835759,25.9052404 21.4373352,26.0071995 21.2334172,26.2111176 C21.0294991,26.4150356 20.92754,26.6622382 20.92754,26.9498397 C20.92754,27.238403 21.0285372,27.4846437 21.2334172,27.6885618 C21.4382971,27.8924798 21.6835759,27.9954007 21.9721393,27.9954007 C22.2607026,27.9954007 22.5069433,27.8934417 22.7108614,27.6885618 C22.9157413,27.4846437 23.0167385,27.238403 23.0167385,26.9498397 C23.0167385,26.6612763 22.9157413,26.4150356 22.7108614,26.2111176 C22.5069433,26.0071995 22.2607026,25.9052404 21.9721393,25.9052404 Z M26.1534218,26.42754 C26.1534218,26.569898 26.1005185,26.6920564 25.9975976,26.7949773 C25.8946766,26.8978983 25.7725182,26.9498397 25.6301603,26.9498397 L24.0632614,26.9498397 C24.0632614,27.5269663 23.8583815,28.0194477 23.4505453,28.4282457 C23.0427092,28.8370438 22.5502278,29.04 21.9731011,29.04 C21.3959745,29.04 20.9034931,28.8360819 20.4946951,28.4282457 C20.085897,28.0204096 19.8829408,27.5279282 19.8829408,26.9498397 L16.7481813,26.9498397 C16.7481813,27.5269663 16.5433014,28.0194477 16.1354652,28.4282457 C15.727629,28.8370438 15.2351476,29.04 14.658021,29.04 C14.0808944,29.04 13.588413,28.8360819 13.1805768,28.4282457 C12.7727407,28.0204096 12.5678607,27.5279282 12.5678607,26.9498397 L11.5232615,26.9498397 C11.3809036,26.9498397 11.2587451,26.8978983 11.1558242,26.7949773 C11.0529033,26.6920564 11,26.569898 11,26.42754 C11,26.286144 11.0529033,26.1639856 11.1558242,26.0601028 C11.2587451,25.95622 11.3809036,25.9052404 11.5232615,25.9052404 L11.5232615,22.5088502 C11.5232615,22.3674542 11.558851,22.2087443 11.629068,22.0356063 C11.6992851,21.8624683 11.786816,21.7220342 11.8906988,21.6191133 L13.5066534,20.0021968 C13.6095743,19.8992759 13.7490466,19.811745 13.9231464,19.7415279 C14.0972463,19.6713109 14.2549942,19.6347595 14.3963903,19.6347595 L15.7026202,19.6347595 L15.7026202,17.0222996 C15.7026202,16.8809036 15.7545616,16.7587451 15.8584444,16.6548623 C15.9623272,16.5509795 16.0835238,16.5 16.2249198,16.5 L25.6311221,16.5 C25.7734801,16.5 25.8956385,16.5519414 25.9985594,16.6548623 C26.1014804,16.7577832 26.1543836,16.8809036 26.1543836,17.0222996 L26.1543836,26.4285019 L26.1534218,26.42754 Z M23.8006688,19.6337976 L21.9721393,19.6337976 L21.9721393,17.8052681 C21.9721393,17.7292797 21.9480923,17.6667577 21.8990366,17.6177019 C21.8499808,17.5686462 21.7864969,17.5445992 21.7105085,17.5445992 L20.1436097,17.5445992 C20.0666595,17.5445992 20.0041374,17.5686462 19.9550817,17.6177019 C19.9060259,17.6667577 19.881979,17.7292797 19.881979,17.8052681 L19.881979,19.6337976 L18.0534494,19.6337976 C17.9774611,19.6337976 17.914939,19.6578446 17.8649214,19.7078622 C17.8149037,19.7578799 17.7918186,19.81944 17.7918186,19.8954284 L17.7918186,21.4632891 C17.7918186,21.5392774 17.8158656,21.6017995 17.8649214,21.6508552 C17.9139771,21.699911 17.9774611,21.7239579 18.0534494,21.7239579 L19.881979,21.7239579 L19.881979,23.5524875 C19.881979,23.6294377 19.9060259,23.6919598 19.9550817,23.7410155 C20.0041374,23.7900713 20.0666595,23.8141183 20.1436097,23.8141183 L21.7105085,23.8141183 C21.7864969,23.8141183 21.8499808,23.7900713 21.8990366,23.7410155 C21.9480923,23.6919598 21.9721393,23.6294377 21.9721393,23.5524875 L21.9721393,21.7239579 L23.8006688,21.7239579 C23.8766572,21.7239579 23.9391792,21.699911 23.9891969,21.6508552 C24.0392145,21.6017995 24.0622996,21.5392774 24.0622996,21.4632891 L24.0622996,19.8954284 C24.0622996,19.81944 24.0382526,19.756918 23.9891969,19.7078622 C23.9401411,19.6588065 23.8766572,19.6337976 23.8006688,19.6337976 Z" id="path-1"></path>
    </defs>
    <g id="drag-to-move-1A-hover" stroke="none" stroke-width="1" fill="none" fill-rule="evenodd">
        <g id="folders-/-ei-folder-emergency-v3-open">
            <path d="M35.1420108,12.3476925 L34.2911844,12.3476925 L34.2911844,9.61480414 C34.2911844,8.84937322 33.6832984,8.14948718 32.7126071,8.14948718 L18.0623396,8.14948718 C17.379538,8.14948718 16.5715205,7.58957835 16.2632966,6.95634812 L15.8491207,6.08537883 C15.5633715,5.49880767 14.8152863,5 14.181715,5 L4.59787789,5 C3.7673857,5 2.94545528,5.62323185 2.94545528,6.49197929 L2.94545528,12.3476925 L3.10491834,12.3476925 C2.4478021,12.3476925 1.95228936,12.9864774 2.00366001,13.6663667 L3.31147117,31.1168586 C3.3617716,31.7967479 3.94076164,32.2900009 4.59787789,32.2900009 L33.6490513,32.2900009 C34.3061675,32.2900009 34.8851576,31.8367414 34.935458,31.1590739 L36.2443394,13.6141529 C36.2946398,12.9342636 35.7991271,12.3476925 35.1420108,12.3476925 L35.1420108,12.3476925 L35.1420108,12.3476925 Z M32.2684651,12.3476925 L4.96710444,12.3476925 L4.96710444,11.5844834 C4.96710444,10.9023723 5.63171224,10.2480344 6.28882849,10.2480344 L30.9435303,10.2480344 C31.6006466,10.2480344 32.2684651,10.9023723 32.2684651,11.5844834 L32.2684651,12.3476925 Z" id="Combined-Shape" fill="#367FC6" fill-rule="nonzero"></path>
            <mask id="mask-2" fill="white">
                <use xlink:href="#path-1"></use>
            </mask>
            <use id="Shape" fill="#FFFFFF" fill-rule="nonzero" xlink:href="#path-1"></use>
        </g>
    </g>
</svg>