<?xml version="1.0" encoding="UTF-8"?>
<svg width="38px" height="38px" viewBox="0 0 38 38" version="1.1" xmlns="http://www.w3.org/2000/svg" xmlns:xlink="http://www.w3.org/1999/xlink">
    <!-- Generator: Sketch 47.1 (45422) - http://www.bohemiancoding.com/sketch -->
    <title>folders / ei-folder-black-diamond-v3-open</title>
    <desc>Created with Sketch.</desc>
    <defs></defs>
    <g id="drag-to-move-1A-hover" stroke="none" stroke-width="1" fill="none" fill-rule="evenodd">
        <g id="folders-/-ei-folder-black-diamond-v3-open">
            <path d="M35.1420108,12.3476925 L34.2911844,12.3476925 L34.2911844,9.61480414 C34.2911844,8.84937322 33.6832984,8.14948718 32.7126071,8.14948718 L18.0623396,8.14948718 C17.379538,8.14948718 16.5715205,7.58957835 16.2632966,6.95634812 L15.8491207,6.08537883 C15.5633715,5.49880767 14.8152863,5 14.181715,5 L4.59787789,5 C3.7673857,5 2.94545528,5.62323185 2.94545528,6.49197929 L2.94545528,12.3476925 L3.10491834,12.3476925 C2.4478021,12.3476925 1.95228936,12.9864774 2.00366001,13.6663667 L3.31147117,31.1168586 C3.3617716,31.7967479 3.94076164,32.2900009 4.59787789,32.2900009 L33.6490513,32.2900009 C34.3061675,32.2900009 34.8851576,31.8367414 34.935458,31.1590739 L36.2443394,13.6141529 C36.2946398,12.9342636 35.7991271,12.3476925 35.1420108,12.3476925 L35.1420108,12.3476925 L35.1420108,12.3476925 Z M32.2684651,12.3476925 L4.96710444,12.3476925 L4.96710444,11.5844834 C4.96710444,10.9023723 5.63171224,10.2480344 6.28882849,10.2480344 L30.9435303,10.2480344 C31.6006466,10.2480344 32.2684651,10.9023723 32.2684651,11.5844834 L32.2684651,12.3476925 Z" id="Combined-Shape" fill="#367FC6" fill-rule="nonzero"></path>
            <g id="Group-10" transform="translate(12.000000, 15.500000)">
                <g id="Group-6">
                    <polygon id="Path" stroke="#FFFFFF" fill="#FFFFFF" points="6.96 0 0 6.96 6.96 13.92 13.92 6.96"></polygon>
                    <path d="M5.30129754,8.8 L4.48,8.8 L4.48,5.44 L5.30129754,5.44 C6.06791946,5.44 6.39597315,5.81998629 6.39597315,6.30705963 C6.39597315,6.63292666 6.23194631,6.90352296 5.90272931,7.01176148 C6.28662192,7.12 6.56,7.3905963 6.56,7.82470185 C6.56,8.5294037 6.06675615,8.8 5.30013423,8.8 L5.30129754,8.8 Z" id="Path" fill="#58A5E8"></path>
                    <path d="M5.30129754,7.22823852 L4.91856823,7.22823852 L4.91856823,8.42001371 L5.30129754,8.42001371 C5.79337808,8.42001371 6.06791946,8.20353667 6.06791946,7.82355038 C6.06791946,7.44356408 5.79337808,7.22708705 5.30129754,7.22708705 L5.30129754,7.22823852 Z" id="Path" fill="#FFFFFF"></path>
                    <path d="M5.30129754,5.81998629 L4.91856823,5.81998629 L4.91856823,6.8494037 L5.24662192,6.8494037 C5.68519016,6.8494037 5.95856823,6.63292666 5.95856823,6.3082111 C5.95856823,6.0376148 5.73986577,5.82113777 5.30129754,5.82113777 L5.30129754,5.81998629 Z" id="Path" fill="#FFFFFF"></path>
                    <path d="M8.15884856,8.8 L7.2,8.8 L7.2,5.44 L8.15884856,5.44 C9.33165505,5.44 9.91692625,6.14470185 9.91692625,7.12 C9.97013272,8.14941741 9.330523,8.79884853 8.15884856,8.79884853 L8.15884856,8.8 Z" id="Path" fill="#58A5E8"></path>
                    <path d="M8.21205503,5.87410555 L7.6799903,5.87410555 L7.6799903,8.42116518 L8.21205503,8.42116518 C9.01128417,8.42116518 9.49014242,7.9882111 9.49014242,7.17527073 C9.49014242,6.3082111 8.95807769,5.87525703 8.21205503,5.87525703 L8.21205503,5.87410555 Z" id="Path" fill="#FFFFFF"></path>
                </g>
            </g>
        </g>
    </g>
</svg>