<?xml version="1.0" encoding="UTF-8"?>
<svg width="38px" height="38px" viewBox="0 0 38 38" version="1.1" xmlns="http://www.w3.org/2000/svg" xmlns:xlink="http://www.w3.org/1999/xlink">
    <!-- Generator: Sketch 47.1 (45422) - http://www.bohemiancoding.com/sketch -->
    <title>folders / ei-folder-family-V3</title>
    <desc>Created with Sketch.</desc>
    <defs>
        <path d="M13.3767932,21.9191759 C13.1247255,21.7368848 13,21.4708618 13,21.1211069 C13,19.5371798 13.2773617,18.7460884 13.8338295,18.7460884 C13.8608679,18.7460884 13.958555,18.7931876 14.1268909,18.8865137 C14.2952268,18.980712 14.5141506,19.0766547 14.7827903,19.1734696 C15.0523021,19.2694123 15.3191973,19.3173837 15.5834759,19.3173837 C15.8843872,19.3173837 16.1826818,19.2659235 16.4792321,19.1630031 C16.4565547,19.3287224 16.445216,19.4769975 16.445216,19.6069563 C16.445216,20.230584 16.626635,20.8053681 16.9903451,21.3304365 C16.263797,21.3522417 15.6689521,21.6400698 15.2066827,22.1913044 L14.304821,22.1913044 C13.9376221,22.1913044 13.6279887,22.1005949 13.3767932,21.9191759 L13.3767932,21.9191759 Z M22.0447823,19.6069563 C22.0447823,20.3204213 21.7927146,20.9292215 21.2877069,21.4342291 C20.7826993,21.9392367 20.1738991,22.1913044 19.4604342,22.1913044 C18.7469692,22.1913044 18.138169,21.9392367 17.6331614,21.4342291 C17.1281538,20.9292215 16.8760861,20.3204213 16.8760861,19.6069563 C16.8760861,18.8934913 17.1281538,18.2846911 17.6331614,17.7796835 C18.138169,17.2755481 18.7469692,17.0226082 19.4604342,17.0226082 C20.1738991,17.0226082 20.7826993,17.2755481 21.2877069,17.7796835 C21.7927146,18.2846911 22.0447823,18.8934913 22.0447823,19.6069563 L22.0447823,19.6069563 Z M21.6139122,17.0226082 C21.6139122,16.5472556 21.7822481,16.1408073 22.1189198,15.8050078 C22.4555916,15.4683361 22.8611676,15.3000002 23.3365202,15.3000002 C23.812745,15.3000002 24.2183211,15.4683361 24.5549928,15.8050078 C24.8916645,16.1408073 25.0600004,16.5472556 25.0600004,17.0226082 C25.0600004,17.498833 24.8916645,17.904409 24.5549928,18.2410808 C24.2183211,18.5777525 23.812745,18.7460884 23.3365202,18.7460884 C22.8611676,18.7460884 22.4555916,18.5777525 22.1189198,18.2410808 C21.7822481,17.904409 21.6139122,17.498833 21.6139122,17.0226082 L21.6139122,17.0226082 Z M16.8019485,18.2410808 C16.4652768,18.5777525 16.0597007,18.7460884 15.5834759,18.7460884 C15.1081233,18.7460884 14.7025472,18.5777525 14.3658755,18.2410808 C14.0292038,17.904409 13.8608679,17.498833 13.8608679,17.0226082 C13.8608679,16.5472556 14.0292038,16.1408073 14.3658755,15.8050078 C14.7025472,15.4683361 15.1081233,15.3000002 15.5834759,15.3000002 C16.0597007,15.3000002 16.4652768,15.4683361 16.8019485,15.8050078 C17.1386202,16.1408073 17.3069561,16.5472556 17.3069561,17.0226082 C17.3069561,17.498833 17.1386202,17.904409 16.8019485,18.2410808 L16.8019485,18.2410808 Z M23.707208,26.8924979 C23.3792583,27.2038756 22.9440272,27.3600006 22.4015148,27.3600006 L16.5193536,27.3600006 C15.9768411,27.3600006 15.54161,27.2038756 15.2136603,26.8924979 C14.8865828,26.5802479 14.722608,26.1554833 14.722608,25.6173319 C14.722608,25.3792195 14.7304579,25.1472125 14.7461576,24.9204388 C14.7618573,24.6936651 14.7932567,24.4494472 14.8403559,24.1869131 C14.887455,23.9243789 14.9467651,23.6810332 15.018286,23.4568762 C15.0906792,23.2327191 15.1866219,23.0137952 15.3078586,22.8001046 C15.4290953,22.5872862 15.5677762,22.4058672 15.7247734,22.2549755 C15.8826428,22.1049559 16.073656,21.9854636 16.3004297,21.8956264 C16.5272034,21.8057891 16.7775267,21.7604343 17.0513996,21.7604343 C17.0958821,21.7604343 17.192697,21.8092779 17.3401,21.9052206 C17.4883751,22.0020356 17.6523499,22.109317 17.8320245,22.2288093 C18.0108268,22.3474294 18.2515558,22.4547108 18.5515949,22.5515257 C18.8525062,22.6483407 19.1551619,22.696312 19.4604342,22.696312 C19.7657065,22.696312 20.0683621,22.6483407 20.3692734,22.5515257 C20.6693125,22.4547108 20.9091693,22.3474294 21.0888438,22.2288093 C21.2685184,22.109317 21.4324932,22.0020356 21.5798962,21.9052206 C21.7281713,21.8092779 21.8249862,21.7604343 21.8694687,21.7604343 C22.1433416,21.7604343 22.3936649,21.8057891 22.6204386,21.8956264 C22.8463401,21.9854636 23.0382256,22.1049559 23.1952227,22.2549755 C23.3522199,22.4058672 23.491773,22.5872862 23.6130097,22.8001046 C23.7342464,23.0137952 23.8301891,23.2327191 23.9025823,23.4568762 C23.9741032,23.6810332 24.0334133,23.9243789 24.0805124,24.1869131 C24.1276116,24.4494472 24.159011,24.6936651 24.1747107,24.9204388 C24.1904105,25.1472125 24.1982603,25.3792195 24.1982603,25.6173319 C24.1982603,26.1554833 24.0342855,26.5802479 23.707208,26.8924979 L23.707208,26.8924979 Z M25.5440751,21.9191759 C25.2928796,22.1005949 24.9832462,22.1913044 24.6160473,22.1913044 L23.7141857,22.1913044 C23.2519162,21.6400698 22.6570713,21.3522417 21.9305232,21.3304365 C22.2942333,20.8053681 22.4756523,20.230584 22.4756523,19.6069563 C22.4756523,19.4769975 22.4643136,19.3287224 22.4416363,19.1630031 C22.7381865,19.2659235 23.0364811,19.3173837 23.3365202,19.3173837 C23.601671,19.3173837 23.8685662,19.2694123 24.1380781,19.1734696 C24.4067177,19.0766547 24.6256415,18.980712 24.7939774,18.8865137 C24.9623133,18.7931876 25.0600004,18.7460884 25.0870388,18.7460884 C25.6426344,18.7460884 25.9208683,19.5371798 25.9208683,21.1211069 C25.9208683,21.4708618 25.7952706,21.7368848 25.5440751,21.9191759 L25.5440751,21.9191759 Z" id="path-1"></path>
    </defs>
    <g id="drag-to-move-1A-hover" stroke="none" stroke-width="1" fill="none" fill-rule="evenodd">
        <g id="folders-/-ei-folder-family-V3">
            <g id="folders-/-ei-folder-legal" transform="translate(3.000000, 5.000000)" fill-rule="nonzero" fill="#367FC6">
                <path d="M31.9735952,15.6051615 C31.9910991,15.8522105 32,16.1016363 32,16.3531409 C32,16.6046456 31.9910991,16.8540713 31.9735952,17.1011203 L31.9735952,24.6112054 L31.9950316,24.6112054 L31.8639271,25.6895094 C31.8126506,26.3550125 31.2224258,26.8001359 30.5525588,26.8001359 L1.37230718,26.8001359 C0.702440156,26.8001359 0.112215303,26.3157369 0.060938837,25.6480519 L6.07153217e-16,24.6112054 L0.0279246186,24.6112054 L0.0279246186,17.1222691 C0.00941622561,16.8683084 3.16795747e-17,16.6118243 0,16.3531409 C-3.16795747e-17,16.0944576 0.00941622561,15.8379735 0.0279246186,15.5840127 L0.0279246186,7.22622997 C0.0763541228,7.21935955 0.125886656,7.21579885 0.176354261,7.21579885 L0.0279246186,7.21579885 L0.0279246186,3.91171477 L0.013796954,3.91171477 L0.013796954,1.46519774 C0.013796954,0.612044625 0.851676227,0 1.69828341,0 L11.4680867,0 C12.1139519,0 12.876553,0.489853898 13.167847,1.0658959 L13.5900596,1.92123099 C13.9042643,2.54309451 14.7279607,3.09295279 15.4240115,3.09295279 L30.3585549,3.09295279 C31.3480816,3.09295279 31.9677631,3.78027563 31.9677631,4.5319668 L31.9677631,7.21579885 L31.9735952,7.21579885 L31.9735952,15.6051615 Z M21.9951109,5.93045593 L30.004295,5.93045593 C30.004295,5.26058891 29.3235181,5.16129032 28.6536511,5.16129032 L3.52054584,5.16129032 C2.85067882,5.16129032 2.17317487,5.26058891 2.17317487,5.93045593 L10.0048891,5.93045593 C10.1462993,5.92477117 10.2884342,5.92190153 10.4312394,5.92190153 L10.4312394,5.92190153 L21.5687606,5.92190153 L21.5687606,5.92190153 C21.7115658,5.92190153 21.8537007,5.92477117 21.9951109,5.93045593 Z" id="Combined-Shape"></path>
            </g>
            <mask id="mask-2" fill="white">
                <use xlink:href="#path-1"></use>
            </mask>
            <use id="Imported-Layers" fill="#FFFFFF" xlink:href="#path-1"></use>
        </g>
    </g>
</svg>