<?xml version="1.0" encoding="UTF-8"?>
<svg width="38px" height="38px" viewBox="0 0 38 38" version="1.1" xmlns="http://www.w3.org/2000/svg" xmlns:xlink="http://www.w3.org/1999/xlink">
    <!-- Generator: Sketch 47.1 (45422) - http://www.bohemiancoding.com/sketch -->
    <title>folders / ei-folder-document-v3</title>
    <desc>Created with Sketch.</desc>
    <defs>
        <path d="M24.7749718,26.8973447 C24.7749718,27.0837662 24.7086673,27.2432816 24.578941,27.3739688 C24.4492146,27.5046561 24.2887384,27.5699997 24.1013559,27.5699997 L14.6736159,27.5699997 C14.4862335,27.5699997 14.3276791,27.5046561 14.1960309,27.3739688 C14.0643827,27.2432816 14,27.0837662 14,26.8973447 L14,15.6736159 C14,15.4862335 14.0653436,15.3276791 14.1960309,15.1960309 C14.3267181,15.0643827 14.4862335,15 14.6736159,15 L20.2854803,15 L20.2854803,18.8158756 C20.2854803,19.0032581 20.3508239,19.1618125 20.4815112,19.2934606 C20.6121984,19.4251088 20.7717138,19.4894915 20.9581353,19.4894915 L24.7749718,19.4894915 L24.7749718,26.8973447 Z M21.1829942,18.5919776 L21.1829942,15.2805932 C21.2848534,15.3468978 21.3694158,15.4112805 21.4357203,15.4766241 L24.2973868,18.3392515 C24.3636914,18.4045951 24.4280741,18.4881965 24.4934177,18.5919776 L21.1829942,18.5919776 L21.1829942,18.5919776 Z M21.8556492,22.1829942 L16.9174007,22.1829942 C16.8510962,22.1829942 16.7982447,22.2050958 16.7559635,22.246416 C16.7136824,22.2877362 16.6935027,22.3425096 16.6935027,22.4078532 L16.6935027,22.8566102 C16.6935027,22.9229147 16.7146433,22.9757662 16.7559635,23.0180474 C16.7972838,23.0603285 16.8520571,23.0814691 16.9174007,23.0814691 L21.8556492,23.0814691 C21.9219538,23.0814691 21.9748052,23.0603285 22.0170864,23.0180474 C22.0593676,22.9757662 22.0795472,22.9229147 22.0795472,22.8566102 L22.0795472,22.4078532 C22.0795472,22.3415486 22.0584067,22.2886972 22.0170864,22.246416 C21.9757662,22.2041348 21.9209929,22.1829942 21.8556492,22.1829942 Z M16.7559635,20.4513881 C16.7146433,20.4927084 16.6935027,20.5474817 16.6935027,20.6128253 L16.6935027,21.0615823 C16.6935027,21.1278869 16.7146433,21.1807383 16.7559635,21.2230195 C16.7972838,21.2653007 16.8520571,21.2864413 16.9174007,21.2864413 L21.8556492,21.2864413 C21.9219538,21.2864413 21.9748052,21.2643397 22.0170864,21.2230195 C22.0593676,21.1816993 22.0795472,21.1269259 22.0795472,21.0615823 L22.0795472,20.6128253 C22.0795472,20.5474817 22.0584067,20.4936693 22.0170864,20.4513881 C21.9757662,20.409107 21.9209929,20.3879664 21.8556492,20.3879664 L16.9174007,20.3879664 C16.8510962,20.3879664 16.7982447,20.409107 16.7559635,20.4513881 Z M21.8556492,23.978983 L16.9174007,23.978983 C16.8510962,23.978983 16.7982447,24.0001236 16.7559635,24.0424048 C16.7136824,24.084686 16.6935027,24.1384984 16.6935027,24.203842 L16.6935027,24.6535599 C16.6935027,24.7189035 16.7146433,24.771755 16.7559635,24.8149971 C16.7972838,24.8582392 16.8520571,24.8784188 16.9174007,24.8784188 L21.8556492,24.8784188 C21.9219538,24.8784188 21.9748052,24.8572783 22.0170864,24.8149971 C22.0593676,24.7727159 22.0795472,24.7189035 22.0795472,24.6535599 L22.0795472,24.203842 C22.0795472,24.1384984 22.0584067,24.084686 22.0170864,24.0424048 C21.9757662,24.0001236 21.9209929,23.978983 21.8556492,23.978983 Z" id="path-1"></path>
    </defs>
    <g id="drag-to-move-1A-hover" stroke="none" stroke-width="1" fill="none" fill-rule="evenodd">
        <g id="folders-/-ei-folder-document-v3">
            <g id="folders-/-ei-folder-legal" transform="translate(3.000000, 5.000000)" fill-rule="nonzero" fill="#367FC6">
                <path d="M31.9735952,15.6051615 C31.9910991,15.8522105 32,16.1016363 32,16.3531409 C32,16.6046456 31.9910991,16.8540713 31.9735952,17.1011203 L31.9735952,24.6112054 L31.9950316,24.6112054 L31.8639271,25.6895094 C31.8126506,26.3550125 31.2224258,26.8001359 30.5525588,26.8001359 L1.37230718,26.8001359 C0.702440156,26.8001359 0.112215303,26.3157369 0.060938837,25.6480519 L6.07153217e-16,24.6112054 L0.0279246186,24.6112054 L0.0279246186,17.1222691 C0.00941622561,16.8683084 3.16795747e-17,16.6118243 0,16.3531409 C-3.16795747e-17,16.0944576 0.00941622561,15.8379735 0.0279246186,15.5840127 L0.0279246186,7.22622997 C0.0763541228,7.21935955 0.125886656,7.21579885 0.176354261,7.21579885 L0.0279246186,7.21579885 L0.0279246186,3.91171477 L0.013796954,3.91171477 L0.013796954,1.46519774 C0.013796954,0.612044625 0.851676227,0 1.69828341,0 L11.4680867,0 C12.1139519,0 12.876553,0.489853898 13.167847,1.0658959 L13.5900596,1.92123099 C13.9042643,2.54309451 14.7279607,3.09295279 15.4240115,3.09295279 L30.3585549,3.09295279 C31.3480816,3.09295279 31.9677631,3.78027563 31.9677631,4.5319668 L31.9677631,7.21579885 L31.9735952,7.21579885 L31.9735952,15.6051615 Z M21.9951109,5.93045593 L30.004295,5.93045593 C30.004295,5.26058891 29.3235181,5.16129032 28.6536511,5.16129032 L3.52054584,5.16129032 C2.85067882,5.16129032 2.17317487,5.26058891 2.17317487,5.93045593 L10.0048891,5.93045593 C10.1462993,5.92477117 10.2884342,5.92190153 10.4312394,5.92190153 L10.4312394,5.92190153 L21.5687606,5.92190153 L21.5687606,5.92190153 C21.7115658,5.92190153 21.8537007,5.92477117 21.9951109,5.93045593 Z" id="Combined-Shape"></path>
            </g>
            <mask id="mask-2" fill="white">
                <use xlink:href="#path-1"></use>
            </mask>
            <use id="Shape" fill="#FFFFFF" fill-rule="nonzero" xlink:href="#path-1"></use>
        </g>
    </g>
</svg>