<?xml version="1.0" encoding="UTF-8"?>
<svg width="38px" height="38px" viewBox="0 0 38 38" version="1.1" xmlns="http://www.w3.org/2000/svg" xmlns:xlink="http://www.w3.org/1999/xlink">
    <!-- Generator: Sketch 47.1 (45422) - http://www.bohemiancoding.com/sketch -->
    <title>folders / ei-folder-family-V3-open</title>
    <desc>Created with Sketch.</desc>
    <defs>
        <path d="M13.3767932,23.0191754 C13.1247255,22.8368842 13,22.5708612 13,22.2211064 C13,20.6371792 13.2773617,19.8460878 13.8338295,19.8460878 C13.8608679,19.8460878 13.958555,19.893187 14.1268909,19.9865131 C14.2952268,20.0807114 14.5141506,20.1766541 14.7827903,20.2734691 C15.0523021,20.3694118 15.3191973,20.4173831 15.5834759,20.4173831 C15.8843872,20.4173831 16.1826818,20.365923 16.4792321,20.2630026 C16.4565547,20.4287218 16.445216,20.5769969 16.445216,20.7069557 C16.445216,21.3305834 16.626635,21.9053676 16.9903451,22.4304359 C16.263797,22.4522411 15.6689521,22.7400693 15.2066827,23.2913038 L14.304821,23.2913038 C13.9376221,23.2913038 13.6279887,23.2005943 13.3767932,23.0191754 L13.3767932,23.0191754 Z M22.0447823,20.7069557 C22.0447823,21.4204207 21.7927146,22.0292209 21.2877069,22.5342285 C20.7826993,23.0392361 20.1738991,23.2913038 19.4604342,23.2913038 C18.7469692,23.2913038 18.138169,23.0392361 17.6331614,22.5342285 C17.1281538,22.0292209 16.8760861,21.4204207 16.8760861,20.7069557 C16.8760861,19.9934907 17.1281538,19.3846905 17.6331614,18.8796829 C18.138169,18.3755475 18.7469692,18.1226076 19.4604342,18.1226076 C20.1738991,18.1226076 20.7826993,18.3755475 21.2877069,18.8796829 C21.7927146,19.3846905 22.0447823,19.9934907 22.0447823,20.7069557 L22.0447823,20.7069557 Z M21.6139122,18.1226076 C21.6139122,17.647255 21.7822481,17.2408068 22.1189198,16.9050072 C22.4555916,16.5683355 22.8611676,16.3999996 23.3365202,16.3999996 C23.812745,16.3999996 24.2183211,16.5683355 24.5549928,16.9050072 C24.8916645,17.2408068 25.0600004,17.647255 25.0600004,18.1226076 C25.0600004,18.5988324 24.8916645,19.0044085 24.5549928,19.3410802 C24.2183211,19.677752 23.812745,19.8460878 23.3365202,19.8460878 C22.8611676,19.8460878 22.4555916,19.677752 22.1189198,19.3410802 C21.7822481,19.0044085 21.6139122,18.5988324 21.6139122,18.1226076 L21.6139122,18.1226076 Z M16.8019485,19.3410802 C16.4652768,19.677752 16.0597007,19.8460878 15.5834759,19.8460878 C15.1081233,19.8460878 14.7025472,19.677752 14.3658755,19.3410802 C14.0292038,19.0044085 13.8608679,18.5988324 13.8608679,18.1226076 C13.8608679,17.647255 14.0292038,17.2408068 14.3658755,16.9050072 C14.7025472,16.5683355 15.1081233,16.3999996 15.5834759,16.3999996 C16.0597007,16.3999996 16.4652768,16.5683355 16.8019485,16.9050072 C17.1386202,17.2408068 17.3069561,17.647255 17.3069561,18.1226076 C17.3069561,18.5988324 17.1386202,19.0044085 16.8019485,19.3410802 L16.8019485,19.3410802 Z M23.707208,27.9924973 C23.3792583,28.3038751 22.9440272,28.46 22.4015148,28.46 L16.5193536,28.46 C15.9768411,28.46 15.54161,28.3038751 15.2136603,27.9924973 C14.8865828,27.6802474 14.722608,27.2554827 14.722608,26.7173313 C14.722608,26.4792189 14.7304579,26.2472119 14.7461576,26.0204382 C14.7618573,25.7936645 14.7932567,25.5494467 14.8403559,25.2869125 C14.887455,25.0243783 14.9467651,24.7810327 15.018286,24.5568756 C15.0906792,24.3327185 15.1866219,24.1137946 15.3078586,23.900104 C15.4290953,23.6872856 15.5677762,23.5058666 15.7247734,23.3549749 C15.8826428,23.2049554 16.073656,23.0854631 16.3004297,22.9956258 C16.5272034,22.9057885 16.7775267,22.8604338 17.0513996,22.8604338 C17.0958821,22.8604338 17.192697,22.9092773 17.3401,23.0052201 C17.4883751,23.102035 17.6523499,23.2093164 17.8320245,23.3288087 C18.0108268,23.4474288 18.2515558,23.5547102 18.5515949,23.6515251 C18.8525062,23.7483401 19.1551619,23.7963114 19.4604342,23.7963114 C19.7657065,23.7963114 20.0683621,23.7483401 20.3692734,23.6515251 C20.6693125,23.5547102 20.9091693,23.4474288 21.0888438,23.3288087 C21.2685184,23.2093164 21.4324932,23.102035 21.5798962,23.0052201 C21.7281713,22.9092773 21.8249862,22.8604338 21.8694687,22.8604338 C22.1433416,22.8604338 22.3936649,22.9057885 22.6204386,22.9956258 C22.8463401,23.0854631 23.0382256,23.2049554 23.1952227,23.3549749 C23.3522199,23.5058666 23.491773,23.6872856 23.6130097,23.900104 C23.7342464,24.1137946 23.8301891,24.3327185 23.9025823,24.5568756 C23.9741032,24.7810327 24.0334133,25.0243783 24.0805124,25.2869125 C24.1276116,25.5494467 24.159011,25.7936645 24.1747107,26.0204382 C24.1904105,26.2472119 24.1982603,26.4792189 24.1982603,26.7173313 C24.1982603,27.2554827 24.0342855,27.6802474 23.707208,27.9924973 L23.707208,27.9924973 Z M25.5440751,23.0191754 C25.2928796,23.2005943 24.9832462,23.2913038 24.6160473,23.2913038 L23.7141857,23.2913038 C23.2519162,22.7400693 22.6570713,22.4522411 21.9305232,22.4304359 C22.2942333,21.9053676 22.4756523,21.3305834 22.4756523,20.7069557 C22.4756523,20.5769969 22.4643136,20.4287218 22.4416363,20.2630026 C22.7381865,20.365923 23.0364811,20.4173831 23.3365202,20.4173831 C23.601671,20.4173831 23.8685662,20.3694118 24.1380781,20.2734691 C24.4067177,20.1766541 24.6256415,20.0807114 24.7939774,19.9865131 C24.9623133,19.893187 25.0600004,19.8460878 25.0870388,19.8460878 C25.6426344,19.8460878 25.9208683,20.6371792 25.9208683,22.2211064 C25.9208683,22.5708612 25.7952706,22.8368842 25.5440751,23.0191754 L25.5440751,23.0191754 Z" id="path-1"></path>
    </defs>
    <g id="drag-to-move-1A-hover" stroke="none" stroke-width="1" fill="none" fill-rule="evenodd">
        <g id="folders-/-ei-folder-family-V3-open">
            <path d="M35.1420108,12.3476925 L34.2911844,12.3476925 L34.2911844,9.61480414 C34.2911844,8.84937322 33.6832984,8.14948718 32.7126071,8.14948718 L18.0623396,8.14948718 C17.379538,8.14948718 16.5715205,7.58957835 16.2632966,6.95634812 L15.8491207,6.08537883 C15.5633715,5.49880767 14.8152863,5 14.181715,5 L4.59787789,5 C3.7673857,5 2.94545528,5.62323185 2.94545528,6.49197929 L2.94545528,12.3476925 L3.10491834,12.3476925 C2.4478021,12.3476925 1.95228936,12.9864774 2.00366001,13.6663667 L3.31147117,31.1168586 C3.3617716,31.7967479 3.94076164,32.2900009 4.59787789,32.2900009 L33.6490513,32.2900009 C34.3061675,32.2900009 34.8851576,31.8367414 34.935458,31.1590739 L36.2443394,13.6141529 C36.2946398,12.9342636 35.7991271,12.3476925 35.1420108,12.3476925 L35.1420108,12.3476925 L35.1420108,12.3476925 Z M32.2684651,12.3476925 L4.96710444,12.3476925 L4.96710444,11.5844834 C4.96710444,10.9023723 5.63171224,10.2480344 6.28882849,10.2480344 L30.9435303,10.2480344 C31.6006466,10.2480344 32.2684651,10.9023723 32.2684651,11.5844834 L32.2684651,12.3476925 Z" id="Combined-Shape" fill="#367FC6" fill-rule="nonzero"></path>
            <mask id="mask-2" fill="white">
                <use xlink:href="#path-1"></use>
            </mask>
            <use id="Imported-Layers" fill="#FFFFFF" xlink:href="#path-1"></use>
        </g>
    </g>
</svg>