<?xml version="1.0" encoding="UTF-8"?>
<svg width="38px" height="38px" viewBox="0 0 38 38" version="1.1" xmlns="http://www.w3.org/2000/svg" xmlns:xlink="http://www.w3.org/1999/xlink">
    <!-- Generator: Sketch 47.1 (45422) - http://www.bohemiancoding.com/sketch -->
    <title>folders / ei-folder-box-v3</title>
    <desc>Created with Sketch.</desc>
    <defs>
        <path d="M19.5773136,18.6829216 C21.6269925,18.6832434 23.3747933,20.1586466 23.706381,22.1684672 C24.0379687,24.1782879 22.8557463,26.1309703 20.9134562,26.7815544 C18.9711662,27.4321385 16.8404877,26.5891362 15.8798648,24.7900155 C14.9849792,26.4654078 13.0624142,27.326646 11.2063533,26.8835762 C9.35029247,26.4405063 8.03127937,24.8054544 8,22.9089725 L8,16.0110075 C8.01096025,15.5599681 8.38208446,15.1999998 8.83614202,15.1999998 C9.29019958,15.1999998 9.66132379,15.5599681 9.67228405,16.0110075 L9.67228405,19.5139901 C10.6511068,18.7848996 11.9019051,18.5177063 13.0958007,18.7826646 C14.2896963,19.0476229 15.3072237,19.8182201 15.8808396,20.8918396 C16.6063758,19.5322876 18.0286006,18.6824026 19.5773136,18.6829216 Z M30.2548789,25.608492 L30.2539041,25.608492 C30.5424474,25.9760799 30.4595887,26.4860538 30.0618668,26.7592021 C29.6616311,27.0308982 29.1207,26.9656283 28.7975402,26.6066459 L26.8410994,24.2238622 L24.8836839,26.6066459 C24.5790562,26.9626105 24.0170791,27.0323505 23.620332,26.7592021 C23.2235849,26.4860538 23.1407262,25.9760799 23.4302443,25.608492 L25.7044727,22.8334208 L23.4312192,20.0559281 C23.141701,19.689793 23.2245597,19.1803035 23.6213068,18.9061865 C24.0180539,18.6320695 24.580031,18.7022939 24.8846587,19.0577742 L26.8420742,21.4434637 L28.800952,19.06068 C29.1241635,18.7016067 29.665387,18.6367162 30.0652787,18.9090924 C30.4625131,19.1807878 30.5453719,19.6922145 30.2573159,20.0588339 L27.9801632,22.8363266 L30.2548789,25.608492 Z M12.1838782,25.3334064 C13.5696937,25.3326044 14.6927666,24.2162378 14.6930354,22.8392325 C14.6924971,21.4623994 13.5688709,20.3466393 12.1832286,20.3469958 C10.7975863,20.3473524 9.67454191,21.4636907 9.67472128,22.8405238 C9.67490065,24.217357 10.7982359,25.3334063 12.1838782,25.3334064 Z M19.5773136,25.3334064 L19.5763388,25.3338907 C20.9624561,25.3336233 22.0859834,24.2170219 22.0859834,22.8397168 C22.0857142,21.4627575 20.962108,20.3467283 19.5763388,20.3469958 C18.1905696,20.3472633 17.0673999,21.4637262 17.0676691,22.8406854 C17.0679383,24.2176446 18.1915444,25.3336738 19.5773136,25.3334064 Z" id="path-1"></path>
    </defs>
    <g id="drag-to-move-1A-hover" stroke="none" stroke-width="1" fill="none" fill-rule="evenodd">
        <g id="folders-/-ei-folder-box-v3">
            <g id="folders-/-ei-folder-legal" transform="translate(3.000000, 5.000000)" fill-rule="nonzero" fill="#367FC6">
                <path d="M31.9735952,15.6051615 C31.9910991,15.8522105 32,16.1016363 32,16.3531409 C32,16.6046456 31.9910991,16.8540713 31.9735952,17.1011203 L31.9735952,24.6112054 L31.9950316,24.6112054 L31.8639271,25.6895094 C31.8126506,26.3550125 31.2224258,26.8001359 30.5525588,26.8001359 L1.37230718,26.8001359 C0.702440156,26.8001359 0.112215303,26.3157369 0.060938837,25.6480519 L6.07153217e-16,24.6112054 L0.0279246186,24.6112054 L0.0279246186,17.1222691 C0.00941622561,16.8683084 3.16795747e-17,16.6118243 0,16.3531409 C-3.16795747e-17,16.0944576 0.00941622561,15.8379735 0.0279246186,15.5840127 L0.0279246186,7.22622997 C0.0763541228,7.21935955 0.125886656,7.21579885 0.176354261,7.21579885 L0.0279246186,7.21579885 L0.0279246186,3.91171477 L0.013796954,3.91171477 L0.013796954,1.46519774 C0.013796954,0.612044625 0.851676227,0 1.69828341,0 L11.4680867,0 C12.1139519,0 12.876553,0.489853898 13.167847,1.0658959 L13.5900596,1.92123099 C13.9042643,2.54309451 14.7279607,3.09295279 15.4240115,3.09295279 L30.3585549,3.09295279 C31.3480816,3.09295279 31.9677631,3.78027563 31.9677631,4.5319668 L31.9677631,7.21579885 L31.9735952,7.21579885 L31.9735952,15.6051615 Z M21.9951109,5.93045593 L30.004295,5.93045593 C30.004295,5.26058891 29.3235181,5.16129032 28.6536511,5.16129032 L3.52054584,5.16129032 C2.85067882,5.16129032 2.17317487,5.26058891 2.17317487,5.93045593 L10.0048891,5.93045593 C10.1462993,5.92477117 10.2884342,5.92190153 10.4312394,5.92190153 L10.4312394,5.92190153 L21.5687606,5.92190153 L21.5687606,5.92190153 C21.7115658,5.92190153 21.8537007,5.92477117 21.9951109,5.93045593 Z" id="Combined-Shape"></path>
            </g>
            <mask id="mask-2" fill="white">
                <use xlink:href="#path-1"></use>
            </mask>
            <use id="Shape" fill="#FFFFFF" fill-rule="nonzero" xlink:href="#path-1"></use>
        </g>
    </g>
</svg>