<?xml version="1.0" encoding="UTF-8"?>
<svg width="24px" height="24px" viewBox="0 0 24 24" version="1.1" xmlns="http://www.w3.org/2000/svg" xmlns:xlink="http://www.w3.org/1999/xlink">
    <!-- Generator: Sketch 47.1 (45422) - http://www.bohemiancoding.com/sketch -->
    <title>folders / ei-folder-legal</title>
    <desc>Created with Sketch.</desc>
    <defs>
        <path d="M15.4985187,17.2058969 L14.9363807,17.7732762 C14.7994497,17.9030004 14.6402428,17.9678624 14.4581049,17.9678624 C14.2720359,17.9678624 14.1147945,17.9030004 13.9850704,17.7732762 L12.0772082,15.8601727 C11.9435531,15.7337244 11.8773807,15.5764831 11.8773807,15.3871382 C11.8773807,15.2010693 11.9527255,15.0333451 12.1034151,14.8826555 L10.757691,13.5369313 L10.0953116,14.1993106 C10.0461737,14.2484485 9.98655303,14.2726899 9.91644958,14.2726899 C9.84634613,14.2726899 9.78738061,14.2484485 9.73824268,14.1993106 C9.7447944,14.2065175 9.76707026,14.227483 9.80375992,14.2622072 C9.84044958,14.2975865 9.86272544,14.3198623 9.86927716,14.3303451 C9.87648406,14.3408279 9.89417371,14.3611382 9.92234613,14.390621 C9.94986337,14.4207589 9.96755303,14.4443451 9.97475992,14.4620348 C9.98131165,14.4797244 9.99244958,14.5033106 10.0062082,14.5327934 C10.0199668,14.5629313 10.0297944,14.5917589 10.0350358,14.6192761 C10.0402772,14.6474486 10.0428979,14.6788968 10.0428979,14.7142761 C10.0428979,14.8472761 9.99375992,14.9665175 9.89548406,15.0713451 C9.8850013,15.0824831 9.85617371,15.1139313 9.8090013,15.1663451 C9.76182888,15.2187589 9.72841509,15.2547934 9.70941509,15.2737934 C9.68975992,15.2934486 9.65765647,15.3222762 9.6117944,15.3609313 C9.5665875,15.3995865 9.52793233,15.4264486 9.49648405,15.4421727 C9.46503577,15.4578969 9.4263806,15.473621 9.38051853,15.4893451 C9.33531163,15.5050693 9.28944956,15.5129313 9.24424267,15.5129313 C9.10403577,15.5129313 8.98479438,15.4644486 8.88651852,15.3661727 L6.74213916,13.2217934 C6.6438633,13.1235175 6.59472536,13.0042761 6.59472536,12.8640692 C6.59472536,12.8182071 6.60258743,12.7730002 6.61831157,12.7271382 C6.63403571,12.6819313 6.65041502,12.6432761 6.66613916,12.6118278 C6.6818633,12.5803795 6.70872537,12.5417244 6.74738054,12.4958623 C6.78603571,12.4506554 6.8148633,12.4178968 6.8338633,12.3988968 C6.85351847,12.3798968 6.88955296,12.346483 6.94196675,12.2993106 C6.99438055,12.251483 7.02582882,12.2226554 7.03631158,12.2121726 C7.14179434,12.1145519 7.26038055,12.0647588 7.39403573,12.0647588 C7.42875987,12.0647588 7.46020814,12.0680347 7.48838056,12.0732761 C7.51655297,12.0785175 7.54538056,12.0876899 7.57486332,12.1021037 C7.60500125,12.1158623 7.62858746,12.1263451 7.64627711,12.133552 C7.6633116,12.1407588 7.68755298,12.1577933 7.71703573,12.1859657 C7.74717367,12.2141382 7.76682884,12.2318278 7.7773116,12.2383795 C7.78779436,12.2455864 7.81072539,12.2672071 7.8461047,12.304552 C7.88082884,12.3412416 7.90179436,12.3628623 7.90900126,12.3700692 C7.85986332,12.3209313 7.83562194,12.2613106 7.83562194,12.1912071 C7.83562194,12.1211037 7.85986332,12.061483 7.90900126,12.0123451 L9.73824268,10.1831036 C9.78738061,10.1346209 9.84634613,10.1097243 9.91644958,10.1097243 C9.98655303,10.1097243 10.0461737,10.1346209 10.0953116,10.1831036 C10.0887599,10.1765519 10.0664841,10.1555864 10.0297944,10.1202071 C9.99310475,10.0854829 9.97082889,10.0625519 9.96427716,10.0520691 C9.95707027,10.0415864 9.93938061,10.021276 9.91186337,9.99179328 C9.88369096,9.96165535 9.8660013,9.93806914 9.8587944,9.92037949 C9.85158751,9.903345 9.84110475,9.8797588 9.82734613,9.84962086 C9.81358751,9.82013811 9.80375992,9.79131052 9.79851854,9.7631381 C9.79327716,9.73496569 9.79065647,9.70351741 9.79065647,9.6681381 C9.79065647,9.5351381 9.8397944,9.41589672 9.93807027,9.31106913 C9.94855303,9.30058637 9.97738061,9.26848292 10.024553,9.21606913 C10.0717254,9.16365533 10.1051392,9.12762085 10.1241392,9.10862085 C10.1437944,9.08896568 10.1758979,9.06013809 10.2217599,9.02148292 C10.2669668,8.98348291 10.305622,8.95596567 10.3370703,8.94024153 C10.3685186,8.9245174 10.4071737,8.90879326 10.4530358,8.89306912 C10.4982427,8.87734498 10.5441048,8.86948291 10.5893117,8.86948291 C10.7295186,8.86948291 10.8487599,8.91862084 10.9470358,9.01624154 L13.0914152,11.1612761 C13.189691,11.2588968 13.238829,11.3781381 13.238829,11.518345 C13.238829,11.5642071 13.2309669,11.609414 13.2152428,11.6552761 C13.1995186,11.700483 13.1831393,11.7391381 13.1674152,11.7705864 C13.151691,11.8020347 13.124829,11.8406899 13.0861738,11.8865519 C13.0475186,11.9317588 13.018691,11.9645175 12.999691,11.9835175 C12.9800359,12.0031726 12.9446565,12.0359313 12.8915876,12.0837588 C12.8391738,12.1309313 12.8077255,12.1597588 12.7972427,12.1702416 C12.69176,12.2685175 12.5725186,12.3176554 12.4395186,12.3176554 C12.4047945,12.3176554 12.3733462,12.3150347 12.3451738,12.3097933 C12.3170014,12.304552 12.2881738,12.2947244 12.258691,12.2803106 C12.2285531,12.266552 12.2049669,12.2560692 12.1872772,12.2488623 C12.1695876,12.2423106 12.1460014,12.2246209 12.1165186,12.1964485 C12.0863807,12.1682761 12.0667255,12.1512416 12.0562427,12.1440347 C12.04576,12.1368278 12.0228289,12.1152071 11.9874496,12.0785175 C11.9527255,12.0418278 11.93176,12.0195519 11.9245531,12.0123451 C11.973691,12.061483 11.9979324,12.1211037 11.9979324,12.1912071 C11.9979324,12.2613106 11.973691,12.3209313 11.9245531,12.3700692 L11.2621737,13.0324485 L12.6078979,14.3775175 C12.7585876,14.227483 12.9269669,14.1521382 13.1123807,14.1521382 C13.2945186,14.1521382 13.4543807,14.2163451 13.5906566,14.3460692 L15.4985187,16.2545865 C15.6282428,16.3908624 15.6931049,16.5507245 15.6931049,16.7322072 C15.6931049,16.9182762 15.6282428,17.0761728 15.4985187,17.2058969 L15.4985187,17.2058969 Z" id="path-1"></path>
    </defs>
    <g id="Page-1" stroke="none" stroke-width="1" fill="none" fill-rule="evenodd">
        <g id="folders-/-ei-folder-legal">
            <path d="M1.00902936,5.625567 L1.00902936,3.98344973 C1.00902936,3.41080811 1.55737615,3 2.11143487,3 L8.50524405,3 C8.92792803,3 9.42700928,3.32879295 9.61764547,3.71543588 L9.89396084,4.28954205 C10.0995909,4.70694067 10.6386558,5.07600892 11.0941834,5.07600892 L20.8680364,5.07600892 C21.5156283,5.07600892 21.9211764,5.53734423 21.9211764,6.04188397 L21.9211764,7.84328853 L21.9249932,7.84328853 L21.9249932,19.5191923 L21.9390222,19.5191923 L21.8532213,20.2429566 C21.8196636,20.6896464 21.4333933,20.9884159 20.9950015,20.9884159 L1.89810102,20.9884159 C1.45970919,20.9884159 1.07343886,20.6632844 1.03988118,20.21513 L1,19.5191923 L1.01827516,19.5191923 L1.01827516,7.85028997 C1.04996965,7.8456785 1.08238602,7.84328853 1.11541435,7.84328853 L1.01827516,7.84328853 L1.01827516,5.625567 L1.00902936,5.625567 Z" id="Combined-Shape-Copy" fill="#3895DF" fill-rule="nonzero"></path>
            <rect id="Rectangle-3-Copy-2" fill="#66AFE9" x="1" y="6" width="20.9400005" height="14.9495225" rx="1"></rect>
            <mask id="mask-2" fill="white">
                <use xlink:href="#path-1"></use>
            </mask>
            <use id="Mask" fill="#FFFFFF" xlink:href="#path-1"></use>
        </g>
    </g>
</svg>