<?xml version="1.0" encoding="UTF-8"?>
<svg width="24px" height="24px" viewBox="0 0 24 24" version="1.1" xmlns="http://www.w3.org/2000/svg" xmlns:xlink="http://www.w3.org/1999/xlink">
    <!-- Generator: Sketch 47.1 (45422) - http://www.bohemiancoding.com/sketch -->
    <title>folders / ei-folder-home</title>
    <desc>Created with Sketch.</desc>
    <defs>
        <path d="M15.532122,17.4084536 C15.532122,17.6500547 15.3315354,17.8500004 15.0905752,17.8500004 L12.4419356,17.8500004 L12.4419356,15.2020016 L10.6770303,15.2020016 L10.6770303,17.8500004 L8.0283906,17.8500004 C7.7874304,17.8500004 7.58684385,17.6500547 7.58684385,17.4084536 L7.58684385,14.0984551 C7.58684385,14.0849972 7.59389321,14.0708985 7.59389321,14.0574406 L11.5594829,10.7878158 L15.5250726,14.0574406 C15.532122,14.0708985 15.532122,14.0849972 15.532122,14.0984551 L15.532122,17.4084536 L15.532122,17.4084536 Z M17.069525,13.6223024 L16.642077,14.1330611 C16.607471,14.1740756 16.5523577,14.2022731 16.4972445,14.2086816 L16.4767372,14.2086816 C16.421624,14.2086816 16.3735601,14.1952237 16.3319048,14.1599769 L11.5594829,10.1815701 L6.78706105,14.1599769 C6.73899718,14.1952237 6.68388394,14.215731 6.62172134,14.2086816 C6.5666081,14.2022731 6.51149486,14.1740756 6.47688888,14.1330611 L6.04944086,13.6223024 C5.97317952,13.5325832 5.98727825,13.3877507 6.07699748,13.3121302 L11.0352663,9.18120079 C11.3249312,8.93959974 11.7940346,8.93959974 12.0836995,9.18120079 L13.7665758,10.5878701 L13.7665758,9.2433634 C13.7665758,9.11903818 13.8627036,9.02291044 13.9870288,9.02291044 L15.3110282,9.02291044 C15.4353534,9.02291044 15.532122,9.11903818 15.532122,9.2433634 L15.532122,12.0567019 L17.0419684,13.3121302 C17.1316876,13.3877507 17.1457863,13.5325832 17.069525,13.6223024 L17.069525,13.6223024 Z" id="path-1"></path>
    </defs>
    <g id="Page-1" stroke="none" stroke-width="1" fill="none" fill-rule="evenodd">
        <g id="folders-/-ei-folder-home">
            <path d="M1.00902936,5.625567 L1.00902936,3.98344973 C1.00902936,3.41080811 1.55737615,3 2.11143487,3 L8.50524405,3 C8.92792803,3 9.42700928,3.32879295 9.61764547,3.71543588 L9.89396084,4.28954205 C10.0995909,4.70694067 10.6386558,5.07600892 11.0941834,5.07600892 L20.8680364,5.07600892 C21.5156283,5.07600892 21.9211764,5.53734423 21.9211764,6.04188397 L21.9211764,7.84328853 L21.9249932,7.84328853 L21.9249932,19.5191923 L21.9390222,19.5191923 L21.8532213,20.2429566 C21.8196636,20.6896464 21.4333933,20.9884159 20.9950015,20.9884159 L1.89810102,20.9884159 C1.45970919,20.9884159 1.07343886,20.6632844 1.03988118,20.21513 L1,19.5191923 L1.01827516,19.5191923 L1.01827516,7.85028997 C1.04996965,7.8456785 1.08238602,7.84328853 1.11541435,7.84328853 L1.01827516,7.84328853 L1.01827516,5.625567 L1.00902936,5.625567 Z" id="Combined-Shape-Copy" fill="#3895DF" fill-rule="nonzero"></path>
            <rect id="Rectangle-3-Copy-2" fill="#66AFE9" x="1" y="6" width="20.9400005" height="14.9495225" rx="1"></rect>
            <mask id="mask-2" fill="white">
                <use xlink:href="#path-1"></use>
            </mask>
            <use id="Imported-Layers" fill="#FFFFFF" xlink:href="#path-1"></use>
        </g>
    </g>
</svg>