<?xml version="1.0" encoding="UTF-8"?>
<svg width="38px" height="38px" viewBox="0 0 38 38" version="1.1" xmlns="http://www.w3.org/2000/svg" xmlns:xlink="http://www.w3.org/1999/xlink">
    <!-- Generator: Sketch 47.1 (45422) - http://www.bohemiancoding.com/sketch -->
    <title>folders / ei-folder-business-v3-open</title>
    <desc>Created with Sketch.</desc>
    <defs>
        <path d="M16.4619033,21.6705493 L16.014197,21.6705493 C15.9487259,21.6705493 15.8957714,21.6917311 15.8534078,21.7340947 C15.8110442,21.7764583 15.7898624,21.8294128 15.7898624,21.8948839 L15.7898624,22.3425902 C15.7898624,22.4080612 15.812007,22.4610157 15.8534078,22.5033793 C15.8948086,22.5457429 15.9487259,22.5669247 16.014197,22.5669247 L16.4619033,22.5669247 C16.5273743,22.5669247 16.5803288,22.5457429 16.6236552,22.5033793 C16.6669817,22.4610157 16.6862378,22.4080612 16.6862378,22.3425902 L16.6862378,21.8948839 C16.6862378,21.8294128 16.665056,21.7764583 16.6236552,21.7340947 C16.5822544,21.6917311 16.5273743,21.6705493 16.4619033,21.6705493 Z M16.4619033,25.2512369 L16.014197,25.2512369 C15.9487259,25.2512369 15.8957714,25.2724187 15.8534078,25.3138195 C15.8110442,25.3552203 15.7898624,25.4091377 15.7898624,25.4746087 L15.7898624,25.922315 C15.7898624,25.987786 15.812007,26.0407405 15.8534078,26.084067 C15.8948086,26.1273934 15.9487259,26.1466496 16.014197,26.1466496 L16.4619033,26.1466496 C16.5273743,26.1466496 16.5803288,26.1254678 16.6236552,26.084067 C16.6669817,26.0426662 16.6862378,25.987786 16.6862378,25.922315 L16.6862378,25.4746087 C16.6862378,25.4091377 16.665056,25.3561832 16.6236552,25.3138195 C16.5822544,25.2714559 16.5273743,25.2512369 16.4619033,25.2512369 Z M16.4619033,23.4604117 L16.014197,23.4604117 C15.9487259,23.4604117 15.8957714,23.4815935 15.8534078,23.5239571 C15.8110442,23.5663207 15.7898624,23.6192752 15.7898624,23.6847463 L15.7898624,24.1324526 C15.7898624,24.1979236 15.812007,24.2508781 15.8534078,24.2932417 C15.8948086,24.3356053 15.9487259,24.3567871 16.014197,24.3567871 L16.4619033,24.3567871 C16.5273743,24.3567871 16.5803288,24.3356053 16.6236552,24.2932417 C16.6669817,24.2508781 16.6862378,24.1979236 16.6862378,24.1324526 L16.6862378,23.6847463 C16.6862378,23.6192752 16.665056,23.5663207 16.6236552,23.5239571 C16.5822544,23.4815935 16.5273743,23.4604117 16.4619033,23.4604117 Z M16.4619033,18.0917873 L16.014197,18.0917873 C15.9487259,18.0917873 15.8957714,18.1129691 15.8534078,18.1543699 C15.8110442,18.1957707 15.7898624,18.249688 15.7898624,18.315159 L15.7898624,18.7628653 C15.7898624,18.8283364 15.812007,18.8812909 15.8534078,18.9246173 C15.8948086,18.9679437 15.9487259,18.9871999 16.014197,18.9871999 L16.4619033,18.9871999 C16.5273743,18.9871999 16.5803288,18.9660181 16.6236552,18.9246173 C16.6669817,18.8832165 16.6862378,18.8283364 16.6862378,18.7628653 L16.6862378,18.315159 C16.6862378,18.249688 16.665056,18.1967335 16.6236552,18.1543699 C16.5822544,18.1120063 16.5273743,18.0917873 16.4619033,18.0917873 L16.4619033,18.0917873 Z M16.4619033,19.8806869 L16.014197,19.8806869 C15.9487259,19.8806869 15.8957714,19.9018687 15.8534078,19.9432695 C15.8110442,19.9846703 15.7898624,20.0395504 15.7898624,20.1050214 L15.7898624,20.5517649 C15.7898624,20.6181988 15.812007,20.6711533 15.8534078,20.7135169 C15.8948086,20.7558805 15.9487259,20.7760995 16.014197,20.7760995 L16.4619033,20.7760995 C16.5273743,20.7760995 16.5803288,20.7549177 16.6236552,20.7135169 C16.6669817,20.6721161 16.6862378,20.6181988 16.6862378,20.5517649 L16.6862378,20.1050214 C16.6862378,20.0395504 16.665056,19.9865959 16.6236552,19.9432695 C16.5822544,19.8999431 16.5273743,19.8806869 16.4619033,19.8806869 Z M23.8447247,28.3822927 C23.8447247,28.5036066 23.8004355,28.6085528 23.711857,28.6971313 C23.6232786,28.7857097 23.5192952,28.829999 23.3970184,28.829999 L14.4477063,28.829999 C14.3263923,28.829999 14.2214461,28.7857097 14.1328677,28.6971313 C14.0442892,28.6085528 14,28.5045694 14,28.3822927 L14,16.7477055 C14,16.6263916 14.0442892,16.5224082 14.1328677,16.4328669 C14.2214461,16.3433257 14.3254295,16.2999992 14.4477063,16.2999992 L23.3970184,16.2999992 C23.5183324,16.2999992 23.6232786,16.3442885 23.711857,16.4328669 C23.8004355,16.5214454 23.8447247,16.6254288 23.8447247,16.7477055 L23.8447247,28.3822927 Z M20.0406653,26.1456867 L17.8040594,26.1456867 C17.7376256,26.1456867 17.684671,26.1668686 17.6423074,26.2082694 C17.5999438,26.2496701 17.5797248,26.3045503 17.5797248,26.3700213 L17.5797248,27.7121774 C17.5797248,27.7776484 17.6009066,27.8315658 17.6423074,27.8739294 C17.6837082,27.916293 17.7376256,27.936512 17.8040594,27.936512 L20.0406653,27.936512 C20.1070991,27.936512 20.1600537,27.9153302 20.2024173,27.8739294 C20.2447809,27.8325286 20.2649999,27.7776484 20.2649999,27.7121774 L20.2649999,26.3700213 C20.2649999,26.3045503 20.2438181,26.2515958 20.2024173,26.2082694 C20.1610165,26.1649429 20.1070991,26.1456867 20.0406653,26.1456867 Z M17.8050222,18.9852743 L18.2517657,18.9852743 C18.3172367,18.9852743 18.3701912,18.9640925 18.4135177,18.9226917 C18.4568441,18.8812909 18.4761003,18.8264107 18.4761003,18.7609397 L18.4761003,18.3132334 C18.4761003,18.2477624 18.4549185,18.1948079 18.4135177,18.1524443 C18.3721169,18.1100806 18.3172367,18.0898617 18.2517657,18.0898617 L17.8050222,18.0898617 C17.7385884,18.0898617 17.6856339,18.1110435 17.6432702,18.1524443 C17.6009066,18.1938451 17.5806876,18.2477624 17.5806876,18.3132334 L17.5806876,18.7609397 C17.5806876,18.8264107 17.6018694,18.8793652 17.6432702,18.9226917 C17.684671,18.9660181 17.7385884,18.9852743 17.8050222,18.9852743 Z M17.8050222,24.3558243 L18.2517657,24.3558243 C18.3172367,24.3558243 18.3701912,24.3346425 18.4135177,24.2922789 C18.4568441,24.2499153 18.4761003,24.1969608 18.4761003,24.1314898 L18.4761003,23.6837835 C18.4761003,23.6183124 18.4549185,23.5653579 18.4135177,23.5229943 C18.3721169,23.4806307 18.3172367,23.4594489 18.2517657,23.4594489 L17.8050222,23.4594489 C17.7385884,23.4594489 17.6856339,23.4806307 17.6432702,23.5229943 C17.6009066,23.5653579 17.5806876,23.6183124 17.5806876,23.6837835 L17.5806876,24.1314898 C17.5806876,24.1969608 17.6018694,24.2499153 17.6432702,24.2922789 C17.684671,24.3346425 17.7385884,24.3558243 17.8050222,24.3558243 Z M17.8050222,22.5659619 L18.2517657,22.5659619 C18.3172367,22.5659619 18.3701912,22.5447801 18.4135177,22.5024165 C18.4568441,22.4600529 18.4761003,22.4070984 18.4761003,22.3416274 L18.4761003,21.893921 C18.4761003,21.82845 18.4549185,21.7754955 18.4135177,21.7331319 C18.3721169,21.6907683 18.3172367,21.6695865 18.2517657,21.6695865 L17.8050222,21.6695865 C17.7385884,21.6695865 17.6856339,21.6907683 17.6432702,21.7331319 C17.6009066,21.7754955 17.5806876,21.82845 17.5806876,21.893921 L17.5806876,22.3416274 C17.5806876,22.4070984 17.6018694,22.4600529 17.6432702,22.5024165 C17.684671,22.5447801 17.7385884,22.5659619 17.8050222,22.5659619 Z M17.8050222,20.7751367 L18.2517657,20.7751367 C18.3172367,20.7751367 18.3701912,20.7539549 18.4135177,20.7125541 C18.4568441,20.6711533 18.4761003,20.617236 18.4761003,20.5508021 L18.4761003,20.1040586 C18.4761003,20.0385876 18.4549185,19.9856331 18.4135177,19.9423067 C18.3721169,19.8989803 18.3172367,19.8797241 18.2517657,19.8797241 L17.8050222,19.8797241 C17.7385884,19.8797241 17.6856339,19.9009059 17.6432702,19.9423067 C17.6009066,19.9837075 17.5806876,20.0385876 17.5806876,20.1040586 L17.5806876,20.5508021 C17.5806876,20.617236 17.6018694,20.6701905 17.6432702,20.7125541 C17.684671,20.7549177 17.7385884,20.7751367 17.8050222,20.7751367 Z M20.0406653,23.4604117 L19.5939218,23.4604117 C19.5284508,23.4604117 19.4754963,23.4815935 19.4321699,23.5239571 C19.3888434,23.5663207 19.3695873,23.6192752 19.3695873,23.6847463 L19.3695873,24.1324526 C19.3695873,24.1979236 19.3907691,24.2508781 19.4321699,24.2932417 C19.4735707,24.3356053 19.5284508,24.3567871 19.5939218,24.3567871 L20.0406653,24.3567871 C20.1070991,24.3567871 20.1600537,24.3356053 20.2024173,24.2932417 C20.2447809,24.2508781 20.2649999,24.1979236 20.2649999,24.1324526 L20.2649999,23.6847463 C20.2649999,23.6192752 20.2438181,23.5663207 20.2024173,23.5239571 C20.1610165,23.4815935 20.1070991,23.4604117 20.0406653,23.4604117 Z M21.8314905,21.6705493 L21.3837842,21.6705493 C21.3183132,21.6705493 21.2653587,21.6917311 21.2229951,21.7340947 C21.1806315,21.7764583 21.1594497,21.8294128 21.1594497,21.8948839 L21.1594497,22.3425902 C21.1594497,22.4080612 21.1806315,22.4610157 21.2229951,22.5033793 C21.2653587,22.5457429 21.3183132,22.5669247 21.3837842,22.5669247 L21.8314905,22.5669247 C21.8969616,22.5669247 21.9499161,22.5457429 21.9922797,22.5033793 C22.0346433,22.4610157 22.0558251,22.4080612 22.0558251,22.3425902 L22.0558251,21.8948839 C22.0558251,21.8294128 22.0346433,21.7764583 21.9922797,21.7340947 C21.9499161,21.6917311 21.8969616,21.6705493 21.8314905,21.6705493 Z M21.8314905,23.4604117 L21.3837842,23.4604117 C21.3183132,23.4604117 21.2653587,23.4815935 21.2229951,23.5239571 C21.1806315,23.5663207 21.1594497,23.6192752 21.1594497,23.6847463 L21.1594497,24.1324526 C21.1594497,24.1979236 21.1806315,24.2508781 21.2229951,24.2932417 C21.2653587,24.3356053 21.3183132,24.3567871 21.3837842,24.3567871 L21.8314905,24.3567871 C21.8969616,24.3567871 21.9499161,24.3356053 21.9922797,24.2932417 C22.0346433,24.2508781 22.0558251,24.1979236 22.0558251,24.1324526 L22.0558251,23.6847463 C22.0558251,23.6192752 22.0346433,23.5663207 21.9922797,23.5239571 C21.9499161,23.4815935 21.8969616,23.4604117 21.8314905,23.4604117 Z M21.8314905,18.0917873 L21.3837842,18.0917873 C21.3183132,18.0917873 21.2653587,18.1129691 21.2229951,18.1543699 C21.1806315,18.1957707 21.1594497,18.249688 21.1594497,18.315159 L21.1594497,18.7628653 C21.1594497,18.8283364 21.1806315,18.8812909 21.2229951,18.9246173 C21.2653587,18.9679437 21.3183132,18.9871999 21.3837842,18.9871999 L21.8314905,18.9871999 C21.8969616,18.9871999 21.9499161,18.9660181 21.9922797,18.9246173 C22.0346433,18.8832165 22.0558251,18.8283364 22.0558251,18.7628653 L22.0558251,18.315159 C22.0558251,18.249688 22.0346433,18.1967335 21.9922797,18.1543699 C21.9499161,18.1120063 21.8969616,18.0917873 21.8314905,18.0917873 L21.8314905,18.0917873 Z M21.8314905,19.8806869 L21.3837842,19.8806869 C21.3183132,19.8806869 21.2653587,19.9018687 21.2229951,19.9432695 C21.1806315,19.9846703 21.1594497,20.0395504 21.1594497,20.1050214 L21.1594497,20.5517649 C21.1594497,20.6181988 21.1806315,20.6711533 21.2229951,20.7135169 C21.2653587,20.7558805 21.3183132,20.7760995 21.3837842,20.7760995 L21.8314905,20.7760995 C21.8969616,20.7760995 21.9499161,20.7549177 21.9922797,20.7135169 C22.0346433,20.6721161 22.0558251,20.6181988 22.0558251,20.5517649 L22.0558251,20.1050214 C22.0558251,20.0395504 22.0346433,19.9865959 21.9922797,19.9432695 C21.9499161,19.8999431 21.8969616,19.8806869 21.8314905,19.8806869 Z M21.8314905,25.2512369 L21.3837842,25.2512369 C21.3183132,25.2512369 21.2653587,25.2724187 21.2229951,25.3138195 C21.1806315,25.3552203 21.1594497,25.4091377 21.1594497,25.4746087 L21.1594497,25.922315 C21.1594497,25.987786 21.1806315,26.0407405 21.2229951,26.084067 C21.2653587,26.1273934 21.3183132,26.1466496 21.3837842,26.1466496 L21.8314905,26.1466496 C21.8969616,26.1466496 21.9499161,26.1254678 21.9922797,26.084067 C22.0346433,26.0426662 22.0558251,25.987786 22.0558251,25.922315 L22.0558251,25.4746087 C22.0558251,25.4091377 22.0346433,25.3561832 21.9922797,25.3138195 C21.9499161,25.2714559 21.8969616,25.2512369 21.8314905,25.2512369 Z M20.0406653,21.6705493 L19.5939218,21.6705493 C19.5284508,21.6705493 19.4754963,21.6917311 19.4321699,21.7340947 C19.3888434,21.7764583 19.3695873,21.8294128 19.3695873,21.8948839 L19.3695873,22.3425902 C19.3695873,22.4080612 19.3907691,22.4610157 19.4321699,22.5033793 C19.4735707,22.5457429 19.5284508,22.5669247 19.5939218,22.5669247 L20.0406653,22.5669247 C20.1070991,22.5669247 20.1600537,22.5457429 20.2024173,22.5033793 C20.2447809,22.4610157 20.2649999,22.4080612 20.2649999,22.3425902 L20.2649999,21.8948839 C20.2649999,21.8294128 20.2438181,21.7764583 20.2024173,21.7340947 C20.1610165,21.6917311 20.1070991,21.6705493 20.0406653,21.6705493 Z M20.0406653,19.8806869 L19.5939218,19.8806869 C19.5284508,19.8806869 19.4754963,19.9018687 19.4321699,19.9432695 C19.3888434,19.9846703 19.3695873,20.0395504 19.3695873,20.1050214 L19.3695873,20.5517649 C19.3695873,20.6181988 19.3907691,20.6711533 19.4321699,20.7135169 C19.4735707,20.7558805 19.5284508,20.7760995 19.5939218,20.7760995 L20.0406653,20.7760995 C20.1070991,20.7760995 20.1600537,20.7549177 20.2024173,20.7135169 C20.2447809,20.6721161 20.2649999,20.6181988 20.2649999,20.5517649 L20.2649999,20.1050214 C20.2649999,20.0395504 20.2438181,19.9865959 20.2024173,19.9432695 C20.1610165,19.8999431 20.1070991,19.8806869 20.0406653,19.8806869 Z M20.0406653,18.0917873 L19.5939218,18.0917873 C19.5284508,18.0917873 19.4754963,18.1129691 19.4321699,18.1543699 C19.3888434,18.1957707 19.3695873,18.249688 19.3695873,18.315159 L19.3695873,18.7628653 C19.3695873,18.8283364 19.3907691,18.8812909 19.4321699,18.9246173 C19.4735707,18.9679437 19.5284508,18.9871999 19.5939218,18.9871999 L20.0406653,18.9871999 C20.1070991,18.9871999 20.1600537,18.9660181 20.2024173,18.9246173 C20.2447809,18.8832165 20.2649999,18.8283364 20.2649999,18.7628653 L20.2649999,18.315159 C20.2649999,18.249688 20.2438181,18.1967335 20.2024173,18.1543699 C20.1610165,18.1120063 20.1070991,18.0917873 20.0406653,18.0917873 L20.0406653,18.0917873 Z" id="path-1"></path>
    </defs>
    <g id="drag-to-move-1A-hover" stroke="none" stroke-width="1" fill="none" fill-rule="evenodd">
        <g id="folders-/-ei-folder-business-v3-open">
            <path d="M35.1420108,12.3476925 L34.2911844,12.3476925 L34.2911844,9.61480414 C34.2911844,8.84937322 33.6832984,8.14948718 32.7126071,8.14948718 L18.0623396,8.14948718 C17.379538,8.14948718 16.5715205,7.58957835 16.2632966,6.95634812 L15.8491207,6.08537883 C15.5633715,5.49880767 14.8152863,5 14.181715,5 L4.59787789,5 C3.7673857,5 2.94545528,5.62323185 2.94545528,6.49197929 L2.94545528,12.3476925 L3.10491834,12.3476925 C2.4478021,12.3476925 1.95228936,12.9864774 2.00366001,13.6663667 L3.31147117,31.1168586 C3.3617716,31.7967479 3.94076164,32.2900009 4.59787789,32.2900009 L33.6490513,32.2900009 C34.3061675,32.2900009 34.8851576,31.8367414 34.935458,31.1590739 L36.2443394,13.6141529 C36.2946398,12.9342636 35.7991271,12.3476925 35.1420108,12.3476925 L35.1420108,12.3476925 L35.1420108,12.3476925 Z M32.2684651,12.3476925 L4.96710444,12.3476925 L4.96710444,11.5844834 C4.96710444,10.9023723 5.63171224,10.2480344 6.28882849,10.2480344 L30.9435303,10.2480344 C31.6006466,10.2480344 32.2684651,10.9023723 32.2684651,11.5844834 L32.2684651,12.3476925 Z" id="Combined-Shape" fill="#367FC6" fill-rule="nonzero"></path>
            <mask id="mask-2" fill="white">
                <use xlink:href="#path-1"></use>
            </mask>
            <use id="Shape" fill="#FFFFFF" fill-rule="nonzero" xlink:href="#path-1"></use>
        </g>
    </g>
</svg>