<?xml version="1.0" encoding="UTF-8"?>
<svg width="24px" height="24px" viewBox="0 0 24 24" version="1.1" xmlns="http://www.w3.org/2000/svg" xmlns:xlink="http://www.w3.org/1999/xlink">
    <!-- Generator: Sketch 47.1 (45422) - http://www.bohemiancoding.com/sketch -->
    <title>folders / ei-folder-home open</title>
    <desc>Created with Sketch.</desc>
    <defs>
        <path d="M15.104366,18.3829224 C15.104366,18.6166066 14.9127808,18.8100004 14.6826337,18.8100004 L12.1528523,18.8100004 L12.1528523,16.2487722 L10.4671475,16.2487722 L10.4671475,18.8100004 L7.93736614,18.8100004 C7.70721908,18.8100004 7.51563389,18.6166066 7.51563389,18.3829224 L7.51563389,15.1813871 C7.51563389,15.1683702 7.52236692,15.1547335 7.52236692,15.1417166 L11.3099999,11.979232 L15.097633,15.1417166 C15.104366,15.1547335 15.104366,15.1683702 15.104366,15.1813871 L15.104366,18.3829224 L15.104366,18.3829224 Z M16.5727777,14.7208371 L16.1645115,15.2148591 C16.1314585,15.2545297 16.0788184,15.2818031 16.0261784,15.2880017 L16.0065914,15.2880017 C15.9539514,15.2880017 15.9080444,15.2749848 15.8682584,15.2408929 L11.3099999,11.392852 L6.75174152,15.2408929 C6.70583453,15.2749848 6.65319451,15.29482 6.59382146,15.2880017 C6.54118144,15.2818031 6.48854142,15.2545297 6.45548839,15.2148591 L6.04722219,14.7208371 C5.97438309,14.6340579 5.98784914,14.4939713 6.0735422,14.4208288 L10.8093077,10.4252631 C11.0859738,10.191579 11.5340261,10.191579 11.8106922,10.4252631 L13.4180491,11.7858382 L13.4180491,10.4853888 C13.4180491,10.3651375 13.5098631,10.2721597 13.6286092,10.2721597 L14.8931938,10.2721597 C15.0119399,10.2721597 15.104366,10.3651375 15.104366,10.4853888 L15.104366,13.2065388 L16.5464577,14.4208288 C16.6321507,14.4939713 16.6456168,14.6340579 16.5727777,14.7208371 L16.5727777,14.7208371 Z" id="path-1"></path>
    </defs>
    <g id="Page-1" stroke="none" stroke-width="1" fill="none" fill-rule="evenodd">
        <g id="folders-/-ei-folder-home-open">
            <g id="Group-4" transform="translate(0.000000, 3.000000)">
                <path d="M20.9491259,4.72144553 L21.486083,4.72144553 C21.9007896,4.72144553 22.213508,5.07833537 22.1817634,5.49200315 L21.3557274,16.1669299 C21.3239827,16.5792458 20.9585817,16.8550243 20.5438752,16.8550243 L2.20965838,16.8550243 C1.79495184,16.8550243 1.4295508,16.5549124 1.39780616,16.1412446 L0.57244558,5.52377175 C0.540025525,5.11010398 0.852743977,4.72144553 1.26745052,4.72144553 L1.16681326,4.72144553 L1.16681326,1.15863044 C1.16681326,0.630054949 1.68553415,0.250859489 2.20965838,0.250859489 L8.25802498,0.250859489 C8.65787233,0.250859489 9.12998939,0.554351042 9.31032594,0.911240886 L9.57171264,1.44116823 C9.76623297,1.82644704 10.2761734,2.16711462 10.70709,2.16711462 L19.9528846,2.16711462 C20.5654885,2.16711462 20.9491259,2.59294909 20.9491259,3.0586633 L20.9491259,4.72144553 Z M19.6725862,4.65412543 L19.6725862,4.18976308 C19.6725862,3.77474345 19.2511254,3.37662201 18.8364189,3.37662201 L3.27681854,3.37662201 C2.862112,3.37662201 2.44267753,3.77474345 2.44267753,4.18976308 L2.44267753,4.65412543 L19.6725862,4.65412543 Z" id="Combined-Shape" fill="#3895DF" fill-rule="nonzero"></path>
                <path d="M1.01682082,4.70539617 L21.5077977,4.70539617 L21.5077977,4.70539617 C22.0600825,4.70539617 22.5077977,5.15311142 22.5077977,5.70539617 C22.5077977,5.72786332 22.5070406,5.75032409 22.5055275,5.77274023 L21.7424266,17.0783923 C21.7135574,17.5061007 21.6611912,17.6586396 21.5704719,17.811592 C21.4797526,17.9645445 21.3530369,18.0829955 21.1943223,18.1632084 C21.0356077,18.2434213 20.8798886,18.2853961 20.451207,18.2853961 L2.10320845,18.2853961 C1.67517702,18.2853961 1.51968663,18.2435864 1.3611403,18.1636348 C1.20259398,18.0836832 1.07593305,17.9655896 0.985091268,17.8130217 C0.894249485,17.6604538 0.841670005,17.5082673 0.811741281,17.0812835 L0.0192683478,5.77531796 L0.0192683478,5.77531796 C-0.0193483899,5.22438494 0.395966016,4.74646043 0.946899035,4.70784369 C0.970170615,4.70621251 0.993492148,4.70539617 1.01682082,4.70539617 Z" id="Rectangle-3-Copy" fill="#66AFE9"></path>
            </g>
            <mask id="mask-2" fill="white">
                <use xlink:href="#path-1"></use>
            </mask>
            <use id="Imported-Layers" fill="#FFFFFF" xlink:href="#path-1"></use>
        </g>
    </g>
</svg>