<?xml version="1.0" encoding="UTF-8"?>
<svg width="24px" height="24px" viewBox="0 0 24 24" version="1.1" xmlns="http://www.w3.org/2000/svg" xmlns:xlink="http://www.w3.org/1999/xlink">
    <!-- Generator: Sketch 47.1 (45422) - http://www.bohemiancoding.com/sketch -->
    <title>folders / ei-folder-legal open</title>
    <desc>Created with Sketch.</desc>
    <defs>
        <path d="M15.4985187,18.2058969 L14.9363807,18.7732762 C14.7994497,18.9030004 14.6402428,18.9678624 14.4581049,18.9678624 C14.2720359,18.9678624 14.1147945,18.9030004 13.9850704,18.7732762 L12.0772082,16.8601727 C11.9435531,16.7337244 11.8773807,16.5764831 11.8773807,16.3871382 C11.8773807,16.2010693 11.9527255,16.0333451 12.1034151,15.8826555 L10.757691,14.5369313 L10.0953116,15.1993106 C10.0461737,15.2484485 9.98655303,15.2726899 9.91644958,15.2726899 C9.84634613,15.2726899 9.78738061,15.2484485 9.73824268,15.1993106 C9.7447944,15.2065175 9.76707026,15.227483 9.80375992,15.2622072 C9.84044958,15.2975865 9.86272544,15.3198623 9.86927716,15.3303451 C9.87648406,15.3408279 9.89417371,15.3611382 9.92234613,15.390621 C9.94986337,15.4207589 9.96755303,15.4443451 9.97475992,15.4620348 C9.98131165,15.4797244 9.99244958,15.5033106 10.0062082,15.5327934 C10.0199668,15.5629313 10.0297944,15.5917589 10.0350358,15.6192761 C10.0402772,15.6474486 10.0428979,15.6788968 10.0428979,15.7142761 C10.0428979,15.8472761 9.99375992,15.9665175 9.89548406,16.0713451 C9.8850013,16.0824831 9.85617371,16.1139313 9.8090013,16.1663451 C9.76182888,16.2187589 9.72841509,16.2547934 9.70941509,16.2737934 C9.68975992,16.2934486 9.65765647,16.3222762 9.6117944,16.3609313 C9.5665875,16.3995865 9.52793233,16.4264486 9.49648405,16.4421727 C9.46503577,16.4578969 9.4263806,16.473621 9.38051853,16.4893451 C9.33531163,16.5050693 9.28944956,16.5129313 9.24424267,16.5129313 C9.10403577,16.5129313 8.98479438,16.4644486 8.88651852,16.3661727 L6.74213916,14.2217934 C6.6438633,14.1235175 6.59472536,14.0042761 6.59472536,13.8640692 C6.59472536,13.8182071 6.60258743,13.7730002 6.61831157,13.7271382 C6.63403571,13.6819313 6.65041502,13.6432761 6.66613916,13.6118278 C6.6818633,13.5803795 6.70872537,13.5417244 6.74738054,13.4958623 C6.78603571,13.4506554 6.8148633,13.4178968 6.8338633,13.3988968 C6.85351847,13.3798968 6.88955296,13.346483 6.94196675,13.2993106 C6.99438055,13.251483 7.02582882,13.2226554 7.03631158,13.2121726 C7.14179434,13.1145519 7.26038055,13.0647588 7.39403573,13.0647588 C7.42875987,13.0647588 7.46020814,13.0680347 7.48838056,13.0732761 C7.51655297,13.0785175 7.54538056,13.0876899 7.57486332,13.1021037 C7.60500125,13.1158623 7.62858746,13.1263451 7.64627711,13.133552 C7.6633116,13.1407588 7.68755298,13.1577933 7.71703573,13.1859657 C7.74717367,13.2141382 7.76682884,13.2318278 7.7773116,13.2383795 C7.78779436,13.2455864 7.81072539,13.2672071 7.8461047,13.304552 C7.88082884,13.3412416 7.90179436,13.3628623 7.90900126,13.3700692 C7.85986332,13.3209313 7.83562194,13.2613106 7.83562194,13.1912071 C7.83562194,13.1211037 7.85986332,13.061483 7.90900126,13.0123451 L9.73824268,11.1831036 C9.78738061,11.1346209 9.84634613,11.1097243 9.91644958,11.1097243 C9.98655303,11.1097243 10.0461737,11.1346209 10.0953116,11.1831036 C10.0887599,11.1765519 10.0664841,11.1555864 10.0297944,11.1202071 C9.99310475,11.0854829 9.97082889,11.0625519 9.96427716,11.0520691 C9.95707027,11.0415864 9.93938061,11.021276 9.91186337,10.9917933 C9.88369096,10.9616554 9.8660013,10.9380691 9.8587944,10.9203795 C9.85158751,10.903345 9.84110475,10.8797588 9.82734613,10.8496209 C9.81358751,10.8201381 9.80375992,10.7913105 9.79851854,10.7631381 C9.79327716,10.7349657 9.79065647,10.7035174 9.79065647,10.6681381 C9.79065647,10.5351381 9.8397944,10.4158967 9.93807027,10.3110691 C9.94855303,10.3005864 9.97738061,10.2684829 10.024553,10.2160691 C10.0717254,10.1636553 10.1051392,10.1276208 10.1241392,10.1086208 C10.1437944,10.0889657 10.1758979,10.0601381 10.2217599,10.0214829 C10.2669668,9.98348291 10.305622,9.95596567 10.3370703,9.94024153 C10.3685186,9.9245174 10.4071737,9.90879326 10.4530358,9.89306912 C10.4982427,9.87734498 10.5441048,9.86948291 10.5893117,9.86948291 C10.7295186,9.86948291 10.8487599,9.91862084 10.9470358,10.0162415 L13.0914152,12.1612761 C13.189691,12.2588968 13.238829,12.3781381 13.238829,12.518345 C13.238829,12.5642071 13.2309669,12.609414 13.2152428,12.6552761 C13.1995186,12.700483 13.1831393,12.7391381 13.1674152,12.7705864 C13.151691,12.8020347 13.124829,12.8406899 13.0861738,12.8865519 C13.0475186,12.9317588 13.018691,12.9645175 12.999691,12.9835175 C12.9800359,13.0031726 12.9446565,13.0359313 12.8915876,13.0837588 C12.8391738,13.1309313 12.8077255,13.1597588 12.7972427,13.1702416 C12.69176,13.2685175 12.5725186,13.3176554 12.4395186,13.3176554 C12.4047945,13.3176554 12.3733462,13.3150347 12.3451738,13.3097933 C12.3170014,13.304552 12.2881738,13.2947244 12.258691,13.2803106 C12.2285531,13.266552 12.2049669,13.2560692 12.1872772,13.2488623 C12.1695876,13.2423106 12.1460014,13.2246209 12.1165186,13.1964485 C12.0863807,13.1682761 12.0667255,13.1512416 12.0562427,13.1440347 C12.04576,13.1368278 12.0228289,13.1152071 11.9874496,13.0785175 C11.9527255,13.0418278 11.93176,13.0195519 11.9245531,13.0123451 C11.973691,13.061483 11.9979324,13.1211037 11.9979324,13.1912071 C11.9979324,13.2613106 11.973691,13.3209313 11.9245531,13.3700692 L11.2621737,14.0324485 L12.6078979,15.3775175 C12.7585876,15.227483 12.9269669,15.1521382 13.1123807,15.1521382 C13.2945186,15.1521382 13.4543807,15.2163451 13.5906566,15.3460692 L15.4985187,17.2545865 C15.6282428,17.3908624 15.6931049,17.5507245 15.6931049,17.7322072 C15.6931049,17.9182762 15.6282428,18.0761728 15.4985187,18.2058969 L15.4985187,18.2058969 Z" id="path-1"></path>
    </defs>
    <g id="Page-1" stroke="none" stroke-width="1" fill="none" fill-rule="evenodd">
        <g id="folders-/-ei-folder-legal-open">
            <g id="Group-4" transform="translate(0.000000, 3.000000)">
                <path d="M20.9491259,4.72144553 L21.486083,4.72144553 C21.9007896,4.72144553 22.213508,5.07833537 22.1817634,5.49200315 L21.3557274,16.1669299 C21.3239827,16.5792458 20.9585817,16.8550243 20.5438752,16.8550243 L2.20965838,16.8550243 C1.79495184,16.8550243 1.4295508,16.5549124 1.39780616,16.1412446 L0.57244558,5.52377175 C0.540025525,5.11010398 0.852743977,4.72144553 1.26745052,4.72144553 L1.16681326,4.72144553 L1.16681326,1.15863044 C1.16681326,0.630054949 1.68553415,0.250859489 2.20965838,0.250859489 L8.25802498,0.250859489 C8.65787233,0.250859489 9.12998939,0.554351042 9.31032594,0.911240886 L9.57171264,1.44116823 C9.76623297,1.82644704 10.2761734,2.16711462 10.70709,2.16711462 L19.9528846,2.16711462 C20.5654885,2.16711462 20.9491259,2.59294909 20.9491259,3.0586633 L20.9491259,4.72144553 Z M19.6725862,4.65412543 L19.6725862,4.18976308 C19.6725862,3.77474345 19.2511254,3.37662201 18.8364189,3.37662201 L3.27681854,3.37662201 C2.862112,3.37662201 2.44267753,3.77474345 2.44267753,4.18976308 L2.44267753,4.65412543 L19.6725862,4.65412543 Z" id="Combined-Shape" fill="#3895DF" fill-rule="nonzero"></path>
                <path d="M1.01682082,4.70539617 L21.5077977,4.70539617 L21.5077977,4.70539617 C22.0600825,4.70539617 22.5077977,5.15311142 22.5077977,5.70539617 C22.5077977,5.72786332 22.5070406,5.75032409 22.5055275,5.77274023 L21.7424266,17.0783923 C21.7135574,17.5061007 21.6611912,17.6586396 21.5704719,17.811592 C21.4797526,17.9645445 21.3530369,18.0829955 21.1943223,18.1632084 C21.0356077,18.2434213 20.8798886,18.2853961 20.451207,18.2853961 L2.10320845,18.2853961 C1.67517702,18.2853961 1.51968663,18.2435864 1.3611403,18.1636348 C1.20259398,18.0836832 1.07593305,17.9655896 0.985091268,17.8130217 C0.894249485,17.6604538 0.841670005,17.5082673 0.811741281,17.0812835 L0.0192683478,5.77531796 L0.0192683478,5.77531796 C-0.0193483899,5.22438494 0.395966016,4.74646043 0.946899035,4.70784369 C0.970170615,4.70621251 0.993492148,4.70539617 1.01682082,4.70539617 Z" id="Rectangle-3-Copy" fill="#66AFE9"></path>
            </g>
            <mask id="mask-2" fill="white">
                <use xlink:href="#path-1"></use>
            </mask>
            <use id="Mask" fill="#FFFFFF" xlink:href="#path-1"></use>
        </g>
    </g>
</svg>