<?xml version="1.0" encoding="UTF-8"?>
<svg width="24px" height="24px" viewBox="0 0 24 24" version="1.1" xmlns="http://www.w3.org/2000/svg" xmlns:xlink="http://www.w3.org/1999/xlink">
    <!-- Generator: Sketch 47.1 (45422) - http://www.bohemiancoding.com/sketch -->
    <title>folders / ei-folder-generic-integration open</title>
    <desc>Created with Sketch.</desc>
    <defs></defs>
    <g id="Page-1" stroke="none" stroke-width="1" fill="none" fill-rule="evenodd">
        <g id="folders-/-ei-folder-generic-integration-open">
            <g id="Group-4" transform="translate(0.000000, 3.000000)">
                <path d="M20.9491259,4.72144553 L21.486083,4.72144553 C21.9007896,4.72144553 22.213508,5.07833537 22.1817634,5.49200315 L21.3557274,16.1669299 C21.3239827,16.5792458 20.9585817,16.8550243 20.5438752,16.8550243 L2.20965838,16.8550243 C1.79495184,16.8550243 1.4295508,16.5549124 1.39780616,16.1412446 L0.57244558,5.52377175 C0.540025525,5.11010398 0.852743977,4.72144553 1.26745052,4.72144553 L1.16681326,4.72144553 L1.16681326,1.15863044 C1.16681326,0.630054949 1.68553415,0.250859489 2.20965838,0.250859489 L8.25802498,0.250859489 C8.65787233,0.250859489 9.12998939,0.554351042 9.31032594,0.911240886 L9.57171264,1.44116823 C9.76623297,1.82644704 10.2761734,2.16711462 10.70709,2.16711462 L19.9528846,2.16711462 C20.5654885,2.16711462 20.9491259,2.59294909 20.9491259,3.0586633 L20.9491259,4.72144553 Z M19.6725862,4.65412543 L19.6725862,4.18976308 C19.6725862,3.77474345 19.2511254,3.37662201 18.8364189,3.37662201 L3.27681854,3.37662201 C2.862112,3.37662201 2.44267753,3.77474345 2.44267753,4.18976308 L2.44267753,4.65412543 L19.6725862,4.65412543 Z" id="Combined-Shape" fill="#3895DF" fill-rule="nonzero"></path>
                <path d="M1.01682082,4.70539617 L21.5077977,4.70539617 L21.5077977,4.70539617 C22.0600825,4.70539617 22.5077977,5.15311142 22.5077977,5.70539617 C22.5077977,5.72786332 22.5070406,5.75032409 22.5055275,5.77274023 L21.7424266,17.0783923 C21.7135574,17.5061007 21.6611912,17.6586396 21.5704719,17.811592 C21.4797526,17.9645445 21.3530369,18.0829955 21.1943223,18.1632084 C21.0356077,18.2434213 20.8798886,18.2853961 20.451207,18.2853961 L2.10320845,18.2853961 C1.67517702,18.2853961 1.51968663,18.2435864 1.3611403,18.1636348 C1.20259398,18.0836832 1.07593305,17.9655896 0.985091268,17.8130217 C0.894249485,17.6604538 0.841670005,17.5082673 0.811741281,17.0812835 L0.0192683478,5.77531796 L0.0192683478,5.77531796 C-0.0193483899,5.22438494 0.395966016,4.74646043 0.946899035,4.70784369 C0.970170615,4.70621251 0.993492148,4.70539617 1.01682082,4.70539617 Z" id="Rectangle-3-Copy" fill="#66AFE9"></path>
            </g>
            <path d="M8.80840961,18.4297886 C8.78763759,18.4302941 8.76680328,18.4305483 8.74590961,18.4305483 C7.3536918,18.4305483 6.22507627,17.3019327 6.22507627,15.9097149 C6.22507627,14.8766308 6.8465217,13.9886931 7.73597864,13.5993356 C7.72876076,13.5162567 7.72507627,13.4321661 7.72507627,13.3472149 C7.72507627,11.7593963 9.01225762,10.4722149 10.6000763,10.4722149 C11.7688361,10.4722149 12.7747069,11.1696254 13.2242388,12.1709963 C13.4706708,11.9934636 13.7731603,11.8888816 14.1000763,11.8888816 C14.9285034,11.8888816 15.6000763,12.5604545 15.6000763,13.3888816 C15.6000763,13.6564475 15.5300202,13.9076509 15.40725,14.1251498 C16.4380106,14.2919842 17.2250763,15.1860184 17.2250763,16.2638816 C17.2250763,17.4044199 16.3438176,18.3391292 15.2250763,18.4305483 L8.80840961,18.4297886 Z M10.5584096,14.7638816 L9.10507788,14.7638816 C9.03838998,14.8457084 9.0431737,14.9663705 9.11942903,15.0426259 L11.1228982,17.0460951 C11.2042575,17.1274543 11.3361668,17.1274543 11.4175261,17.0460951 L13.4209953,15.0426259 C13.4972506,14.9663705 13.5020343,14.8457084 13.4353464,14.7638816 L12.0167429,14.7638816 L12.0167429,12.8055483 C12.0167429,12.7365127 11.9607785,12.6805483 11.8917429,12.6805483 L10.6834096,12.6805483 C10.614374,12.6805483 10.5584096,12.7365127 10.5584096,12.8055483 L10.5584096,14.7638816 Z" id="Combined-Shape" fill="#FFFFFF"></path>
        </g>
    </g>
</svg>