<?xml version="1.0" encoding="UTF-8"?>
<svg width="24px" height="24px" viewBox="0 0 24 24" version="1.1" xmlns="http://www.w3.org/2000/svg" xmlns:xlink="http://www.w3.org/1999/xlink">
    <!-- Generator: Sketch 47.1 (45422) - http://www.bohemiancoding.com/sketch -->
    <title>folders / ei-folder-finance open</title>
    <desc>Created with Sketch.</desc>
    <defs>
        <path d="M13.2879008,17.3316158 C12.9469451,17.7044543 12.5034364,17.9344478 11.9580406,18.0222516 L11.9580406,18.9081524 C11.9580406,18.9553306 11.9427242,18.9939905 11.9120915,19.0247873 C11.8807928,19.0549289 11.841503,19.0699997 11.7935561,19.0699997 L11.0989922,19.0699997 C11.0543749,19.0699997 11.015751,19.0542736 10.9831205,19.0221663 C10.95049,18.9900589 10.9345077,18.9520543 10.9345077,18.9081524 L10.9345077,18.0222516 C10.7080918,17.99211 10.4896671,17.9396898 10.2785676,17.8656463 C10.0674681,17.7909476 9.89366067,17.7162488 9.7564793,17.6402396 C9.61929792,17.5642303 9.49210549,17.4836343 9.37556791,17.3971411 C9.25903033,17.311303 9.17978478,17.2477436 9.1364994,17.2077732 C9.09387994,17.1671476 9.06391314,17.137006 9.04659898,17.1166932 C8.98799723,17.0452707 8.98466759,16.9764692 9.03661005,16.9089782 L9.5660236,16.2255503 C9.58999705,16.1921324 9.62995279,16.1718196 9.68455897,16.1646118 C9.7358355,16.1580593 9.7771231,16.1731301 9.80775583,16.2104795 L9.8184107,16.2203083 C10.2059814,16.5544868 10.622187,16.765478 11.0683594,16.8532818 C11.1948859,16.8801471 11.3220784,16.8939074 11.4486049,16.8939074 C11.7269632,16.8939074 11.9713592,16.8211745 12.1817927,16.6763637 C12.3928922,16.5308978 12.498109,16.3251486 12.498109,16.058461 C12.498109,15.9641047 12.4728037,15.8749904 12.4208612,15.7904629 C12.3695847,15.7059354 12.3123148,15.6351681 12.2490515,15.577506 C12.1851224,15.520499 12.085233,15.4569396 11.9480516,15.3881381 C11.8108703,15.3186814 11.6976623,15.2649507 11.6084278,15.2262908 C11.5191934,15.1869757 11.382012,15.1325898 11.1968837,15.0611673 C11.063032,15.0074366 10.9578152,14.9655005 10.8805675,14.9347036 C10.8033197,14.904562 10.6981029,14.8600049 10.5642512,14.8010322 C10.4303994,14.7420595 10.3231849,14.6896393 10.2426075,14.6437717 C10.1620301,14.5985593 10.0654704,14.5382761 9.95226242,14.4642326 C9.83905449,14.3901891 9.74715629,14.3181114 9.67656782,14.2493099 C9.60664527,14.1798532 9.53206123,14.0972914 9.45281567,14.0009694 C9.37423605,13.9046473 9.31297058,13.8070148 9.27035113,13.7074164 C9.22773167,13.6078181 9.19177151,13.49577 9.16247063,13.3706168 C9.13316975,13.2461189 9.11851932,13.1144133 9.11851932,12.9761551 C9.11851932,12.5102708 9.28633342,12.1020488 9.62262757,11.7508336 C9.95892171,11.4002738 10.3964371,11.1742118 10.9345077,11.0726477 L10.9345077,10.1618473 C10.9345077,10.1179454 10.95049,10.0799408 10.9831205,10.0478334 C11.015751,10.0157261 11.0543749,10 11.0989922,10 L11.7935561,10 C11.841503,10 11.8807928,10.0150708 11.9120915,10.0452124 C11.9427242,10.0760092 11.9580406,10.1146691 11.9580406,10.1618473 L11.9580406,11.0529901 C12.1538237,11.0726477 12.3429475,11.1119628 12.5267439,11.1689698 C12.7098744,11.2266319 12.8590425,11.2829836 12.9742482,11.3386801 C13.088788,11.3943765 13.1980004,11.4572807 13.3005534,11.5287032 C13.4037724,11.5994704 13.4703653,11.6486143 13.501664,11.6754796 C13.5322967,11.702345 13.558268,11.7259341 13.5782458,11.7462469 C13.6368476,11.8071853 13.6455047,11.8714 13.6042171,11.9382357 L13.1873455,12.6773601 C13.1600424,12.7278145 13.1207526,12.7553351 13.0694761,12.7586114 C13.0215292,12.7684402 12.9749142,12.7566456 12.9302969,12.7232278 C12.920308,12.7127437 12.8950027,12.6924309 12.8557129,12.6622893 C12.8164231,12.6321477 12.7498302,12.5875906 12.6552682,12.5279626 C12.5607063,12.4689899 12.460817,12.4152593 12.3542683,12.3661154 C12.2477197,12.3169715 12.1205273,12.2737248 11.9713592,12.2344097 C11.8215251,12.1957498 11.6750207,12.1760923 11.5311801,12.1760923 C11.2055408,12.1760923 10.9398351,12.2488252 10.7340631,12.393636 C10.528291,12.5391019 10.425072,12.726504 10.425072,12.9558423 C10.425072,13.043646 10.4397225,13.1248973 10.4690233,13.1989408 C10.4983242,13.2729843 10.5489348,13.3430963 10.6208551,13.4086215 C10.6927755,13.4748019 10.7607002,13.5304984 10.8239635,13.5757108 C10.8872267,13.6215784 10.9831205,13.6739986 11.1123107,13.7329713 C11.240835,13.791944 11.344054,13.8378116 11.4232996,13.8692637 C11.5018792,13.9013711 11.6217464,13.947894 11.7835672,14.0088324 C11.9646999,14.0763234 12.103879,14.1293988 12.1997728,14.1680587 C12.2956666,14.2067185 12.4261887,14.2656912 12.5906731,14.3449767 C12.7558235,14.4249175 12.8850137,14.49634 12.9795757,14.5605547 C13.0734717,14.6247694 13.1800203,14.7086417 13.2978897,14.813482 C13.4164251,14.9183223 13.5076574,15.0251284 13.5709206,15.1352108 C13.6341839,15.2446379 13.6881241,15.3737225 13.7327414,15.5218095 C13.7773586,15.6705518 13.8000002,15.8291228 13.8000002,15.9981778 C13.8000002,16.5138612 13.6288564,16.9587774 13.2879008,17.3316158 L13.2879008,17.3316158 Z" id="path-1"></path>
    </defs>
    <g id="Page-1" stroke="none" stroke-width="1" fill="none" fill-rule="evenodd">
        <g id="folders-/-ei-folder-finance-open">
            <g id="Group-4" transform="translate(0.000000, 3.000000)">
                <path d="M20.9491259,4.72144553 L21.486083,4.72144553 C21.9007896,4.72144553 22.213508,5.07833537 22.1817634,5.49200315 L21.3557274,16.1669299 C21.3239827,16.5792458 20.9585817,16.8550243 20.5438752,16.8550243 L2.20965838,16.8550243 C1.79495184,16.8550243 1.4295508,16.5549124 1.39780616,16.1412446 L0.57244558,5.52377175 C0.540025525,5.11010398 0.852743977,4.72144553 1.26745052,4.72144553 L1.16681326,4.72144553 L1.16681326,1.15863044 C1.16681326,0.630054949 1.68553415,0.250859489 2.20965838,0.250859489 L8.25802498,0.250859489 C8.65787233,0.250859489 9.12998939,0.554351042 9.31032594,0.911240886 L9.57171264,1.44116823 C9.76623297,1.82644704 10.2761734,2.16711462 10.70709,2.16711462 L19.9528846,2.16711462 C20.5654885,2.16711462 20.9491259,2.59294909 20.9491259,3.0586633 L20.9491259,4.72144553 Z M19.6725862,4.65412543 L19.6725862,4.18976308 C19.6725862,3.77474345 19.2511254,3.37662201 18.8364189,3.37662201 L3.27681854,3.37662201 C2.862112,3.37662201 2.44267753,3.77474345 2.44267753,4.18976308 L2.44267753,4.65412543 L19.6725862,4.65412543 Z" id="Combined-Shape" fill="#3895DF" fill-rule="nonzero"></path>
                <path d="M1.01682082,4.70539617 L21.5077977,4.70539617 L21.5077977,4.70539617 C22.0600825,4.70539617 22.5077977,5.15311142 22.5077977,5.70539617 C22.5077977,5.72786332 22.5070406,5.75032409 22.5055275,5.77274023 L21.7424266,17.0783923 C21.7135574,17.5061007 21.6611912,17.6586396 21.5704719,17.811592 C21.4797526,17.9645445 21.3530369,18.0829955 21.1943223,18.1632084 C21.0356077,18.2434213 20.8798886,18.2853961 20.451207,18.2853961 L2.10320845,18.2853961 C1.67517702,18.2853961 1.51968663,18.2435864 1.3611403,18.1636348 C1.20259398,18.0836832 1.07593305,17.9655896 0.985091268,17.8130217 C0.894249485,17.6604538 0.841670005,17.5082673 0.811741281,17.0812835 L0.0192683478,5.77531796 L0.0192683478,5.77531796 C-0.0193483899,5.22438494 0.395966016,4.74646043 0.946899035,4.70784369 C0.970170615,4.70621251 0.993492148,4.70539617 1.01682082,4.70539617 Z" id="Rectangle-3-Copy" fill="#66AFE9"></path>
            </g>
            <mask id="mask-2" fill="white">
                <use xlink:href="#path-1"></use>
            </mask>
            <use id="Mask" fill="#FFFFFF" xlink:href="#path-1"></use>
        </g>
    </g>
</svg>