<?xml version="1.0" encoding="UTF-8"?>
<svg width="24px" height="24px" viewBox="0 0 24 24" version="1.1" xmlns="http://www.w3.org/2000/svg" xmlns:xlink="http://www.w3.org/1999/xlink">
    <!-- Generator: Sketch 47.1 (45422) - http://www.bohemiancoding.com/sketch -->
    <title>folders / ei-folder-emergency2</title>
    <desc>Created with Sketch.</desc>
    <defs>
        <path d="M8.52562443,12.3637576 L7.44027533,13.4491067 C7.41405917,13.4936742 7.39767407,13.5343092 7.39046462,13.5710119 L7.39046462,13.7381399 L9.52642641,13.7381399 L9.52642641,12.3139469 L8.64752958,12.3139469 C8.59575266,12.3211563 8.55511761,12.3381968 8.52562443,12.3637576 L8.52562443,12.3637576 Z M8.81531302,15.8747571 C8.6186918,15.8747571 8.45090837,15.9442299 8.31196271,16.0831756 C8.17301705,16.2221212 8.10354422,16.3905601 8.10354422,16.5865259 C8.10354422,16.7831471 8.17236165,16.9509305 8.31196271,17.0898762 C8.45156377,17.2288218 8.6186918,17.2989501 8.81531302,17.2989501 C9.01193423,17.2989501 9.17971767,17.2294772 9.31866332,17.0898762 C9.45826439,16.9509305 9.52708181,16.7831471 9.52708181,16.5865259 C9.52708181,16.3899047 9.45826439,16.2221212 9.31866332,16.0831756 C9.17971767,15.9442299 9.01193423,15.8747571 8.81531302,15.8747571 Z M13.7996608,15.8747571 C13.6030396,15.8747571 13.4352561,15.9442299 13.2963105,16.0831756 C13.1573648,16.2221212 13.087892,16.3905601 13.087892,16.5865259 C13.087892,16.7831471 13.1567094,16.9509305 13.2963105,17.0898762 C13.4359115,17.2288218 13.6030396,17.2989501 13.7996608,17.2989501 C13.996282,17.2989501 14.1640654,17.2294772 14.3030111,17.0898762 C14.4426122,16.9509305 14.5114296,16.7831471 14.5114296,16.5865259 C14.5114296,16.3899047 14.4426122,16.2221212 14.3030111,16.0831756 C14.1640654,15.9442299 13.996282,15.8747571 13.7996608,15.8747571 Z M16.6487022,16.2306415 C16.6487022,16.3276413 16.6126549,16.4108776 16.5425267,16.4810058 C16.4723985,16.551134 16.3891622,16.5865259 16.2921624,16.5865259 L15.2245092,16.5865259 C15.2245092,16.9797683 15.0849081,17.3153352 14.8070168,17.5938819 C14.5291255,17.8724286 14.1935586,18.0107189 13.8003162,18.0107189 C13.4070738,18.0107189 13.0715069,17.8717732 12.7929602,17.5938819 C12.5144135,17.3159906 12.3761232,16.9804237 12.3761232,16.5865259 L10.2401614,16.5865259 C10.2401614,16.9797683 10.1005604,17.3153352 9.82266904,17.5938819 C9.54477772,17.8724286 9.20921085,18.0107189 8.81596842,18.0107189 C8.42272599,18.0107189 8.08715912,17.8717732 7.80926781,17.5938819 C7.53137649,17.3159906 7.39177543,16.9804237 7.39177543,16.5865259 L6.68000664,16.5865259 C6.58300684,16.5865259 6.49977052,16.551134 6.42964229,16.4810058 C6.35951406,16.4108776 6.32346684,16.3276413 6.32346684,16.2306415 C6.32346684,16.1342971 6.35951406,16.0510608 6.42964229,15.9802771 C6.49977052,15.9094935 6.58300684,15.8747571 6.68000664,15.8747571 L6.68000664,13.5605254 C6.68000664,13.464181 6.70425659,13.3560393 6.75210108,13.2380666 C6.79994558,13.1200939 6.85958735,13.0244049 6.93037098,12.9542766 L8.03144978,11.8525424 C8.10157801,11.7824142 8.1966116,11.7227724 8.31523973,11.6749279 C8.43386786,11.6270835 8.54135413,11.6021781 8.63769852,11.6021781 L9.52773722,11.6021781 L9.52773722,9.82210071 C9.52773722,9.72575632 9.56312903,9.64252 9.63391267,9.57173637 C9.70469631,9.50095273 9.78727722,9.46621631 9.88362161,9.46621631 L16.2928178,9.46621631 C16.3898176,9.46621631 16.4730539,9.50160813 16.5431821,9.57173637 C16.6133104,9.6418646 16.6493576,9.72575632 16.6493576,9.82210071 L16.6493576,16.2312969 L16.6487022,16.2306415 Z M15.0455839,11.6015227 L13.7996608,11.6015227 L13.7996608,10.3555996 C13.7996608,10.3038227 13.7832757,10.2612214 13.7498501,10.2277958 C13.7164245,10.1943702 13.6731678,10.1779851 13.6213909,10.1779851 L12.5537377,10.1779851 C12.5013054,10.1779851 12.4587041,10.1943702 12.4252785,10.2277958 C12.3918529,10.2612214 12.3754678,10.3038227 12.3754678,10.3555996 L12.3754678,11.6015227 L11.1295447,11.6015227 C11.0777678,11.6015227 11.0351665,11.6179078 11.0010855,11.6519888 C10.9670045,11.6860698 10.9512748,11.7280157 10.9512748,11.7797926 L10.9512748,12.8481012 C10.9512748,12.8998781 10.9676599,12.9424794 11.0010855,12.975905 C11.0345111,13.0093306 11.0777678,13.0257157 11.1295447,13.0257157 L12.3754678,13.0257157 L12.3754678,14.2716388 C12.3754678,14.3240711 12.3918529,14.3666724 12.4252785,14.400098 C12.4587041,14.4335236 12.5013054,14.4499087 12.5537377,14.4499087 L13.6213909,14.4499087 C13.6731678,14.4499087 13.7164245,14.4335236 13.7498501,14.400098 C13.7832757,14.3666724 13.7996608,14.3240711 13.7996608,14.2716388 L13.7996608,13.0257157 L15.0455839,13.0257157 C15.0973608,13.0257157 15.1399621,13.0093306 15.1740431,12.975905 C15.2081241,12.9424794 15.2238538,12.8998781 15.2238538,12.8481012 L15.2238538,11.7797926 C15.2238538,11.7280157 15.2074687,11.6854144 15.1740431,11.6519888 C15.1406175,11.6185632 15.0973608,11.6015227 15.0455839,11.6015227 Z" id="path-1"></path>
    </defs>
    <g id="Page-1" stroke="none" stroke-width="1" fill="none" fill-rule="evenodd">
        <g id="folders-/-ei-folder-emergency2">
            <path d="M1.00902936,5.625567 L1.00902936,3.98344973 C1.00902936,3.41080811 1.55737615,3 2.11143487,3 L8.50524405,3 C8.92792803,3 9.42700928,3.32879295 9.61764547,3.71543588 L9.89396084,4.28954205 C10.0995909,4.70694067 10.6386558,5.07600892 11.0941834,5.07600892 L20.8680364,5.07600892 C21.5156283,5.07600892 21.9211764,5.53734423 21.9211764,6.04188397 L21.9211764,7.84328853 L21.9249932,7.84328853 L21.9249932,19.5191923 L21.9390222,19.5191923 L21.8532213,20.2429566 C21.8196636,20.6896464 21.4333933,20.9884159 20.9950015,20.9884159 L1.89810102,20.9884159 C1.45970919,20.9884159 1.07343886,20.6632844 1.03988118,20.21513 L1,19.5191923 L1.01827516,19.5191923 L1.01827516,7.85028997 C1.04996965,7.8456785 1.08238602,7.84328853 1.11541435,7.84328853 L1.01827516,7.84328853 L1.01827516,5.625567 L1.00902936,5.625567 Z" id="Combined-Shape-Copy" fill="#3895DF" fill-rule="nonzero"></path>
            <rect id="Rectangle-3-Copy-2" fill="#66AFE9" x="1" y="6" width="20.9400005" height="14.9495225" rx="1"></rect>
            <mask id="mask-2" fill="white">
                <use xlink:href="#path-1"></use>
            </mask>
            <use id="Shape" fill="#FFFFFF" fill-rule="nonzero" xlink:href="#path-1"></use>
        </g>
    </g>
</svg>