<?xml version="1.0" encoding="UTF-8"?>
<svg width="24px" height="24px" viewBox="0 0 24 24" version="1.1" xmlns="http://www.w3.org/2000/svg" xmlns:xlink="http://www.w3.org/1999/xlink">
    <!-- Generator: Sketch 47.1 (45422) - http://www.bohemiancoding.com/sketch -->
    <title>folders / ei-folder-fidelity open</title>
    <desc>Created with Sketch.</desc>
    <defs>
        <path d="M14.3943828,18.0476169 L13.2659971,16.1676198 L15.0409042,17.1570155 C15.0505899,17.1570155 15.0559171,17.1463612 15.0505899,17.1357069 L12.7260185,15.1283426 L15.7319799,15.5879298 C15.7426342,15.5879298 15.7469928,15.5830869 15.7469928,15.5777598 L15.7276214,15.5627469 L12.8926128,14.5685083 L15.8012328,13.8658098 C15.8394914,14.1103741 15.8646742,14.3592969 15.8646742,14.6149998 C15.8646742,15.9797169 15.2937014,17.2044755 14.3943828,18.0476169 Z M7.12428558,14.6149998 C7.12428558,12.0783112 9.08467417,10.0142855 11.4944799,10.0142855 C13.6543942,10.0142855 15.4486728,11.6744169 15.7983271,13.8454698 L12.8219071,14.0396683 L15.1876428,12.2478112 C15.1924856,12.2381255 15.1721456,12.2332826 15.1668185,12.2434526 L12.5090585,13.5912198 L13.9764442,11.0027126 C13.9764442,10.998354 13.9764442,10.9872155 13.9672428,10.9930269 L12.0499556,13.242534 L12.4180128,10.286454 C12.4180128,10.2811269 12.4078428,10.276284 12.3976728,10.2811269 L11.5157885,13.1514883 L10.743837,10.1954083 C10.7385099,10.1905655 10.7278556,10.1852383 10.723497,10.1954083 L10.9360985,13.2619055 L9.11518417,10.8918112 C9.10888846,10.886484 9.10452988,10.8918112 9.09920274,10.896654 L10.4765113,13.5190612 L7.8729913,12.096714 C7.86863273,12.096714 7.85846273,12.1020412 7.85846273,12.1063998 L10.1733485,14.0081898 L7.21823701,13.6963098 C7.20758273,13.7016369 7.20758273,13.7103541 7.21823701,13.7156812 L10.0832713,14.5534955 L7.23324987,15.3908255 C7.22792273,15.3951841 7.22792273,15.4058383 7.23324987,15.4106812 L10.1733485,15.0682912 L7.86330559,17.0301326 C7.85846273,17.0301326 7.85313559,17.0403026 7.86330559,17.0456298 L7.89429988,17.0354598 L9.74427132,16.0668884 L10.1791599,15.3758126 L10.672647,15.3758126 L10.330257,15.1336698 L11.4746242,13.2972583 L10.7995299,15.4668583 L10.8009828,15.4678269 L12.5279456,15.4678269 L13.0325713,15.7947198 L10.7244656,15.7947198 L9.74330275,18.8273169 C8.20375845,18.1154169 7.12428558,16.4964498 7.12428558,14.6149998 Z M11.4944799,9.52999973 C8.81783274,9.52999973 6.63999987,11.8109855 6.63999987,14.6149998 C6.63999987,17.4185298 8.81783274,19.6999998 11.4944799,19.6999998 C14.1716114,19.6999998 16.3489599,17.4185298 16.3489599,14.6149998 C16.3489599,11.8109855 14.1716114,9.52999973 11.4944799,9.52999973 L11.4944799,9.52999973 Z" id="path-1"></path>
    </defs>
    <g id="Page-1" stroke="none" stroke-width="1" fill="none" fill-rule="evenodd">
        <g id="folders-/-ei-folder-fidelity-open">
            <g id="Group-4" transform="translate(0.000000, 3.000000)">
                <path d="M20.9491259,4.72144553 L21.486083,4.72144553 C21.9007896,4.72144553 22.213508,5.07833537 22.1817634,5.49200315 L21.3557274,16.1669299 C21.3239827,16.5792458 20.9585817,16.8550243 20.5438752,16.8550243 L2.20965838,16.8550243 C1.79495184,16.8550243 1.4295508,16.5549124 1.39780616,16.1412446 L0.57244558,5.52377175 C0.540025525,5.11010398 0.852743977,4.72144553 1.26745052,4.72144553 L1.16681326,4.72144553 L1.16681326,1.15863044 C1.16681326,0.630054949 1.68553415,0.250859489 2.20965838,0.250859489 L8.25802498,0.250859489 C8.65787233,0.250859489 9.12998939,0.554351042 9.31032594,0.911240886 L9.57171264,1.44116823 C9.76623297,1.82644704 10.2761734,2.16711462 10.70709,2.16711462 L19.9528846,2.16711462 C20.5654885,2.16711462 20.9491259,2.59294909 20.9491259,3.0586633 L20.9491259,4.72144553 Z M19.6725862,4.65412543 L19.6725862,4.18976308 C19.6725862,3.77474345 19.2511254,3.37662201 18.8364189,3.37662201 L3.27681854,3.37662201 C2.862112,3.37662201 2.44267753,3.77474345 2.44267753,4.18976308 L2.44267753,4.65412543 L19.6725862,4.65412543 Z" id="Combined-Shape" fill="#3895DF" fill-rule="nonzero"></path>
                <path d="M1.01682082,4.70539617 L21.5077977,4.70539617 L21.5077977,4.70539617 C22.0600825,4.70539617 22.5077977,5.15311142 22.5077977,5.70539617 C22.5077977,5.72786332 22.5070406,5.75032409 22.5055275,5.77274023 L21.7424266,17.0783923 C21.7135574,17.5061007 21.6611912,17.6586396 21.5704719,17.811592 C21.4797526,17.9645445 21.3530369,18.0829955 21.1943223,18.1632084 C21.0356077,18.2434213 20.8798886,18.2853961 20.451207,18.2853961 L2.10320845,18.2853961 C1.67517702,18.2853961 1.51968663,18.2435864 1.3611403,18.1636348 C1.20259398,18.0836832 1.07593305,17.9655896 0.985091268,17.8130217 C0.894249485,17.6604538 0.841670005,17.5082673 0.811741281,17.0812835 L0.0192683478,5.77531796 L0.0192683478,5.77531796 C-0.0193483899,5.22438494 0.395966016,4.74646043 0.946899035,4.70784369 C0.970170615,4.70621251 0.993492148,4.70539617 1.01682082,4.70539617 Z" id="Rectangle-3-Copy" fill="#66AFE9"></path>
            </g>
            <mask id="mask-2" fill="white">
                <use xlink:href="#path-1"></use>
            </mask>
            <use id="Imported-Layers" fill="#FFFFFF" xlink:href="#path-1"></use>
        </g>
    </g>
</svg>