<?xml version="1.0" encoding="UTF-8"?>
<svg width="38px" height="38px" viewBox="0 0 38 38" version="1.1" xmlns="http://www.w3.org/2000/svg" xmlns:xlink="http://www.w3.org/1999/xlink">
    <!-- Generator: Sketch 47.1 (45422) - http://www.bohemiancoding.com/sketch -->
    <title>folders / ei-folder-fidelity-V3</title>
    <desc>Created with Sketch.</desc>
    <defs>
        <path d="M22.8042877,26.2677121 L21.2320924,23.6482863 L23.7050948,25.0268249 C23.7185901,25.0268249 23.7260124,25.0119802 23.7185901,24.9971354 L20.4797329,22.2002473 L24.6679801,22.8405963 C24.6828248,22.8405963 24.6888977,22.8338487 24.6888977,22.8264263 L24.6619072,22.8055087 L20.711851,21.4202225 L24.764471,20.441143 C24.8177772,20.7818977 24.8528648,21.1287254 24.8528648,21.4849997 C24.8528648,23.3864787 24.0573205,25.0929516 22.8042877,26.2677121 Z M12.6747619,21.4849997 C12.6747619,17.9505968 15.4061981,15.0747615 18.7638134,15.0747615 C21.7732515,15.0747615 24.2732444,17.3878453 24.7604224,20.412803 L20.6133358,20.6833825 L23.9095477,18.1867634 C23.9162953,18.1732682 23.8879553,18.1665206 23.8805329,18.1806906 L20.1774396,20.058553 L22.2219682,16.4519506 C22.2219682,16.4458777 22.2219682,16.4303582 22.2091477,16.4384553 L19.5377653,19.5727244 L20.0505843,15.4539777 C20.0505843,15.4465553 20.0364143,15.4398077 20.0222443,15.4465553 L18.7935029,19.4458692 L17.7179324,15.3271225 C17.71051,15.3203749 17.6956653,15.3129525 17.6895924,15.3271225 L17.9858129,19.5997149 L15.4487081,16.2974301 C15.4399362,16.2900077 15.4338634,16.2974301 15.426441,16.3041777 L17.3454638,19.9580135 L13.7179438,17.9762377 C13.711871,17.9762377 13.697701,17.9836601 13.697701,17.989733 L16.9230629,20.639523 L12.8056657,20.2049763 C12.790821,20.2123987 12.790821,20.2245444 12.8056657,20.2319668 L16.7975572,21.3993049 L12.8265833,22.5659682 C12.819161,22.5720411 12.819161,22.5868859 12.8265833,22.5936335 L16.9230629,22.1165768 L13.7044486,24.8500373 C13.697701,24.8500373 13.6902786,24.8642073 13.7044486,24.8716297 L13.7476333,24.8574597 L16.3252238,23.5079359 L16.93116,22.5450506 L17.6187424,22.5450506 L17.1416857,22.2076697 L18.7361481,19.6489725 L17.79553,22.6719059 L17.7975543,22.6732554 L20.2037553,22.6732554 L20.9068572,23.1287197 L17.6909419,23.1287197 L16.3238743,27.3540787 C14.1788062,26.3621787 12.6747619,24.1064497 12.6747619,21.4849997 Z M18.7638134,14.3999996 C15.0344043,14.3999996 12,17.5781282 12,21.4849997 C12,25.3911963 15.0344043,28.5699997 18.7638134,28.5699997 C22.4938972,28.5699997 25.5276267,25.3911963 25.5276267,21.4849997 C25.5276267,17.5781282 22.4938972,14.3999996 18.7638134,14.3999996 L18.7638134,14.3999996 Z" id="path-1"></path>
    </defs>
    <g id="drag-to-move-1A-hover" stroke="none" stroke-width="1" fill="none" fill-rule="evenodd">
        <g id="folders-/-ei-folder-fidelity-V3">
            <g id="folders-/-ei-folder-legal" transform="translate(3.000000, 5.000000)" fill-rule="nonzero" fill="#367FC6">
                <path d="M31.9735952,15.6051615 C31.9910991,15.8522105 32,16.1016363 32,16.3531409 C32,16.6046456 31.9910991,16.8540713 31.9735952,17.1011203 L31.9735952,24.6112054 L31.9950316,24.6112054 L31.8639271,25.6895094 C31.8126506,26.3550125 31.2224258,26.8001359 30.5525588,26.8001359 L1.37230718,26.8001359 C0.702440156,26.8001359 0.112215303,26.3157369 0.060938837,25.6480519 L6.07153217e-16,24.6112054 L0.0279246186,24.6112054 L0.0279246186,17.1222691 C0.00941622561,16.8683084 3.16795747e-17,16.6118243 0,16.3531409 C-3.16795747e-17,16.0944576 0.00941622561,15.8379735 0.0279246186,15.5840127 L0.0279246186,7.22622997 C0.0763541228,7.21935955 0.125886656,7.21579885 0.176354261,7.21579885 L0.0279246186,7.21579885 L0.0279246186,3.91171477 L0.013796954,3.91171477 L0.013796954,1.46519774 C0.013796954,0.612044625 0.851676227,0 1.69828341,0 L11.4680867,0 C12.1139519,0 12.876553,0.489853898 13.167847,1.0658959 L13.5900596,1.92123099 C13.9042643,2.54309451 14.7279607,3.09295279 15.4240115,3.09295279 L30.3585549,3.09295279 C31.3480816,3.09295279 31.9677631,3.78027563 31.9677631,4.5319668 L31.9677631,7.21579885 L31.9735952,7.21579885 L31.9735952,15.6051615 Z M21.9951109,5.93045593 L30.004295,5.93045593 C30.004295,5.26058891 29.3235181,5.16129032 28.6536511,5.16129032 L3.52054584,5.16129032 C2.85067882,5.16129032 2.17317487,5.26058891 2.17317487,5.93045593 L10.0048891,5.93045593 C10.1462993,5.92477117 10.2884342,5.92190153 10.4312394,5.92190153 L10.4312394,5.92190153 L21.5687606,5.92190153 L21.5687606,5.92190153 C21.7115658,5.92190153 21.8537007,5.92477117 21.9951109,5.93045593 Z" id="Combined-Shape"></path>
            </g>
            <mask id="mask-2" fill="white">
                <use xlink:href="#path-1"></use>
            </mask>
            <use id="Imported-Layers" fill="#FFFFFF" xlink:href="#path-1"></use>
        </g>
    </g>
</svg>