<?xml version="1.0" encoding="UTF-8"?>
<svg width="24px" height="24px" viewBox="0 0 24 24" version="1.1" xmlns="http://www.w3.org/2000/svg" xmlns:xlink="http://www.w3.org/1999/xlink">
    <!-- Generator: Sketch 47.1 (45422) - http://www.bohemiancoding.com/sketch -->
    <title>folders / ei-folder-black-diamond</title>
    <desc>Created with Sketch.</desc>
    <defs>
        <path d="M11.2407142,9.12571429 L6.76571429,13.6007142 L11.2407142,18.0757141 L15.7157141,13.6007142 L11.2407142,9.12571429 Z M10.1742353,14.7837601 L9.64617399,14.7837601 L9.64617399,12.6234154 L10.1742353,12.6234154 C10.6671423,12.6234154 10.8780676,12.8677313 10.8780676,13.1808998 C10.8780676,13.3904192 10.772605,13.5644017 10.5609317,13.6339947 C10.8077592,13.7035878 10.9835303,13.8775703 10.9835303,14.1566827 C10.9835303,14.6097776 10.6663943,14.7837601 10.1734873,14.7837601 L10.1742353,14.7837601 Z M10.1742353,13.7731808 L9.92815572,13.7731808 L9.92815572,14.5394442 L10.1742353,14.5394442 C10.4906232,14.5394442 10.6671423,14.4002582 10.6671423,14.1559423 C10.6671423,13.9116264 10.4906232,13.7724404 10.1742353,13.7724404 L10.1742353,13.7731808 Z M10.1742353,12.8677313 L9.92815572,12.8677313 L9.92815572,13.5296052 L10.139081,13.5296052 C10.4210628,13.5296052 10.5968339,13.3904192 10.5968339,13.1816402 C10.5968339,13.0076576 10.456217,12.8684716 10.1742353,12.8684716 L10.1742353,12.8677313 Z M12.0115256,14.7837601 L11.3950245,14.7837601 L11.3950245,12.6234154 L12.0115256,12.6234154 C12.7655929,12.6234154 13.1418988,13.0765103 13.1418988,13.7035878 C13.1761084,14.3654617 12.7648651,14.7830198 12.0115256,14.7830198 L12.0115256,14.7837601 Z M12.0457352,12.9025278 L11.703639,12.9025278 L11.703639,14.5401846 L12.0457352,14.5401846 C12.5596074,14.5401846 12.8674939,14.2618126 12.8674939,13.7391246 C12.8674939,13.1816402 12.5253977,12.9032681 12.0457352,12.9032681 L12.0457352,12.9025278 Z" id="path-1"></path>
    </defs>
    <g id="Page-1" stroke="none" stroke-width="1" fill="none" fill-rule="evenodd">
        <g id="folders-/-ei-folder-black-diamond">
            <path d="M1.00902936,5.625567 L1.00902936,3.98344973 C1.00902936,3.41080811 1.55737615,3 2.11143487,3 L8.50524405,3 C8.92792803,3 9.42700928,3.32879295 9.61764547,3.71543588 L9.89396084,4.28954205 C10.0995909,4.70694067 10.6386558,5.07600892 11.0941834,5.07600892 L20.8680364,5.07600892 C21.5156283,5.07600892 21.9211764,5.53734423 21.9211764,6.04188397 L21.9211764,7.84328853 L21.9249932,7.84328853 L21.9249932,19.5191923 L21.9390222,19.5191923 L21.8532213,20.2429566 C21.8196636,20.6896464 21.4333933,20.9884159 20.9950015,20.9884159 L1.89810102,20.9884159 C1.45970919,20.9884159 1.07343886,20.6632844 1.03988118,20.21513 L1,19.5191923 L1.01827516,19.5191923 L1.01827516,7.85028997 C1.04996965,7.8456785 1.08238602,7.84328853 1.11541435,7.84328853 L1.01827516,7.84328853 L1.01827516,5.625567 L1.00902936,5.625567 Z" id="Combined-Shape-Copy" fill="#3895DF" fill-rule="nonzero"></path>
            <rect id="Rectangle-3-Copy-2" fill="#66AFE9" x="1" y="6" width="20.9400005" height="14.9495225" rx="1"></rect>
            <mask id="mask-2" fill="white">
                <use xlink:href="#path-1"></use>
            </mask>
            <use id="Shape" fill="#FFFFFF" fill-rule="nonzero" xlink:href="#path-1"></use>
        </g>
    </g>
</svg>